<?xml version="1.0" standalone="no"?>
<!DOCTYPE svg PUBLIC "-//W3C//DTD SVG 1.1//EN" "http://www.w3.org/Graphics/SVG/1.1/DTD/svg11.dtd" >
<svg xmlns="http://www.w3.org/2000/svg" xmlns:xlink="http://www.w3.org/1999/xlink" version="1.1">
<metadata>
Created by FontForge 20170731 at Wed Sep 22 18:22:56 2021
 By Aleksey,,,
Copyright (c) 2015 by Radomir Tinkov. All rights reserved.
</metadata>
<defs>
<font id="Gilroy-BlackItalic" horiz-adv-x="1183" >
  <font-face 
    font-family="Gilroy Black Italic"
    font-weight="900"
    font-style="italic"
    font-stretch="normal"
    units-per-em="2048"
    panose-1="0 0 10 0 0 0 0 0 0 0"
    ascent="1638"
    descent="-410"
    x-height="1024"
    cap-height="1434"
    bbox="-848 -567 2398.94 2017"
    underline-thickness="102"
    underline-position="-307"
    slope="-10"
    unicode-range="U+0020-FB02"
  />
<missing-glyph horiz-adv-x="1024" 
d="M840 1638v-2048h-650v2048h650zM682 1501h-338v-67h133v-76h-135v-68h340v68h-135v76h135v67zM547 1237h-205v-213h340v70h-135v143zM477 1167v-73h-67v73h67zM682 969h-340v-68h135v-76h-135v-67h205v143h135v68zM682 846h-68v-135h-272v-70h340v205zM682 596h-205v-115
h70v47h67v-96h-204v164h-68v-231h340v231zM682 242h-340v-232h340v232zM614 174v-96h-204v96h204zM682 -37h-340v-67h143l-143 -97v-67h340v67h-209l143 97h66v67z" />
    <glyph glyph-name="fi" unicode="fi" horiz-adv-x="1171" 
d="M1163 1024l-180 -1024h-340l123 698h-234l-122 -698h-340l123 698h-127l55 326h129q39 228 184.5 334t409.5 106q134 0 260 -30l-51 -297q-111 18 -224 18q-215 0 -239 -131h573z" />
    <glyph glyph-name="fl" unicode="fl" horiz-adv-x="1171" 
d="M844 1464q186 0 391 -41l-252 -1423h-340l207 1174q-20 2 -62 2q-78 0 -130.5 -38t-67.5 -114h135l-57 -326h-136l-122 -698h-340l123 698h-127l55 326h129q39 228 184.5 334t409.5 106z" />
    <glyph glyph-name="f_f" unicode="ff" horiz-adv-x="1253" 
d="M1370 1169q-173 13 -196 -125l-5 -20h174l-55 -326h-176l-123 -698h-342l123 698h-238l-122 -698h-340l123 698h-127l55 326h129q40 232 189 343.5t405 96.5l-56 -315q-172 13 -198 -125h237l4 20q40 232 189 344t405 97z" />
    <glyph glyph-name="f_f_i" unicode="ffi" horiz-adv-x="1751" 
d="M1743 1024l-180 -1024h-342l122 698h-231l-123 -698h-342l123 698h-238l-122 -698h-340l123 698h-127l55 326h129q40 228 189.5 341.5t404.5 98.5l-56 -315q-172 13 -198 -125h237l4 20q40 223 185 332t399 109q141 0 271 -31l-52 -297q-117 19 -223 19q-215 0 -237 -132
l-5 -20h574z" />
    <glyph glyph-name="f_f_l" unicode="ffl" horiz-adv-x="1751" 
d="M1425 1485q187 0 392 -41l-254 -1444h-342l211 1194q-20 2 -62 2q-78 0 -130.5 -38.5t-65.5 -113.5l-5 -20h134l-56 -326h-135l-123 -698h-342l123 698h-238l-122 -698h-340l123 698h-127l55 326h129q40 232 189 343.5t405 96.5l-56 -315q-172 13 -198 -125h237l4 20
q39 228 185 334.5t409 106.5z" />
    <glyph glyph-name=".notdef" horiz-adv-x="1024" 
d="M840 1638v-2048h-650v2048h650zM682 1501h-338v-67h133v-76h-135v-68h340v68h-135v76h135v67zM547 1237h-205v-213h340v70h-135v143zM477 1167v-73h-67v73h67zM682 969h-340v-68h135v-76h-135v-67h205v143h135v68zM682 846h-68v-135h-272v-70h340v205zM682 596h-205v-115
h70v47h67v-96h-204v164h-68v-231h340v231zM682 242h-340v-232h340v232zM614 174v-96h-204v96h204zM682 -37h-340v-67h143l-143 -97v-67h340v67h-209l143 97h66v67z" />
    <glyph glyph-name=".null" horiz-adv-x="0" 
 />
    <glyph glyph-name="nonmarkingreturn" horiz-adv-x="682" 
 />
    <glyph glyph-name="space" unicode=" " horiz-adv-x="464" 
 />
    <glyph glyph-name="exclam" unicode="!" horiz-adv-x="602" 
d="M162 522l20 502l72 410h418l-72 -410l-156 -502h-282zM205 -29q-87 0 -138 63.5t-36 153.5q15 88 86.5 148.5t163.5 60.5q89 0 140 -64.5t36 -152.5q-15 -91 -85 -150t-167 -59z" />
    <glyph glyph-name="quotedbl" unicode="&#x22;" horiz-adv-x="905" 
d="M201 903l53 531h315l-135 -531h-233zM608 903l51 531h316l-133 -531h-234z" />
    <glyph glyph-name="numbersign" unicode="#" horiz-adv-x="1292" 
d="M1262 788h-207l-49 -143h206l-82 -246h-208l-103 -297h-262l102 297h-167l-103 -297h-262l102 297h-209l82 246h211l49 143h-208l82 246h210l103 297h262l-102 -297h168l102 297h262l-102 -297h204zM743 645l50 143h-168l-50 -143h168z" />
    <glyph glyph-name="dollar" unicode="$" horiz-adv-x="1161" 
d="M743 862q151 -62 215 -106q160 -111 152 -304q-1 -35 -8 -73q-34 -191 -175.5 -296t-353.5 -114l-30 -174h-144l33 180q-170 21 -280.5 111t-149.5 229l324 168q52 -135 166 -164l45 248l-29 13q-40 17 -74.5 34t-70.5 39t-63 45t-53.5 53t-42 62t-28 71.5t-11.5 83
t7 95.5q22 127 100 219t186.5 136.5t235.5 45.5l31 174h143l-32 -188q121 -28 211 -105t139 -198l-316 -168q-37 85 -98 119l-41 -232q2 -1 6 -2t6 -2zM532 1030q-11 -61 68 -104l33 192q-41 -7 -68 -31t-33 -57zM737 414q10 57 -67 98l-35 -193q44 10 70 35.5t32 59.5z" />
    <glyph glyph-name="percent" unicode="%" horiz-adv-x="1685" 
d="M496 729q-161 0 -251.5 112t-68.5 259q24 153 142 258.5t290 105.5q108 0 188 -56t113 -145t15 -188q-31 -147 -146.5 -246.5t-281.5 -99.5zM236 227l1118 1024l129 -84l-1118 -1026zM530 989q46 0 81.5 32.5t43.5 76.5q8 45 -16.5 75.5t-69.5 30.5q-44 0 -78 -30.5
t-42 -75.5q-9 -46 14 -77.5t67 -31.5zM1155 -29q-109 0 -188.5 54t-113 140t-17.5 183q24 151 142.5 255t287.5 104q107 0 187 -55t113 -143.5t15 -186.5q-29 -148 -145 -249.5t-281 -101.5zM1188 231q46 0 81.5 32t43.5 75q8 47 -16 77.5t-70 30.5q-44 0 -78.5 -31
t-42.5 -77q-9 -45 14.5 -76t67.5 -31z" />
    <glyph glyph-name="ampersand" unicode="&#x26;" horiz-adv-x="1425" 
d="M1348 588q-89 -177 -185 -299l156 -213l-303 -154l-109 146q-172 -99 -385 -99q-165 0 -279.5 62.5t-161 166t-24.5 230.5q45 255 312 389q-56 126 -35 254q29 181 171 287t345 106q356 0 477 -325l-332 -174q-54 151 -166 151q-52 0 -88 -28t-45 -78q-5 -33 8 -70
t27.5 -59t50.5 -72l189 -256q60 102 100 211zM592 287q69 0 133 28l-193 260q-4 4 -4 7q-42 -26 -68 -64.5t-32 -77.5q-11 -65 31 -109t133 -44z" />
    <glyph glyph-name="quotesingle" unicode="'" horiz-adv-x="497" 
d="M201 903l53 531h315l-135 -531h-233z" />
    <glyph glyph-name="parenleft" unicode="(" horiz-adv-x="669" 
d="M197 -205q-70 211 -87.5 457t23.5 496q82 470 383 890h342q-305 -449 -387 -921q-82 -474 61 -922h-335z" />
    <glyph glyph-name="parenright" unicode=")" horiz-adv-x="667" 
d="M545 1638q70 -210 87.5 -456.5t-24.5 -495.5q-82 -471 -383 -891h-342q305 448 387 922t-61 921h336z" />
    <glyph glyph-name="asterisk" unicode="*" horiz-adv-x="829" 
d="M864 1239l-35 -197l-182 21l90 -143l-174 -103l-57 168l-117 -168l-153 103l139 143l-189 -21l35 197l182 -20l-90 143l174 102l58 -168l117 168l153 -102l-141 -143z" />
    <glyph glyph-name="plus" unicode="+" horiz-adv-x="1146" 
d="M1128 879l-57 -324h-328l-57 -328h-326l58 328h-328l60 324h327l58 327h323l-57 -327h327z" />
    <glyph glyph-name="comma" unicode="," horiz-adv-x="618" 
d="M508 356l-287 -643h-274l184 643h377z" />
    <glyph glyph-name="hyphen" unicode="-" horiz-adv-x="1024" 
d="M102 455l58 323h798l-57 -323h-799z" />
    <glyph glyph-name="period" unicode="." horiz-adv-x="591" 
d="M201 -29q-87 0 -138 63.5t-36 153.5q15 89 85.5 149t163.5 60q88 0 139 -64t36 -153q-15 -91 -84 -150t-166 -59z" />
    <glyph glyph-name="slash" unicode="/" horiz-adv-x="1064" 
d="M78 -205h-154l1135 1843h153z" />
    <glyph glyph-name="zero" unicode="0" horiz-adv-x="1290" 
d="M565 -31q-186 0 -308 99.5t-164 273t-3 395.5q60 339 243.5 533t463.5 194q187 0 309 -99.5t163.5 -273t2.5 -395.5q-61 -340 -244 -533.5t-463 -193.5zM612 326q224 0 295 391q34 197 -4 294t-153 97q-225 0 -293 -391q-71 -391 155 -391z" />
    <glyph glyph-name="one" unicode="1" horiz-adv-x="849" 
d="M563 1434h316l-252 -1434h-367l182 1032l-260 -63l-32 325z" />
    <glyph glyph-name="two" unicode="2" horiz-adv-x="1105" 
d="M-45 0l45 266l569 502q79 69 121.5 121.5t50.5 101.5q9 52 -17 84.5t-79 32.5q-120 0 -217 -156l-297 183q98 164 245 246.5t316 82.5q95 0 179.5 -35t144 -96.5t86.5 -153.5t8 -198q-22 -125 -87 -219.5t-192 -204.5l-237 -203h426l-62 -354h-1003z" />
    <glyph glyph-name="three" unicode="3" horiz-adv-x="1122" 
d="M1165 1434l-51 -289l-289 -305q124 -52 189.5 -160.5t40.5 -253.5q-17 -94 -56 -170t-94 -129t-125 -89t-147.5 -52.5t-163.5 -16.5q-179 0 -305 81.5t-176 242.5l336 174q23 -72 65 -106.5t119 -34.5q80 0 126.5 36t57.5 99q9 61 -26.5 97t-110.5 36h-76l-104 209
l266 280h-469l61 351h932z" />
    <glyph glyph-name="four" unicode="4" 
d="M1176 553l-60 -334h-143l-39 -219h-365l39 219h-628l59 334l569 881h418l-573 -881h215l45 258h364l-45 -258h144z" />
    <glyph glyph-name="five" unicode="5" horiz-adv-x="1124" 
d="M1108 1083h-502l-39 -153h88q99 0 182.5 -33t143 -94t84.5 -158t4 -215q-20 -115 -75.5 -204.5t-135 -144.5t-174 -83.5t-199.5 -28.5q-186 0 -314.5 81t-182.5 243l338 176q22 -71 69.5 -107t128.5 -36q76 0 124 35.5t59 95.5q11 61 -23 98t-106 37h-461l207 842h845z
" />
    <glyph glyph-name="six" unicode="6" horiz-adv-x="1146" 
d="M748 971q189 -36 290 -179.5t68 -336.5q-40 -224 -202 -355t-404 -131q-166 0 -283 69.5t-165.5 189.5t-22.5 268q30 176 143 299l530 639h428zM741 475q15 82 -26 127t-117 45q-78 0 -134 -45t-71 -127q-14 -82 26.5 -126t117.5 -44q76 0 132.5 44.5t71.5 125.5z" />
    <glyph glyph-name="seven" unicode="7" horiz-adv-x="1003" 
d="M164 1434h969l-52 -304l-632 -1130h-410l606 1079h-545z" />
    <glyph glyph-name="eight" unicode="8" horiz-adv-x="1165" 
d="M1161 1026q-33 -185 -198 -287q83 -61 117.5 -154.5t15.5 -199.5q-36 -198 -186.5 -306t-401.5 -108q-258 0 -385.5 125.5t-91.5 325.5q20 109 85.5 196t170.5 142q-129 116 -97 293q23 130 102 224t192.5 139.5t250.5 45.5q99 0 184.5 -30t146 -84.5t87 -138t8.5 -183.5
zM530 1008q-9 -57 22 -90t97 -33q63 0 108 33.5t54 89.5q9 55 -23.5 88.5t-95.5 33.5q-66 0 -109.5 -33t-52.5 -89zM743 455q10 70 -28.5 109.5t-114.5 39.5q-78 0 -131.5 -39.5t-65.5 -109.5q-13 -68 27 -108t117 -40q76 0 129.5 40t66.5 108z" />
    <glyph glyph-name="nine" unicode="9" horiz-adv-x="1146" 
d="M719 1464q166 0 283 -69.5t165.5 -189t22.5 -267.5q-30 -176 -143 -299l-531 -639h-428l383 463q-189 36 -290 179.5t-68 336.5q40 224 202 354.5t404 130.5zM477 958q-14 -82 26.5 -127t117.5 -45q78 0 133.5 45t70.5 127q14 82 -26 126t-117 44q-76 0 -133 -44.5
t-72 -125.5z" />
    <glyph glyph-name="colon" unicode=":" horiz-adv-x="591" 
d="M317 629q-87 0 -138 63.5t-36 153.5q15 89 86 149t164 60q88 0 138.5 -64t35.5 -153q-15 -91 -84 -150t-166 -59zM201 -29q-87 0 -138 63.5t-36 153.5q15 89 85.5 149t163.5 60q88 0 139 -64t36 -153q-15 -91 -84 -150t-166 -59z" />
    <glyph glyph-name="semicolon" unicode=";" horiz-adv-x="618" 
d="M342 629q-87 0 -138 63.5t-36 153.5q15 89 86 149t164 60q88 0 138.5 -64t35.5 -153q-15 -91 -84 -150t-166 -59zM504 356l-287 -643h-274l184 643h377z" />
    <glyph glyph-name="less" unicode="&#x3c;" horiz-adv-x="1067" 
d="M1128 1268l-67 -371l-588 -199l520 -198l-61 -334l-850 399l53 303z" />
    <glyph glyph-name="equal" unicode="=" horiz-adv-x="1046" 
d="M119 778l59 326h899l-59 -326h-899zM41 330l57 325h899l-57 -325h-899z" />
    <glyph glyph-name="greater" unicode="&#x3e;" horiz-adv-x="1067" 
d="M207 1268l850 -400l-53 -303l-994 -399l68 371l590 198l-521 199z" />
    <glyph glyph-name="question" unicode="?" horiz-adv-x="1122" 
d="M367 522q11 68 43 125.5t72 95t86.5 73.5t85.5 63t68 62t36 71q8 44 -17.5 71t-74.5 27q-74 0 -126.5 -43.5t-95.5 -126.5l-294 186q84 165 237 251.5t334 86.5q97 0 180 -31.5t140 -86.5t81.5 -137t7.5 -177q-13 -72 -48 -134.5t-78.5 -103t-92.5 -79.5t-90 -66.5
t-71.5 -61t-36.5 -65.5h-346zM442 -29q-87 0 -138 63.5t-36 153.5q15 88 86.5 148.5t163.5 60.5q89 0 140 -64.5t36 -152.5q-15 -91 -85 -150t-167 -59z" />
    <glyph glyph-name="at" unicode="@" horiz-adv-x="1574" 
d="M920 1253q93 0 177 -22t148.5 -61t118.5 -93t87.5 -117.5t56.5 -134.5t24.5 -144t-8.5 -146q-39 -217 -147 -329t-271 -112q-97 0 -163.5 43.5t-90.5 116.5q-86 -80 -207 -80q-133 0 -204 104t-44 252q26 145 119.5 232.5t216.5 87.5q113 0 182 -88l13 63h278l-86 -483
q-11 -64 8 -96.5t74 -32.5q78 0 140 79t92 251q30 171 -29 315t-190.5 227.5t-305.5 83.5q-182 0 -344.5 -84t-272 -232t-142.5 -331q-24 -141 7.5 -265t108 -212t195 -139t262.5 -51q177 0 319 45l-16 -88q-137 -41 -315 -41q-130 0 -243.5 37.5t-197 105.5t-141 163
t-74 209t3.5 244q36 204 157 368.5t306 259.5t398 95zM756 406q43 0 74 29.5t40 76.5t-12 76.5t-65 29.5t-76 -29t-41 -77q-8 -46 14 -76t66 -30z" />
    <glyph glyph-name="A" unicode="A" horiz-adv-x="1374" 
d="M901 0l-22 207h-478l-98 -207h-403l725 1434h446l221 -1434h-391zM553 522h291l-53 496z" />
    <glyph glyph-name="B" unicode="B" horiz-adv-x="1232" 
d="M1239 1012q-34 -186 -184 -281q152 -116 123 -325q-26 -182 -172 -294t-390 -112h-593l251 1434h545q213 0 332 -118.5t88 -303.5zM766 1106h-182l-39 -225h180q56 0 95 29t48 83q9 52 -18.5 82.5t-83.5 30.5zM819 449q11 55 -17 87.5t-89 32.5h-224l-43 -241h222
q60 0 101 33.5t50 87.5z" />
    <glyph glyph-name="C" unicode="C" horiz-adv-x="1478" 
d="M735 -31q-163 0 -296 60t-217 162.5t-118.5 244.5t-7.5 301q26 157 102.5 292t188 230.5t255.5 150t300 54.5q211 0 359.5 -91t226.5 -251l-336 -178q-81 162 -285 162q-167 0 -291 -108t-155 -281q-30 -169 53 -279t246 -110q206 0 336 172l301 -195
q-115 -159 -288 -247.5t-374 -88.5z" />
    <glyph glyph-name="D" unicode="D" horiz-adv-x="1452" 
d="M858 1434q185 0 328.5 -99t209.5 -269.5t31 -369.5q-55 -308 -280 -502t-541 -194h-583l251 1434h584zM1071 723q27 163 -49 259.5t-225 96.5h-207l-129 -725h196q156 0 269.5 101.5t144.5 267.5z" />
    <glyph glyph-name="E" unicode="E" horiz-adv-x="1095" 
d="M1124 1092h-542l-37 -201h495l-61 -336h-492l-36 -211h553l-60 -344h-921l251 1434h912z" />
    <glyph glyph-name="F" unicode="F" horiz-adv-x="1060" 
d="M1094 1079h-514l-41 -233h501l-61 -354h-504l-86 -492h-366l251 1434h881z" />
    <glyph glyph-name="G" unicode="G" horiz-adv-x="1595" 
d="M1591 821l-24 -145q-54 -325 -277.5 -516t-548.5 -191q-165 0 -299.5 60t-219 163t-119 244.5t-7.5 300.5q35 210 155 375.5t301.5 258.5t391.5 93q211 0 364.5 -90t235.5 -248l-336 -180q-89 160 -301 160q-167 0 -291 -108t-155 -281t55.5 -286.5t257.5 -113.5
q264 0 371 189h-332l55 315h723z" />
    <glyph glyph-name="H" unicode="H" horiz-adv-x="1361" 
d="M1044 1434h365l-252 -1434h-364l96 551h-404l-96 -551h-366l251 1434h367l-94 -531h403z" />
    <glyph glyph-name="I" unicode="I" horiz-adv-x="591" 
d="M274 1434h367l-252 -1434h-366z" />
    <glyph glyph-name="J" unicode="J" horiz-adv-x="1165" 
d="M479 -31q-184 0 -298.5 73.5t-172.5 223.5l332 178q22 -64 60 -91t106 -27q167 0 192 145l170 963h367l-172 -969q-43 -250 -193.5 -373t-390.5 -123z" />
    <glyph glyph-name="K" unicode="K" horiz-adv-x="1292" 
d="M1456 1434l-610 -713l364 -721h-379l-327 653l-115 -653h-366l251 1434h367l-102 -582l489 582h428z" />
    <glyph glyph-name="L" unicode="L" horiz-adv-x="993" 
d="M451 354h493l-61 -354h-860l251 1434h367z" />
    <glyph glyph-name="M" unicode="M" horiz-adv-x="1689" 
d="M1737 1434l-252 -1434h-365l135 774l-448 -577h-37l-244 587l-137 -784h-366l251 1434h367l233 -619l474 619h389z" />
    <glyph glyph-name="N" unicode="N" horiz-adv-x="1382" 
d="M23 0l251 1434h285l373 -750l133 750h365l-252 -1434h-283l-373 750l-133 -750h-366z" />
    <glyph glyph-name="O" unicode="O" horiz-adv-x="1617" 
d="M737 -31q-164 0 -298.5 64t-217 170.5t-117 246.5t-8.5 289t99 281t182.5 230.5t259.5 156t319 57.5q162 0 295.5 -63.5t215.5 -169t116.5 -245t9.5 -288.5q-26 -150 -98 -282t-180.5 -232t-258 -157.5t-319.5 -57.5zM770 328q166 0 298 109.5t161 279.5
q30 170 -60 279.5t-256 109.5q-165 0 -293 -109t-159 -280t56.5 -280t252.5 -109z" />
    <glyph glyph-name="P" unicode="P" horiz-adv-x="1212" 
d="M815 1434q216 0 342.5 -147t93.5 -376q-31 -217 -189.5 -349t-408.5 -132h-188l-76 -430h-366l251 1434h541zM887 932q13 70 -23 110.5t-110 40.5h-174l-54 -305h179q71 0 120.5 42t61.5 112z" />
    <glyph glyph-name="Q" unicode="Q" horiz-adv-x="1628" 
d="M956 1464q162 0 295.5 -63.5t215.5 -169t116.5 -245t9.5 -288.5q-44 -265 -229 -462l104 -138l-270 -204l-113 147q-159 -72 -348 -72q-107 0 -204.5 29t-172 81.5t-134.5 124.5t-92.5 157.5t-45 181.5t7.5 196q25 149 100 281t185.5 230.5t260 156t314.5 57.5zM965 754
l180 -236q67 93 84 199q30 170 -60 279.5t-256 109.5q-165 0 -293 -109t-159 -280t56.5 -280t252.5 -109q47 0 86 8l-164 213z" />
    <glyph glyph-name="R" unicode="R" horiz-adv-x="1269" 
d="M1278 918q-24 -137 -105.5 -239.5t-205.5 -158.5l196 -520h-368l-168 463h-156l-82 -463h-366l253 1434h562q139 0 249 -68t163 -187.5t28 -260.5zM582 1096l-58 -322h211q67 -1 115.5 43.5t60.5 116.5q12 71 -24 116.5t-109 45.5h-196z" />
    <glyph glyph-name="S" unicode="S" horiz-adv-x="1204" 
d="M551 -31q-229 0 -371 95.5t-186 261.5l325 168q59 -179 263 -179q87 0 132.5 27t53.5 72q4 23 -5 42.5t-23 32.5t-46.5 28t-55.5 23.5t-70 24.5q-9 3 -14.5 5t-14 5t-15.5 5q-49 17 -90.5 35t-82.5 42.5t-70.5 52.5t-56 63.5t-38.5 76.5t-17 91.5t7 107.5
q23 132 104 227.5t195.5 141.5t249.5 46q180 0 310.5 -84.5t191.5 -242.5l-314 -168q-67 149 -217 149q-64 0 -101.5 -25.5t-45.5 -66.5q-11 -52 37.5 -86t183.5 -80q35 -12 61 -22t60 -24t58.5 -28.5t53 -33t48 -39.5t39.5 -46t31.5 -55t19 -65t7 -76.5t-8.5 -87.5
q-36 -202 -192 -308t-396 -106z" />
    <glyph glyph-name="T" unicode="T" horiz-adv-x="1116" 
d="M1257 1434l-63 -355h-352l-191 -1079h-366l190 1079h-354l61 355h1075z" />
    <glyph glyph-name="U" unicode="U" horiz-adv-x="1320" 
d="M594 -31q-262 0 -404 141.5t-104 360.5l170 963h367l-164 -928q-32 -180 170 -180q201 0 233 180l162 928h367l-170 -963q-43 -242 -213 -372t-414 -130z" />
    <glyph glyph-name="V" unicode="V" horiz-adv-x="1310" 
d="M346 0l-194 1434h380l93 -1008l444 1008h414l-699 -1434h-438z" />
    <glyph glyph-name="W" unicode="W" horiz-adv-x="2056" 
d="M322 0l-150 1434h371l71 -904l414 904h293l98 -904l385 904h402l-652 -1434h-387l-88 809l-370 -809h-387z" />
    <glyph glyph-name="X" unicode="X" horiz-adv-x="1294" 
d="M1430 1434l-541 -717l303 -717h-395l-162 381l-289 -381h-426l561 743l-293 691h398l149 -355l269 355h426z" />
    <glyph glyph-name="Y" unicode="Y" horiz-adv-x="1292" 
d="M1454 1434l-604 -809l-111 -625h-366l110 625l-321 809h389l154 -461l315 461h434z" />
    <glyph glyph-name="Z" unicode="Z" horiz-adv-x="1110" 
d="M1210 1434l-47 -283l-639 -797h512l-61 -354h-998l50 283l641 796h-492l64 355h970z" />
    <glyph glyph-name="bracketleft" unicode="[" horiz-adv-x="673" 
d="M776 1313h-201l-210 -1192h200l-59 -326h-541l326 1843h540z" />
    <glyph glyph-name="backslash" unicode="\" horiz-adv-x="1064" 
d="M748 -205l-498 1843h139l498 -1843h-139z" />
    <glyph glyph-name="bracketright" unicode="]" horiz-adv-x="673" 
d="M780 1638l-325 -1843h-541l57 326h201l211 1192h-201l58 325h540z" />
    <glyph glyph-name="asciicircum" unicode="^" horiz-adv-x="1187" 
d="M877 1434l282 -725h-356l-105 323l-225 -323h-377l539 725h242z" />
    <glyph glyph-name="underscore" unicode="_" horiz-adv-x="1054" 
d="M-106 -381l57 324h952l-57 -324h-952z" />
    <glyph glyph-name="grave" unicode="`" horiz-adv-x="643" 
d="M713 1137l-125 297h-385l194 -297h316z" />
    <glyph glyph-name="a" unicode="a" horiz-adv-x="1259" 
d="M911 1024h340l-180 -1024h-340l14 80q-118 -109 -299 -109q-90 0 -163.5 30.5t-121 83.5t-79 124t-36.5 151.5t7 165.5q16 103 62 196.5t115 168t167.5 118.5t210.5 44q196 0 283 -142zM567 289q95 0 165 59.5t89 157.5v6q17 100 -30.5 161.5t-145.5 61.5q-97 0 -166 -61
t-86 -162q-17 -100 30.5 -161.5t143.5 -61.5z" />
    <glyph glyph-name="b" unicode="b" horiz-adv-x="1259" 
d="M803 1053q141 0 242.5 -78.5t143 -206t17.5 -276.5q-25 -145 -96 -261.5t-188 -188t-260 -71.5q-204 0 -293 146l-21 -117h-340l252 1434h340l-86 -494q116 113 289 113zM866 512q18 103 -30.5 163t-143.5 60q-94 0 -165 -60.5t-89 -162.5q-17 -103 33 -163t145 -60
t164 60t86 163z" />
    <glyph glyph-name="c" unicode="c" horiz-adv-x="1089" 
d="M532 -29q-163 0 -281.5 75t-170 203t-27.5 283q37 227 209.5 374t401.5 147q161 0 272.5 -73t167.5 -196l-309 -161q-45 98 -160 98q-91 0 -159 -57t-83 -150q-17 -91 31 -151t135 -60q117 0 191 103l270 -173q-77 -129 -206.5 -195.5t-281.5 -66.5z" />
    <glyph glyph-name="d" unicode="d" horiz-adv-x="1261" 
d="M985 1434h340l-252 -1434h-340l15 82q-121 -111 -302 -111q-90 0 -163.5 30.5t-121 83.5t-79 124t-36.5 151.5t7 165.5q16 103 62 196.5t115 168t167.5 118.5t210.5 44q197 0 285 -144zM569 289q94 0 163 57.5t89 153.5l4 20q14 98 -34 156.5t-144 58.5t-166.5 -61
t-87.5 -162q-17 -100 31 -161.5t145 -61.5z" />
    <glyph glyph-name="e" unicode="e" horiz-adv-x="1163" 
d="M664 1053q152 0 265.5 -71.5t163.5 -195.5t23 -272q-8 -58 -35 -127h-702q29 -125 196 -125q123 0 203 74l217 -199q-178 -166 -446 -166q-134 0 -238.5 44.5t-166 121.5t-85.5 178.5t-6 216.5q37 224 209 372.5t402 148.5zM420 625h387q-11 141 -162 141t-225 -141z" />
    <glyph glyph-name="f" unicode="f" horiz-adv-x="677" 
d="M788 1149q-172 13 -198 -125h176l-57 -326h-177l-122 -698h-340l123 698h-127l55 326h129q40 226 190 340.5t404 99.5z" />
    <glyph glyph-name="g" unicode="g" horiz-adv-x="1267" 
d="M924 1024h336l-175 -983q-22 -128 -79.5 -223t-140 -150t-178.5 -81.5t-206 -26.5q-172 0 -298.5 64t-180.5 186l301 157q57 -110 209 -110q94 0 157.5 46t80.5 138l14 78q-120 -107 -291 -107q-117 0 -205 45.5t-136.5 121.5t-66.5 171t-2 197q15 96 59 185.5t112 161.5
t167 115.5t213 43.5q199 0 289 -150zM582 322q90 0 159.5 52.5t92.5 137.5l6 41q8 85 -42.5 137.5t-140.5 52.5q-97 0 -168 -59.5t-86 -151.5q-17 -92 32.5 -151t146.5 -59z" />
    <glyph glyph-name="h" unicode="h" 
d="M809 1053q166 0 255 -116t54 -325l-108 -612h-340l100 569q13 81 -22 121.5t-105 40.5q-77 0 -129.5 -47t-69.5 -139v2l-96 -547h-340l252 1434h340l-90 -514q117 133 299 133z" />
    <glyph glyph-name="i" unicode="i" horiz-adv-x="536" 
d="M377 1108q-81 0 -129.5 59t-34.5 138q12 77 77.5 135.5t149.5 58.5q82 0 130 -57.5t34 -136.5q-12 -81 -77.5 -139t-149.5 -58zM8 0l180 1024h340l-180 -1024h-340z" />
    <glyph glyph-name="j" unicode="j" horiz-adv-x="567" 
d="M471 1499q82 0 130 -57.5t34 -136.5q-12 -81 -77.5 -139t-149.5 -58q-81 0 -129.5 59t-34.5 138q12 77 77.5 135.5t149.5 58.5zM39 0l180 1024h340l-180 -1024q-44 -252 -178 -353t-389 -87l55 315q77 -5 118.5 25t53.5 100z" />
    <glyph glyph-name="k" unicode="k" horiz-adv-x="1099" 
d="M1174 1024l-431 -514l267 -510h-365l-217 451l-80 -451h-340l252 1434h340l-143 -816l325 406h392z" />
    <glyph glyph-name="l" unicode="l" horiz-adv-x="538" 
d="M10 0l115 657l147 838h340l-147 -848l-115 -647h-340z" />
    <glyph glyph-name="m" unicode="m" horiz-adv-x="1740" 
d="M1356 1053q174 0 265 -115t56 -311l-108 -627h-342l102 588q12 68 -12.5 105.5t-87.5 37.5q-64 0 -106 -37t-60 -102l-105 -592h-340l103 588q11 68 -14.5 105.5t-88.5 37.5q-130 0 -169 -158l-101 -573h-340l180 1024h340l-16 -94q53 56 126.5 89.5t158.5 33.5
q87 0 149.5 -35.5t95.5 -102.5q135 138 314 138z" />
    <glyph glyph-name="n" unicode="n" 
d="M809 1053q166 0 255 -116t54 -325l-108 -612h-340l100 569q13 81 -22 121.5t-105 40.5q-77 0 -129.5 -47t-69.5 -139v2l-96 -547h-340l180 1024h340l-18 -104q56 63 134 98t165 35z" />
    <glyph glyph-name="o" unicode="o" horiz-adv-x="1193" 
d="M528 -29q-89 0 -165.5 23.5t-131 64t-96 96t-61.5 119t-27 133t8 138.5q19 101 70 191t128 161.5t186 113.5t235 42q124 0 223 -50t156.5 -131.5t80.5 -183t5 -205.5q-18 -100 -69.5 -191.5t-129 -163.5t-185 -114.5t-227.5 -42.5zM555 299q90 0 157.5 59t84.5 154
t-29.5 154t-136.5 59q-88 0 -155.5 -59t-84.5 -154t29.5 -154t134.5 -59z" />
    <glyph glyph-name="p" unicode="p" horiz-adv-x="1259" 
d="M805 1053q140 0 241 -78.5t142 -206.5t18 -276q-24 -143 -94.5 -259.5t-188.5 -189t-261 -72.5q-201 0 -293 146l-93 -527h-339l251 1434h340l-14 -84q116 113 291 113zM866 512q19 102 -28.5 162.5t-143.5 60.5q-95 0 -164.5 -58t-89.5 -157l-4 -14q-13 -99 35.5 -158
t142.5 -59q96 0 165.5 60.5t86.5 162.5z" />
    <glyph glyph-name="q" unicode="q" horiz-adv-x="1259" 
d="M911 1024h340l-252 -1434h-340l86 490q-118 -109 -299 -109q-90 0 -163.5 30.5t-120.5 83.5t-78.5 124t-36.5 151.5t6 165.5q16 103 62 196.5t115 168t167.5 118.5t210.5 44q196 0 283 -142zM393 512q-17 -100 30.5 -161.5t143.5 -61.5q97 0 167 61t87 162
q17 100 -30.5 161.5t-145.5 61.5q-97 0 -166 -61t-86 -162z" />
    <glyph glyph-name="r" unicode="r" horiz-adv-x="778" 
d="M494 831q46 103 138.5 158t207.5 55l-64 -376q-53 7 -106 -1.5t-104.5 -33.5t-90 -79t-51.5 -130l4 33l-80 -457h-340l180 1024h340z" />
    <glyph glyph-name="s" unicode="s" horiz-adv-x="968" 
d="M430 -29q-169 0 -281 60.5t-169 191.5l299 146q45 -117 170 -117q90 0 98 49q4 24 -21.5 41t-69 30t-96.5 28t-103.5 41t-90 62t-57 98t-3.5 142q18 105 91 177.5t162.5 102.5t187.5 30q141 0 248 -58.5t157 -169.5l-288 -139q-39 91 -127 94q-35 2 -60 -12.5t-31 -42.5
q-5 -25 14 -43t54 -28t79.5 -22.5t91 -26.5t88.5 -39t72.5 -61.5t43 -93.5t-1.5 -135q-15 -81 -58.5 -142t-107 -95.5t-136 -51t-155.5 -16.5z" />
    <glyph glyph-name="t" unicode="t" horiz-adv-x="806" 
d="M553 698l-51 -297q-11 -69 33.5 -85.5t162.5 -8.5l-53 -307q-289 -38 -407.5 59t-77.5 334l53 305h-154l58 326h153l33 184l359 103l-52 -287h215l-59 -326h-213z" />
    <glyph glyph-name="u" unicode="u" 
d="M836 1024h340l-181 -1024h-340l19 104q-56 -63 -134 -98t-165 -35q-166 0 -255 116t-54 325l108 612h340l-100 -569q-13 -81 22 -121.5t105 -40.5q77 0 129 47t69 139v-2z" />
    <glyph glyph-name="v" unicode="v" horiz-adv-x="1091" 
d="M807 1024h375l-553 -1024h-346l-193 1024h346l84 -582z" />
    <glyph glyph-name="w" unicode="w" horiz-adv-x="1617" 
d="M1325 1024h371l-494 -1024h-332l-55 514l-223 -514h-348l-133 1024h340l47 -557l241 557h297l60 -547z" />
    <glyph glyph-name="x" unicode="x" horiz-adv-x="1124" 
d="M1200 1024l-450 -512l284 -512h-360l-146 260l-227 -260h-391l467 532l-273 492h361l133 -240l209 240h393z" />
    <glyph glyph-name="y" unicode="y" horiz-adv-x="1124" 
d="M823 1024h391l-520 -993q-133 -255 -303 -357.5t-397 -83.5l57 320q110 0 166 28t102 103l-229 983h361l106 -592z" />
    <glyph glyph-name="z" unicode="z" horiz-adv-x="931" 
d="M961 1024l-41 -233l-435 -476h371l-55 -315h-840l43 233l432 476h-330l56 315h799z" />
    <glyph glyph-name="braceleft" unicode="{" horiz-adv-x="743" 
d="M571 -219q-225 -15 -329 94t-70 305l49 275q12 63 -21.5 86.5t-107.5 15.5l58 326q74 -8 113 12.5t52 89.5l50 275q38 222 168.5 318t369.5 81l-55 -316q-65 9 -99.5 -10t-43.5 -73l-50 -275q-18 -106 -61.5 -165.5t-122.5 -98.5q125 -76 90 -266l-47 -275
q-9 -54 19.5 -73t95.5 -11z" />
    <glyph glyph-name="bar" unicode="|" horiz-adv-x="567" 
d="M-49 -410l332 1885h342l-332 -1885h-342z" />
    <glyph glyph-name="braceright" unicode="}" horiz-adv-x="743" 
d="M244 1657q225 15 329 -94.5t70 -305.5l-49 -274q-12 -63 21.5 -86.5t107.5 -15.5l-57 -326q-74 8 -113.5 -12.5t-52.5 -89.5l-49 -275q-38 -222 -169 -318t-370 -81l55 315q65 -9 100 10.5t44 73.5l49 275q18 106 61.5 165.5t122.5 98.5q-125 76 -90 266l47 274
q9 54 -19.5 73t-95.5 11z" />
    <glyph glyph-name="asciitilde" unicode="~" horiz-adv-x="1241" 
d="M336 481l-248 125q39 113 102 191.5t138.5 114t160 34t168.5 -42.5q135 -67 201 -61t117 102l248 -125q-39 -113 -102.5 -191.5t-138.5 -114t-159.5 -34t-167.5 42.5q-136 68 -202 62t-117 -103z" />
    <glyph glyph-name="exclamdown" unicode="&#xa1;" horiz-adv-x="602" 
d="M397 1053q87 0 138 -63.5t36 -153.5q-15 -88 -86 -148.5t-163 -60.5q-89 0 -140.5 64.5t-36.5 152.5q15 91 85 150t167 59zM440 502l-20 -502l-72 -410h-418l72 410l156 502h282z" />
    <glyph glyph-name="cent" unicode="&#xa2;" horiz-adv-x="1089" 
d="M594 508q117 0 190 102l271 -172q-77 -129 -206.5 -195.5t-281.5 -66.5q-60 0 -135 14l-94 -190h-133l114 231q-133 68 -195 203t-36 303q37 227 209 373.5t401 146.5q68 0 123 -12l94 189h134l-113 -230q136 -68 203 -215l-310 -162q-19 40 -49 64l-190 -383h4zM428 719
q-19 -112 49 -170l187 377q-89 -2 -155 -59t-81 -148z" />
    <glyph glyph-name="sterling" unicode="&#xa3;" horiz-adv-x="1177" 
d="M553 557l-37 -203h623l-62 -354h-1116l64 354h127l34 203h-104l51 287h105l28 162q21 119 70.5 208.5t120 143t154.5 80t180 26.5q165 0 281 -81.5t175 -237.5l-332 -168q-24 70 -60.5 103.5t-92.5 33.5q-53 0 -88 -31t-45 -88l-27 -151h389l-51 -287h-387z" />
    <glyph glyph-name="currency" unicode="&#xa4;" horiz-adv-x="1091" 
d="M1143 1118l-166 -139q74 -116 47 -268q-27 -150 -133 -262l115 -140l-99 -80l-114 140q-129 -82 -279 -82q-147 0 -246 80l-168 -144l-80 90l168 142q-74 116 -47 268q27 150 133 262l-114 139l94 82l119 -143q130 84 280 84q142 0 242 -78l166 141zM563 602q52 0 88 31
t47 84q8 53 -17.5 83.5t-78.5 30.5q-52 0 -88 -30.5t-45 -83.5q-11 -53 14.5 -84t79.5 -31z" />
    <glyph glyph-name="yen" unicode="&#xa5;" horiz-adv-x="1292" 
d="M1454 1434l-502 -672h234l-35 -193h-311l-15 -84h312l-33 -190h-313l-52 -295h-366l51 295h-311l32 190h314l14 84h-313l35 193h233l-266 672h389l154 -461l315 461h434z" />
    <glyph glyph-name="brokenbar" unicode="&#xa6;" horiz-adv-x="567" 
d="M150 717l133 758h342l-133 -758h-342zM-49 -410l133 758h342l-133 -758h-342z" />
    <glyph glyph-name="section" unicode="&#xa7;" horiz-adv-x="1124" 
d="M840 948q56 -24 101 -56.5t82 -78t52 -108t2 -134.5q-25 -151 -162 -243q54 -89 31 -219q-16 -89 -61.5 -155.5t-112 -105.5t-145.5 -58t-170 -19q-337 0 -443 256l291 151q32 -66 75.5 -95.5t106.5 -29.5q107 0 117 68q3 16 -2 30t-19 26.5t-30 22.5t-42 21.5
t-47.5 20.5t-54 22t-55.5 23q-57 26 -103.5 59.5t-85 81t-54 112.5t-2.5 140q29 158 163 240q-42 86 -20 210q16 88 59.5 154t106.5 104.5t135 57t152 18.5q305 0 417 -266l-284 -131q-53 121 -150 121q-40 0 -65.5 -18.5t-30.5 -49.5q-3 -17 1.5 -31.5t18 -27.5t28.5 -23.5
t41.5 -22.5t46.5 -20.5t55 -22.5t57 -24zM563 549q10 -4 55.5 -21.5t71.5 -29.5q39 25 47 71q4 23 -2.5 40t-27 31.5t-37 22.5t-52.5 23l-131 53q-32 -23 -41 -67q-8 -43 21.5 -69t95.5 -54z" />
    <glyph glyph-name="dieresis" unicode="&#xa8;" horiz-adv-x="755" 
d="M307 1096q-67 0 -106.5 48t-28.5 116q10 67 67.5 115t125.5 48q66 0 105.5 -48t27.5 -115q-10 -67 -66.5 -115.5t-124.5 -48.5zM705 1096q-66 0 -106 48.5t-28 115.5q10 67 66.5 115t124.5 48q67 0 106.5 -47.5t28.5 -115.5q-10 -67 -67 -115.5t-125 -48.5z" />
    <glyph glyph-name="copyright" unicode="&#xa9;" horiz-adv-x="1595" 
d="M733 -25q-150 0 -281 61.5t-218 163.5t-126 242.5t-12 290.5q36 203 156 368.5t301 261t385 95.5q148 0 278.5 -61.5t217.5 -163.5t126 -242.5t13 -290.5q-37 -203 -157 -368.5t-300 -261t-383 -95.5zM733 59q179 0 340.5 86t270 234.5t139.5 327.5t-34 333t-203 244
t-312 90q-178 0 -339 -86t-269.5 -234t-139.5 -327q-24 -134 8.5 -258t107 -213.5t187.5 -143t244 -53.5zM778 313q-92 0 -165 36t-116 95.5t-60 135.5t-3 157q29 162 151.5 272.5t297.5 110.5q103 0 189.5 -56t137.5 -149l-256 -133q-25 60 -98 60q-56 0 -96.5 -37.5
t-48.5 -87.5q-11 -49 16.5 -87t79.5 -38q73 0 121 61l227 -143q-66 -93 -167.5 -145t-209.5 -52z" />
    <glyph glyph-name="guillemotleft" unicode="&#xab;" horiz-adv-x="1165" 
d="M719 1032l-295 -409l151 -390h-284l-158 400l289 399h297zM1145 1032l-305 -422l149 -377h-284l-154 390l295 409h299z" />
    <glyph glyph-name="logicalnot" unicode="&#xac;" horiz-adv-x="1165" 
d="M1159 879l-100 -570h-346l43 246h-676l57 324h1022z" />
    <glyph glyph-name="registered" unicode="&#xae;" horiz-adv-x="1595" 
d="M938 1458q148 0 278.5 -61.5t217.5 -163.5t126 -242.5t13 -290.5q-37 -203 -157 -368.5t-300 -261t-383 -95.5q-150 0 -281 61.5t-218 163.5t-126 242.5t-12 290.5q36 203 156 368.5t301 261t385 95.5zM1483 707q31 179 -34 333t-203 244t-312 90q-178 0 -339 -86
t-269.5 -234t-139.5 -327q-24 -134 8.5 -258t107 -213.5t187.5 -143t244 -53.5q179 0 340.5 86t270 234.5t139.5 327.5zM956 1096q116 0 190.5 -86t53.5 -203q-26 -146 -137 -217l98 -252h-278l-64 199h-53l-35 -199h-268l133 758h360zM872 860h-49l-20 -108h49q64 0 76 55
q4 29 -10.5 41t-45.5 12z" />
    <glyph glyph-name="macron" unicode="&#xaf;" horiz-adv-x="716" 
d="M152 1135l45 266h634l-47 -266h-632z" />
    <glyph glyph-name="degree" unicode="&#xb0;" horiz-adv-x="849" 
d="M508 944q-102 0 -179 51t-110 135t-16 181q25 151 141.5 249.5t276.5 98.5q155 0 244.5 -109t62.5 -260q-27 -149 -143 -247.5t-277 -98.5zM549 1208q41 0 70.5 25.5t35.5 66.5q8 41 -12.5 68t-60.5 27t-71 -27t-38 -68q-6 -40 14.5 -66t61.5 -26z" />
    <glyph glyph-name="plusminus" unicode="&#xb1;" horiz-adv-x="1146" 
d="M836 1083h329l-59 -323h-326l-49 -279h-325l49 279h-328l57 323h328l49 279h324zM0 43l59 326h979l-57 -326h-981z" />
    <glyph glyph-name="acute" unicode="&#xb4;" horiz-adv-x="643" 
d="M152 1137h333l279 297h-406z" />
    <glyph glyph-name="uni00B5" unicode="&#xb5;" horiz-adv-x="1245" 
d="M1075 367q-5 -29 8.5 -45.5t42.5 -16.5h52l-54 -305h-147q-146 0 -217 96q-119 -125 -293 -125q-65 0 -121 21l-70 -402h-339l251 1434h340l-100 -565h2q-14 -84 20.5 -125t104.5 -41q74 0 125.5 42.5t69.5 125.5l100 563h340z" />
    <glyph glyph-name="paragraph" unicode="&#xb6;" horiz-adv-x="1488" 
d="M1577 1434l-55 -328h-138l-266 -1516h-323l266 1516h-131l-266 -1516h-324l162 924q-126 1 -220.5 68.5t-135.5 177t-19 233.5q32 190 187.5 315.5t349.5 125.5h913z" />
    <glyph glyph-name="periodcentered" unicode="&#xb7;" horiz-adv-x="591" 
d="M295 504q-87 0 -138 63.5t-36 153.5q15 89 86 149t164 60q88 0 138.5 -64t35.5 -153q-15 -91 -84 -150t-166 -59z" />
    <glyph glyph-name="cedilla" unicode="&#xb8;" horiz-adv-x="561" 
d="M295 -94q43 -19 71.5 -63t16.5 -113q-13 -70 -66 -113.5t-164.5 -62.5t-281.5 -7l39 224q192 -15 201 28q3 18 -24.5 28t-78.5 13l29 160h274z" />
    <glyph glyph-name="guillemotright" unicode="&#xbb;" horiz-adv-x="1167" 
d="M504 1032l153 -389l-295 -410h-299l306 422l-150 377h285zM918 1032l157 -399l-289 -400h-297l295 410l-151 389h285z" />
    <glyph glyph-name="onequarter" unicode="&#xbc;" horiz-adv-x="1673" 
d="M1198 1434h244l-1069 -1434h-244zM334 1139l-166 -41l-23 241l277 95h233l-145 -820h-270zM1620 350l-41 -235h-72l-20 -115h-250l20 115h-376l41 235l311 469h289l-301 -469h79l23 129h248l-23 -129h72z" />
    <glyph glyph-name="onehalf" unicode="&#xbd;" horiz-adv-x="1662" 
d="M1198 1434h244l-1069 -1434h-244zM334 1139l-166 -41l-23 241l277 95h233l-145 -820h-270zM1614 563q-11 -66 -54 -120.5t-124 -120.5l-101 -82h228l-41 -240h-627l31 182l344 289q30 26 41 36.5t23 26.5t14 31q9 45 -41 45q-58 0 -115 -92l-205 129q129 201 363 201
q128 0 208 -78.5t56 -206.5z" />
    <glyph glyph-name="threequarters" unicode="&#xbe;" horiz-adv-x="1794" 
d="M729 854q-24 -137 -119 -202.5t-245 -65.5q-251 0 -312 192l228 121q15 -43 41 -62.5t69 -19.5q68 0 74 53q4 25 -11 38.5t-44 13.5h-60l-67 139l135 135h-252l43 238h586l-33 -179l-160 -161q72 -32 107 -94.5t20 -145.5zM1319 1434h244l-1069 -1434h-244zM1741 350
l-41 -235h-72l-20 -115h-250l20 115h-377l41 235l312 469h288l-301 -469h80l23 129h248l-23 -129h72z" />
    <glyph glyph-name="questiondown" unicode="&#xbf;" horiz-adv-x="1122" 
d="M680 1053q87 0 138 -63.5t36 -153.5q-15 -88 -86.5 -148.5t-163.5 -60.5q-89 0 -140 64.5t-36 152.5q15 91 85 150t167 59zM756 502q-11 -68 -43 -125.5t-72 -95t-86.5 -73.5t-85.5 -63t-68 -62t-36 -71q-8 -44 17.5 -71t74.5 -27q74 0 126 43t95 127l295 -186
q-84 -165 -237 -251.5t-335 -86.5q-97 0 -180 31.5t-140 86.5t-81.5 137t-7.5 177q15 85 61.5 156t102.5 117t110.5 84t95.5 76.5t48 76.5h346z" />
    <glyph glyph-name="Agrave" unicode="&#xc0;" horiz-adv-x="1374" 
d="M1053 1546h-316l-194 297h385zM901 0l-22 207h-478l-98 -207h-403l725 1434h446l221 -1434h-391zM553 522h291l-53 496z" />
    <glyph glyph-name="Aacute" unicode="&#xc1;" horiz-adv-x="1374" 
d="M1296 1843l-278 -297h-334l207 297h405zM625 1434h446l221 -1434h-391l-22 207h-478l-98 -207h-403zM553 522h291l-53 496z" />
    <glyph glyph-name="Acircumflex" unicode="&#xc2;" horiz-adv-x="1374" 
d="M879 1640l-103 -114h-309l272 317h342l162 -317h-305zM901 0l-22 207h-478l-98 -207h-403l725 1434h446l221 -1434h-391zM553 522h291l-53 496z" />
    <glyph glyph-name="Atilde" unicode="&#xc3;" horiz-adv-x="1374" 
d="M864 1573q-26 15 -41.5 21.5t-32 5.5t-26.5 -18t-16 -50h-248q10 99 42 170.5t76.5 107.5t98 49.5t107 3.5t102.5 -38q25 -16 41 -22.5t32.5 -6t26.5 17.5t16 50h250q-11 -99 -43.5 -171t-77 -108t-98 -49t-107 -2.5t-102.5 39.5zM625 1434h446l221 -1434h-391l-22 207
h-478l-98 -207h-403zM553 522h291l-53 496z" />
    <glyph glyph-name="Adieresis" unicode="&#xc4;" horiz-adv-x="1374" 
d="M662 1505q-67 0 -107 48t-29 116q10 67 67.5 115.5t125.5 48.5q66 0 105.5 -48.5t27.5 -115.5q-10 -67 -66 -115.5t-124 -48.5zM1059 1505q-66 0 -105.5 48.5t-27.5 115.5q10 67 66 115.5t124 48.5q67 0 106.5 -48t28.5 -116q-10 -67 -67 -115.5t-125 -48.5zM901 0
l-22 207h-478l-98 -207h-403l725 1434h446l221 -1434h-391zM553 522h291l-53 496z" />
    <glyph glyph-name="Aring" unicode="&#xc5;" horiz-adv-x="1374" 
d="M901 0l-22 207h-478l-98 -207h-403l716 1415q-43 70 -28 168q20 116 111.5 190t218.5 74q125 0 195 -81t48 -197q-18 -100 -86 -168l217 -1401h-391zM807 1577q-5 -29 9.5 -47.5t45.5 -18.5q34 0 55.5 17.5t26.5 46.5q6 29 -9.5 48t-49.5 19q-31 0 -52 -18t-26 -47z
M553 522h291l-53 496z" />
    <glyph glyph-name="AE" unicode="&#xc6;" horiz-adv-x="1812" 
d="M1841 1090h-473l-35 -199h424l-61 -336h-420l-37 -211h481l-59 -344h-840l37 207h-393l-154 -207h-411l1071 1434h932zM700 522h213l66 373z" />
    <glyph glyph-name="Ccedilla" unicode="&#xc7;" horiz-adv-x="1478" 
d="M760 328q206 0 336 172l301 -195q-97 -134 -236 -218.5t-303 -109.5l-12 -71q43 -19 71.5 -63t16.5 -113q-13 -70 -66 -113.5t-164.5 -62.5t-281.5 -7l39 224q192 -15 201 28q3 18 -24.5 28t-78.5 13l27 144q-264 51 -400.5 260t-89.5 493q26 157 102.5 292t188 230.5
t255.5 150t300 54.5q211 0 359.5 -91t226.5 -251l-336 -178q-81 162 -285 162q-167 0 -291 -108t-155 -281q-30 -169 53 -279t246 -110z" />
    <glyph glyph-name="Egrave" unicode="&#xc8;" horiz-adv-x="1095" 
d="M936 1546h-315l-195 297h385zM1124 1092h-542l-37 -201h495l-61 -336h-492l-36 -211h553l-60 -344h-921l251 1434h912z" />
    <glyph glyph-name="Eacute" unicode="&#xc9;" horiz-adv-x="1095" 
d="M1180 1843l-279 -297h-334l207 297h406zM1124 1092h-542l-37 -201h495l-61 -336h-492l-36 -211h553l-60 -344h-921l251 1434h912z" />
    <glyph glyph-name="Ecircumflex" unicode="&#xca;" horiz-adv-x="1095" 
d="M762 1640l-103 -114h-309l273 317h342l161 -317h-305zM1124 1092h-542l-37 -201h495l-61 -336h-492l-36 -211h553l-60 -344h-921l251 1434h912z" />
    <glyph glyph-name="Edieresis" unicode="&#xcb;" horiz-adv-x="1095" 
d="M545 1505q-67 0 -106.5 48t-28.5 116q10 67 67 115.5t125 48.5q66 0 105.5 -48.5t27.5 -115.5q-10 -67 -66 -115.5t-124 -48.5zM942 1505q-66 0 -105.5 48.5t-27.5 115.5q10 67 66 115.5t124 48.5q67 0 107 -48t29 -116q-10 -67 -67.5 -115.5t-125.5 -48.5zM1124 1092
h-542l-37 -201h495l-61 -336h-492l-36 -211h553l-60 -344h-921l251 1434h912z" />
    <glyph glyph-name="Igrave" unicode="&#xcc;" horiz-adv-x="591" 
d="M664 1546l-125 297h-385l194 -297h316zM274 1434h367l-252 -1434h-366z" />
    <glyph glyph-name="Iacute" unicode="&#xcd;" horiz-adv-x="591" 
d="M295 1546h334l278 297h-405zM274 1434h367l-252 -1434h-366z" />
    <glyph glyph-name="Icircumflex" unicode="&#xce;" horiz-adv-x="591" 
d="M489 1640l-102 -114h-309l272 317h342l162 -317h-305zM23 0l251 1434h367l-252 -1434h-366z" />
    <glyph glyph-name="Idieresis" unicode="&#xcf;" horiz-adv-x="591" 
d="M272 1505q-67 0 -106.5 48t-28.5 116q10 67 67.5 115.5t125.5 48.5q66 0 105.5 -48.5t27.5 -115.5q-10 -67 -66.5 -115.5t-124.5 -48.5zM670 1505q-66 0 -105.5 48.5t-27.5 115.5q10 67 66 115.5t124 48.5q67 0 106.5 -48t28.5 -116q-10 -67 -67 -115.5t-125 -48.5z
M274 1434h367l-252 -1434h-366z" />
    <glyph glyph-name="Eth" unicode="&#xd0;" horiz-adv-x="1513" 
d="M920 1434q185 0 328.5 -99t209.5 -269.5t31 -369.5q-55 -308 -280 -502t-541 -194h-584l94 539h-151l57 323h152l100 572h584zM1133 723q27 163 -49.5 259.5t-225.5 96.5h-207l-39 -217h271l-58 -323h-270l-33 -185h197q156 0 269.5 101.5t144.5 267.5z" />
    <glyph glyph-name="Ntilde" unicode="&#xd1;" horiz-adv-x="1382" 
d="M504 1532q10 99 42 170.5t76.5 107.5t98 49.5t107 3.5t102.5 -38q25 -16 41.5 -22.5t32.5 -6t26.5 17.5t16.5 50h249q-11 -99 -43.5 -171t-77 -108t-98 -49t-107 -2.5t-102.5 39.5q-26 15 -41.5 21.5t-32 5.5t-26.5 -18t-16 -50h-248zM23 0l251 1434h285l373 -750
l133 750h365l-252 -1434h-283l-373 750l-133 -750h-366z" />
    <glyph glyph-name="Ograve" unicode="&#xd2;" horiz-adv-x="1617" 
d="M1180 1567l-125 297h-385l194 -297h316zM737 -31q-164 0 -298.5 64t-217 170.5t-117 246.5t-8.5 289t99 281t182.5 230.5t259.5 156t319 57.5q162 0 295.5 -63.5t215.5 -169t116.5 -245t9.5 -288.5q-26 -150 -98 -282t-180.5 -232t-258 -157.5t-319.5 -57.5zM770 328
q166 0 298 109.5t161 279.5q30 170 -60 279.5t-256 109.5q-165 0 -293 -109t-159 -280t56.5 -280t252.5 -109z" />
    <glyph glyph-name="Oacute" unicode="&#xd3;" horiz-adv-x="1617" 
d="M811 1567h334l278 297h-405zM737 -31q-164 0 -298.5 64t-217 170.5t-117 246.5t-8.5 289t99 281t182.5 230.5t259.5 156t319 57.5q162 0 295.5 -63.5t215.5 -169t116.5 -245t9.5 -288.5q-26 -150 -98 -282t-180.5 -232t-258 -157.5t-319.5 -57.5zM770 328
q166 0 298 109.5t161 279.5q30 170 -60 279.5t-256 109.5q-165 0 -293 -109t-159 -280t56.5 -280t252.5 -109z" />
    <glyph glyph-name="Ocircumflex" unicode="&#xd4;" horiz-adv-x="1617" 
d="M1006 1661l-103 -115h-309l272 318h342l162 -318h-305zM956 1464q162 0 295.5 -63.5t215.5 -169t116.5 -245t9.5 -288.5q-26 -150 -98 -282t-180.5 -232t-258 -157.5t-319.5 -57.5q-164 0 -298.5 64t-217 170.5t-117 246.5t-8.5 289t99 281t182.5 230.5t259.5 156
t319 57.5zM1229 717q30 170 -60 279.5t-256 109.5q-165 0 -293 -109t-159 -280t56.5 -280t252.5 -109q166 0 298 109.5t161 279.5z" />
    <glyph glyph-name="Otilde" unicode="&#xd5;" horiz-adv-x="1617" 
d="M627 1552q10 99 42 170.5t76.5 107.5t98 49.5t107 3.5t102.5 -38q25 -16 41 -22.5t32.5 -6t26.5 17.5t16 50h250q-11 -99 -43.5 -171t-77 -108t-98 -49t-107 -2.5t-102.5 39.5q-26 15 -41.5 21.5t-32.5 5.5t-27 -18t-16 -50h-247zM737 -31q-164 0 -298.5 64t-217 170.5
t-117 246.5t-8.5 289t99 281t182.5 230.5t259.5 156t319 57.5q162 0 295.5 -63.5t215.5 -169t116.5 -245t9.5 -288.5q-26 -150 -98 -282t-180.5 -232t-258 -157.5t-319.5 -57.5zM770 328q166 0 298 109.5t161 279.5q30 170 -60 279.5t-256 109.5q-165 0 -293 -109t-159 -280
t56.5 -280t252.5 -109z" />
    <glyph glyph-name="Odieresis" unicode="&#xd6;" horiz-adv-x="1617" 
d="M788 1526q-67 0 -106.5 48t-28.5 116q10 67 67.5 115t125.5 48q66 0 105.5 -48t27.5 -115q-10 -67 -66.5 -115.5t-124.5 -48.5zM1186 1526q-66 0 -105.5 48.5t-27.5 115.5q10 67 66 115t124 48q67 0 106.5 -47.5t28.5 -115.5q-10 -67 -67 -115.5t-125 -48.5zM737 -31
q-164 0 -298.5 64t-217 170.5t-117 246.5t-8.5 289t99 281t182.5 230.5t259.5 156t319 57.5q162 0 295.5 -63.5t215.5 -169t116.5 -245t9.5 -288.5q-26 -150 -98 -282t-180.5 -232t-258 -157.5t-319.5 -57.5zM770 328q166 0 298 109.5t161 279.5q30 170 -60 279.5
t-256 109.5q-165 0 -293 -109t-159 -280t56.5 -280t252.5 -109z" />
    <glyph glyph-name="multiply" unicode="&#xd7;" horiz-adv-x="1101" 
d="M1098 954l-281 -243l197 -232l-254 -229l-203 237l-274 -237l-205 229l280 244l-196 231l254 230l200 -238l275 238z" />
    <glyph glyph-name="Oslash" unicode="&#xd8;" horiz-adv-x="1628" 
d="M1473 1239q87 -107 122 -248t9 -293q-26 -150 -98 -282t-180.5 -232t-258 -157.5t-319.5 -57.5q-239 0 -406 129l-127 -129l-149 94l155 158q-79 105 -109.5 240t-5.5 278q26 149 99.5 281t183 230.5t259.5 156t319 57.5q217 0 376 -108l109 108l150 -94zM471 717
q-21 -129 21 -221l577 581q-69 29 -145 29q-165 0 -293.5 -109t-159.5 -280zM1239 717q26 143 -37 250l-592 -598q71 -41 170 -41q166 0 298 109.5t161 279.5z" />
    <glyph glyph-name="Ugrave" unicode="&#xd9;" horiz-adv-x="1320" 
d="M1028 1546l-125 297h-385l195 -297h315zM594 -31q-262 0 -404 141.5t-104 360.5l170 963h367l-164 -928q-32 -180 170 -180q201 0 233 180l162 928h367l-170 -963q-43 -242 -213 -372t-414 -130z" />
    <glyph glyph-name="Uacute" unicode="&#xda;" horiz-adv-x="1320" 
d="M659 1546h334l279 297h-406zM594 -31q-262 0 -404 141.5t-104 360.5l170 963h367l-164 -928q-32 -180 170 -180q201 0 233 180l162 928h367l-170 -963q-43 -242 -213 -372t-414 -130z" />
    <glyph glyph-name="Ucircumflex" unicode="&#xdb;" horiz-adv-x="1320" 
d="M854 1640l-102 -114h-310l273 317h342l162 -317h-306zM1024 1434h367l-170 -963q-43 -242 -213 -372t-414 -130q-262 0 -404 141.5t-104 360.5l170 963h367l-164 -928q-32 -180 170 -180q201 0 233 180z" />
    <glyph glyph-name="Udieresis" unicode="&#xdc;" horiz-adv-x="1320" 
d="M637 1505q-67 0 -106.5 48t-28.5 116q10 67 67 115.5t125 48.5q66 0 105.5 -48.5t27.5 -115.5q-10 -67 -66 -115.5t-124 -48.5zM1034 1505q-66 0 -105.5 48.5t-27.5 115.5q10 67 66.5 115.5t124.5 48.5q67 0 106.5 -48t28.5 -116q-10 -67 -67.5 -115.5t-125.5 -48.5z
M594 -31q-262 0 -404 141.5t-104 360.5l170 963h367l-164 -928q-32 -180 170 -180q201 0 233 180l162 928h367l-170 -963q-43 -242 -213 -372t-414 -130z" />
    <glyph glyph-name="Yacute" unicode="&#xdd;" horiz-adv-x="1292" 
d="M1255 1843l-278 -297h-334l207 297h405zM1454 1434l-604 -809l-111 -625h-366l110 625l-321 809h389l154 -461l315 461h434z" />
    <glyph glyph-name="Thorn" unicode="&#xde;" horiz-adv-x="1212" 
d="M778 1221q105 0 193.5 -38.5t147.5 -107t85.5 -167t9.5 -212.5q-31 -217 -189.5 -349t-408.5 -132h-190l-37 -215h-366l253 1434h365l-37 -213h174zM850 717q13 71 -23 112t-110 41h-174l-56 -305h181q71 0 120.5 41t61.5 111z" />
    <glyph glyph-name="germandbls" unicode="&#xdf;" horiz-adv-x="1130" 
d="M469 -10l51 303q205 -30 223 90q8 40 -13 99t-49.5 110t-50 109.5t-14.5 97.5q7 40 37.5 87t62 92.5t38.5 80.5q10 49 -14 76.5t-74 27.5q-53 0 -88.5 -31t-45.5 -90l-184 -1042h-340l185 1040q34 201 162 312.5t362 111.5q93 0 173 -30.5t131.5 -80t76 -115.5t12.5 -136
q-9 -49 -32 -95t-46 -74.5t-44 -63.5t-27 -64q-7 -35 5.5 -80t33.5 -87.5t42 -98.5t30.5 -113.5t-1.5 -132.5q-11 -64 -36.5 -115.5t-71.5 -97t-113.5 -69.5t-162.5 -33t-218 12z" />
    <glyph glyph-name="agrave" unicode="&#xe0;" horiz-adv-x="1259" 
d="M905 1137h-315l-195 297h385zM911 1024h340l-180 -1024h-340l14 80q-118 -109 -299 -109q-90 0 -163.5 30.5t-121 83.5t-79 124t-36.5 151.5t7 165.5q16 103 62 196.5t115 168t167.5 118.5t210.5 44q196 0 283 -142zM567 289q95 0 165 59.5t89 157.5v6
q17 100 -30.5 161.5t-145.5 61.5q-97 0 -166 -61t-86 -162q-17 -100 30.5 -161.5t143.5 -61.5z" />
    <glyph glyph-name="aacute" unicode="&#xe1;" horiz-adv-x="1259" 
d="M1149 1434l-279 -297h-333l206 297h406zM911 1024h340l-180 -1024h-340l14 80q-118 -109 -299 -109q-90 0 -163.5 30.5t-121 83.5t-79 124t-36.5 151.5t7 165.5q16 103 62 196.5t115 168t167.5 118.5t210.5 44q196 0 283 -142zM567 289q95 0 165 59.5t89 157.5v6
q17 100 -30.5 161.5t-145.5 61.5q-97 0 -166 -61t-86 -162q-17 -100 30.5 -161.5t143.5 -61.5z" />
    <glyph glyph-name="acircumflex" unicode="&#xe2;" horiz-adv-x="1259" 
d="M731 1231l-102 -115h-310l273 318h342l162 -318h-305zM911 1024h340l-180 -1024h-340l14 80q-118 -109 -299 -109q-90 0 -163.5 30.5t-121 83.5t-79 124t-36.5 151.5t7 165.5q16 103 62 196.5t115 168t167.5 118.5t210.5 44q196 0 283 -142zM567 289q95 0 165 59.5
t89 157.5v6q17 100 -30.5 161.5t-145.5 61.5q-97 0 -166 -61t-86 -162q-17 -100 30.5 -161.5t143.5 -61.5z" />
    <glyph glyph-name="atilde" unicode="&#xe3;" horiz-adv-x="1259" 
d="M717 1163q-26 15 -41.5 21.5t-32.5 5.5t-27 -18t-16 -50h-248q10 99 42 170.5t76.5 107.5t98 49.5t107 3.5t102.5 -38q25 -16 41.5 -22.5t32.5 -6t26.5 17.5t16.5 50h250q-11 -99 -43.5 -171t-77 -108t-98 -49t-107 -2.5t-102.5 39.5zM911 1024h340l-180 -1024h-340
l14 80q-118 -109 -299 -109q-90 0 -163.5 30.5t-121 83.5t-79 124t-36.5 151.5t7 165.5q16 103 62 196.5t115 168t167.5 118.5t210.5 44q196 0 283 -142zM567 289q95 0 165 59.5t89 157.5v6q17 100 -30.5 161.5t-145.5 61.5q-97 0 -166 -61t-86 -162q-17 -100 30.5 -161.5
t143.5 -61.5z" />
    <glyph glyph-name="adieresis" unicode="&#xe4;" horiz-adv-x="1259" 
d="M514 1096q-67 0 -106.5 48t-28.5 116q10 67 67 115t125 48q66 0 106 -48t28 -115q-10 -67 -66.5 -115.5t-124.5 -48.5zM911 1096q-66 0 -105.5 48.5t-27.5 115.5q10 67 66.5 115t124.5 48q67 0 106.5 -47.5t28.5 -115.5q-10 -67 -67.5 -115.5t-125.5 -48.5zM911 1024h340
l-180 -1024h-340l14 80q-118 -109 -299 -109q-90 0 -163.5 30.5t-121 83.5t-79 124t-36.5 151.5t7 165.5q16 103 62 196.5t115 168t167.5 118.5t210.5 44q196 0 283 -142zM567 289q95 0 165 59.5t89 157.5v6q17 100 -30.5 161.5t-145.5 61.5q-97 0 -166 -61t-86 -162
q-17 -100 30.5 -161.5t143.5 -61.5z" />
    <glyph glyph-name="aring" unicode="&#xe5;" horiz-adv-x="1259" 
d="M717 1092q-125 0 -194.5 80t-49.5 196t111.5 190t218.5 74q125 0 195.5 -81t48.5 -197q-21 -117 -110.5 -189.5t-219.5 -72.5zM692 1362q-5 -29 10 -47.5t46 -18.5q34 0 55 17.5t26 46.5q6 29 -9.5 48t-49.5 19q-31 0 -52 -18t-26 -47zM911 1024h340l-180 -1024h-340
l14 80q-118 -109 -299 -109q-90 0 -163.5 30.5t-121 83.5t-79 124t-36.5 151.5t7 165.5q16 103 62 196.5t115 168t167.5 118.5t210.5 44q196 0 283 -142zM567 289q95 0 165 59.5t89 157.5v6q17 100 -30.5 161.5t-145.5 61.5q-97 0 -166 -61t-86 -162q-17 -100 30.5 -161.5
t143.5 -61.5z" />
    <glyph glyph-name="ae" unicode="&#xe6;" horiz-adv-x="1935" 
d="M1505 1053q139 0 235.5 -72t134 -194.5t13.5 -272.5q-13 -67 -37 -127h-702q29 -125 199 -125q122 0 202 74l217 -199q-178 -166 -387 -166q-217 0 -321 129l-19 -100h-309l14 86q-125 -115 -292 -115q-78 0 -144 22t-112 61.5t-81 92.5t-51 115t-21 130t9 136
q13 80 44.5 156t82.5 143t115.5 117t149 79.5t178.5 29.5q184 0 272 -119l16 90h310l-13 -70q130 99 297 99zM1190 625h389q-6 74 -50 107.5t-112 33.5q-153 0 -227 -141zM567 293q95 0 165 59t89 156v4q17 99 -31.5 159t-144.5 60t-166.5 -60t-87.5 -159t31.5 -159
t144.5 -60z" />
    <glyph glyph-name="ccedilla" unicode="&#xe7;" horiz-adv-x="1089" 
d="M559 303q117 0 191 103l270 -173q-121 -202 -367 -251l-14 -76q43 -19 71.5 -63t16.5 -113q-13 -70 -66 -113.5t-164.5 -62.5t-281.5 -7l39 224q192 -15 201 28q3 18 -24.5 28t-78.5 13l27 152q-178 47 -267.5 195t-58.5 345q37 227 209.5 374t401.5 147q161 0 272.5 -73
t167.5 -196l-309 -161q-45 98 -160 98q-91 0 -159 -57t-83 -150q-17 -91 31 -151t135 -60z" />
    <glyph glyph-name="egrave" unicode="&#xe8;" horiz-adv-x="1163" 
d="M899 1151h-315l-195 297h385zM664 1053q152 0 265.5 -71.5t163.5 -195.5t23 -272q-8 -58 -35 -127h-702q29 -125 196 -125q123 0 203 74l217 -199q-178 -166 -446 -166q-134 0 -238.5 44.5t-166 121.5t-85.5 178.5t-6 216.5q37 224 209 372.5t402 148.5zM420 625h387
q-11 141 -162 141t-225 -141z" />
    <glyph glyph-name="eacute" unicode="&#xe9;" horiz-adv-x="1163" 
d="M1143 1448l-279 -297h-334l207 297h406zM664 1053q152 0 265.5 -71.5t163.5 -195.5t23 -272q-8 -58 -35 -127h-702q29 -125 196 -125q123 0 203 74l217 -199q-178 -166 -446 -166q-134 0 -238.5 44.5t-166 121.5t-85.5 178.5t-6 216.5q37 224 209 372.5t402 148.5z
M420 625h387q-11 141 -162 141t-225 -141z" />
    <glyph glyph-name="ecircumflex" unicode="&#xea;" horiz-adv-x="1163" 
d="M725 1245l-102 -115h-310l273 318h342l162 -318h-306zM664 1053q152 0 265.5 -71.5t163.5 -195.5t23 -272q-8 -58 -35 -127h-702q29 -125 196 -125q123 0 203 74l217 -199q-178 -166 -446 -166q-134 0 -238.5 44.5t-166 121.5t-85.5 178.5t-6 216.5q37 224 209 372.5
t402 148.5zM420 625h387q-11 141 -162 141t-225 -141z" />
    <glyph glyph-name="edieresis" unicode="&#xeb;" horiz-adv-x="1163" 
d="M508 1110q-67 0 -106.5 48t-28.5 116q10 67 67 115.5t125 48.5q66 0 105.5 -48.5t27.5 -115.5q-10 -67 -66 -115.5t-124 -48.5zM905 1110q-66 0 -105.5 48.5t-27.5 115.5q10 67 66.5 115.5t124.5 48.5q67 0 106.5 -48t28.5 -116q-10 -67 -67.5 -115.5t-125.5 -48.5z
M664 1053q152 0 265.5 -71.5t163.5 -195.5t23 -272q-8 -58 -35 -127h-702q29 -125 196 -125q123 0 203 74l217 -199q-178 -166 -446 -166q-134 0 -238.5 44.5t-166 121.5t-85.5 178.5t-6 216.5q37 224 209 372.5t402 148.5zM420 625h387q-11 141 -162 141t-225 -141z" />
    <glyph glyph-name="igrave" unicode="&#xec;" horiz-adv-x="536" 
d="M537 1126l-43 308h-371l96 -308h318zM348 0h-340l180 1024h340z" />
    <glyph glyph-name="iacute" unicode="&#xed;" horiz-adv-x="536" 
d="M207 1126h323l199 308h-387zM8 0l180 1024h340l-180 -1024h-340z" />
    <glyph glyph-name="icircumflex" unicode="&#xee;" horiz-adv-x="536" 
d="M399 1214l-75 -98h-308l244 318h340l133 -318h-289zM8 0l180 1024h340l-180 -1024h-340z" />
    <glyph glyph-name="idieresis" unicode="&#xef;" horiz-adv-x="536" 
d="M190 1112q-65 0 -103 47t-26 111q10 64 65 110.5t120 46.5q66 0 104.5 -46t26.5 -111q-11 -65 -66 -111.5t-121 -46.5zM557 1112q-64 0 -103 46.5t-28 111.5q12 65 67 111t119 46t103 -46t28 -111q-12 -65 -67 -111.5t-119 -46.5zM8 0l180 1024h340l-180 -1024h-340z" />
    <glyph glyph-name="eth" unicode="&#xf0;" horiz-adv-x="1159" 
d="M1042 748q35 -61 52 -139t4 -158q-24 -149 -110 -259t-210 -165.5t-270 -55.5q-110 0 -204 37.5t-159 103.5t-93 165t-7 215q34 185 175.5 308t328.5 132l-60 112l-288 -102l43 248l139 49l-104 195h368l47 -82l297 106l-43 -250l-141 -51zM758 467q10 58 -15 106
q-45 70 -141 70q-84 0 -144 -46.5t-75 -129.5q-15 -85 27.5 -134.5t128.5 -49.5q84 0 144 49t75 135z" />
    <glyph glyph-name="ntilde" unicode="&#xf1;" 
d="M694 1184q-26 15 -41.5 21.5t-32 5.5t-26.5 -18t-16 -50h-248q10 99 42 170.5t76.5 107.5t98 49.5t107 3.5t102.5 -38q25 -16 41 -22.5t32.5 -6t26.5 17.5t16 50h250q-11 -99 -43.5 -171t-77 -108t-98 -49t-107 -2.5t-102.5 39.5zM809 1053q166 0 255 -116t54 -325
l-108 -612h-340l100 569q13 81 -22 121.5t-105 40.5q-77 0 -129.5 -47t-69.5 -139v2l-96 -547h-340l180 1024h340l-18 -104q56 63 134 98t165 35z" />
    <glyph glyph-name="ograve" unicode="&#xf2;" horiz-adv-x="1193" 
d="M895 1157l-125 297h-385l195 -297h315zM528 -29q-89 0 -165.5 23.5t-131 64t-96 96t-61.5 119t-27 133t8 138.5q19 101 70 191t128 161.5t186 113.5t235 42q124 0 223 -50t156.5 -131.5t80.5 -183t5 -205.5q-18 -100 -69.5 -191.5t-129 -163.5t-185 -114.5t-227.5 -42.5z
M555 299q90 0 157.5 59t84.5 154t-29.5 154t-136.5 59q-88 0 -155.5 -59t-84.5 -154t29.5 -154t134.5 -59z" />
    <glyph glyph-name="oacute" unicode="&#xf3;" horiz-adv-x="1193" 
d="M526 1157h334l279 297h-406zM528 -29q-89 0 -165.5 23.5t-131 64t-96 96t-61.5 119t-27 133t8 138.5q19 101 70 191t128 161.5t186 113.5t235 42q124 0 223 -50t156.5 -131.5t80.5 -183t5 -205.5q-18 -100 -69.5 -191.5t-129 -163.5t-185 -114.5t-227.5 -42.5zM555 299
q90 0 157.5 59t84.5 154t-29.5 154t-136.5 59q-88 0 -155.5 -59t-84.5 -154t29.5 -154t134.5 -59z" />
    <glyph glyph-name="ocircumflex" unicode="&#xf4;" horiz-adv-x="1193" 
d="M721 1251l-103 -114h-309l273 317h342l161 -317h-305zM674 1053q124 0 223 -50t156.5 -131.5t80.5 -183t5 -205.5q-18 -100 -69.5 -191.5t-129 -163.5t-185 -114.5t-227.5 -42.5q-89 0 -165.5 23.5t-131 64t-96 96t-61.5 119t-27 133t8 138.5q19 101 70 191t128 161.5
t186 113.5t235 42zM797 512q17 95 -29.5 154t-136.5 59q-88 0 -155.5 -59t-84.5 -154t29.5 -154t134.5 -59q90 0 157.5 59t84.5 154z" />
    <glyph glyph-name="otilde" unicode="&#xf5;" horiz-adv-x="1193" 
d="M342 1143q10 99 42 170.5t76.5 107.5t98 49.5t107 3.5t102.5 -38q25 -16 41.5 -22.5t32.5 -6t26.5 17.5t16.5 50h250q-11 -99 -43.5 -171t-77 -108t-98 -49t-107 -2.5t-102.5 39.5q-26 15 -41.5 21.5t-32.5 5.5t-27 -18t-16 -50h-248zM528 -29q-89 0 -165.5 23.5t-131 64
t-96 96t-61.5 119t-27 133t8 138.5q19 101 70 191t128 161.5t186 113.5t235 42q124 0 223 -50t156.5 -131.5t80.5 -183t5 -205.5q-18 -100 -69.5 -191.5t-129 -163.5t-185 -114.5t-227.5 -42.5zM555 299q90 0 157.5 59t84.5 154t-29.5 154t-136.5 59q-88 0 -155.5 -59
t-84.5 -154t29.5 -154t134.5 -59z" />
    <glyph glyph-name="odieresis" unicode="&#xf6;" horiz-adv-x="1193" 
d="M504 1116q-67 0 -106.5 48t-28.5 116q10 67 67 115.5t125 48.5q66 0 105.5 -48.5t27.5 -115.5q-10 -67 -66 -115.5t-124 -48.5zM901 1116q-66 0 -105.5 48.5t-27.5 115.5q10 67 66 115.5t124 48.5q67 0 107 -48t29 -116q-10 -67 -67.5 -115.5t-125.5 -48.5zM528 -29
q-89 0 -165.5 23.5t-131 64t-96 96t-61.5 119t-27 133t8 138.5q19 101 70 191t128 161.5t186 113.5t235 42q124 0 223 -50t156.5 -131.5t80.5 -183t5 -205.5q-18 -100 -69.5 -191.5t-129 -163.5t-185 -114.5t-227.5 -42.5zM555 299q90 0 157.5 59t84.5 154t-29.5 154
t-136.5 59q-88 0 -155.5 -59t-84.5 -154t29.5 -154t134.5 -59z" />
    <glyph glyph-name="divide" unicode="&#xf7;" horiz-adv-x="1128" 
d="M643 940q-83 0 -130.5 58.5t-33.5 140.5q15 83 79 136.5t147 53.5t129.5 -58.5t31.5 -140.5q-13 -83 -76.5 -136.5t-146.5 -53.5zM80 555l57 324h983l-57 -324h-983zM496 104q-83 0 -130.5 58.5t-33.5 140.5q15 83 79 137t146 54q83 0 130.5 -58.5t33.5 -140.5
q-15 -83 -78.5 -137t-146.5 -54z" />
    <glyph glyph-name="oslash" unicode="&#xf8;" horiz-adv-x="1193" 
d="M1151 977l-100 -103q61 -81 84 -183.5t4 -207.5q-18 -100 -68.5 -191.5t-126.5 -163.5t-184.5 -114.5t-231.5 -42.5q-163 0 -284 80l-74 -76l-129 70l100 102q-62 82 -84 186.5t-2 211.5q19 101 70 191t128 161.5t186 113.5t235 42q153 0 274 -80l74 76zM395 512
q-10 -60 4 -100l297 305q-36 8 -61 8q-89 0 -156 -59t-84 -154zM801 512q9 56 -4 102l-301 -305q33 -10 63 -10q90 0 157.5 59t84.5 154z" />
    <glyph glyph-name="ugrave" unicode="&#xf9;" 
d="M870 1137h-315l-195 297h385zM836 1024h340l-181 -1024h-340l19 104q-56 -63 -134 -98t-165 -35q-166 0 -255 116t-54 325l108 612h340l-100 -569q-13 -81 22 -121.5t105 -40.5q77 0 129 47t69 139v-2z" />
    <glyph glyph-name="uacute" unicode="&#xfa;" 
d="M1114 1434l-278 -297h-334l207 297h405zM836 1024h340l-181 -1024h-340l19 104q-56 -63 -134 -98t-165 -35q-166 0 -255 116t-54 325l108 612h340l-100 -569q-13 -81 22 -121.5t105 -40.5q77 0 129 47t69 139v-2z" />
    <glyph glyph-name="ucircumflex" unicode="&#xfb;" 
d="M696 1231l-102 -115h-309l272 318h342l162 -318h-305zM836 1024h340l-181 -1024h-340l19 104q-56 -63 -134 -98t-165 -35q-166 0 -255 116t-54 325l108 612h340l-100 -569q-13 -81 22 -121.5t105 -40.5q77 0 129 47t69 139v-2z" />
    <glyph glyph-name="udieresis" unicode="&#xfc;" 
d="M479 1096q-67 0 -106.5 48t-28.5 116q10 67 67.5 115t125.5 48q66 0 105.5 -48t27.5 -115q-10 -67 -66.5 -115.5t-124.5 -48.5zM877 1096q-66 0 -106 48.5t-28 115.5q10 67 66.5 115t124.5 48q67 0 106.5 -47.5t28.5 -115.5q-10 -67 -67 -115.5t-125 -48.5zM836 1024h340
l-181 -1024h-340l19 104q-56 -63 -134 -98t-165 -35q-166 0 -255 116t-54 325l108 612h340l-100 -569q-13 -81 22 -121.5t105 -40.5q77 0 129 47t69 139v-2z" />
    <glyph glyph-name="yacute" unicode="&#xfd;" horiz-adv-x="1124" 
d="M1077 1434l-278 -297h-334l207 297h405zM823 1024h391l-520 -993q-133 -255 -303 -357.5t-397 -83.5l57 320q110 0 166 28t102 103l-229 983h361l106 -592z" />
    <glyph glyph-name="thorn" unicode="&#xfe;" horiz-adv-x="1259" 
d="M805 1053q140 0 241 -78.5t142 -206.5t18 -276q-24 -143 -94.5 -259.5t-188.5 -189t-261 -72.5q-201 0 -293 146l-93 -527h-339l323 1844h340l-86 -494q116 113 291 113zM866 512q19 102 -28.5 162.5t-143.5 60.5t-166.5 -60.5t-89.5 -162.5q-17 -102 31.5 -162.5
t144.5 -60.5t165.5 60.5t86.5 162.5z" />
    <glyph glyph-name="ydieresis" unicode="&#xff;" horiz-adv-x="1124" 
d="M442 1096q-67 0 -106.5 48t-28.5 116q10 67 67.5 115t125.5 48q66 0 105.5 -48t27.5 -115q-10 -67 -66.5 -115.5t-124.5 -48.5zM840 1096q-66 0 -105.5 48.5t-27.5 115.5q10 67 66 115t124 48q67 0 106.5 -47.5t28.5 -115.5q-10 -67 -67 -115.5t-125 -48.5zM823 1024h391
l-520 -993q-133 -255 -303 -357.5t-397 -83.5l57 320q110 0 166 28t102 103l-229 983h361l106 -592z" />
    <glyph glyph-name="Amacron" unicode="&#x100;" horiz-adv-x="1374" 
d="M1231 1810l-47 -266h-633l45 266h635zM901 0l-22 207h-478l-98 -207h-403l725 1434h446l221 -1434h-391zM553 522h291l-53 496z" />
    <glyph glyph-name="amacron" unicode="&#x101;" horiz-adv-x="1259" 
d="M1083 1401l-47 -266h-633l46 266h634zM911 1024h340l-180 -1024h-340l14 80q-118 -109 -299 -109q-90 0 -163.5 30.5t-121 83.5t-79 124t-36.5 151.5t7 165.5q16 103 62 196.5t115 168t167.5 118.5t210.5 44q196 0 283 -142zM567 289q95 0 165 59.5t89 157.5v6
q17 100 -30.5 161.5t-145.5 61.5q-97 0 -166 -61t-86 -162q-17 -100 30.5 -161.5t143.5 -61.5z" />
    <glyph glyph-name="Abreve" unicode="&#x102;" horiz-adv-x="1374" 
d="M881 1509q-175 0 -266 90t-62 238h287q-7 -43 10 -66.5t55 -23.5q80 0 96 90h287q-25 -161 -128 -244.5t-279 -83.5zM901 0l-22 207h-478l-98 -207h-403l725 1434h446l221 -1434h-391zM553 522h291l-53 496z" />
    <glyph glyph-name="abreve" unicode="&#x103;" horiz-adv-x="1259" 
d="M733 1100q-175 0 -265.5 89.5t-61.5 237.5h286q-7 -43 10.5 -66.5t55.5 -23.5q80 0 96 90h287q-25 -160 -128.5 -243.5t-279.5 -83.5zM911 1024h340l-180 -1024h-340l14 80q-118 -109 -299 -109q-90 0 -163.5 30.5t-121 83.5t-79 124t-36.5 151.5t7 165.5
q16 103 62 196.5t115 168t167.5 118.5t210.5 44q196 0 283 -142zM567 289q95 0 165 59.5t89 157.5v6q17 100 -30.5 161.5t-145.5 61.5q-97 0 -166 -61t-86 -162q-17 -100 30.5 -161.5t143.5 -61.5z" />
    <glyph glyph-name="Aogonek" unicode="&#x104;" horiz-adv-x="1374" 
d="M1178 -154q-5 -22 5 -35.5t31 -13.5q22 0 46 6l-39 -206q-90 -35 -187 -35q-92 0 -145 53.5t-35 146.5q11 59 54 121.5t110 116.5h-117l-22 207h-478l-98 -207h-403l725 1434h446l221 -1434q-101 -90 -114 -154zM553 522h291l-53 496z" />
    <glyph glyph-name="aogonek" unicode="&#x105;" horiz-adv-x="1259" 
d="M911 1024h340l-180 -1024q-49 -44 -81.5 -90.5t-35.5 -77.5q-6 -39 37 -39q21 0 45 6l-37 -202q-77 -35 -174 -35q-95 0 -149 46.5t-45 127.5q6 130 172 264h-72l14 80q-118 -109 -299 -109q-90 0 -163.5 30.5t-121 83.5t-79 124t-36.5 151.5t7 165.5q16 103 62 196.5
t115 168t167.5 118.5t210.5 44q196 0 283 -142zM567 289q95 0 165 59.5t89 157.5v6q17 100 -30.5 161.5t-145.5 61.5q-97 0 -166 -61t-86 -162q-17 -100 30.5 -161.5t143.5 -61.5z" />
    <glyph glyph-name="Cacute" unicode="&#x106;" horiz-adv-x="1478" 
d="M807 1567h334l278 297h-405zM735 -31q-163 0 -296 60t-217 162.5t-118.5 244.5t-7.5 301q26 157 102.5 292t188 230.5t255.5 150t300 54.5q211 0 359.5 -91t226.5 -251l-336 -178q-81 162 -285 162q-167 0 -291 -108t-155 -281q-30 -169 53 -279t246 -110q206 0 336 172
l301 -195q-115 -159 -288 -247.5t-374 -88.5z" />
    <glyph glyph-name="cacute" unicode="&#x107;" horiz-adv-x="1089" 
d="M500 1147h334l278 297h-405zM532 -29q-163 0 -281.5 75t-170 203t-27.5 283q37 227 209.5 374t401.5 147q161 0 272.5 -73t167.5 -196l-309 -161q-45 98 -160 98q-91 0 -159 -57t-83 -150q-17 -91 31 -151t135 -60q117 0 191 103l270 -173q-77 -129 -206.5 -195.5
t-281.5 -66.5z" />
    <glyph glyph-name="Cdotaccent" unicode="&#x10a;" horiz-adv-x="1478" 
d="M987 1542q-75 0 -120 54t-31 128q14 75 77 130t138 55t120 -55t33 -130q-15 -74 -79 -128t-138 -54zM735 -31q-163 0 -296 60t-217 162.5t-118.5 244.5t-7.5 301q26 157 102.5 292t188 230.5t255.5 150t300 54.5q211 0 359.5 -91t226.5 -251l-336 -178q-81 162 -285 162
q-167 0 -291 -108t-155 -281q-30 -169 53 -279t246 -110q206 0 336 172l301 -195q-115 -159 -288 -247.5t-374 -88.5z" />
    <glyph glyph-name="cdotaccent" unicode="&#x10b;" horiz-adv-x="1089" 
d="M680 1122q-75 0 -120.5 54.5t-31.5 128.5q14 75 77 129.5t138 54.5t120.5 -54.5t33.5 -129.5q-15 -74 -79 -128.5t-138 -54.5zM532 -29q-163 0 -281.5 75t-170 203t-27.5 283q37 227 209.5 374t401.5 147q161 0 272.5 -73t167.5 -196l-309 -161q-45 98 -160 98
q-91 0 -159 -57t-83 -150q-17 -91 31 -151t135 -60q117 0 191 103l270 -173q-77 -129 -206.5 -195.5t-281.5 -66.5z" />
    <glyph glyph-name="Ccaron" unicode="&#x10c;" horiz-adv-x="1478" 
d="M807 1546l-162 318h297l62 -115l100 115h317l-272 -318h-342zM760 328q206 0 336 172l301 -195q-115 -159 -288 -247.5t-374 -88.5q-163 0 -296 60t-217 162.5t-118.5 244.5t-7.5 301q26 157 102.5 292t188 230.5t255.5 150t300 54.5q211 0 359.5 -91t226.5 -251
l-336 -178q-81 162 -285 162q-167 0 -291 -108t-155 -281q-30 -169 53 -279t246 -110z" />
    <glyph glyph-name="ccaron" unicode="&#x10d;" horiz-adv-x="1089" 
d="M500 1126l-162 318h297l61 -115l101 115h317l-272 -318h-342zM635 721q-91 0 -159 -57t-83 -150q-17 -91 31 -151t135 -60q117 0 191 103l270 -173q-77 -129 -206.5 -195.5t-281.5 -66.5q-163 0 -281.5 75t-170 203t-27.5 283q37 227 209.5 374t401.5 147
q161 0 272.5 -73t167.5 -196l-309 -161q-45 98 -160 98z" />
    <glyph glyph-name="Dcaron" unicode="&#x10e;" horiz-adv-x="1452" 
d="M653 1526l-161 317h296l62 -114l100 114h318l-273 -317h-342zM858 1434q185 0 328.5 -99t209.5 -269.5t31 -369.5q-55 -308 -280 -502t-541 -194h-583l251 1434h584zM1071 723q27 163 -49 259.5t-225 96.5h-207l-129 -725h196q156 0 269.5 101.5t144.5 267.5z" />
    <glyph glyph-name="dcaron" unicode="&#x10f;" horiz-adv-x="1552" 
d="M893 909l92 525h340l-252 -1434h-340l15 82q-121 -111 -302 -111q-90 0 -163.5 30.5t-121 83.5t-79 124t-36.5 151.5t7 165.5q16 103 62 196.5t115 168t167.5 118.5t210.5 44q197 0 285 -144zM1430 1434h315l-150 -449h-266zM569 289q94 0 163 57.5t89 153.5l4 20
q14 98 -34 156.5t-144 58.5t-166.5 -61t-87.5 -162q-17 -100 31 -161.5t145 -61.5z" />
    <glyph glyph-name="Dcroat" unicode="&#x110;" horiz-adv-x="1513" 
d="M920 1434q185 0 328.5 -99t209.5 -269.5t31 -369.5q-55 -308 -280 -502t-541 -194h-584l94 539h-151l57 323h152l100 572h584zM1133 723q27 163 -49.5 259.5t-225.5 96.5h-207l-39 -217h271l-58 -323h-270l-33 -185h197q156 0 269.5 101.5t144.5 267.5z" />
    <glyph glyph-name="dcroat" unicode="&#x111;" horiz-adv-x="1280" 
d="M1423 1321l-39 -217h-116l-195 -1104h-340l15 76q-117 -105 -299 -105q-90 0 -165 30t-123.5 82t-80.5 122.5t-37 151t8 167.5q18 101 65 192.5t117 162.5t167 113t206 42q197 0 285 -141l37 211h-281l39 217h279l20 113h340l-20 -113h118zM391 502q-19 -98 30.5 -157.5
t145.5 -59.5q95 0 165 59.5t89 157.5q17 99 -31.5 159t-144.5 60t-166.5 -60t-87.5 -159z" />
    <glyph glyph-name="Emacron" unicode="&#x112;" horiz-adv-x="1095" 
d="M1114 1810l-47 -266h-633l45 266h635zM1124 1092h-542l-37 -201h495l-61 -336h-492l-36 -211h553l-60 -344h-921l251 1434h912z" />
    <glyph glyph-name="emacron" unicode="&#x113;" horiz-adv-x="1163" 
d="M1077 1415l-47 -266h-633l45 266h635zM664 1053q152 0 265.5 -71.5t163.5 -195.5t23 -272q-8 -58 -35 -127h-702q29 -125 196 -125q123 0 203 74l217 -199q-178 -166 -446 -166q-134 0 -238.5 44.5t-166 121.5t-85.5 178.5t-6 216.5q37 224 209 372.5t402 148.5zM420 625
h387q-11 141 -162 141t-225 -141z" />
    <glyph glyph-name="Edotaccent" unicode="&#x116;" horiz-adv-x="1095" 
d="M748 1522q-75 0 -120.5 54t-31.5 128q14 75 77 129.5t138 54.5t120.5 -54.5t33.5 -129.5q-15 -74 -79 -128t-138 -54zM1124 1092h-542l-37 -201h495l-61 -336h-492l-36 -211h553l-60 -344h-921l251 1434h912z" />
    <glyph glyph-name="edotaccent" unicode="&#x117;" horiz-adv-x="1163" 
d="M711 1126q-75 0 -120.5 54.5t-31.5 128.5q14 75 77 129.5t138 54.5t120.5 -54.5t33.5 -129.5q-15 -74 -79 -128.5t-138 -54.5zM664 1053q152 0 265.5 -71.5t163.5 -195.5t23 -272q-8 -58 -35 -127h-702q29 -125 196 -125q123 0 203 74l217 -199q-178 -166 -446 -166
q-134 0 -238.5 44.5t-166 121.5t-85.5 178.5t-6 216.5q37 224 209 372.5t402 148.5zM420 625h387q-11 141 -162 141t-225 -141z" />
    <glyph glyph-name="Eogonek" unicode="&#x118;" horiz-adv-x="1095" 
d="M1124 1092h-542l-37 -201h495l-61 -336h-492l-36 -211h553l-60 -344q-107 -97 -117 -160q-9 -47 35 -47q12 -2 47 6l-37 -202q-90 -35 -186 -35q-95 0 -146.5 47t-35.5 139q21 117 172 252h-653l251 1434h912z" />
    <glyph glyph-name="eogonek" unicode="&#x119;" horiz-adv-x="1163" 
d="M664 1053q152 0 265.5 -71.5t163.5 -195.5t23 -272q-8 -58 -35 -127h-702q29 -125 196 -125q123 0 203 74l217 -199q-45 -40 -63 -53q-89 -65 -144.5 -129t-66.5 -105q-8 -26 2 -41.5t37 -15.5q20 0 41 6l-37 -202q-81 -35 -172 -35q-110 0 -161.5 54.5t-35.5 137.5
q17 103 156 217h-2q-134 0 -238.5 44.5t-166 121.5t-85.5 178.5t-6 216.5q37 224 209 372.5t402 148.5zM420 625h387q-11 141 -162 141t-225 -141z" />
    <glyph glyph-name="Ecaron" unicode="&#x11a;" horiz-adv-x="1095" 
d="M567 1526l-161 317h296l62 -114l100 114h318l-273 -317h-342zM1124 1092h-542l-37 -201h495l-61 -336h-492l-36 -211h553l-60 -344h-921l251 1434h912z" />
    <glyph glyph-name="ecaron" unicode="&#x11b;" horiz-adv-x="1163" 
d="M530 1130l-161 318h297l61 -115l100 115h318l-273 -318h-342zM664 1053q152 0 265.5 -71.5t163.5 -195.5t23 -272q-8 -58 -35 -127h-702q29 -125 196 -125q123 0 203 74l217 -199q-178 -166 -446 -166q-134 0 -238.5 44.5t-166 121.5t-85.5 178.5t-6 216.5
q37 224 209 372.5t402 148.5zM420 625h387q-11 141 -162 141t-225 -141z" />
    <glyph glyph-name="Gbreve" unicode="&#x11e;" horiz-adv-x="1595" 
d="M1004 1530q-175 0 -266 90t-62 238h287q-8 -43 9.5 -67t55.5 -24q80 0 96 91h287q-25 -161 -128 -244.5t-279 -83.5zM1591 821l-24 -145q-54 -325 -277.5 -516t-548.5 -191q-165 0 -299.5 60t-219 163t-119 244.5t-7.5 300.5q35 210 155 375.5t301.5 258.5t391.5 93
q211 0 364.5 -90t235.5 -248l-336 -180q-89 160 -301 160q-167 0 -291 -108t-155 -281t55.5 -286.5t257.5 -113.5q264 0 371 189h-332l55 315h723z" />
    <glyph glyph-name="gbreve" unicode="&#x11f;" horiz-adv-x="1267" 
d="M739 1120q-174 0 -265 90t-62 238h286q-7 -43 10.5 -66.5t55.5 -23.5q80 0 96 90h287q-25 -160 -128.5 -244t-279.5 -84zM924 1024h336l-175 -983q-22 -128 -79.5 -223t-140 -150t-178.5 -81.5t-206 -26.5q-172 0 -298.5 64t-180.5 186l301 157q57 -110 209 -110
q94 0 157.5 46t80.5 138l14 78q-120 -107 -291 -107q-117 0 -205 45.5t-136.5 121.5t-66.5 171t-2 197q15 96 59 185.5t112 161.5t167 115.5t213 43.5q199 0 289 -150zM582 322q90 0 159.5 52.5t92.5 137.5l6 41q8 85 -42.5 137.5t-140.5 52.5q-97 0 -168 -59.5t-86 -151.5
q-17 -92 32.5 -151t146.5 -59z" />
    <glyph glyph-name="Gdotaccent" unicode="&#x120;" horiz-adv-x="1595" 
d="M987 1542q-75 0 -120 54t-31 128q14 75 77 130t138 55t120 -55t33 -130q-15 -74 -79 -128t-138 -54zM1591 821l-24 -145q-54 -325 -277.5 -516t-548.5 -191q-165 0 -299.5 60t-219 163t-119 244.5t-7.5 300.5q35 210 155 375.5t301.5 258.5t391.5 93q211 0 364.5 -90
t235.5 -248l-336 -180q-89 160 -301 160q-167 0 -291 -108t-155 -281t55.5 -286.5t257.5 -113.5q264 0 371 189h-332l55 315h723z" />
    <glyph glyph-name="gdotaccent" unicode="&#x121;" horiz-adv-x="1267" 
d="M723 1133q-75 0 -120.5 54t-31.5 128q14 75 77 129.5t138 54.5t120.5 -54.5t33.5 -129.5q-15 -74 -79 -128t-138 -54zM924 1024h336l-175 -983q-22 -128 -79.5 -223t-140 -150t-178.5 -81.5t-206 -26.5q-172 0 -298.5 64t-180.5 186l301 157q57 -110 209 -110
q94 0 157.5 46t80.5 138l14 78q-120 -107 -291 -107q-117 0 -205 45.5t-136.5 121.5t-66.5 171t-2 197q15 96 59 185.5t112 161.5t167 115.5t213 43.5q199 0 289 -150zM582 322q90 0 159.5 52.5t92.5 137.5l6 41q8 85 -42.5 137.5t-140.5 52.5q-97 0 -168 -59.5t-86 -151.5
q-17 -92 32.5 -151t146.5 -59z" />
    <glyph glyph-name="Gcommaaccent" unicode="&#x122;" horiz-adv-x="1595" 
d="M1591 821l-24 -145q-54 -325 -277.5 -516t-548.5 -191q-165 0 -299.5 60t-219 163t-119 244.5t-7.5 300.5q35 210 155 375.5t301.5 258.5t391.5 93q211 0 364.5 -90t235.5 -248l-336 -180q-89 160 -301 160q-167 0 -291 -108t-155 -281t55.5 -286.5t257.5 -113.5
q264 0 371 189h-332l55 315h723zM459 -567l98 450h315l-149 -450h-264z" />
    <glyph glyph-name="gcommaaccent" unicode="&#x123;" horiz-adv-x="1267" 
d="M965 1628l-101 -450h-315l151 450h265zM924 1024h336l-175 -983q-22 -128 -79.5 -223t-140 -150t-178.5 -81.5t-206 -26.5q-172 0 -298.5 64t-180.5 186l301 157q57 -110 209 -110q94 0 157.5 46t80.5 138l14 78q-120 -107 -291 -107q-117 0 -205 45.5t-136.5 121.5
t-66.5 171t-2 197q15 96 59 185.5t112 161.5t167 115.5t213 43.5q199 0 289 -150zM582 322q90 0 159.5 52.5t92.5 137.5l6 41q8 85 -42.5 137.5t-140.5 52.5q-97 0 -168 -59.5t-86 -151.5q-17 -92 32.5 -151t146.5 -59z" />
    <glyph glyph-name="Hbar" unicode="&#x126;" horiz-adv-x="1443" 
d="M1540 1245l-45 -266h-125l-172 -979h-364l79 451h-403l-80 -451h-367l173 979h-121l45 266h123l32 189h367l-33 -189h404l32 189h365l-33 -189h123zM975 805l31 174h-404l-31 -174h404z" />
    <glyph glyph-name="hbar" unicode="&#x127;" horiz-adv-x="1202" 
d="M823 1028q166 0 256.5 -116t53.5 -324l-103 -588h-340l94 545q14 82 -21 123t-106 41q-70 0 -120.5 -41t-71.5 -119l-96 -549h-340l194 1104h-119l39 217h117l21 113h340l-21 -113h279l-39 -217h-277l-37 -207q56 62 133 96.5t164 34.5z" />
    <glyph glyph-name="Imacron" unicode="&#x12a;" horiz-adv-x="591" 
d="M162 1544l45 266h635l-47 -266h-633zM274 1434h367l-252 -1434h-366z" />
    <glyph glyph-name="imacron" unicode="&#x12b;" horiz-adv-x="536" 
d="M115 1135l47 276h530l-47 -276h-530zM8 0l180 1024h340l-180 -1024h-340z" />
    <glyph glyph-name="Iogonek" unicode="&#x12e;" horiz-adv-x="591" 
d="M389 0q-96 -99 -102 -162q-6 -45 39 -45q13 -2 45 6l-37 -202q-90 -35 -187 -35q-94 0 -144 54t-38 140q18 121 154 244h-96l251 1434h367z" />
    <glyph glyph-name="iogonek" unicode="&#x12f;" horiz-adv-x="536" 
d="M440 1499q82 0 130 -57.5t34 -136.5q-12 -81 -77.5 -139t-149.5 -58q-81 0 -129.5 59t-34.5 138q12 77 77.5 135.5t149.5 58.5zM8 0l180 1024h340l-180 -1024q-85 -98 -94 -162q-7 -45 37 -45q13 -2 45 6l-37 -202q-87 -35 -186 -35q-92 0 -143 53t-40 135
q11 106 136 250h-58z" />
    <glyph glyph-name="Idotaccent" unicode="&#x130;" horiz-adv-x="591" 
d="M475 1522q-75 0 -120 54t-31 128q14 75 77 129.5t138 54.5t120 -54.5t33 -129.5q-15 -74 -79 -128t-138 -54zM274 1434h367l-252 -1434h-366z" />
    <glyph glyph-name="dotlessi" unicode="&#x131;" horiz-adv-x="536" 
d="M8 0l180 1024h340l-180 -1024h-340z" />
    <glyph glyph-name="Kcommaaccent" unicode="&#x136;" horiz-adv-x="1292" 
d="M1456 1434l-610 -713l364 -721h-379l-327 653l-115 -653h-366l251 1434h367l-102 -582l489 582h428zM283 -567l98 450h315l-149 -450h-264z" />
    <glyph glyph-name="kcommaaccent" unicode="&#x137;" horiz-adv-x="1099" 
d="M1174 1024l-431 -514l267 -510h-365l-217 451l-80 -451h-340l252 1434h340l-143 -816l325 406h392zM227 -567l99 450h315l-149 -450h-265z" />
    <glyph glyph-name="Lacute" unicode="&#x139;" horiz-adv-x="993" 
d="M922 1843l-279 -297h-334l207 297h406zM451 354h493l-61 -354h-860l251 1434h367z" />
    <glyph glyph-name="lacute" unicode="&#x13a;" horiz-adv-x="538" 
d="M283 1556h333l279 297h-406zM10 0l115 657l147 838h340l-147 -848l-115 -647h-340z" />
    <glyph glyph-name="Lcommaaccent" unicode="&#x13b;" horiz-adv-x="993" 
d="M451 354h493l-61 -354h-860l251 1434h367zM182 -567l99 450h315l-150 -450h-264z" />
    <glyph glyph-name="lcommaaccent" unicode="&#x13c;" horiz-adv-x="538" 
d="M10 0l115 657l147 838h340l-147 -848l-115 -647h-340zM166 -567l149 450h-315l-98 -450h264z" />
    <glyph glyph-name="Lcaron" unicode="&#x13d;" horiz-adv-x="993" 
d="M641 1434l-190 -1080h493l-61 -354h-860l251 1434h367zM760 1434h336l-142 -408h-284z" />
    <glyph glyph-name="lcaron" unicode="&#x13e;" horiz-adv-x="813" 
d="M10 0l115 657l147 838h340l-147 -848l-115 -647h-340zM866 1047l152 448h-316l-100 -448h264z" />
    <glyph glyph-name="Lslash" unicode="&#x141;" horiz-adv-x="1054" 
d="M512 354h494l-62 -354h-860l72 408l-136 -74l64 362l135 74l117 664h366l-77 -441l272 150l-63 -363l-273 -149z" />
    <glyph glyph-name="lslash" unicode="&#x142;" horiz-adv-x="571" 
d="M653 1038l-55 -321l-117 -66v-4l-114 -647h-340l75 434l-116 -67l57 321l115 66l131 741h340l-90 -522z" />
    <glyph glyph-name="Nacute" unicode="&#x143;" horiz-adv-x="1382" 
d="M688 1546h334l278 297h-405zM23 0l251 1434h285l373 -750l133 750h365l-252 -1434h-283l-373 750l-133 -750h-366z" />
    <glyph glyph-name="nacute" unicode="&#x144;" 
d="M1126 1454l-278 -297h-334l207 297h405zM809 1053q166 0 255 -116t54 -325l-108 -612h-340l100 569q13 81 -22 121.5t-105 40.5q-77 0 -129.5 -47t-69.5 -139v2l-96 -547h-340l180 1024h340l-18 -104q56 63 134 98t165 35z" />
    <glyph glyph-name="Ncommaaccent" unicode="&#x145;" horiz-adv-x="1382" 
d="M23 0l251 1434h285l373 -750l133 750h365l-252 -1434h-283l-373 750l-133 -750h-366zM608 -567l150 450h-316l-98 -450h264z" />
    <glyph glyph-name="ncommaaccent" unicode="&#x146;" 
d="M809 1053q166 0 255 -116t54 -325l-108 -612h-340l100 569q13 81 -22 121.5t-105 40.5q-77 0 -129.5 -47t-69.5 -139v2l-96 -547h-340l180 1024h340l-18 -104q56 63 134 98t165 35zM254 -567l98 450h316l-150 -450h-264z" />
    <glyph glyph-name="Ncaron" unicode="&#x147;" horiz-adv-x="1382" 
d="M688 1526l-162 317h297l62 -114l100 114h318l-273 -317h-342zM1065 1434h365l-252 -1434h-283l-373 750l-133 -750h-366l251 1434h285l373 -750z" />
    <glyph glyph-name="ncaron" unicode="&#x148;" 
d="M514 1137l-162 317h297l62 -115l100 115h317l-272 -317h-342zM809 1053q166 0 255 -116t54 -325l-108 -612h-340l100 569q13 81 -22 121.5t-105 40.5q-77 0 -129.5 -47t-69.5 -139v2l-96 -547h-340l180 1024h340l-18 -104q56 63 134 98t165 35z" />
    <glyph glyph-name="Eng" unicode="&#x14a;" horiz-adv-x="1382" 
d="M1065 1434h365l-252 -1434q-40 -232 -180 -338t-396 -86l57 315q75 -3 116.5 25.5t53.5 97.5l17 86l-324 650l-133 -750h-366l251 1434h285l373 -750z" />
    <glyph glyph-name="eng" unicode="&#x14b;" 
d="M809 1053q166 0 255 -116t54 -325l-108 -612q-41 -239 -170.5 -342t-364.5 -86l55 307q119 -10 140 121l100 569q13 81 -22 121.5t-105 40.5q-77 0 -129.5 -47t-69.5 -139v2l-96 -547h-340l180 1024h340l-18 -104q56 63 134 98t165 35z" />
    <glyph glyph-name="Omacron" unicode="&#x14c;" horiz-adv-x="1617" 
d="M678 1565l45 266h635l-47 -266h-633zM737 -31q-164 0 -298.5 64t-217 170.5t-117 246.5t-8.5 289t99 281t182.5 230.5t259.5 156t319 57.5q162 0 295.5 -63.5t215.5 -169t116.5 -245t9.5 -288.5q-26 -150 -98 -282t-180.5 -232t-258 -157.5t-319.5 -57.5zM770 328
q166 0 298 109.5t161 279.5q30 170 -60 279.5t-256 109.5q-165 0 -293 -109t-159 -280t56.5 -280t252.5 -109z" />
    <glyph glyph-name="omacron" unicode="&#x14d;" horiz-adv-x="1193" 
d="M393 1155l45 266h635l-47 -266h-633zM528 -29q-89 0 -165.5 23.5t-131 64t-96 96t-61.5 119t-27 133t8 138.5q19 101 70 191t128 161.5t186 113.5t235 42q124 0 223 -50t156.5 -131.5t80.5 -183t5 -205.5q-18 -100 -69.5 -191.5t-129 -163.5t-185 -114.5t-227.5 -42.5z
M555 299q90 0 157.5 59t84.5 154t-29.5 154t-136.5 59q-88 0 -155.5 -59t-84.5 -154t29.5 -154t134.5 -59z" />
    <glyph glyph-name="Ohungarumlaut" unicode="&#x150;" horiz-adv-x="1617" 
d="M584 1546h321l232 307h-336zM977 1546h323l250 307h-333zM737 -31q-164 0 -298.5 64t-217 170.5t-117 246.5t-8.5 289t99 281t182.5 230.5t259.5 156t319 57.5q162 0 295.5 -63.5t215.5 -169t116.5 -245t9.5 -288.5q-26 -150 -98 -282t-180.5 -232t-258 -157.5
t-319.5 -57.5zM770 328q166 0 298 109.5t161 279.5q30 170 -60 279.5t-256 109.5q-165 0 -293 -109t-159 -280t56.5 -280t252.5 -109z" />
    <glyph glyph-name="ohungarumlaut" unicode="&#x151;" horiz-adv-x="1193" 
d="M299 1137h322l231 307h-336zM692 1137h324l250 307h-334zM528 -29q-89 0 -165.5 23.5t-131 64t-96 96t-61.5 119t-27 133t8 138.5q19 101 70 191t128 161.5t186 113.5t235 42q124 0 223 -50t156.5 -131.5t80.5 -183t5 -205.5q-18 -100 -69.5 -191.5t-129 -163.5
t-185 -114.5t-227.5 -42.5zM555 299q90 0 157.5 59t84.5 154t-29.5 154t-136.5 59q-88 0 -155.5 -59t-84.5 -154t29.5 -154t134.5 -59z" />
    <glyph glyph-name="OE" unicode="&#x152;" horiz-adv-x="1912" 
d="M1944 1090h-463l-35 -199h412l-60 -336h-409l-37 -211h471l-62 -344h-837q-115 -31 -222 -31q-159 0 -287.5 61.5t-205.5 165.5t-108.5 242.5t-6.5 290.5q24 147 98 280.5t184 234.5t259 160.5t311 59.5q131 0 230 -30l-64 -361q-79 33 -209 33q-164 0 -287.5 -108.5
t-154.5 -280.5t52 -280.5t247 -108.5q135 0 227 32l189 1074h827z" />
    <glyph glyph-name="oe" unicode="&#x153;" horiz-adv-x="1910" 
d="M1432 1053q142 0 250.5 -71.5t157.5 -195.5t24 -272q-8 -58 -35 -127h-703q29 -125 197 -125q123 0 203 74l217 -199q-178 -166 -430 -166q-274 0 -393 176q-162 -176 -412 -176q-88 0 -162 22.5t-126 61.5t-91.5 93t-57.5 116t-25 130.5t7 137.5q17 101 65.5 193
t123 166t182.5 118t233 44q119 0 210.5 -46t148.5 -130q165 176 416 176zM1167 625h387q-11 141 -161 141q-73 0 -131.5 -35.5t-94.5 -105.5zM803 512q17 94 -31 153.5t-137 59.5q-90 0 -157.5 -59t-84.5 -154q-17 -94 30 -153.5t136 -59.5q90 0 158.5 59t85.5 154z" />
    <glyph glyph-name="Racute" unicode="&#x154;" horiz-adv-x="1269" 
d="M1184 1843l-279 -297h-334l207 297h406zM1278 918q-24 -137 -105.5 -239.5t-205.5 -158.5l196 -520h-368l-168 463h-156l-82 -463h-366l253 1434h562q139 0 249 -68t163 -187.5t28 -260.5zM582 1096l-58 -322h211q67 -1 115.5 43.5t60.5 116.5q12 71 -24 116.5t-109 45.5
h-196z" />
    <glyph glyph-name="racute" unicode="&#x155;" horiz-adv-x="778" 
d="M938 1434l-279 -297h-333l206 297h406zM494 831q46 103 138.5 158t207.5 55l-64 -376q-53 7 -106 -1.5t-104.5 -33.5t-90 -79t-51.5 -130l4 33l-80 -457h-340l180 1024h340z" />
    <glyph glyph-name="Rcommaaccent" unicode="&#x156;" horiz-adv-x="1269" 
d="M1278 918q-24 -137 -105.5 -239.5t-205.5 -158.5l196 -520h-368l-168 463h-156l-82 -463h-366l253 1434h562q139 0 249 -68t163 -187.5t28 -260.5zM582 1096l-58 -322h211q67 -1 115.5 43.5t60.5 116.5q12 71 -24 116.5t-109 45.5h-196zM340 -567l98 450h316l-150 -450
h-264z" />
    <glyph glyph-name="rcommaaccent" unicode="&#x157;" horiz-adv-x="778" 
d="M494 831q46 103 138.5 158t207.5 55l-64 -376q-53 7 -106 -1.5t-104.5 -33.5t-90 -79t-51.5 -130l4 33l-80 -457h-340l180 1024h340zM-100 -567l98 450h315l-149 -450h-264z" />
    <glyph glyph-name="Rcaron" unicode="&#x158;" horiz-adv-x="1269" 
d="M571 1526l-161 317h297l61 -114l100 114h318l-273 -317h-342zM1278 918q-24 -137 -105.5 -239.5t-205.5 -158.5l196 -520h-368l-168 463h-156l-82 -463h-366l253 1434h562q139 0 249 -68t163 -187.5t28 -260.5zM582 1096l-58 -322h211q67 -1 115.5 43.5t60.5 116.5
q12 71 -24 116.5t-109 45.5h-196z" />
    <glyph glyph-name="rcaron" unicode="&#x159;" horiz-adv-x="778" 
d="M326 1116l-162 318h297l61 -115l101 115h317l-272 -318h-342zM494 831q46 103 138.5 158t207.5 55l-64 -376q-53 7 -106 -1.5t-104.5 -33.5t-90 -79t-51.5 -130l4 33l-80 -457h-340l180 1024h340z" />
    <glyph glyph-name="Sacute" unicode="&#x15a;" horiz-adv-x="1204" 
d="M588 1567h334l278 297h-405zM551 -31q-229 0 -371 95.5t-186 261.5l325 168q59 -179 263 -179q87 0 132.5 27t53.5 72q4 23 -5 42.5t-23 32.5t-46.5 28t-55.5 23.5t-70 24.5q-9 3 -14.5 5t-14 5t-15.5 5q-49 17 -90.5 35t-82.5 42.5t-70.5 52.5t-56 63.5t-38.5 76.5
t-17 91.5t7 107.5q23 132 104 227.5t195.5 141.5t249.5 46q180 0 310.5 -84.5t191.5 -242.5l-314 -168q-67 149 -217 149q-64 0 -101.5 -25.5t-45.5 -66.5q-11 -52 37.5 -86t183.5 -80q35 -12 61 -22t60 -24t58.5 -28.5t53 -33t48 -39.5t39.5 -46t31.5 -55t19 -65t7 -76.5
t-8.5 -87.5q-36 -202 -192 -308t-396 -106z" />
    <glyph glyph-name="sacute" unicode="&#x15b;" horiz-adv-x="968" 
d="M412 1157h333l279 297h-406zM430 -29q-169 0 -281 60.5t-169 191.5l299 146q45 -117 170 -117q90 0 98 49q4 24 -21.5 41t-69 30t-96.5 28t-103.5 41t-90 62t-57 98t-3.5 142q18 105 91 177.5t162.5 102.5t187.5 30q141 0 248 -58.5t157 -169.5l-288 -139q-39 91 -127 94
q-35 2 -60 -12.5t-31 -42.5q-5 -25 14 -43t54 -28t79.5 -22.5t91 -26.5t88.5 -39t72.5 -61.5t43 -93.5t-1.5 -135q-15 -81 -58.5 -142t-107 -95.5t-136 -51t-155.5 -16.5z" />
    <glyph glyph-name="Scedilla" unicode="&#x15e;" horiz-adv-x="1204" 
d="M770 860q35 -12 61 -22t60 -24t58.5 -28.5t53 -33t48 -39.5t39.5 -46t31.5 -55t19 -65t7 -76.5t-8.5 -87.5q-32 -173 -152 -276t-309 -130l-12 -71q43 -19 71.5 -63t16.5 -113q-13 -70 -66 -113.5t-164.5 -62.5t-281.5 -7l39 224q191 -15 200 28q3 18 -24.5 28t-77.5 13
l24 142q-165 27 -269 117t-140 227l325 168q59 -179 263 -179q87 0 132.5 27t53.5 72q4 23 -5 42.5t-23 32.5t-46.5 28t-55.5 23.5t-70 24.5q-9 3 -14.5 5t-14 5t-15.5 5q-49 17 -90.5 35t-82.5 42.5t-70.5 52.5t-56 63.5t-38.5 76.5t-17 91.5t7 107.5q23 132 104 227.5
t195.5 141.5t249.5 46q180 0 310.5 -84.5t191.5 -242.5l-314 -168q-67 149 -217 149q-64 0 -101.5 -25.5t-45.5 -66.5q-11 -52 37.5 -86t183.5 -80z" />
    <glyph glyph-name="scedilla" unicode="&#x15f;" horiz-adv-x="968" 
d="M446 725q-5 -25 14 -43t54 -28t79.5 -22.5t91 -26.5t88.5 -39t72.5 -61.5t43 -93.5t-1.5 -135q-23 -126 -110.5 -198t-215.5 -96l-14 -76q43 -19 71.5 -63t16.5 -113q-13 -70 -66 -113.5t-164.5 -62.5t-281.5 -7l39 224q191 -15 200 28q3 18 -24.5 28t-77.5 13l27 144
q-223 45 -307 239l299 146q45 -117 170 -117q90 0 98 49q4 24 -21.5 41t-69 30t-96.5 28t-103.5 41t-90 62t-57 98t-3.5 142q18 105 91 177.5t162.5 102.5t187.5 30q141 0 248 -58.5t157 -169.5l-288 -139q-39 91 -127 94q-35 2 -60 -12.5t-31 -42.5z" />
    <glyph glyph-name="Scaron" unicode="&#x160;" horiz-adv-x="1204" 
d="M588 1546l-162 318h297l61 -115l101 115h317l-272 -318h-342zM770 860q35 -12 61 -22t60 -24t58.5 -28.5t53 -33t48 -39.5t39.5 -46t31.5 -55t19 -65t7 -76.5t-8.5 -87.5q-36 -202 -192 -308t-396 -106q-229 0 -371 95.5t-186 261.5l325 168q59 -179 263 -179
q87 0 132.5 27t53.5 72q4 23 -5 42.5t-23 32.5t-46.5 28t-55.5 23.5t-70 24.5q-9 3 -14.5 5t-14 5t-15.5 5q-49 17 -90.5 35t-82.5 42.5t-70.5 52.5t-56 63.5t-38.5 76.5t-17 91.5t7 107.5q23 132 104 227.5t195.5 141.5t249.5 46q180 0 310.5 -84.5t191.5 -242.5l-314 -168
q-67 149 -217 149q-64 0 -101.5 -25.5t-45.5 -66.5q-11 -52 37.5 -86t183.5 -80z" />
    <glyph glyph-name="scaron" unicode="&#x161;" horiz-adv-x="968" 
d="M412 1137l-162 317h297l61 -115l101 115h317l-272 -317h-342zM537 780q-35 2 -60 -12.5t-31 -42.5q-5 -25 14 -43t54 -28t79.5 -22.5t91 -26.5t88.5 -39t72.5 -61.5t43 -93.5t-1.5 -135q-15 -81 -58.5 -142t-107 -95.5t-136 -51t-155.5 -16.5q-169 0 -281 60.5
t-169 191.5l299 146q45 -117 170 -117q90 0 98 49q4 24 -21.5 41t-69 30t-96.5 28t-103.5 41t-90 62t-57 98t-3.5 142q18 105 91 177.5t162.5 102.5t187.5 30q141 0 248 -58.5t157 -169.5l-288 -139q-39 91 -127 94z" />
    <glyph glyph-name="uni0162" unicode="&#x162;" horiz-adv-x="1116" 
d="M1257 1434l-63 -355h-352l-191 -1079h-366l190 1079h-354l61 355h1075zM195 -567l98 450h315l-149 -450h-264z" />
    <glyph glyph-name="uni0163" unicode="&#x163;" horiz-adv-x="806" 
d="M553 698l-51 -297q-11 -69 33.5 -85.5t162.5 -8.5l-53 -307q-289 -38 -407.5 59t-77.5 334l53 305h-154l58 326h153l33 184l359 103l-52 -287h215l-59 -326h-213zM111 -557l98 451h315l-149 -451h-264z" />
    <glyph glyph-name="Tcaron" unicode="&#x164;" horiz-adv-x="1116" 
d="M555 1526l-162 317h297l62 -114l100 114h317l-272 -317h-342zM1257 1434l-63 -355h-352l-191 -1079h-366l190 1079h-354l61 355h1075z" />
    <glyph glyph-name="tcaron" unicode="&#x165;" horiz-adv-x="880" 
d="M788 1487h308l-142 -389h-254zM662 1311l-52 -287h215l-59 -326h-213l-51 -297q-11 -69 33.5 -85.5t162.5 -8.5l-53 -307q-289 -38 -407.5 59t-77.5 334l53 305h-154l58 326h153l33 184z" />
    <glyph glyph-name="Tbar" unicode="&#x166;" horiz-adv-x="1116" 
d="M1194 1079h-352l-43 -235h215l-58 -324h-213l-92 -520h-366l92 520h-219l57 324h217l43 235h-354l61 355h1075z" />
    <glyph glyph-name="tbar" unicode="&#x167;" horiz-adv-x="806" 
d="M772 727h-213l-14 -84h147l-43 -246h-147q-10 -66 34.5 -82t161.5 -8l-53 -307q-289 -38 -407.5 59t-77.5 334v4h-103l43 246h103l16 84h-156l54 297h153l33 184l359 103l-52 -287h215z" />
    <glyph glyph-name="Umacron" unicode="&#x16a;" horiz-adv-x="1320" 
d="M526 1544l45 266h635l-47 -266h-633zM594 -31q-262 0 -404 141.5t-104 360.5l170 963h367l-164 -928q-32 -180 170 -180q201 0 233 180l162 928h367l-170 -963q-43 -242 -213 -372t-414 -130z" />
    <glyph glyph-name="umacron" unicode="&#x16b;" 
d="M1049 1401l-48 -266h-632l45 266h635zM836 1024h340l-181 -1024h-340l19 104q-56 -63 -134 -98t-165 -35q-166 0 -255 116t-54 325l108 612h340l-100 -569q-13 -81 22 -121.5t105 -40.5q77 0 129 47t69 139v-2z" />
    <glyph glyph-name="Uring" unicode="&#x16e;" horiz-adv-x="1320" 
d="M829 1450q-125 0 -194 80t-49 196t111.5 190.5t217.5 74.5q125 0 195.5 -81.5t48.5 -197.5q-21 -117 -110.5 -189.5t-219.5 -72.5zM860 1655q34 0 55.5 17t26.5 46q6 29 -9.5 48.5t-49.5 19.5q-31 0 -52 -18.5t-26 -47.5t9.5 -47t45.5 -18zM594 -31q-262 0 -404 141.5
t-104 360.5l170 963h367l-164 -928q-32 -180 170 -180q201 0 233 180l162 928h367l-170 -963q-43 -242 -213 -372t-414 -130z" />
    <glyph glyph-name="uring" unicode="&#x16f;" 
d="M682 1092q-125 0 -194.5 80t-49.5 196t111.5 190t218.5 74q125 0 195.5 -81t48.5 -197q-21 -117 -110.5 -189.5t-219.5 -72.5zM657 1362q-5 -29 10 -47.5t46 -18.5q34 0 55.5 17.5t26.5 46.5q6 29 -10 48t-50 19q-31 0 -52 -18t-26 -47zM836 1024h340l-181 -1024h-340
l19 104q-56 -63 -134 -98t-165 -35q-166 0 -255 116t-54 325l108 612h340l-100 -569q-13 -81 22 -121.5t105 -40.5q77 0 129 47t69 139v-2z" />
    <glyph glyph-name="Uhungarumlaut" unicode="&#x170;" horiz-adv-x="1320" 
d="M432 1526h322l231 307h-336zM825 1526h324l250 307h-334zM594 -31q-262 0 -404 141.5t-104 360.5l170 963h367l-164 -928q-32 -180 170 -180q201 0 233 180l162 928h367l-170 -963q-43 -242 -213 -372t-414 -130z" />
    <glyph glyph-name="uhungarumlaut" unicode="&#x171;" 
d="M827 1423l-231 -307h-322l218 307h335zM991 1116h-323l239 307h334zM739 477l97 547h340l-181 -1024h-340l19 104q-56 -63 -134 -98t-165 -35q-166 0 -255 116t-54 325l108 612h340l-100 -569q-13 -81 22 -121.5t105 -40.5q77 0 129 47t69 139v-2z" />
    <glyph glyph-name="Uogonek" unicode="&#x172;" horiz-adv-x="1320" 
d="M1024 1434h367l-170 -963q-48 -261 -242 -393q-102 -78 -158 -135t-67 -103q-12 -45 34 -47q13 -2 48 6l-37 -202q-90 -35 -174 -35q-107 0 -159.5 57.5t-35.5 149.5q23 114 131 200q-248 11 -380 150.5t-95 351.5l170 963h367l-164 -928q-32 -180 170 -180
q201 0 233 180z" />
    <glyph glyph-name="uogonek" unicode="&#x173;" 
d="M836 1024h340l-181 -1024h-4q-49 -44 -81.5 -90.5t-35.5 -77.5q-6 -39 37 -39q21 0 45 6l-36 -202q-77 -35 -166 -35q-101 0 -160 50t-43 144q22 118 168 244h-64l19 104q-56 -63 -134 -98t-165 -35q-166 0 -255 116t-54 325l108 612h340l-100 -569q-13 -81 22 -121.5
t105 -40.5q77 0 129 47t69 139v-2z" />
    <glyph glyph-name="Wcircumflex" unicode="&#x174;" horiz-adv-x="2056" 
d="M1219 1640l-103 -114h-309l272 317h342l162 -317h-305zM1804 1434h402l-652 -1434h-387l-88 809l-370 -809h-387l-150 1434h371l71 -904l414 904h293l98 -904z" />
    <glyph glyph-name="wcircumflex" unicode="&#x175;" horiz-adv-x="1617" 
d="M934 1231l-103 -115h-309l273 318h342l161 -318h-305zM1325 1024h371l-494 -1024h-332l-55 514l-223 -514h-348l-133 1024h340l47 -557l241 557h297l60 -547z" />
    <glyph glyph-name="Ycircumflex" unicode="&#x176;" horiz-adv-x="1292" 
d="M838 1640l-103 -114h-309l272 317h342l162 -317h-305zM1454 1434l-604 -809l-111 -625h-366l110 625l-321 809h389l154 -461l315 461h434z" />
    <glyph glyph-name="ycircumflex" unicode="&#x177;" horiz-adv-x="1124" 
d="M659 1231l-102 -115h-309l272 318h342l162 -318h-305zM823 1024h391l-520 -993q-133 -255 -303 -357.5t-397 -83.5l57 320q110 0 166 28t102 103l-229 983h361l106 -592z" />
    <glyph glyph-name="Ydieresis" unicode="&#x178;" horiz-adv-x="1292" 
d="M621 1505q-67 0 -107 48t-29 116q10 67 67.5 115.5t125.5 48.5q66 0 105.5 -48.5t27.5 -115.5q-10 -67 -66 -115.5t-124 -48.5zM1018 1505q-66 0 -105.5 48.5t-27.5 115.5q10 67 66 115.5t124 48.5q67 0 106.5 -48t28.5 -116q-10 -67 -67 -115.5t-125 -48.5zM1454 1434
l-604 -809l-111 -625h-366l110 625l-321 809h389l154 -461l315 461h434z" />
    <glyph glyph-name="Zacute" unicode="&#x179;" horiz-adv-x="1110" 
d="M1180 1843l-279 -297h-334l207 297h406zM1210 1434l-47 -283l-639 -797h512l-61 -354h-998l50 283l641 796h-492l64 355h970z" />
    <glyph glyph-name="zacute" unicode="&#x17a;" horiz-adv-x="931" 
d="M1010 1434l-279 -297h-334l207 297h406zM106 709l56 315h799l-41 -233l-435 -476h371l-55 -315h-840l43 233l432 476h-330z" />
    <glyph glyph-name="Zdotaccent" unicode="&#x17b;" horiz-adv-x="1110" 
d="M748 1522q-75 0 -120.5 54t-31.5 128q14 75 77 129.5t138 54.5t120.5 -54.5t33.5 -129.5q-15 -74 -79 -128t-138 -54zM1210 1434l-47 -283l-639 -797h512l-61 -354h-998l50 283l641 796h-492l64 355h970z" />
    <glyph glyph-name="zdotaccent" unicode="&#x17c;" horiz-adv-x="931" 
d="M578 1112q-75 0 -120.5 54t-31.5 128q14 75 77 130t138 55t120.5 -55t33.5 -130q-15 -74 -79 -128t-138 -54zM961 1024l-41 -233l-435 -476h371l-55 -315h-840l43 233l432 476h-330l56 315h799z" />
    <glyph glyph-name="Zcaron" unicode="&#x17d;" horiz-adv-x="1110" 
d="M567 1526l-161 317h296l62 -114l100 114h318l-273 -317h-342zM1210 1434l-47 -283l-639 -797h512l-61 -354h-998l50 283l641 796h-492l64 355h970z" />
    <glyph glyph-name="zcaron" unicode="&#x17e;" horiz-adv-x="931" 
d="M397 1116l-161 318h296l62 -115l100 115h318l-273 -318h-342zM106 709l56 315h799l-41 -233l-435 -476h371l-55 -315h-840l43 233l432 476h-330z" />
    <glyph glyph-name="florin" unicode="&#x192;" horiz-adv-x="944" 
d="M492 1100q34 99 84.5 172t109.5 114.5t129.5 61.5t142 18.5t150.5 -20.5l-59 -336q-27 14 -59.5 15.5t-64 -9.5t-58.5 -40t-42 -72l-41 -121h152l-57 -326h-209l-215 -620q-34 -99 -84.5 -172t-109.5 -115t-129.5 -62t-142.5 -18.5t-151 20.5l60 336q27 -14 59.5 -15.5
t63.5 10t58 40.5t42 72l182 524h-141l59 326h195z" />
    <glyph glyph-name="Scommaaccent" unicode="&#x218;" horiz-adv-x="1204" 
d="M551 -31q-229 0 -371 95.5t-186 261.5l325 168q59 -179 263 -179q87 0 132.5 27t53.5 72q4 23 -5 42.5t-23 32.5t-46.5 28t-55.5 23.5t-70 24.5q-9 3 -14.5 5t-14 5t-15.5 5q-49 17 -90.5 35t-82.5 42.5t-70.5 52.5t-56 63.5t-38.5 76.5t-17 91.5t7 107.5
q23 132 104 227.5t195.5 141.5t249.5 46q180 0 310.5 -84.5t191.5 -242.5l-314 -168q-67 149 -217 149q-64 0 -101.5 -25.5t-45.5 -66.5q-11 -52 37.5 -86t183.5 -80q35 -12 61 -22t60 -24t58.5 -28.5t53 -33t48 -39.5t39.5 -46t31.5 -55t19 -65t7 -76.5t-8.5 -87.5
q-36 -202 -192 -308t-396 -106zM543 -567l149 450h-315l-98 -450h264z" />
    <glyph glyph-name="scommaaccent" unicode="&#x219;" horiz-adv-x="968" 
d="M430 -29q-169 0 -281 60.5t-169 191.5l299 146q45 -117 170 -117q90 0 98 49q4 24 -21.5 41t-69 30t-96.5 28t-103.5 41t-90 62t-57 98t-3.5 142q18 105 91 177.5t162.5 102.5t187.5 30q141 0 248 -58.5t157 -169.5l-288 -139q-39 91 -127 94q-35 2 -60 -12.5t-31 -42.5
q-5 -25 14 -43t54 -28t79.5 -22.5t91 -26.5t88.5 -39t72.5 -61.5t43 -93.5t-1.5 -135q-15 -81 -58.5 -142t-107 -95.5t-136 -51t-155.5 -16.5zM424 -567l149 450h-315l-98 -450h264z" />
    <glyph glyph-name="uni021A" unicode="&#x21a;" horiz-adv-x="1116" 
d="M1257 1434l-63 -355h-352l-191 -1079h-366l190 1079h-354l61 355h1075zM195 -567l98 450h315l-149 -450h-264z" />
    <glyph glyph-name="uni021B" unicode="&#x21b;" horiz-adv-x="806" 
d="M553 698l-51 -297q-11 -69 33.5 -85.5t162.5 -8.5l-53 -307q-289 -38 -407.5 59t-77.5 334l53 305h-154l58 326h153l33 184l359 103l-52 -287h215l-59 -326h-213zM111 -557l98 451h315l-149 -451h-264z" />
    <glyph glyph-name="circumflex" unicode="&#x2c6;" horiz-adv-x="858" 
d="M924 1116h-306l-59 115l-102 -115h-310l273 318h342z" />
    <glyph glyph-name="caron" unicode="&#x2c7;" horiz-adv-x="858" 
d="M662 1434h317l-272 -318h-342l-162 318h297l61 -115z" />
    <glyph glyph-name="breve" unicode="&#x2d8;" horiz-adv-x="817" 
d="M530 1100q-175 0 -265.5 89.5t-61.5 237.5h286q-7 -43 10.5 -66.5t55.5 -23.5q80 0 96 90h287q-25 -160 -128.5 -243.5t-279.5 -83.5z" />
    <glyph glyph-name="dotaccent" unicode="&#x2d9;" horiz-adv-x="407" 
d="M330 1112q-75 0 -120.5 54t-31.5 128q14 75 77 130t138 55t120.5 -55t33.5 -130q-15 -74 -79 -128t-138 -54z" />
    <glyph glyph-name="ring" unicode="&#x2da;" horiz-adv-x="657" 
d="M430 1092q-125 0 -194.5 80t-49.5 196t111.5 190t218.5 74q125 0 195.5 -81t48.5 -197q-21 -117 -110.5 -189.5t-219.5 -72.5zM461 1296q34 0 55.5 17.5t26.5 46.5q6 29 -10 48t-50 19q-31 0 -51.5 -18t-25.5 -47t9.5 -47.5t45.5 -18.5z" />
    <glyph glyph-name="ogonek" unicode="&#x2db;" horiz-adv-x="477" 
d="M88 -438q-95 0 -146.5 47t-35.5 139q21 117 172 252h268q-107 -97 -117 -160q-9 -47 35 -47q12 -2 47 6l-37 -202q-90 -35 -186 -35z" />
    <glyph glyph-name="tilde" unicode="&#x2dc;" horiz-adv-x="815" 
d="M162 1122q10 99 42 170.5t76.5 107.5t98 49.5t107 3.5t102.5 -38q25 -16 41.5 -22.5t32.5 -6t26.5 17.5t16.5 50h249q-11 -99 -43.5 -171t-77 -108t-98 -49t-107 -2.5t-102.5 39.5q-26 15 -41.5 21.5t-32 5.5t-26.5 -18t-16 -50h-248z" />
    <glyph glyph-name="hungarumlaut" unicode="&#x2dd;" horiz-adv-x="995" 
d="M147 1116h322l231 307h-335zM541 1116h323l250 307h-334z" />
    <glyph glyph-name="gravecomb" unicode="&#x300;" horiz-adv-x="0" 
d="M70 1137l-125 297h-385l194 -297h316z" />
    <glyph glyph-name="acutecomb" unicode="&#x301;" horiz-adv-x="0" 
d="M-463 1137h334l279 297h-406z" />
    <glyph glyph-name="uni0302" unicode="&#x302;" horiz-adv-x="0" 
d="M66 1116h-306l-59 115l-102 -115h-310l273 318h342z" />
    <glyph glyph-name="tildecomb" unicode="&#x303;" horiz-adv-x="0" 
d="M-668 1122q10 99 42 170.5t76.5 107.5t98 49.5t107 3.5t102.5 -38q25 -16 41.5 -22.5t32.5 -6t26.5 17.5t16.5 50h250q-11 -99 -43.5 -171t-77 -108t-98 -49t-107 -2.5t-102.5 39.5q-26 15 -41.5 21.5t-32.5 5.5t-27 -18t-16 -50h-248z" />
    <glyph glyph-name="uni0304" unicode="&#x304;" horiz-adv-x="0" 
d="M-563 1135l45 266h635l-47 -266h-633z" />
    <glyph glyph-name="uni0306" unicode="&#x306;" horiz-adv-x="0" 
d="M-297 1100q-175 0 -266 89.5t-62 237.5h287q-7 -43 10.5 -66.5t55.5 -23.5q80 0 96 90h287q-25 -160 -128.5 -243.5t-279.5 -83.5z" />
    <glyph glyph-name="uni0307" unicode="&#x307;" horiz-adv-x="0" 
d="M-119 1112q-75 0 -120 54t-31 128q14 75 77 130t138 55t120 -55t33 -130q-15 -74 -79 -128t-138 -54z" />
    <glyph glyph-name="uni0308" unicode="&#x308;" horiz-adv-x="0" 
d="M-500 1096q-67 0 -106.5 48t-28.5 116q10 67 67.5 115t125.5 48q66 0 105.5 -48t27.5 -115q-10 -67 -66.5 -115.5t-124.5 -48.5zM-102 1096q-66 0 -106 48.5t-28 115.5q10 67 66.5 115t124.5 48q67 0 106.5 -47.5t28.5 -115.5q-10 -67 -67 -115.5t-125 -48.5z" />
    <glyph glyph-name="uni030A" unicode="&#x30a;" horiz-adv-x="0" 
d="M-221 1092q-125 0 -194.5 80t-49.5 196t111.5 190t218.5 74q125 0 195.5 -81t48.5 -197q-21 -117 -110.5 -189.5t-219.5 -72.5zM-190 1296q34 0 55 17.5t26 46.5q6 29 -9.5 48t-49.5 19q-31 0 -52 -18t-26 -47t10 -47.5t46 -18.5z" />
    <glyph glyph-name="uni030B" unicode="&#x30b;" horiz-adv-x="0" 
d="M-848 1116h322l231 307h-336zM-455 1116h324l250 307h-334z" />
    <glyph glyph-name="uni030C" unicode="&#x30c;" horiz-adv-x="0" 
d="M-197 1434h318l-273 -318h-342l-161 318h297l61 -115z" />
    <glyph glyph-name="uni0312" unicode="&#x312;" horiz-adv-x="0" 
d="M-39 2017l-151 -450h315l100 450h-264z" />
    <glyph glyph-name="uni0326" unicode="&#x326;" horiz-adv-x="0" 
d="M-303 -567l149 450h-315l-98 -450h264z" />
    <glyph glyph-name="uni0327" unicode="&#x327;" horiz-adv-x="0" 
d="M-268 -94q43 -19 71.5 -63t16.5 -113q-13 -70 -66 -113.5t-164.5 -62.5t-281.5 -7l39 224q191 -15 200 28q3 18 -24.5 28t-77.5 13l29 160h274z" />
    <glyph glyph-name="uni0328" unicode="&#x328;" horiz-adv-x="0" 
d="M-399 -438q-95 0 -147 47t-36 139q21 117 172 252h269q-107 -97 -117 -160q-9 -47 35 -47q12 -2 47 6l-37 -202q-90 -35 -186 -35z" />
    <glyph glyph-name="uni0394" unicode="&#x394;" horiz-adv-x="1351" 
d="M1057 1434l215 -1434h-1372l718 1434h439zM459 317h397l-74 701z" />
    <glyph glyph-name="uni03A9" unicode="&#x3a9;" horiz-adv-x="1587" 
d="M1585 748q-43 -242 -229 -404h129l-60 -344h-575l24 145l25 136l10 63l2 10q117 40 198.5 137t104.5 226q29 171 -61.5 280t-255.5 109q-166 0 -294 -109.5t-157 -279.5q-23 -129 24 -226t148 -137l-12 -73l-49 -281h-575l59 344h149q-147 177 -104 424q36 203 161 362
t309 246.5t394 87.5q153 0 283 -54.5t217 -148.5t124.5 -228t10.5 -285z" />
    <glyph glyph-name="pi" unicode="&#x3c0;" horiz-adv-x="1353" 
d="M1411 1024l-55 -322h-154l-123 -702h-340l123 702h-301l-123 -702h-340l123 702h-155l55 322h1290z" />
    <glyph glyph-name="uni0401" unicode="&#x401;" horiz-adv-x="1095" 
d="M545 1505q-67 0 -106.5 48t-28.5 116q10 67 67 115.5t125 48.5q66 0 105.5 -48.5t27.5 -115.5q-10 -67 -66 -115.5t-124 -48.5zM942 1505q-66 0 -105.5 48.5t-27.5 115.5q10 67 66 115.5t124 48.5q67 0 107 -48t29 -116q-10 -67 -67.5 -115.5t-125.5 -48.5zM1124 1092
h-542l-37 -201h495l-61 -336h-492l-36 -211h553l-60 -344h-921l251 1434h912z" />
    <glyph glyph-name="uni0402" unicode="&#x402;" horiz-adv-x="1423" 
d="M1028 922q191 0 279.5 -107.5t54.5 -294.5l-19 -106q-46 -255 -172.5 -355t-384.5 -86l58 326q67 -4 97.5 23t41.5 92l10 63q10 64 -17 90.5t-89 26.5q-70 0 -158 -31l-98 -563h-367l191 1079h-334l61 355h1075l-63 -355h-373l-35 -190q119 33 242 33z" />
    <glyph glyph-name="uni0403" unicode="&#x403;" horiz-adv-x="972" 
d="M1137 1841l-279 -297h-334l207 297h406zM274 1434h848l-61 -355h-481l-191 -1079h-366z" />
    <glyph glyph-name="uni0404" unicode="&#x404;" horiz-adv-x="1478" 
d="M760 322q210 0 336 178l301 -195q-115 -159 -288 -247.5t-374 -88.5q-163 0 -296 60t-217 162.5t-118.5 244.5t-7.5 301q26 157 102.5 292t188 230.5t255.5 150t300 54.5q210 0 360 -91.5t226 -250.5l-336 -178q-74 168 -285 168q-125 0 -228 -60t-163 -167h514l-61 -336
h-510q22 -105 100.5 -166t200.5 -61z" />
    <glyph glyph-name="uni0405" unicode="&#x405;" horiz-adv-x="1204" 
d="M551 -31q-229 0 -371 95.5t-186 261.5l325 168q59 -179 263 -179q87 0 132.5 27t53.5 72q4 23 -5 42.5t-23 32.5t-46.5 28t-55.5 23.5t-70 24.5q-9 3 -14.5 5t-14 5t-15.5 5q-49 17 -90.5 35t-82.5 42.5t-70.5 52.5t-56 63.5t-38.5 76.5t-17 91.5t7 107.5
q23 132 104 227.5t195.5 141.5t249.5 46q180 0 310.5 -84.5t191.5 -242.5l-314 -168q-67 149 -217 149q-64 0 -101.5 -25.5t-45.5 -66.5q-11 -52 37.5 -86t183.5 -80q35 -12 61 -22t60 -24t58.5 -28.5t53 -33t48 -39.5t39.5 -46t31.5 -55t19 -65t7 -76.5t-8.5 -87.5
q-36 -202 -192 -308t-396 -106z" />
    <glyph glyph-name="uni0406" unicode="&#x406;" horiz-adv-x="591" 
d="M274 1434h367l-252 -1434h-366z" />
    <glyph glyph-name="uni0407" unicode="&#x407;" horiz-adv-x="591" 
d="M272 1505q-67 0 -106.5 48t-28.5 116q10 67 67.5 115.5t125.5 48.5q66 0 105.5 -48.5t27.5 -115.5q-10 -67 -66.5 -115.5t-124.5 -48.5zM670 1505q-66 0 -105.5 48.5t-27.5 115.5q10 67 66 115.5t124 48.5q67 0 106.5 -48t28.5 -116q-10 -67 -67 -115.5t-125 -48.5z
M274 1434h367l-252 -1434h-366z" />
    <glyph glyph-name="uni0408" unicode="&#x408;" horiz-adv-x="1165" 
d="M479 -31q-184 0 -298.5 73.5t-172.5 223.5l332 178q22 -64 60 -91t106 -27q167 0 192 145l170 963h367l-172 -969q-43 -250 -193.5 -373t-390.5 -123z" />
    <glyph glyph-name="uni0409" unicode="&#x409;" horiz-adv-x="1921" 
d="M1456 950q96 0 181.5 -36.5t146 -100t88 -157.5t8.5 -201q-25 -144 -110 -248t-208.5 -155.5t-273.5 -51.5h-516l191 1079h-269l-90 -520q-17 -97 -44.5 -177.5t-62 -138t-77 -102.5t-88.5 -72t-97 -46.5t-103 -24.5t-106 -7t-106 5l60 342q56 -6 95.5 1.5t73 32.5
t55.5 75t36 128l151 859h1000l-84 -484h149zM1516 475q12 65 -21.5 96t-99.5 31h-150l-45 -254h150q65 0 110 31.5t56 95.5z" />
    <glyph glyph-name="uni040A" unicode="&#x40a;" horiz-adv-x="1931" 
d="M1466 952q96 0 181.5 -36.5t146 -100.5t88 -158.5t8.5 -201.5q-25 -143 -109.5 -247t-208.5 -156t-274 -52h-516l107 602h-393l-107 -602h-366l251 1434h367l-84 -482h393l84 482h367l-84 -482h149zM1526 475q11 65 -21.5 96t-97.5 31h-152l-45 -252h150q66 0 110.5 30.5
t55.5 94.5z" />
    <glyph glyph-name="uni040B" unicode="&#x40b;" horiz-adv-x="1433" 
d="M1024 932q187 0 275.5 -105.5t62.5 -296.5l-90 -530h-363l84 485q11 67 -18.5 93t-95.5 26q-75 0 -146 -26l-102 -578h-367l191 1079h-334l61 355h1075l-63 -355h-373l-33 -182q120 35 236 35z" />
    <glyph glyph-name="uni040C" unicode="&#x40c;" horiz-adv-x="1292" 
d="M1257 1841l-278 -297h-334l207 297h405zM1456 1434l-610 -713l364 -721h-379l-327 653l-115 -653h-366l251 1434h367l-102 -582l489 582h428z" />
    <glyph glyph-name="uni040E" unicode="&#x40e;" horiz-adv-x="1288" 
d="M1210 1829l-49 -287h-661l49 287h661zM1047 1434h391l-574 -1002q-70 -124 -149 -209.5t-169.5 -134.5t-187 -69.5t-215.5 -18.5l60 342q182 -8 299 119l-309 973h360l176 -588z" />
    <glyph glyph-name="uni040F" unicode="&#x40f;" horiz-adv-x="1331" 
d="M1014 1434h366l-252 -1434h-370l-49 -274h-365l49 274h-370l251 1434h367l-190 -1080h372z" />
    <glyph glyph-name="uni0410" unicode="&#x410;" horiz-adv-x="1374" 
d="M901 0l-22 207h-478l-98 -207h-403l725 1434h446l221 -1434h-391zM553 522h291l-53 496z" />
    <glyph glyph-name="uni0411" unicode="&#x411;" horiz-adv-x="1212" 
d="M774 905q205 0 320 -134t80 -337q-37 -206 -182 -320t-378 -114h-591l251 1434h951l-62 -355h-583l-31 -174h225zM811 455q10 60 -20 90t-89 30h-213l-40 -239h210q59 0 100.5 30t51.5 89z" />
    <glyph glyph-name="uni0412" unicode="&#x412;" horiz-adv-x="1232" 
d="M1239 1012q-34 -186 -184 -281q152 -116 123 -325q-26 -182 -172 -294t-390 -112h-593l251 1434h545q213 0 332 -118.5t88 -303.5zM766 1106h-182l-39 -225h180q56 0 95 29t48 83q9 52 -18.5 82.5t-83.5 30.5zM819 449q11 55 -17 87.5t-89 32.5h-224l-43 -241h222
q60 0 101 33.5t50 87.5z" />
    <glyph glyph-name="uni0413" unicode="&#x413;" horiz-adv-x="972" 
d="M1122 1434l-61 -355h-481l-191 -1079h-366l251 1434h848z" />
    <glyph glyph-name="uni0414" unicode="&#x414;" horiz-adv-x="1458" 
d="M1430 1434l-191 -1080h156l-113 -628h-364l47 274h-668l-49 -274h-365l111 628h149q126 153 181 455l108 625h998zM537 354h337l132 740h-267l-51 -289q-54 -292 -151 -451z" />
    <glyph glyph-name="uni0415" unicode="&#x415;" horiz-adv-x="1095" 
d="M1124 1092h-542l-37 -201h495l-61 -336h-492l-36 -211h553l-60 -344h-921l251 1434h912z" />
    <glyph glyph-name="uni0416" unicode="&#x416;" horiz-adv-x="1898" 
d="M2044 1434l-551 -734l295 -700h-383l-248 639l-113 -639h-366l108 623l-454 -623h-412l567 745l-297 689h383l246 -625l111 625h366l-110 -625l440 625h418z" />
    <glyph glyph-name="uni0417" unicode="&#x417;" horiz-adv-x="1146" 
d="M1153 1014q-34 -196 -199 -291q81 -56 118.5 -143.5t17.5 -196.5q-35 -197 -191.5 -305.5t-409.5 -108.5q-206 0 -331.5 90t-175.5 246l325 172q24 -78 77 -120t151 -42q80 0 132 32.5t64 94.5q9 55 -22 86t-95 37l-217 2l56 318h143q165 0 186 119q9 58 -25 88t-106 30
q-137 0 -219 -151l-295 190q89 142 235.5 222.5t334.5 80.5q142 0 252 -57t163.5 -161t30.5 -232z" />
    <glyph glyph-name="uni0418" unicode="&#x418;" horiz-adv-x="1382" 
d="M23 0l251 1434h367l-123 -699l629 699h283l-252 -1434h-365l123 698l-629 -698h-284z" />
    <glyph glyph-name="uni0419" unicode="&#x419;" horiz-adv-x="1382" 
d="M516 1544l49 287h662l-49 -287h-662zM23 0l251 1434h367l-123 -699l629 699h283l-252 -1434h-365l123 698l-629 -698h-284z" />
    <glyph glyph-name="uni041A" unicode="&#x41a;" horiz-adv-x="1292" 
d="M1456 1434l-610 -713l364 -721h-379l-327 653l-115 -653h-366l251 1434h367l-102 -582l489 582h428z" />
    <glyph glyph-name="uni041B" unicode="&#x41b;" horiz-adv-x="1361" 
d="M-80 -4l60 342q56 -6 95.5 1.5t73 32.5t55.5 75t36 128l151 859h1020l-252 -1434h-366l190 1079h-289l-90 -520q-22 -127 -62.5 -225.5t-91.5 -159.5t-114 -103t-130.5 -57.5t-140.5 -21.5t-145 4z" />
    <glyph glyph-name="uni041C" unicode="&#x41c;" horiz-adv-x="1689" 
d="M1737 1434l-252 -1434h-365l135 774l-448 -577h-37l-244 587l-137 -784h-366l251 1434h367l233 -619l474 619h389z" />
    <glyph glyph-name="uni041D" unicode="&#x41d;" horiz-adv-x="1361" 
d="M1044 1434h365l-252 -1434h-364l96 551h-404l-96 -551h-366l251 1434h367l-94 -531h403z" />
    <glyph glyph-name="uni041E" unicode="&#x41e;" horiz-adv-x="1617" 
d="M737 -31q-164 0 -298.5 64t-217 170.5t-117 246.5t-8.5 289t99 281t182.5 230.5t259.5 156t319 57.5q162 0 295.5 -63.5t215.5 -169t116.5 -245t9.5 -288.5q-26 -150 -98 -282t-180.5 -232t-258 -157.5t-319.5 -57.5zM770 328q166 0 298 109.5t161 279.5
q30 170 -60 279.5t-256 109.5q-165 0 -293 -109t-159 -280t56.5 -280t252.5 -109z" />
    <glyph glyph-name="uni041F" unicode="&#x41f;" horiz-adv-x="1331" 
d="M1380 1434l-252 -1434h-366l190 1079h-372l-191 -1079h-366l251 1434h1106z" />
    <glyph glyph-name="uni0420" unicode="&#x420;" horiz-adv-x="1212" 
d="M815 1434q216 0 342.5 -147t93.5 -376q-31 -217 -189.5 -349t-408.5 -132h-188l-76 -430h-366l251 1434h541zM887 932q13 70 -23 110.5t-110 40.5h-174l-54 -305h179q71 0 120.5 42t61.5 112z" />
    <glyph glyph-name="uni0421" unicode="&#x421;" horiz-adv-x="1478" 
d="M735 -31q-163 0 -296 60t-217 162.5t-118.5 244.5t-7.5 301q26 157 102.5 292t188 230.5t255.5 150t300 54.5q211 0 359.5 -91t226.5 -251l-336 -178q-81 162 -285 162q-167 0 -291 -108t-155 -281q-30 -169 53 -279t246 -110q206 0 336 172l301 -195
q-115 -159 -288 -247.5t-374 -88.5z" />
    <glyph glyph-name="uni0422" unicode="&#x422;" horiz-adv-x="1116" 
d="M1257 1434l-63 -355h-352l-191 -1079h-366l190 1079h-354l61 355h1075z" />
    <glyph glyph-name="uni0423" unicode="&#x423;" horiz-adv-x="1288" 
d="M1047 1434h391l-574 -1002q-70 -124 -149 -209.5t-169.5 -134.5t-187 -69.5t-215.5 -18.5l60 342q182 -8 299 119l-309 973h360l176 -588z" />
    <glyph glyph-name="uni0424" unicode="&#x424;" horiz-adv-x="1705" 
d="M1169 1303q283 -43 426.5 -206t102.5 -401q-43 -244 -234 -391t-501 -178l-31 -168h-352l30 172q-284 41 -428.5 204.5t-101.5 401.5q43 245 234.5 392t504.5 178l29 168h352zM444 717q-20 -107 34.5 -169.5t191.5 -82.5l90 510q-144 -21 -219.5 -84.5t-96.5 -173.5z
M1335 717q19 110 -34.5 173t-188.5 85l-90 -510q143 21 217.5 83t95.5 169z" />
    <glyph glyph-name="uni0425" unicode="&#x425;" horiz-adv-x="1294" 
d="M1430 1434l-541 -717l303 -717h-395l-162 381l-289 -381h-426l561 743l-293 691h398l149 -355l269 355h426z" />
    <glyph glyph-name="uni0426" unicode="&#x426;" horiz-adv-x="1437" 
d="M1208 354h164l-110 -628h-367l49 274h-921l251 1434h377l-190 -1080h373l190 1080h375z" />
    <glyph glyph-name="uni0427" unicode="&#x427;" horiz-adv-x="1325" 
d="M1008 1434h364l-252 -1434h-364l80 457q-102 -21 -195 -21q-268 0 -394 132t-85 364l88 502h364l-82 -473q-17 -93 27 -132t150 -41q87 0 190 27z" />
    <glyph glyph-name="uni0428" unicode="&#x428;" horiz-adv-x="1943" 
d="M1626 1434h367l-252 -1434h-1718l251 1434h367l-190 -1080h311l188 1080h367l-191 -1080h312z" />
    <glyph glyph-name="uni0429" unicode="&#x429;" horiz-adv-x="2031" 
d="M1802 354h164l-111 -628h-366l49 274h-1515l251 1434h367l-190 -1080h311l188 1080h367l-191 -1080h312l188 1080h367z" />
    <glyph glyph-name="uni042A" unicode="&#x42a;" horiz-adv-x="1427" 
d="M238 0l190 1079h-328l62 355h694l-76 -430h189q131 0 236.5 -68.5t157.5 -190t28 -264.5q-40 -226 -198.5 -353.5t-399.5 -127.5h-555zM664 350h190q64 0 112 42t60 110q12 67 -22.5 110t-96.5 43h-188z" />
    <glyph glyph-name="uni042B" unicode="&#x42b;" horiz-adv-x="1779" 
d="M23 0l251 1434h367l-76 -430h191q131 0 236.5 -68.5t157 -190t26.5 -264.5q-40 -226 -198 -353.5t-400 -127.5h-555zM1210 0l252 1434h365l-252 -1434h-365zM451 350h188q65 0 113.5 42.5t58.5 109.5q12 67 -22 110t-97 43h-188z" />
    <glyph glyph-name="uni042C" unicode="&#x42c;" horiz-adv-x="1212" 
d="M756 1004q131 0 236.5 -68.5t157 -190t26.5 -264.5q-40 -226 -198 -353.5t-400 -127.5h-555l251 1434h367l-76 -430h191zM811 502q12 67 -22 110t-97 43h-188l-53 -305h188q65 0 113.5 42.5t58.5 109.5z" />
    <glyph glyph-name="uni042D" unicode="&#x42d;" horiz-adv-x="1474" 
d="M815 1464q160 0 291.5 -59.5t215.5 -162t119.5 -244.5t10.5 -302q-25 -153 -97 -286.5t-179.5 -231t-253 -153.5t-308.5 -56q-206 0 -362.5 90.5t-231.5 251.5l332 176q39 -79 114.5 -122t180.5 -43q125 0 225 60.5t160 166.5h-514l62 336h514q-22 106 -101 166.5
t-202 60.5q-108 0 -196.5 -47.5t-145.5 -126.5l-293 188q109 158 284 248t375 90z" />
    <glyph glyph-name="uni042E" unicode="&#x42e;" horiz-adv-x="2187" 
d="M1532 1464q95 0 181 -21.5t154 -60.5t125 -94t94 -121.5t61 -143t26.5 -159t-10.5 -168.5q-26 -149 -100 -281t-184.5 -231.5t-262 -157t-320.5 -57.5q-177 0 -317.5 77.5t-220.5 212t-88 302.5h-183l-98 -561h-366l251 1434h367l-92 -521h182q98 249 314 400t487 151z
M1800 717q29 171 -61.5 280t-255.5 109t-293.5 -109t-159.5 -280t56.5 -280t252.5 -109q166 0 298.5 109.5t162.5 279.5z" />
    <glyph glyph-name="uni042F" unicode="&#x42f;" horiz-adv-x="1284" 
d="M1333 1434l-252 -1434h-366l82 463h-60l-360 -463h-430l418 516q-125 65 -176.5 191t-24.5 266q18 91 65.5 172t121.5 146.5t181.5 104t233.5 38.5h567zM522 934q-12 -70 27.5 -116t109.5 -46h193l57 324h-194q-72 0 -126 -45t-67 -117z" />
    <glyph glyph-name="uni0430" unicode="&#x430;" horiz-adv-x="1259" 
d="M911 1024h340l-180 -1024h-340l14 80q-118 -109 -299 -109q-90 0 -163.5 30.5t-121 83.5t-79 124t-36.5 151.5t7 165.5q16 103 62 196.5t115 168t167.5 118.5t210.5 44q196 0 283 -142zM567 289q95 0 165 59.5t89 157.5v6q17 100 -30.5 161.5t-145.5 61.5q-97 0 -166 -61
t-86 -162q-17 -100 30.5 -161.5t143.5 -61.5z" />
    <glyph glyph-name="uni0431" unicode="&#x431;" horiz-adv-x="1167" 
d="M539 -31q-253 0 -388 162t-92 414q23 132 56.5 227t89.5 176.5t138 143t200 114.5q29 13 88 39.5t78.5 35.5t61.5 29t57 30t42.5 28t41.5 33.5t31 35.5t32 44l256 -160q-53 -117 -150 -186.5t-276 -135.5q-145 -52 -210.5 -92t-102.5 -98q122 88 274 88q76 0 148 -33.5
t126.5 -92.5t80 -149.5t7.5 -193.5q-36 -208 -193.5 -333.5t-395.5 -125.5zM565 264q84 0 147.5 52t75.5 130q15 79 -31.5 132t-131.5 53q-79 0 -146 -48t-80 -130q-15 -83 32.5 -136t133.5 -53z" />
    <glyph glyph-name="uni0432" unicode="&#x432;" horiz-adv-x="1062" 
d="M1026 713q-25 -139 -141 -199q60 -39 87 -99.5t15 -135.5q-24 -134 -126 -206.5t-281 -72.5h-572l180 1024h537q159 0 242 -89t59 -222zM629 770h-160l-23 -135h158q83 0 92 65q15 70 -67 70zM657 330q6 33 -12.5 50t-54.5 17h-187l-24 -139h184q82 0 94 72z" />
    <glyph glyph-name="uni0433" unicode="&#x433;" horiz-adv-x="833" 
d="M924 1024l-56 -326h-397l-123 -698h-340l123 698l57 326h736z" />
    <glyph glyph-name="uni0434" unicode="&#x434;" horiz-adv-x="1228" 
d="M1032 322h131l-104 -596h-328l49 274h-532l-49 -274h-328l106 596h121q51 65 85 145.5t55 202.5l63 354h854zM457 322h243l70 399h-192l-9 -51q-41 -223 -112 -348z" />
    <glyph glyph-name="uni0435" unicode="&#x435;" horiz-adv-x="1163" 
d="M664 1053q152 0 265.5 -71.5t163.5 -195.5t23 -272q-8 -58 -35 -127h-702q29 -125 196 -125q123 0 203 74l217 -199q-178 -166 -446 -166q-134 0 -238.5 44.5t-166 121.5t-85.5 178.5t-6 216.5q37 224 209 372.5t402 148.5zM420 625h387q-11 141 -162 141t-225 -141z" />
    <glyph glyph-name="uni0436" unicode="&#x436;" horiz-adv-x="1595" 
d="M1669 1024l-407 -528l225 -496h-348l-187 438l-78 -438h-335l73 422l-325 -422h-367l416 535l-207 489h344l172 -420l74 420h336l-76 -430l313 430h377z" />
    <glyph glyph-name="uni0437" unicode="&#x437;" horiz-adv-x="933" 
d="M899 729q-28 -149 -154 -215q66 -41 94.5 -108t14.5 -146q-25 -134 -145 -212.5t-320 -78.5q-334 0 -422 246l283 145q36 -108 166 -108q100 0 112 70q9 63 -75 63h-123l45 258h102q39 0 63 17t29 45q4 32 -17 49.5t-60 17.5q-104 0 -168 -108l-244 155q91 121 202 177.5
t259 56.5q174 0 277 -98.5t81 -225.5z" />
    <glyph glyph-name="uni0438" unicode="&#x438;" horiz-adv-x="1187" 
d="M918 1024h262l-181 -1024h-331l82 465l-480 -465h-262l180 1024h332l-82 -465z" />
    <glyph glyph-name="uni0439" unicode="&#x439;" horiz-adv-x="1187" 
d="M373 1135l49 286h661l-49 -286h-661zM918 1024h262l-181 -1024h-331l82 465l-480 -465h-262l180 1024h332l-82 -465z" />
    <glyph glyph-name="uni043A" unicode="&#x43a;" horiz-adv-x="1099" 
d="M1174 1024l-429 -512l265 -512h-371l-213 442l-78 -442h-340l180 1024h340l-73 -418l333 418h386z" />
    <glyph glyph-name="uni043B" unicode="&#x43b;" horiz-adv-x="1150" 
d="M1143 1024l-180 -1024h-340l122 698h-204l-49 -274q-44 -255 -178.5 -354.5t-381.5 -69.5l54 315q71 -15 114 23t62 135l96 551h885z" />
    <glyph glyph-name="uni043C" unicode="&#x43c;" horiz-adv-x="1327" 
d="M1319 1024l-180 -1024h-328l86 494l-279 -340h-36l-158 340l-86 -494h-330l180 1024h330l150 -375l297 375h354z" />
    <glyph glyph-name="uni043D" unicode="&#x43d;" horiz-adv-x="1177" 
d="M829 1024h340l-180 -1024h-340l62 352h-301l-62 -352h-340l180 1024h340l-61 -352h301z" />
    <glyph glyph-name="uni043E" unicode="&#x43e;" horiz-adv-x="1193" 
d="M528 -29q-89 0 -165.5 23.5t-131 64t-96 96t-61.5 119t-27 133t8 138.5q19 101 70 191t128 161.5t186 113.5t235 42q124 0 223 -50t156.5 -131.5t80.5 -183t5 -205.5q-18 -100 -69.5 -191.5t-129 -163.5t-185 -114.5t-227.5 -42.5zM555 299q90 0 157.5 59t84.5 154
t-29.5 154t-136.5 59q-88 0 -155.5 -59t-84.5 -154t29.5 -154t134.5 -59z" />
    <glyph glyph-name="uni043F" unicode="&#x43f;" horiz-adv-x="1177" 
d="M1169 1024l-180 -1024h-340l123 702h-301l-123 -702h-340l180 1024h981z" />
    <glyph glyph-name="uni0440" unicode="&#x440;" horiz-adv-x="1259" 
d="M805 1053q140 0 241 -78.5t142 -206.5t18 -276q-24 -143 -94.5 -259.5t-188.5 -189t-261 -72.5q-201 0 -293 146l-93 -527h-339l251 1434h340l-14 -84q116 113 291 113zM866 512q19 102 -28.5 162.5t-143.5 60.5q-95 0 -164.5 -58t-89.5 -157l-4 -14q-13 -99 35.5 -158
t142.5 -59q96 0 165.5 60.5t86.5 162.5z" />
    <glyph glyph-name="uni0441" unicode="&#x441;" horiz-adv-x="1089" 
d="M532 -29q-163 0 -281.5 75t-170 203t-27.5 283q37 227 209.5 374t401.5 147q161 0 272.5 -73t167.5 -196l-309 -161q-45 98 -160 98q-91 0 -159 -57t-83 -150q-17 -91 31 -151t135 -60q117 0 191 103l270 -173q-77 -129 -206.5 -195.5t-281.5 -66.5z" />
    <glyph glyph-name="uni0442" unicode="&#x442;" horiz-adv-x="962" 
d="M1036 1024l-55 -326h-295l-123 -698h-340l123 698h-297l57 326h930z" />
    <glyph glyph-name="uni0443" unicode="&#x443;" horiz-adv-x="1124" 
d="M823 1024h391l-520 -993q-133 -255 -303 -357.5t-397 -83.5l57 320q110 0 166 28t102 103l-229 983h361l106 -592z" />
    <glyph glyph-name="uni0444" unicode="&#x444;" horiz-adv-x="1452" 
d="M983 1034q154 -29 257 -108.5t142.5 -190.5t16.5 -241q-36 -206 -191 -342.5t-411 -169.5l-68 -392h-332l70 398q-229 43 -339 193t-75 349q36 206 189 341.5t409 168.5l70 394h332zM1063 512q29 159 -135 207l-74 -414q180 50 209 207zM387 512q-29 -156 135 -205
l74 410q-180 -48 -209 -205z" />
    <glyph glyph-name="uni0445" unicode="&#x445;" horiz-adv-x="1124" 
d="M1200 1024l-450 -512l284 -512h-360l-146 260l-227 -260h-391l467 532l-273 492h361l133 -240l209 240h393z" />
    <glyph glyph-name="uni0446" unicode="&#x446;" horiz-adv-x="1253" 
d="M1016 322h174l-107 -596h-327l49 274h-797l180 1024h340l-122 -702h268l125 702h340z" />
    <glyph glyph-name="uni0447" unicode="&#x447;" horiz-adv-x="1112" 
d="M762 1024h342l-180 -1024h-342l49 283q-115 -23 -193 -23q-200 0 -296 110.5t-66 276.5l65 377h342l-57 -324q-22 -125 125 -125q55 0 135 23z" />
    <glyph glyph-name="uni0448" unicode="&#x448;" horiz-adv-x="1710" 
d="M1362 1024h340l-180 -1024h-1514l180 1024h340l-122 -702h249l123 702h336l-123 -702h248z" />
    <glyph glyph-name="uni0449" unicode="&#x449;" horiz-adv-x="1765" 
d="M1548 322h152l-107 -596h-325l49 274h-1309l180 1024h340l-122 -702h233l123 702h336l-123 -702h233l123 702h340z" />
    <glyph glyph-name="uni044A" unicode="&#x44a;" horiz-adv-x="1193" 
d="M801 735q169 0 265 -110.5t67 -276.5q-31 -170 -148.5 -259t-314.5 -89h-508l123 698h-250l55 326h594l-51 -289h168zM805 369q6 37 -14.5 59.5t-61.5 22.5h-145l-31 -166h147q41 0 70 23t35 61z" />
    <glyph glyph-name="uni044B" unicode="&#x44b;" horiz-adv-x="1529" 
d="M645 735q170 0 266.5 -110.5t67.5 -276.5q-31 -170 -148.5 -259t-314.5 -89h-508l180 1024h340l-51 -289h168zM1182 1024h340l-181 -1024h-340zM651 369q6 37 -14.5 59.5t-61.5 22.5h-147l-31 -166h148q41 0 70.5 23t35.5 61z" />
    <glyph glyph-name="uni044C" unicode="&#x44c;" horiz-adv-x="1038" 
d="M645 735q170 0 266.5 -110.5t67.5 -276.5q-31 -170 -148.5 -259t-314.5 -89h-508l180 1024h340l-51 -289h168zM651 369q6 37 -14.5 59.5t-61.5 22.5h-147l-31 -166h148q41 0 70.5 23t35.5 61z" />
    <glyph glyph-name="uni044D" unicode="&#x44d;" horiz-adv-x="1089" 
d="M569 1053q159 0 276 -76.5t167 -205t24 -279.5q-42 -234 -205.5 -377.5t-410.5 -143.5q-149 0 -266.5 73.5t-169.5 193.5l290 153q44 -112 187 -112q124 0 205 94h-277l49 278h277q-46 94 -172 94q-142 0 -217 -116l-256 162q83 121 215 191.5t284 70.5z" />
    <glyph glyph-name="uni044E" unicode="&#x44e;" horiz-adv-x="1652" 
d="M1137 1053q87 0 161 -23t127 -63t93.5 -94.5t60 -117t27 -131t-6.5 -137.5q-17 -101 -68 -193t-128 -164.5t-184.5 -115.5t-227.5 -43q-104 0 -188 30t-140 83t-90.5 120.5t-46.5 147.5h-116l-62 -352h-340l180 1024h340l-61 -352h102q69 167 216.5 274t351.5 107z
M1262 512q17 94 -30.5 153.5t-137.5 59.5q-89 0 -157 -59.5t-85 -153.5q-15 -95 32 -154t136 -59t158 59.5t84 153.5z" />
    <glyph glyph-name="uni044F" unicode="&#x44f;" horiz-adv-x="1089" 
d="M1081 1024l-180 -1024h-336l51 291h-43l-245 -291h-391l307 352q-79 54 -114 141t-21 179q10 69 44 131t89.5 112t138.5 79.5t182 29.5h518zM438 647q-5 -35 15.5 -60.5t64.5 -25.5h146l30 176h-145q-45 0 -75 -27t-36 -63z" />
    <glyph glyph-name="uni0451" unicode="&#x451;" horiz-adv-x="1163" 
d="M508 1110q-67 0 -106.5 48t-28.5 116q10 67 67 115.5t125 48.5q66 0 105.5 -48.5t27.5 -115.5q-10 -67 -66 -115.5t-124 -48.5zM905 1110q-66 0 -105.5 48.5t-27.5 115.5q10 67 66.5 115.5t124.5 48.5q67 0 106.5 -48t28.5 -116q-10 -67 -67.5 -115.5t-125.5 -48.5z
M664 1053q152 0 265.5 -71.5t163.5 -195.5t23 -272q-8 -58 -35 -127h-702q29 -125 196 -125q123 0 203 74l217 -199q-178 -166 -446 -166q-134 0 -238.5 44.5t-166 121.5t-85.5 178.5t-6 216.5q37 224 209 372.5t402 148.5zM420 625h387q-11 141 -162 141t-225 -141z" />
    <glyph glyph-name="uni0452" unicode="&#x452;" horiz-adv-x="1202" 
d="M823 1028q166 0 256.5 -116t53.5 -324l-103 -588q-45 -253 -177.5 -353.5t-389.5 -86.5l55 315q76 -5 118 25t54 100l94 545q14 82 -21 123t-106 41q-70 0 -120.5 -41t-71.5 -119l-96 -549h-340l194 1104h-119l39 217h117l21 113h340l-21 -113h279l-39 -217h-277
l-37 -207q56 62 133 96.5t164 34.5z" />
    <glyph glyph-name="uni0453" unicode="&#x453;" horiz-adv-x="833" 
d="M963 1434l-279 -297h-334l207 297h406zM188 1024h736l-56 -326h-397l-123 -698h-340l123 698z" />
    <glyph glyph-name="uni0454" unicode="&#x454;" horiz-adv-x="1089" 
d="M541 279q147 0 225 116l254 -162q-83 -121 -215.5 -191.5t-284.5 -70.5q-156 0 -273 76.5t-168.5 205t-25.5 279.5q42 230 212 375.5t405 145.5q149 0 266.5 -73.5t169.5 -193.5l-291 -153q-44 112 -182 112q-121 0 -205 -94h272l-49 -278h-276q48 -94 166 -94z" />
    <glyph glyph-name="uni0455" unicode="&#x455;" horiz-adv-x="968" 
d="M430 -29q-169 0 -281 60.5t-169 191.5l299 146q45 -117 170 -117q90 0 98 49q4 24 -21.5 41t-69 30t-96.5 28t-103.5 41t-90 62t-57 98t-3.5 142q18 105 91 177.5t162.5 102.5t187.5 30q141 0 248 -58.5t157 -169.5l-288 -139q-39 91 -127 94q-35 2 -60 -12.5t-31 -42.5
q-5 -25 14 -43t54 -28t79.5 -22.5t91 -26.5t88.5 -39t72.5 -61.5t43 -93.5t-1.5 -135q-15 -81 -58.5 -142t-107 -95.5t-136 -51t-155.5 -16.5z" />
    <glyph glyph-name="uni0456" unicode="&#x456;" horiz-adv-x="536" 
d="M377 1108q-81 0 -129.5 59t-34.5 138q12 77 77.5 135.5t149.5 58.5q82 0 130 -57.5t34 -136.5q-12 -81 -77.5 -139t-149.5 -58zM8 0l180 1024h340l-180 -1024h-340z" />
    <glyph glyph-name="uni0457" unicode="&#x457;" horiz-adv-x="536" 
d="M170 1096q-67 0 -106.5 48t-28.5 116q10 67 67 115t125 48q66 0 105.5 -48t27.5 -115q-10 -67 -66 -115.5t-124 -48.5zM567 1096q-66 0 -105.5 48.5t-27.5 115.5q10 67 66.5 115t124.5 48q67 0 106.5 -47.5t28.5 -115.5q-10 -67 -67.5 -115.5t-125.5 -48.5zM8 0l180 1024
h340l-180 -1024h-340z" />
    <glyph glyph-name="uni0458" unicode="&#x458;" horiz-adv-x="567" 
d="M471 1499q82 0 130 -57.5t34 -136.5q-12 -81 -77.5 -139t-149.5 -58q-81 0 -129.5 59t-34.5 138q12 77 77.5 135.5t149.5 58.5zM39 0l180 1024h340l-180 -1024q-44 -252 -178 -353t-389 -87l55 315q77 -5 118.5 25t53.5 100z" />
    <glyph glyph-name="uni0459" unicode="&#x459;" horiz-adv-x="1601" 
d="M1225 715q74 0 138.5 -28t109 -76.5t63.5 -120t4 -152.5q-30 -166 -145 -252t-295 -86h-494l123 698h-188l-49 -274q-44 -255 -178.5 -354.5t-381.5 -69.5l54 315q71 -15 114 23t62 135l96 551h870l-55 -309h152zM1212 358q6 33 -11 52.5t-46 19.5h-131l-27 -145h131
q29 0 53.5 19.5t30.5 53.5z" />
    <glyph glyph-name="uni045A" unicode="&#x45a;" horiz-adv-x="1624" 
d="M1247 715q99 0 178 -47t118.5 -134.5t19.5 -195.5q-30 -166 -146.5 -252t-294.5 -86h-493l71 403h-280l-72 -403h-340l180 1024h340l-55 -309h281l55 309h340l-55 -309h153zM1235 358q6 33 -11.5 52.5t-47.5 19.5h-132l-26 -145h133q29 0 53.5 19.5t30.5 53.5z" />
    <glyph glyph-name="uni045B" unicode="&#x45b;" horiz-adv-x="1202" 
d="M823 1028q166 0 256.5 -116t53.5 -324l-103 -588h-340l94 545q14 82 -21 123t-106 41q-70 0 -120.5 -41t-71.5 -119l-96 -549h-340l194 1104h-119l39 217h117l21 113h340l-21 -113h279l-39 -217h-277l-37 -207q56 62 133 96.5t164 34.5z" />
    <glyph glyph-name="uni045C" unicode="&#x45c;" horiz-adv-x="1099" 
d="M1085 1434l-278 -297h-334l207 297h405zM1174 1024l-429 -512l265 -512h-371l-213 442l-78 -442h-340l180 1024h340l-73 -418l333 418h386z" />
    <glyph glyph-name="uni045E" unicode="&#x45e;" horiz-adv-x="1124" 
d="M1028 1421l-49 -286h-662l50 286h661zM823 1024h391l-520 -993q-133 -255 -303 -357.5t-397 -83.5l57 320q110 0 166 28t102 103l-229 983h361l106 -592z" />
    <glyph glyph-name="uni045F" unicode="&#x45f;" horiz-adv-x="1177" 
d="M829 1024h340l-180 -1024h-325l-50 -274h-327l49 274h-328l180 1024h340l-122 -702h301z" />
    <glyph glyph-name="uni0490" unicode="&#x490;" horiz-adv-x="972" 
d="M803 1679h364l-106 -600h-481l-191 -1079h-366l251 1434h484z" />
    <glyph glyph-name="uni0491" unicode="&#x491;" horiz-adv-x="833" 
d="M635 1233h326l-93 -535h-397l-123 -698h-340l123 698l57 326h410z" />
    <glyph glyph-name="Wgrave" unicode="&#x1e80;" horiz-adv-x="2056" 
d="M1393 1546l-125 297h-385l194 -297h316zM322 0l-150 1434h371l71 -904l414 904h293l98 -904l385 904h402l-652 -1434h-387l-88 809l-370 -809h-387z" />
    <glyph glyph-name="wgrave" unicode="&#x1e81;" horiz-adv-x="1617" 
d="M1108 1137h-315l-195 297h385zM1325 1024h371l-494 -1024h-332l-55 514l-223 -514h-348l-133 1024h340l47 -557l241 557h297l60 -547z" />
    <glyph glyph-name="Wacute" unicode="&#x1e82;" horiz-adv-x="2056" 
d="M1024 1546h334l278 297h-405zM322 0l-150 1434h371l71 -904l414 904h293l98 -904l385 904h402l-652 -1434h-387l-88 809l-370 -809h-387z" />
    <glyph glyph-name="wacute" unicode="&#x1e83;" horiz-adv-x="1617" 
d="M1352 1434l-279 -297h-334l207 297h406zM1325 1024h371l-494 -1024h-332l-55 514l-223 -514h-348l-133 1024h340l47 -557l241 557h297l60 -547z" />
    <glyph glyph-name="Wdieresis" unicode="&#x1e84;" horiz-adv-x="2056" 
d="M1001 1505q-67 0 -106.5 48t-28.5 116q10 67 67.5 115.5t125.5 48.5q66 0 105.5 -48.5t27.5 -115.5q-10 -67 -66.5 -115.5t-124.5 -48.5zM1399 1505q-66 0 -105.5 48.5t-27.5 115.5q10 67 66 115.5t124 48.5q67 0 106.5 -48t28.5 -116q-10 -67 -67 -115.5t-125 -48.5z
M322 0l-150 1434h371l71 -904l414 904h293l98 -904l385 904h402l-652 -1434h-387l-88 809l-370 -809h-387z" />
    <glyph glyph-name="wdieresis" unicode="&#x1e85;" horiz-adv-x="1617" 
d="M717 1096q-67 0 -106.5 48t-28.5 116q10 67 67 115t125 48q66 0 105.5 -48t27.5 -115q-10 -67 -66 -115.5t-124 -48.5zM1114 1096q-66 0 -105.5 48.5t-27.5 115.5q10 67 66 115t124 48q67 0 107 -47.5t29 -115.5q-10 -67 -67.5 -115.5t-125.5 -48.5zM1325 1024h371
l-494 -1024h-332l-55 514l-223 -514h-348l-133 1024h340l47 -557l241 557h297l60 -547z" />
    <glyph glyph-name="Ygrave" unicode="&#x1ef2;" horiz-adv-x="1292" 
d="M1012 1546h-316l-194 297h385zM1454 1434l-604 -809l-111 -625h-366l110 625l-321 809h389l154 -461l315 461h434z" />
    <glyph glyph-name="ygrave" unicode="&#x1ef3;" horiz-adv-x="1124" 
d="M834 1137h-316l-194 297h385zM823 1024h391l-520 -993q-133 -255 -303 -357.5t-397 -83.5l57 320q110 0 166 28t102 103l-229 983h361l106 -592z" />
    <glyph glyph-name="endash" unicode="&#x2013;" horiz-adv-x="1253" 
d="M102 455l58 323h1028l-58 -323h-1028z" />
    <glyph glyph-name="emdash" unicode="&#x2014;" horiz-adv-x="1458" 
d="M102 455l58 323h1233l-58 -323h-1233z" />
    <glyph glyph-name="quoteleft" unicode="&#x2018;" horiz-adv-x="618" 
d="M131 791l287 643h274l-184 -643h-377z" />
    <glyph glyph-name="quoteright" unicode="&#x2019;" horiz-adv-x="618" 
d="M698 1434l-286 -643h-275l185 643h376z" />
    <glyph glyph-name="quotesinglbase" unicode="&#x201a;" horiz-adv-x="618" 
d="M508 356l-287 -643h-274l184 643h377z" />
    <glyph glyph-name="quotedblleft" unicode="&#x201c;" horiz-adv-x="1075" 
d="M131 791l287 643h274l-184 -643h-377zM588 791l286 643h275l-184 -643h-377z" />
    <glyph glyph-name="quotedblright" unicode="&#x201d;" horiz-adv-x="1075" 
d="M698 1434l-286 -643h-275l185 643h376zM1155 1434l-287 -643h-274l184 643h377z" />
    <glyph glyph-name="quotedblbase" unicode="&#x201e;" horiz-adv-x="1075" 
d="M508 356l-287 -643h-274l184 643h377zM965 356l-287 -643h-275l185 643h377z" />
    <glyph glyph-name="dagger" unicode="&#x2020;" horiz-adv-x="964" 
d="M1012 1192l-58 -324h-237l-154 -868h-342l154 868h-240l58 324h237l43 242h342l-43 -242h240z" />
    <glyph glyph-name="daggerdbl" unicode="&#x2021;" horiz-adv-x="964" 
d="M954 868h-237l-55 -303h239l-57 -323h-238l-43 -242h-342l43 242h-239l57 323h237l56 303h-240l58 324h237l43 242h342l-43 -242h240z" />
    <glyph glyph-name="bullet" unicode="&#x2022;" horiz-adv-x="817" 
d="M387 381q-138 0 -219.5 103.5t-56.5 244.5q25 137 138 230.5t255 93.5q137 0 218 -101.5t56 -238.5q-25 -142 -135.5 -237t-255.5 -95z" />
    <glyph glyph-name="ellipsis" unicode="&#x2026;" horiz-adv-x="1613" 
d="M201 -29q-87 0 -138 63.5t-36 153.5q15 89 85.5 149t163.5 60q88 0 139 -64t36 -153q-15 -91 -84 -150t-166 -59zM711 -29q-87 0 -138 63.5t-36 153.5q15 89 85.5 149t163.5 60q88 0 139 -64t36 -153q-15 -91 -84 -150t-166 -59zM1223 -29q-87 0 -138 63.5t-36 153.5
q15 89 85.5 149t163.5 60q88 0 139 -64t36 -153q-15 -91 -84 -150t-166 -59z" />
    <glyph glyph-name="perthousand" unicode="&#x2030;" horiz-adv-x="2498" 
d="M496 729q-161 0 -251.5 112t-68.5 259q24 153 142 258.5t290 105.5q108 0 188 -56t113 -145t15 -188q-31 -147 -146.5 -246.5t-281.5 -99.5zM236 227l1118 1024l129 -84l-1118 -1026zM530 989q46 0 81.5 32.5t43.5 76.5q8 45 -16.5 75.5t-69.5 30.5q-44 0 -78 -30.5
t-42 -75.5q-9 -46 14 -77.5t67 -31.5zM1155 -29q-109 0 -188.5 54t-113 140t-17.5 183q24 151 142.5 255t287.5 104q107 0 187 -55t113 -143.5t15 -186.5q-29 -148 -145 -249.5t-281 -101.5zM1966 -29q-109 0 -188.5 54t-113 140t-17.5 183q26 151 143.5 255t286.5 104
q108 0 188 -55t113 -143.5t14 -186.5q-29 -148 -145 -249.5t-281 -101.5zM1188 231q46 0 81.5 32t43.5 75q8 47 -16 77.5t-70 30.5q-44 0 -78.5 -31t-42.5 -77q-9 -45 14.5 -76t67.5 -31zM2001 231q44 0 79.5 32t43.5 75q8 46 -15.5 77t-68.5 31t-79.5 -31t-43.5 -77
q-8 -45 16 -76t68 -31z" />
    <glyph glyph-name="guilsinglleft" unicode="&#x2039;" horiz-adv-x="745" 
d="M725 1032l-301 -409l156 -390h-285l-162 400l295 399h297z" />
    <glyph glyph-name="guilsinglright" unicode="&#x203a;" horiz-adv-x="747" 
d="M494 1032l161 -399l-295 -400h-297l302 410l-156 389h285z" />
    <glyph glyph-name="fraction" unicode="&#x2044;" horiz-adv-x="368" 
d="M-193 0h-243l1069 1434h244z" />
    <glyph glyph-name="Euro" unicode="&#x20ac;" horiz-adv-x="1294" 
d="M719 326q126 0 223 147l283 -178q-90 -159 -230 -242.5t-323 -83.5q-228 0 -360.5 148t-141.5 395h-143l30 172h123q5 42 8 57l2 15h-120l30 172h136q83 254 255 395t412 141q166 0 283 -82.5t172 -228.5l-322 -170q-55 125 -180 125q-160 0 -242 -180h340l-30 -172h-365
q-3 -9 -8 -39l-6 -33h366l-30 -172h-342q18 -186 180 -186z" />
    <glyph glyph-name="uni20BD" unicode="&#x20bd;" horiz-adv-x="1249" 
d="M874 1434q98 0 184 -39t145 -105t85.5 -160t7.5 -198q-39 -225 -194 -342t-397 -117h-191l-14 -82h420l-35 -203h-422l-33 -188h-367l33 188h-133l35 203h135l14 82h-133l58 326h133l112 635h557zM932 942q12 66 -22 104.5t-97 38.5h-192l-50 -286h191q64 0 112 38.5
t58 104.5z" />
    <glyph glyph-name="uni2116" unicode="&#x2116;" horiz-adv-x="2160" 
d="M1794 750q-155 0 -243.5 109t-61.5 257q25 151 141.5 249.5t276.5 98.5q155 0 244 -108.5t63 -259.5q-27 -149 -143 -247.5t-277 -98.5zM23 0l251 1434h285l373 -750l133 750h365l-252 -1434h-283l-373 750l-133 -750h-366zM1835 1014q41 0 71 25.5t36 66.5
q7 41 -13.5 67.5t-60.5 26.5t-71 -26.5t-38 -67.5q-6 -40 14.5 -66t61.5 -26zM1382 340l58 326h671l-57 -326h-672z" />
    <glyph glyph-name="trademark" unicode="&#x2122;" horiz-adv-x="985" 
d="M557 1292h-102l-47 -268h-150l47 268h-106l24 142h361zM1085 1434l-71 -410h-144l33 193l-104 -125h-15l-59 122l-33 -190h-143l72 410h143l55 -138l107 138h159z" />
    <glyph glyph-name="estimated" unicode="&#x212e;" horiz-adv-x="1597" 
d="M965 1454q217 0 374 -99t223.5 -267t30.5 -371q-6 -31 -37 -31h-1146q-31 0 -37 -31l-68 -393q-5 -22 6 -39q140 -182 447 -182q294 0 512 199q18 18 39 18h71q21 0 25.5 -12t-12.5 -27q-267 -239 -648 -239q-177 0 -317.5 61t-224.5 164.5t-117 241t-6 290.5
q27 152 104.5 284t191.5 227.5t266.5 150.5t322.5 55zM1368 1176q3 22 -8 38q-138 179 -406 179q-264 0 -469 -183q-17 -17 -20 -39l-70 -393q-6 -30 25 -30h840q30 0 36 30z" />
    <glyph glyph-name="oneeighth" unicode="&#x215b;" horiz-adv-x="1646" 
d="M1198 1434h244l-1069 -1434h-244zM334 1139l-166 -41l-23 241l277 95h233l-145 -820h-270zM1604 590q-17 -108 -119 -168q47 -37 68 -90.5t12 -114.5q-19 -116 -113 -181t-250 -65q-149 0 -228 73t-59 189q11 65 51 117t105 84q-79 66 -61 174q21 114 111.5 177t221.5 63
q125 0 203.5 -72t57.5 -186zM1233 573q-4 -27 11 -41t48 -14q31 0 52.5 14t25.5 41q6 28 -10 43t-47 15q-68 0 -80 -58zM1325 260q5 31 -11.5 49.5t-53.5 18.5t-61.5 -19t-29.5 -49q-6 -32 10.5 -51t55.5 -19q37 0 60.5 19t29.5 51z" />
    <glyph glyph-name="threeeighths" unicode="&#x215c;" horiz-adv-x="1767" 
d="M729 854q-24 -137 -119 -202.5t-245 -65.5q-251 0 -312 192l228 121q15 -43 41 -62.5t69 -19.5q68 0 74 53q4 25 -11 38.5t-44 13.5h-60l-67 139l135 135h-252l43 238h586l-33 -179l-160 -161q72 -32 107 -94.5t20 -145.5zM1319 1434h244l-1069 -1434h-244zM1724 590
q-17 -109 -118 -168q47 -37 68 -90.5t12 -114.5q-19 -116 -113 -181t-250 -65q-149 0 -228 73t-59 189q11 65 51 117t105 84q-79 66 -62 174q21 114 112 177t222 63q125 0 203 -72t57 -186zM1354 573q-4 -27 11 -41t48 -14q31 0 52.5 14t25.5 41q6 28 -10 43t-47 15
q-68 0 -80 -58zM1446 260q5 30 -12 49t-54 19t-61 -19t-29 -49q-6 -32 10.5 -51t55.5 -19q37 0 60.5 19t29.5 51z" />
    <glyph glyph-name="fiveeighths" unicode="&#x215d;" horiz-adv-x="1761" 
d="M705 844q-24 -131 -117 -194.5t-226 -63.5q-235 0 -305 190l232 111q24 -78 98 -78q32 0 51.5 14.5t22.5 38.5q5 27 -8.5 42.5t-42.5 15.5h-279l123 514h516l-41 -238h-291l-16 -68h37q58 0 107.5 -17.5t85.5 -51t51 -89t2 -126.5zM1313 1434h243l-1069 -1434h-243z
M1718 590q-17 -108 -119 -168q47 -37 68 -90.5t12 -114.5q-19 -117 -113 -181.5t-249 -64.5q-149 0 -228 73t-59 189q11 65 51 117t105 84q-79 66 -62 174q21 114 112 177t222 63q125 0 203 -72t57 -186zM1348 573q-4 -27 11 -41t48 -14q31 0 52.5 14t25.5 41q6 28 -10.5 43
t-47.5 15q-67 0 -79 -58zM1440 260q5 30 -12 49t-54 19t-61 -19t-29 -49q-6 -32 10.5 -51t55.5 -19q37 0 60.5 19t29.5 51z" />
    <glyph glyph-name="seveneighths" unicode="&#x215e;" horiz-adv-x="1699" 
d="M385 614h-283l316 582h-297l41 238h592l-35 -203zM1251 1434h244l-1069 -1434h-244zM1657 590q-17 -108 -119 -168q47 -37 68 -90.5t12 -114.5q-19 -116 -113 -181t-250 -65q-149 0 -227.5 73t-58.5 189q22 136 155 201q-79 66 -61 174q21 114 112 177t222 63
q125 0 203 -72t57 -186zM1286 573q-4 -27 11.5 -41t48.5 -14q31 0 52 14t25 41q6 28 -10 43t-47 15q-68 0 -80 -58zM1378 260q5 31 -11.5 49.5t-53.5 18.5t-61 -19t-29 -49q-6 -32 10 -51t55 -19q37 0 60.5 19t29.5 51z" />
    <glyph glyph-name="arrowleft" unicode="&#x2190;" horiz-adv-x="1607" 
d="M1599 879l-55 -324h-874l372 -453h-428l-505 615l722 614h469l-532 -452h831z" />
    <glyph glyph-name="arrowup" unicode="&#x2191;" horiz-adv-x="1374" 
d="M1354 819l-74 -424l-365 443l-147 -838h-342l141 799l-522 -443l82 463l721 615z" />
    <glyph glyph-name="arrowright" unicode="&#x2192;" horiz-adv-x="1607" 
d="M1067 1331l506 -614l-723 -615h-469l532 453h-833l57 324h875l-373 452h428z" />
    <glyph glyph-name="arrowdown" unicode="&#x2193;" horiz-adv-x="1374" 
d="M881 635l520 444l-82 -465l-723 -614l-506 614l76 424l364 -442l148 838h342z" />
    <glyph glyph-name="arrowboth" unicode="&#x2194;" horiz-adv-x="2328" 
d="M2294 717l-686 -584h-461l491 422h-972l346 -422h-422l-481 584l686 583h462l-495 -421h973l-346 421h423z" />
    <glyph glyph-name="arrowupdn" unicode="&#x2195;" horiz-adv-x="1310" 
d="M1288 795l-340 413l-166 -946l486 412l-82 -457l-684 -584l-479 584l73 422l340 -414l166 946l-485 -411l82 457l684 583l479 -583z" />
    <glyph glyph-name="uni2196" unicode="&#x2196;" horiz-adv-x="1335" 
d="M1337 971h-653l541 -656l-258 -217l-539 654l-115 -650l-258 314l154 868h868z" />
    <glyph glyph-name="uni2197" unicode="&#x2197;" horiz-adv-x="1335" 
d="M530 1284h869l-152 -868l-370 -314l106 607l-731 -619l-215 256l735 625h-610z" />
    <glyph glyph-name="uni2198" unicode="&#x2198;" horiz-adv-x="1335" 
d="M1090 1315l260 -314l-154 -868h-868l-258 313h651l-541 656l258 217l539 -651z" />
    <glyph glyph-name="uni2199" unicode="&#x2199;" horiz-adv-x="1335" 
d="M1366 1071l-735 -625h612l-369 -313h-868l154 868l366 314l-106 -613l733 623z" />
    <glyph glyph-name="partialdiff" unicode="&#x2202;" horiz-adv-x="1196" 
d="M659 1464q117 0 219.5 -55.5t172 -157t98 -243t-1.5 -312.5q-64 -364 -248 -545.5t-453 -181.5q-109 0 -193.5 39t-132.5 104.5t-67 148.5t-4 173q33 197 176.5 327t352.5 130q138 0 237 -55q3 153 -63.5 229.5t-192.5 79.5q-118 3 -248 -64l56 310q129 73 292 73z
M502 285q174 0 262 262q-71 49 -174 49q-74 0 -131 -46t-72 -126q-10 -63 23.5 -101t91.5 -38z" />
    <glyph glyph-name="emptyset" unicode="&#x2205;" horiz-adv-x="1646" 
d="M1704 1475l-234 -250q85 -105 119 -242t8 -287q-36 -202 -160.5 -367.5t-307 -259.5t-384.5 -94q-193 0 -350 101l-108 -117h-273l234 250q-85 105 -119.5 242t-7.5 286q35 202 160 367.5t308.5 259.5t385.5 94q192 0 348 -100l109 117h272zM352 717q-34 -187 60 -332
l745 797q-89 47 -207 47q-139 0 -268 -68t-217 -186t-113 -258zM1366 717q34 188 -59 332l-746 -797q89 -47 207 -47q212 0 386.5 149t211.5 363z" />
    <glyph glyph-name="product" unicode="&#x220f;" horiz-adv-x="1292" 
d="M-49 -410l323 1844h1065l-323 -1844h-340l266 1518h-383l-266 -1518h-342z" />
    <glyph glyph-name="summation" unicode="&#x2211;" horiz-adv-x="1148" 
d="M-111 -410l56 312l518 657l-262 617l43 258h962l-57 -334h-547l242 -568l-477 -608h606l-60 -334h-1024z" />
    <glyph glyph-name="minus" unicode="&#x2212;" horiz-adv-x="1146" 
d="M90 555l60 324h978l-57 -324h-981z" />
    <glyph glyph-name="radical" unicode="&#x221a;" horiz-adv-x="1419" 
d="M428 0l-166 367h-225l57 323h398l120 -299l637 1247h369l-862 -1638h-328z" />
    <glyph glyph-name="infinity" unicode="&#x221e;" horiz-adv-x="1677" 
d="M1288 1110q173 0 271.5 -116t68.5 -292q-30 -175 -153.5 -276.5t-296.5 -101.5q-181 0 -334 176q-195 -176 -379 -176q-174 0 -274 116t-68 291q30 175 154 277t298 102q181 0 334 -176q195 176 379 176zM539 635q70 0 155 82q-58 82 -127 82q-37 0 -65.5 -22.5
t-34.5 -59.5q-7 -37 14 -59.5t58 -22.5zM1284 717q6 37 -14 59.5t-56 22.5q-73 0 -155 -82q55 -82 127 -82q35 0 63 22.5t35 59.5z" />
    <glyph glyph-name="integral" unicode="&#x222b;" horiz-adv-x="944" 
d="M-164 -418l60 336q27 -14 59.5 -15t64 10.5t58.5 40.5t41 71l370 1067q34 99 85 172t110 114.5t129.5 61.5t143 18.5t151.5 -20.5l-61 -336q-27 14 -59.5 15t-64 -10.5t-58.5 -40.5t-42 -71l-368 -1067q-34 -99 -85 -172t-110 -114.5t-130 -61.5t-143 -18.5t-151 20.5z
" />
    <glyph glyph-name="approxequal" unicode="&#x2248;" horiz-adv-x="1163" 
d="M639 760q-87 41 -154 50t-107 -3t-99 -43l-148 78q37 112 93 186t124 107t146.5 30.5t162.5 -41.5q120 -61 188 -56t107 93l232 -119q-40 -108 -100 -182t-131 -108t-151 -32.5t-163 40.5zM285 268l-236 119q56 144 143 226.5t189.5 94.5t216.5 -38q87 -40 153.5 -49
t107 3t97.5 44l150 -80q-50 -148 -132 -230.5t-181.5 -92t-214.5 39.5q-120 61 -187 56t-106 -93z" />
    <glyph glyph-name="notequal" unicode="&#x2260;" horiz-adv-x="1046" 
d="M1018 778h-332l-76 -123h387l-57 -325h-530l-142 -228h-176l139 228h-190l57 325h336l76 123h-391l59 326h533l139 227h178l-141 -227h190z" />
    <glyph glyph-name="lessequal" unicode="&#x2264;" horiz-adv-x="1067" 
d="M1151 1401l-66 -367l-598 -143l549 -141l-61 -340l-864 323l61 344zM-10 43l57 326h922l-58 -326h-921z" />
    <glyph glyph-name="greaterequal" unicode="&#x2265;" horiz-adv-x="1067" 
d="M229 1401l865 -324l-62 -344l-979 -323l66 366l598 142l-549 141zM-10 43l57 326h922l-58 -326h-921z" />
    <glyph glyph-name="lozenge" unicode="&#x25ca;" horiz-adv-x="1204" 
d="M362 0l-253 717l505 717h299l256 -717l-507 -717h-300zM573 424l226 319l-94 267l-226 -320z" />
    <glyph glyph-name="i.loclTRK" horiz-adv-x="536" 
d="M373 1112q-75 0 -120.5 54t-31.5 128q14 75 77 130t138 55t120.5 -55t33.5 -130q-15 -74 -79 -128t-138 -54zM8 0l180 1024h340l-180 -1024h-340z" />
    <glyph glyph-name="f_f_j" horiz-adv-x="1751" 
d="M1743 1024l-180 -1024q-43 -252 -179 -353t-391 -87l58 315q76 -5 117 25t53 100l122 698h-231l-123 -698h-342l123 698h-238l-122 -698h-340l123 698h-127l55 326h129q40 232 189 343.5t405 96.5l-56 -315q-172 13 -198 -125h237l4 20q39 228 185 334.5t409 106.5
q131 0 261 -31l-52 -297q-117 19 -223 19q-215 0 -237 -132l-5 -20h574z" />
    <glyph glyph-name="f_j" horiz-adv-x="1171" 
d="M1163 1024l-180 -1024q-44 -252 -178 -353t-389 -87l55 315q77 -5 118.5 25t53.5 100l123 698h-234l-122 -698h-340l123 698h-127l55 326h129q39 228 184.5 334t409.5 106q134 0 260 -30l-51 -297q-111 18 -224 18q-215 0 -239 -131h573z" />
    <glyph glyph-name="uni0414.loclBGR" horiz-adv-x="1515" 
d="M1298 354h168l-112 -628h-365l49 274h-741l-49 -274h-367l113 628h168l538 1080h439zM549 354h381l-72 670z" />
    <glyph glyph-name="uni041B.loclBGR" horiz-adv-x="1310" 
d="M-100 0l698 1434h438l195 -1434h-385l-90 1008l-447 -1008h-409z" />
    <glyph glyph-name="uni0424.loclBGR" horiz-adv-x="1779" 
d="M1227 1442q286 -52 433 -254t95 -492q-54 -299 -261 -485.5t-525 -224.5l-33 -191h-346l35 197q-187 34 -318.5 135t-188 259.5t-22.5 350.5q54 299 261.5 486t525.5 225l32 190h347zM1391 717q56 318 -224 387l-137 -774q304 66 361 387zM461 717q-56 -319 223 -385
l137 770q-307 -67 -360 -385z" />
    <glyph glyph-name="uni0414.ss01" horiz-adv-x="1458" 
d="M1430 1434l-191 -1080h156l-64 -354h-1399l62 354h149q126 153 181 455l108 625h998zM537 354h337l132 740h-267l-51 -289q-54 -292 -151 -451z" />
    <glyph glyph-name="uni0426.ss01" horiz-adv-x="1437" 
d="M1208 354h164l-61 -354h-1288l251 1434h377l-190 -1080h373l190 1080h375z" />
    <glyph glyph-name="uni0429.ss01" horiz-adv-x="2031" 
d="M1802 354h164l-61 -354h-1882l251 1434h367l-190 -1080h311l188 1080h367l-191 -1080h312l188 1080h367z" />
    <glyph glyph-name="uni0414.loclBGR.ss01" horiz-adv-x="1515" 
d="M1298 354h168l-63 -354h-1473l64 354h168l538 1080h439zM549 354h381l-72 670z" />
    <glyph glyph-name="uni0432.loclBGR" horiz-adv-x="1150" 
d="M1100 1069q-26 -139 -164 -254q92 -57 132.5 -156t16.5 -233q-38 -222 -184 -338.5t-383 -116.5q-220 0 -342 143t-84 367l86 490q42 242 182.5 366.5t362.5 124.5q119 0 212 -50.5t138.5 -141t26.5 -201.5zM680 1147q-59 0 -103 -47.5t-57 -128.5l-20 -113l43 8
q59 11 94 13q111 79 123 161q9 48 -13 77.5t-67 29.5zM745 446q17 88 -44.5 122.5t-182.5 9.5l-72 -15l-16 -96q-12 -78 23.5 -125t107.5 -47q75 0 124.5 40.5t59.5 110.5z" />
    <glyph glyph-name="uni0433.loclBGR" horiz-adv-x="966" 
d="M430 -29q-92 0 -172 25t-138.5 71.5t-85.5 120t-11 162.5q14 77 51.5 132.5t86 84.5t105 47.5t111 27t99.5 17t75 24.5t35 42q3 23 -15 36t-53 13q-86 0 -143 -88l-264 137q69 117 175 173.5t261 56.5q110 0 202.5 -45t143.5 -132.5t31 -197.5q-13 -74 -49.5 -128.5
t-85 -83t-104.5 -47.5t-110.5 -28t-99.5 -17t-74.5 -22.5t-33.5 -38.5q-6 -30 16 -45.5t66 -15.5q115 0 176 113l268 -154q-136 -240 -463 -240z" />
    <glyph glyph-name="uni0434.loclBGR" horiz-adv-x="1267" 
d="M924 1024h336l-175 -983q-22 -128 -79.5 -223t-140 -150t-178.5 -81.5t-206 -26.5q-172 0 -298.5 64t-180.5 186l301 157q57 -110 209 -110q94 0 157.5 46t80.5 138l14 78q-120 -107 -291 -107q-117 0 -205 45.5t-136.5 121.5t-66.5 171t-2 197q15 96 59 185.5t112 161.5
t167 115.5t213 43.5q199 0 289 -150zM582 322q90 0 159.5 52.5t92.5 137.5l6 41q8 85 -42.5 137.5t-140.5 52.5q-97 0 -168 -59.5t-86 -151.5q-17 -92 32.5 -151t146.5 -59z" />
    <glyph glyph-name="uni0436.loclBGR" horiz-adv-x="1595" 
d="M-80 0l416 535l-207 489h344l172 -416l146 826h337l-149 -836l313 426h377l-407 -528l225 -496h-348l-187 434l-78 -434h-335l73 420l-325 -420h-367z" />
    <glyph glyph-name="uni0438.loclBGR" 
d="M836 1024h340l-181 -1024h-340l19 104q-56 -63 -134 -98t-165 -35q-166 0 -255 116t-54 325l108 612h340l-100 -569q-13 -81 22 -121.5t105 -40.5q77 0 129 47t69 139v-2z" />
    <glyph glyph-name="uni0439.loclBGR" 
d="M1065 1421l-49 -286h-662l49 286h662zM836 1024h340l-181 -1024h-340l19 104q-56 -63 -134 -98t-165 -35q-166 0 -255 116t-54 325l108 612h340l-100 -569q-13 -81 22 -121.5t105 -40.5q77 0 129 47t69 139v-2z" />
    <glyph glyph-name="uni043A.loclBGR" horiz-adv-x="1099" 
d="M1174 1024l-431 -514l267 -510h-365l-217 451l-80 -451h-340l252 1434h340l-143 -816l325 406h392z" />
    <glyph glyph-name="uni043B.loclBGR" horiz-adv-x="1091" 
d="M1001 0h-346l-84 580l-286 -580h-375l553 1024h346z" />
    <glyph glyph-name="uni043F.loclBGR" 
d="M809 1053q166 0 255 -116t54 -325l-108 -612h-340l100 569q13 81 -22 121.5t-105 40.5q-77 0 -129.5 -47t-69.5 -139v2l-96 -547h-340l180 1024h340l-18 -104q56 63 134 98t165 35z" />
    <glyph glyph-name="uni0442.loclBGR" horiz-adv-x="1740" 
d="M1356 1053q174 0 265 -115t56 -311l-108 -627h-342l102 588q12 68 -12.5 105.5t-87.5 37.5q-64 0 -106 -37t-60 -102l-105 -592h-340l103 588q11 68 -14.5 105.5t-88.5 37.5q-130 0 -169 -158l-101 -573h-340l180 1024h340l-16 -94q53 56 126.5 89.5t158.5 33.5
q87 0 149.5 -35.5t95.5 -102.5q135 138 314 138z" />
    <glyph glyph-name="uni0446.loclBGR" horiz-adv-x="1269" 
d="M1112 311h92l-104 -585h-324l53 305q-65 30 -96 90q-137 -150 -346 -150q-174 0 -265.5 117.5t-55.5 323.5l106 612h342l-100 -569q-14 -81 21 -121.5t106 -40.5q70 0 119.5 39.5t70.5 116.5l103 575h342l-115 -651q-5 -29 8.5 -45.5t42.5 -16.5z" />
    <glyph glyph-name="uni0448.loclBGR" horiz-adv-x="1740" 
d="M1393 1024h340l-181 -1024h-340l17 94q-53 -56 -126.5 -89.5t-158.5 -33.5q-87 0 -150.5 36t-95.5 102q-135 -138 -313 -138q-174 0 -265.5 115t-56.5 311l109 627h342l-102 -588q-12 -68 12.5 -105.5t87.5 -37.5q64 0 106 37t60 102l104 592h340l-102 -588
q-11 -68 14 -105.5t88 -37.5q67 0 109.5 42t60.5 116z" />
    <glyph glyph-name="uni0449.loclBGR" horiz-adv-x="1826" 
d="M1669 311h92l-104 -585h-322l54 305q-65 29 -95 84q-133 -144 -336 -144q-186 0 -258 135q-128 -135 -315 -135q-174 0 -265.5 115t-56.5 311l109 627h342l-102 -588q-12 -68 12.5 -105.5t87.5 -37.5q64 0 106 37t60 102l104 592h340l-102 -588q-11 -68 14 -105.5
t88 -37.5q67 0 109.5 42.5t60.5 117.5l101 571h340l-115 -651q-5 -29 8.5 -45.5t42.5 -16.5z" />
    <glyph glyph-name="uni044C.loclBGR" horiz-adv-x="1013" 
d="M598 764q189 0 288 -117t68 -297q-31 -175 -160.5 -278t-334.5 -103q-213 0 -321.5 121t-74.5 311l109 623h332l-45 -260h139zM627 377q9 45 -13.5 72.5t-76.5 27.5h-129l-15 -82q-9 -53 17 -83.5t82 -30.5q54 0 91.5 27.5t43.5 68.5z" />
    <glyph glyph-name="uni044A.loclBGR" 
d="M768 764q195 0 291 -116t65 -298q-31 -175 -160.5 -278t-334.5 -103q-213 0 -321.5 121t-74.5 311l54 308h-252l55 315h584l-45 -260h139zM797 377q9 45 -13.5 72.5t-76.5 27.5h-129l-15 -82q-9 -53 17 -83.5t82 -30.5q54 0 91.5 27.5t43.5 68.5z" />
    <glyph glyph-name="uni044E.loclBGR" horiz-adv-x="1652" 
d="M1137 1053q87 0 161 -23t127 -63t93.5 -94.5t60 -117t27 -131t-6.5 -137.5q-17 -101 -68 -193t-128 -164.5t-184.5 -115.5t-227.5 -43q-104 0 -188 30t-140 83t-90.5 120.5t-46.5 147.5h-116l-62 -352h-340l252 1434h340l-133 -762h102q69 167 216.5 274t351.5 107z
M1262 512q17 94 -30.5 153.5t-137.5 59.5q-89 0 -157 -59.5t-85 -153.5q-15 -95 32 -154t136 -59t158 59.5t84 153.5z" />
    <glyph glyph-name="zero.sinf" horiz-adv-x="837" 
d="M279 -356q-167 0 -259 126t-57 326q36 202 154.5 313t290.5 111q165 0 258 -126.5t57 -325.5q-35 -202 -153 -313t-291 -111zM313 -88q52 0 85.5 44.5t47.5 125.5q15 81 -3 125.5t-70 44.5q-103 0 -135 -170q-14 -81 4.5 -125.5t70.5 -44.5z" />
    <glyph glyph-name="one.sinf" horiz-adv-x="571" 
d="M256 492h233l-145 -820h-270l94 525l-166 -41l-22 241z" />
    <glyph glyph-name="two.sinf" horiz-adv-x="722" 
d="M-96 -328l30 183l345 288q27 24 40 36t24 28t13 31q9 45 -41 45q-33 0 -59.5 -24t-54.5 -69l-205 129q129 201 362 201q82 0 147.5 -33t99.5 -99t18 -152q-11 -66 -54 -120.5t-125 -121.5l-100 -82h227l-41 -240h-626z" />
    <glyph glyph-name="three.sinf" horiz-adv-x="700" 
d="M629 492l-33 -179l-160 -161q72 -32 107 -94.5t20 -145.5q-24 -137 -119 -202.5t-245 -65.5q-251 0 -312 192l228 121q15 -43 41 -62.5t69 -19.5q68 0 74 53q4 25 -11 38.5t-44 13.5h-60l-67 139l135 135h-252l43 238h586z" />
    <glyph glyph-name="four.sinf" horiz-adv-x="741" 
d="M629 23l-41 -236h-72l-20 -115h-250l20 115h-377l41 236l312 469h288l-301 -469h80l23 129h248l-23 -129h72z" />
    <glyph glyph-name="five.sinf" horiz-adv-x="677" 
d="M563 254h-291l-16 -68h37q58 0 107.5 -17.5t85.5 -51t51 -89t2 -126.5q-24 -131 -116.5 -194.5t-225.5 -63.5q-236 0 -306 190l232 111q24 -78 98 -78q32 0 51.5 14.5t22.5 38.5q5 27 -8.5 42t-42.5 15h-279l123 515h516z" />
    <glyph glyph-name="six.sinf" horiz-adv-x="702" 
d="M377 229q106 -26 160.5 -108.5t35.5 -192.5q-23 -132 -120 -208t-246 -76q-144 0 -223 89t-56 220q15 90 66 156l297 383h287zM328 -59q7 37 -10.5 55t-53.5 18q-76 0 -90 -73q-9 -37 9.5 -56.5t54.5 -19.5q35 0 59.5 19.5t30.5 56.5z" />
    <glyph glyph-name="seven.sinf" horiz-adv-x="618" 
d="M-4 492h592l-35 -203l-334 -617h-282l315 582h-297z" />
    <glyph glyph-name="eight.sinf" horiz-adv-x="714" 
d="M612 262q-17 -109 -118 -168q98 -76 79 -205q-19 -116 -112.5 -180.5t-249.5 -64.5q-149 0 -228 73t-59 189q22 134 156 200q-80 67 -62 175q21 114 112 176.5t222 62.5q125 0 203 -72t57 -186zM242 246q-4 -27 11 -41.5t48 -14.5q30 0 52 14.5t26 41.5q6 28 -10 42.5
t-47 14.5q-68 0 -80 -57zM334 -68q5 30 -12 49t-54 19t-61 -19t-29 -49q-6 -32 10.5 -50.5t55.5 -18.5q37 0 60.5 18.5t29.5 50.5z" />
    <glyph glyph-name="nine.sinf" horiz-adv-x="702" 
d="M344 520q144 0 223 -89t56 -220q-14 -96 -78 -170l-285 -369h-287l201 262q-106 26 -161 109t-36 193q23 132 120.5 208t246.5 76zM223 223q-7 -37 10.5 -55t53.5 -18q76 0 90 73q9 37 -9.5 56.5t-54.5 19.5q-35 0 -59.5 -19.5t-30.5 -56.5z" />
    <glyph glyph-name="zero.tf" horiz-adv-x="1206" 
d="M524 -31q-182 0 -304 99.5t-166 273.5t-5 395q59 338 243.5 532.5t463.5 194.5q181 0 302.5 -99.5t165.5 -273.5t5 -395q-60 -339 -243.5 -533t-461.5 -194zM569 326q229 0 297 391q34 197 -4 294t-153 97q-227 0 -295 -391q-71 -391 155 -391z" />
    <glyph glyph-name="one.tf" horiz-adv-x="1206" 
d="M784 354h365l-64 -354h-1124l62 354h397l119 678l-260 -63l-33 325l413 140h316z" />
    <glyph glyph-name="two.tf" horiz-adv-x="1206" 
d="M-29 0l45 266l621 484q84 64 130 116.5t56 106.5q10 56 -20.5 95.5t-102.5 39.5q-150 0 -249 -180l-293 188q64 115 159.5 194.5t206 116.5t232.5 37q101 0 190 -37t150.5 -100.5t89 -157t8.5 -198.5q-22 -128 -92 -222t-213 -206l-242 -189h459l-62 -354h-1073z" />
    <glyph glyph-name="three.tf" horiz-adv-x="1206" 
d="M1245 1434l-49 -289l-299 -293q135 -53 203 -165t41 -263q-21 -118 -76.5 -206.5t-137.5 -142t-182 -80t-217 -26.5q-207 0 -344 90.5t-180 270.5l336 174q24 -87 77.5 -132.5t145.5 -45.5q187 0 213 139q11 66 -29.5 102.5t-134.5 36.5h-73l-107 213l273 266h-512
l59 351h993z" />
    <glyph glyph-name="four.tf" horiz-adv-x="1206" 
d="M1184 553l-60 -334h-143l-39 -219h-364l38 219h-657l59 334l584 881h422l-586 -881h238l47 268h364l-47 -268h144z" />
    <glyph glyph-name="five.tf" horiz-adv-x="1206" 
d="M1180 1083h-564l-38 -153h118q110 0 201 -33t154.5 -94.5t90 -157.5t5.5 -215q-40 -226 -206 -343.5t-398 -117.5q-211 0 -349 86.5t-188 261.5l340 172q47 -163 225 -163q186 0 213 129q11 63 -30.5 99t-135.5 36h-485l207 844h901z" />
    <glyph glyph-name="six.tf" horiz-adv-x="1206" 
d="M774 995q146 -21 244 -99t134.5 -189t14.5 -240q-17 -103 -67.5 -192.5t-129.5 -158t-194 -108t-252 -39.5t-242.5 45t-165 120.5t-82 172.5t-3.5 203q31 175 149 299l545 625h426zM807 485q15 86 -34 134.5t-142 48.5q-96 0 -159.5 -48t-78.5 -135q-17 -86 31 -133
t143 -47t159 47t81 133z" />
    <glyph glyph-name="seven.tf" horiz-adv-x="1206" 
d="M203 1434h1104l-52 -304l-694 -1130h-411l659 1079h-668z" />
    <glyph glyph-name="eight.tf" horiz-adv-x="1206" 
d="M1219 1028q-34 -189 -209 -287q88 -63 126 -154.5t19 -195.5q-36 -199 -199.5 -309.5t-435.5 -110.5q-266 0 -404 123.5t-102 321.5q21 109 89.5 197t179.5 143q-138 109 -109 293q36 198 198 305.5t392 107.5q144 0 254.5 -50.5t167 -150.5t33.5 -233zM514 1008
q-9 -58 31 -90.5t125 -32.5q83 0 135 33t61 90q11 56 -30 89t-123 33q-85 0 -136.5 -32.5t-62.5 -89.5zM801 455q11 71 -34 110t-146 39t-161.5 -39.5t-72.5 -109.5t33.5 -109t146.5 -39t160.5 39t73.5 109z" />
    <glyph glyph-name="nine.tf" horiz-adv-x="1206" 
d="M754 1464q92 0 171 -20.5t136 -57t101 -87t65.5 -110.5t29 -127.5t-7.5 -137.5q-31 -179 -155 -306l-541 -618h-426l377 438q-146 21 -243.5 99.5t-134 189.5t-15.5 240q18 103 68.5 192.5t130 158t194 107.5t250.5 39zM473 948q-15 -86 33 -134t141 -48q97 0 161 47.5
t79 134.5q15 86 -33.5 133t-142.5 47q-96 0 -159.5 -47t-78.5 -133z" />
    <glyph glyph-name="zero.dnom" horiz-adv-x="837" 
d="M336 -29q-167 0 -259 126.5t-57 326.5q36 202 154.5 313t290.5 111q165 0 258 -127t57 -326q-35 -202 -153 -313t-291 -111zM371 240q52 0 85.5 44.5t47.5 125.5q15 81 -3.5 125.5t-70.5 44.5q-103 0 -135 -170q-14 -81 5 -125.5t71 -44.5z" />
    <glyph glyph-name="one.dnom" horiz-adv-x="565" 
d="M313 819h234l-146 -819h-270l94 524l-166 -41l-22 242z" />
    <glyph glyph-name="two.dnom" horiz-adv-x="729" 
d="M-39 0l31 182l344 289q30 26 41 36.5t23 26.5t14 31q9 45 -41 45q-58 0 -115 -92l-205 129q129 201 363 201q128 0 208 -78.5t56 -206.5q-11 -66 -54 -120.5t-124 -120.5l-101 -82h228l-41 -240h-627z" />
    <glyph glyph-name="three.dnom" horiz-adv-x="686" 
d="M686 819l-33 -178l-159 -162q72 -32 107 -94t20 -145q-24 -137 -119.5 -203t-245.5 -66q-250 0 -311 193l227 121q29 -82 111 -82q67 0 73 53q4 25 -11 38t-44 13h-59l-68 139l135 136h-252l43 237h586z" />
    <glyph glyph-name="four.dnom" horiz-adv-x="739" 
d="M686 350l-41 -235h-72l-20 -115h-250l21 115h-377l41 235l311 469h289l-301 -469h80l22 129h248l-23 -129h72z" />
    <glyph glyph-name="five.dnom" horiz-adv-x="679" 
d="M621 582h-291l-17 -68h37q58 0 107.5 -17.5t85.5 -51.5t51 -89.5t2 -126.5q-24 -131 -116.5 -194.5t-225.5 -63.5q-235 0 -305 191l231 110q23 -77 99 -77q31 0 50.5 14.5t22.5 38.5q5 27 -8.5 42t-42.5 15h-278l122 514h517z" />
    <glyph glyph-name="six.dnom" horiz-adv-x="700" 
d="M434 557q106 -26 161 -108.5t36 -192.5q-23 -132 -120.5 -208.5t-246.5 -76.5q-144 0 -222.5 89.5t-55.5 220.5q15 90 65 155l297 383h287zM385 268q7 37 -10.5 55.5t-52.5 18.5q-76 0 -91 -74q-9 -37 9.5 -56t54.5 -19q35 0 59.5 19t30.5 56z" />
    <glyph glyph-name="seven.dnom" horiz-adv-x="618" 
d="M53 819h592l-35 -203l-334 -616h-282l315 582h-297z" />
    <glyph glyph-name="eight.dnom" horiz-adv-x="712" 
d="M670 590q-17 -108 -119 -168q47 -37 68 -90.5t12 -114.5q-19 -116 -113 -181t-250 -65q-149 0 -227.5 73t-58.5 189q22 136 155 201q-79 66 -61 174q21 114 112 177t222 63q125 0 203 -72t57 -186zM299 573q-4 -27 11 -41t48 -14q31 0 52.5 14t25.5 41q6 28 -10 43
t-47 15q-68 0 -80 -58zM391 260q5 31 -11.5 49.5t-53.5 18.5t-61 -19t-29 -49q-6 -32 10 -51t55 -19q37 0 60.5 19t29.5 51z" />
    <glyph glyph-name="nine.dnom" horiz-adv-x="700" 
d="M401 848q144 0 223 -89t56 -220q-14 -96 -78 -170l-285 -369h-286l200 262q-106 26 -160.5 108.5t-35.5 192.5q24 132 120.5 208.5t245.5 76.5zM281 551q-7 -37 10.5 -55.5t52.5 -18.5q75 0 90 74q9 37 -9.5 56.5t-53.5 19.5t-59.5 -19.5t-30.5 -56.5z" />
    <glyph glyph-name="zero.numr" horiz-adv-x="837" 
d="M444 586q-167 0 -258.5 125.5t-56.5 326.5q36 202 154 313t290 111q166 0 259 -126.5t57 -325.5q-35 -202 -153.5 -313t-291.5 -111zM479 854q52 0 85.5 44.5t47.5 125.5q15 81 -3 125.5t-70 44.5t-86.5 -44.5t-49.5 -125.5q-14 -81 5 -125.5t71 -44.5z" />
    <glyph glyph-name="one.numr" horiz-adv-x="565" 
d="M422 1434h233l-145 -820h-270l94 525l-166 -41l-23 241z" />
    <glyph glyph-name="two.numr" horiz-adv-x="729" 
d="M70 614l30 183l344 288q28 25 40.5 36.5t24 27.5t13.5 31q9 45 -41 45q-57 0 -114 -92l-205 129q128 200 362 200q128 0 208 -78t56 -206q-11 -66 -54 -121t-124 -121l-100 -82h227l-41 -240h-626z" />
    <glyph glyph-name="three.numr" horiz-adv-x="686" 
d="M795 1434l-33 -179l-160 -161q72 -32 107 -94.5t20 -145.5q-24 -137 -119 -202.5t-245 -65.5q-251 0 -312 192l228 121q15 -43 41 -62.5t69 -19.5q68 0 74 53q4 25 -11 38.5t-44 13.5h-60l-67 139l135 135h-252l43 238h586z" />
    <glyph glyph-name="four.numr" horiz-adv-x="739" 
d="M795 965l-41 -236h-72l-20 -115h-250l20 115h-377l41 236l312 469h288l-301 -469h80l23 129h247l-22 -129h72z" />
    <glyph glyph-name="five.numr" horiz-adv-x="679" 
d="M729 1196h-291l-16 -68h37q58 0 107.5 -17.5t85.5 -51t51 -89t2 -126.5q-24 -131 -117 -194.5t-226 -63.5q-235 0 -305 190l232 111q24 -78 98 -78q32 0 51.5 14.5t22.5 38.5q5 27 -8.5 42.5t-42.5 15.5h-279l123 514h516z" />
    <glyph glyph-name="six.numr" horiz-adv-x="700" 
d="M543 1171q106 -26 160.5 -108.5t35.5 -192.5q-23 -132 -120 -208t-246 -76q-144 0 -223 89t-56 220q15 90 66 156l297 383h286zM494 883q7 37 -10.5 55t-53.5 18q-76 0 -90 -73q-9 -37 9.5 -56.5t53.5 -19.5t60 19.5t31 56.5z" />
    <glyph glyph-name="seven.numr" horiz-adv-x="618" 
d="M162 1434h592l-35 -203l-334 -617h-283l316 582h-297z" />
    <glyph glyph-name="eight.numr" horiz-adv-x="714" 
d="M778 1204q-17 -108 -119 -168q47 -37 68 -90.5t12 -114.5q-19 -116 -112.5 -180.5t-249.5 -64.5q-149 0 -228 73t-59 189q11 65 51 117t105 84q-79 66 -62 174q21 114 112 176.5t222 62.5q125 0 203 -72t57 -186zM408 1188q-4 -27 11 -41t48 -14q31 0 52.5 14t25.5 41
q6 28 -10.5 42.5t-47.5 14.5q-67 0 -79 -57zM500 874q5 30 -12 49t-54 19t-61 -19t-29 -49q-6 -32 10.5 -50.5t55.5 -18.5q37 0 60.5 18.5t29.5 50.5z" />
    <glyph glyph-name="nine.numr" horiz-adv-x="700" 
d="M510 1462q144 0 222.5 -89t55.5 -220q-14 -98 -77 -170l-285 -369h-287l201 263q-106 26 -161 108.5t-36 192.5q23 132 120.5 208t246.5 76zM389 1165q-7 -37 10.5 -55t53.5 -18q76 0 90 73q9 37 -9.5 56.5t-54.5 19.5q-35 0 -59.5 -19.5t-30.5 -56.5z" />
    <glyph glyph-name="zero.sups" horiz-adv-x="837" 
d="M502 913q-167 0 -259 126.5t-57 326.5q36 202 154.5 313t290.5 111q165 0 258 -127t57 -326q-35 -202 -153 -313t-291 -111zM537 1182q52 0 85.5 44.5t47.5 125.5q15 81 -3.5 125.5t-70.5 44.5q-103 0 -135 -170q-14 -81 5 -125.5t71 -44.5z" />
    <glyph glyph-name="one.sups" horiz-adv-x="565" 
d="M479 1761h234l-146 -819h-270l94 524l-166 -41l-22 242z" />
    <glyph glyph-name="two.sups" horiz-adv-x="729" 
d="M127 942l31 182l344 289q30 26 41 36.5t23 26.5t14 31q9 45 -41 45q-58 0 -115 -92l-205 129q129 201 363 201q128 0 208 -78.5t56 -206.5q-11 -66 -54 -120.5t-124 -120.5l-101 -82h228l-41 -240h-627z" />
    <glyph glyph-name="three.sups" horiz-adv-x="688" 
d="M854 1761l-33 -178l-159 -162q72 -32 106.5 -94t19.5 -145q-24 -137 -119 -203t-245 -66q-250 0 -311 193l227 121q29 -82 111 -82q67 0 73 53q4 25 -11 38t-44 13h-59l-68 140l135 135h-252l43 237h586z" />
    <glyph glyph-name="four.sups" horiz-adv-x="739" 
d="M852 1292l-41 -235h-72l-20 -115h-250l20 115h-376l41 235l311 469h289l-301 -469h79l23 129h248l-23 -129h72z" />
    <glyph glyph-name="five.sups" horiz-adv-x="677" 
d="M786 1524h-290l-17 -68h37q58 0 107.5 -17.5t85.5 -51.5t51 -89.5t2 -126.5q-24 -131 -116.5 -194.5t-225.5 -63.5q-235 0 -305 191l231 110q23 -77 98 -77q32 0 51.5 14.5t22.5 38.5q5 27 -8.5 42t-42.5 15h-279l123 514h516z" />
    <glyph glyph-name="six.sups" horiz-adv-x="702" 
d="M600 1499q106 -26 161 -108.5t36 -192.5q-23 -132 -120.5 -208.5t-246.5 -76.5q-144 0 -222.5 89.5t-55.5 220.5q15 90 65 155l297 383h287zM551 1210q7 37 -11 55.5t-53 18.5q-75 0 -90 -74q-9 -37 9.5 -56t54.5 -19q35 0 59.5 19t30.5 56z" />
    <glyph glyph-name="seven.sups" horiz-adv-x="620" 
d="M221 1761h592l-35 -202l-334 -617h-282l315 582h-297z" />
    <glyph glyph-name="eight.sups" horiz-adv-x="712" 
d="M836 1532q-17 -108 -119 -168q47 -37 68 -90.5t12 -114.5q-19 -116 -113 -181t-250 -65q-149 0 -228 73.5t-59 189.5q22 134 156 200q-79 66 -61 174q21 114 111.5 177t221.5 63q125 0 203.5 -72t57.5 -186zM465 1516q-4 -27 11 -41.5t48 -14.5q30 0 52 14.5t26 41.5
q6 28 -10 42.5t-47 14.5q-68 0 -80 -57zM557 1202q5 31 -11.5 49.5t-53.5 18.5t-61.5 -19t-29.5 -49q-6 -32 10.5 -50.5t55.5 -18.5q37 0 60.5 18.5t29.5 50.5z" />
    <glyph glyph-name="nine.sups" horiz-adv-x="700" 
d="M567 1790q144 0 223 -89t56 -220q-14 -96 -78 -170l-285 -369h-286l200 262q-106 26 -160.5 108.5t-35.5 192.5q24 132 120.5 208.5t245.5 76.5zM446 1493q-7 -37 11 -55.5t53 -18.5q75 0 90 74q9 37 -9.5 56.5t-53.5 19.5t-60 -19.5t-31 -56.5z" />
    <glyph glyph-name="cent.tf" horiz-adv-x="1206" 
d="M655 508q118 0 191 102l270 -172q-77 -129 -206 -195.5t-281 -66.5q-60 0 -135 14l-95 -190h-133l115 231q-133 68 -195 203t-36 303q37 227 209 373.5t401 146.5q68 0 123 -12l94 189h133l-113 -230q136 -68 203 -215l-309 -162q-19 40 -49 64l-191 -383h4zM489 719
q-19 -111 50 -170l186 377q-89 -2 -155 -59t-81 -148z" />
    <glyph glyph-name="dollar.tf" horiz-adv-x="1206" 
d="M772 862q35 -12 61.5 -22t60 -24.5t58.5 -29t53 -33.5t48.5 -40.5t40 -47.5t31 -56.5t18.5 -65t6.5 -76.5t-8.5 -88q-34 -190 -177.5 -294.5t-363.5 -115.5l-31 -174h-143l31 178q-183 20 -298 109.5t-157 232.5l326 168q51 -146 190 -168l45 254l-28 11
q-90 35 -155.5 74t-119.5 96t-74.5 136t-3.5 177q16 98 66 175.5t123 126t162 73.5t188 26l31 174h143l-33 -186q133 -26 228.5 -103.5t146.5 -201.5l-315 -168q-41 100 -121 129l-43 -242q3 -1 7.5 -2t6.5 -2zM543 1030q-6 -35 14 -60.5t68 -49.5l34 202q-103 -15 -116 -92
zM778 414q10 59 -82 104l-34 -203q103 20 116 99z" />
    <glyph glyph-name="Euro.tf" horiz-adv-x="1206" 
d="M657 326q120 0 209 135l279 -178q-87 -149 -219.5 -231.5t-309.5 -82.5q-208 0 -324.5 147.5t-119.5 395.5h-145l30 172h125q4 34 8 53q1 3 2.5 9.5t2.5 9.5h-125l30 172h136q81 255 238.5 395.5t379.5 140.5q160 0 268 -82.5t164 -232.5l-323 -170q-41 129 -154 129
q-128 0 -201 -180h281l-31 -172h-297q-3 -9 -8 -39l-6 -33h299l-31 -172h-280q3 -186 122 -186z" />
    <glyph glyph-name="florin.tf" horiz-adv-x="1206" 
d="M674 1100q45 100 104 173t123.5 114.5t139 61t147.5 18t151 -20.5l-57 -336q-92 31 -169 5t-112 -111l-53 -121h221l-57 -326h-305l-272 -620q-43 -100 -101.5 -173.5t-123 -115t-139.5 -61t-149 -18t-153 20.5l59 336q91 -30 164 -3.5t109 110.5l233 524h-221l59 326
h306z" />
    <glyph glyph-name="uni20BD.tf" horiz-adv-x="1206" 
d="M827 1434q98 0 184 -39t145 -105t85.5 -160t7.5 -198q-39 -224 -196 -341.5t-396 -117.5h-147l-14 -82h376l-34 -203h-379l-33 -188h-367l33 188h-129l35 203h131l14 82h-129l58 326h129l110 635h516zM885 942q12 66 -22 104.5t-97 38.5h-150l-49 -286h148q64 0 112 38.5
t58 104.5z" />
    <glyph glyph-name="sterling.tf" horiz-adv-x="1206" 
d="M553 557l-37 -203h643l-63 -354h-1135l64 354h127l34 203h-104l51 287h105l28 162q21 119 72 208.5t123.5 143t157.5 80t182 26.5q171 0 288.5 -81.5t176.5 -237.5l-330 -168q-26 69 -64 103t-100 34q-55 0 -94 -33.5t-49 -91.5l-25 -145h418l-51 -287h-418z" />
    <glyph glyph-name="yen.tf" horiz-adv-x="1206" 
d="M1368 1434l-471 -672h246l-33 -193h-313l-15 -84h312l-33 -190h-313l-52 -295h-366l51 295h-311l32 190h314l14 84h-311l33 193h245l-235 672h393l117 -433l268 433h428z" />
    <glyph glyph-name="brevecy" horiz-adv-x="825" 
d="M193 1135l49 286h661l-49 -286h-661z" />
    </font>
</defs>
</svg>
