<?xml version="1.0" standalone="no"?>
<!DOCTYPE svg PUBLIC "-//W3C//DTD SVG 1.1//EN" "http://www.w3.org/Graphics/SVG/1.1/DTD/svg11.dtd" >
<svg xmlns="http://www.w3.org/2000/svg" xmlns:xlink="http://www.w3.org/1999/xlink" version="1.1">
<metadata>
Created by FontForge 20170731 at Wed Sep 22 18:22:59 2021
 By Aleksey,,,
Copyright (c) 2015 by Radomir Tinkov. All rights reserved.
</metadata>
<defs>
<font id="Gilroy-LightItalic" horiz-adv-x="1167" >
  <font-face 
    font-family="Gilroy Light Italic"
    font-weight="300"
    font-style="italic"
    font-stretch="normal"
    units-per-em="2048"
    panose-1="0 0 4 0 0 0 0 0 0 0"
    ascent="1638"
    descent="-410"
    x-height="1024"
    cap-height="1434"
    bbox="-606 -492 2128 1966"
    underline-thickness="102"
    underline-position="-307"
    slope="-10"
    unicode-range="U+0020-FB02"
  />
<missing-glyph horiz-adv-x="1024" 
d="M840 1638v-2048h-650v2048h650zM682 1501h-338v-67h133v-76h-135v-68h340v68h-135v76h135v67zM547 1237h-205v-213h340v70h-135v143zM477 1167v-73h-67v73h67zM682 969h-340v-68h135v-76h-135v-67h205v143h135v68zM682 846h-68v-135h-272v-70h340v205zM682 596h-205v-115
h70v47h67v-96h-204v164h-68v-231h340v231zM682 242h-340v-232h340v232zM614 174v-96h-204v96h204zM682 -37h-340v-67h143l-143 -97v-67h340v67h-209l143 97h66v67z" />
    <glyph glyph-name="fi" unicode="fi" horiz-adv-x="1044" 
d="M791 1358q-160 0 -244.5 -65.5t-110.5 -213.5l-10 -55h553l-180 -1024h-105l162 924h-446l-164 -924h-105l164 924h-178l18 100h177l10 55q33 194 152 285.5t325 91.5q88 0 192 -22l-14 -95q-104 19 -196 19z" />
    <glyph glyph-name="fl" unicode="fl" horiz-adv-x="1044" 
d="M809 1456q113 0 242 -22l-252 -1434h-105l238 1354q-60 8 -141 8q-158 0 -243.5 -67.5t-111.5 -215.5l-10 -55h244l-17 -100h-243l-164 -924h-105l164 924h-178l18 100h177l10 55q33 194 152 285.5t325 91.5z" />
    <glyph glyph-name="f_f" unicode="ff" horiz-adv-x="1193" 
d="M887 1100q34 196 156.5 294t320.5 83l-18 -99q-302 23 -355 -278l-12 -76h305l-18 -100h-305l-162 -924h-105l162 924h-446l-164 -924h-105l164 924h-178l18 100h177l10 55q34 196 156.5 294t320.5 83l-18 -98q-302 23 -355 -279l-10 -55h448z" />
    <glyph glyph-name="f_f_i" unicode="ffi" horiz-adv-x="1597" 
d="M1346 1378q-159 0 -244 -65t-111 -213l-12 -76h551l-180 -1024h-103l162 924h-448l-162 -924h-105l162 924h-446l-164 -924h-105l164 924h-178l18 100h177l10 55q34 197 156 294.5t321 82.5l-18 -98q-302 23 -355 -279l-10 -55h448l13 76q33 194 152 285.5t325 91.5
q87 0 195 -23l-17 -94q-99 18 -196 18z" />
    <glyph glyph-name="f_f_l" unicode="ffl" horiz-adv-x="1597" 
d="M1364 1477q107 0 242 -23l-256 -1454h-103l242 1374q-63 8 -141 8q-158 0 -244.5 -67t-112.5 -215l-12 -76h244l-19 -100h-243l-162 -924h-105l162 924h-446l-164 -924h-105l164 924h-178l18 100h177l10 55q34 197 156 294.5t321 82.5l-18 -98q-302 23 -355 -279l-10 -55
h448l13 76q33 194 152 285.5t325 91.5z" />
    <glyph glyph-name=".notdef" horiz-adv-x="1024" 
d="M840 1638v-2048h-650v2048h650zM682 1501h-338v-67h133v-76h-135v-68h340v68h-135v76h135v67zM547 1237h-205v-213h340v70h-135v143zM477 1167v-73h-67v73h67zM682 969h-340v-68h135v-76h-135v-67h205v143h135v68zM682 846h-68v-135h-272v-70h340v205zM682 596h-205v-115
h70v47h67v-96h-204v164h-68v-231h340v231zM682 242h-340v-232h340v232zM614 174v-96h-204v96h204zM682 -37h-340v-67h143l-143 -97v-67h340v67h-209l143 97h66v67z" />
    <glyph glyph-name=".null" horiz-adv-x="0" 
 />
    <glyph glyph-name="nonmarkingreturn" horiz-adv-x="682" 
 />
    <glyph glyph-name="space" unicode=" " horiz-adv-x="546" 
 />
    <glyph glyph-name="exclam" unicode="!" horiz-adv-x="450" 
d="M160 369l94 655l72 410h123l-72 -410l-135 -655h-82zM131 -20q-38 0 -60 28t-14 66q6 40 36 65t71 25q38 0 60.5 -28t15.5 -66q-8 -40 -37.5 -65t-71.5 -25z" />
    <glyph glyph-name="quotedbl" unicode="&#x22;" horiz-adv-x="600" 
d="M217 1051l53 383h111l-82 -383h-82zM492 1051l53 383h108l-80 -383h-81z" />
    <glyph glyph-name="numbersign" unicode="#" horiz-adv-x="1234" 
d="M1204 854h-241l-95 -274h246l-33 -95h-245l-131 -383h-103l131 383h-315l-131 -383h-103l131 383h-243l30 95h246l94 274h-247l32 94h248l131 383h103l-131 -383h315l131 383h102l-131 -383h242zM766 580l94 274h-315l-94 -274h315z" />
    <glyph glyph-name="dollar" unicode="$" horiz-adv-x="1142" 
d="M1030 1147q-34 80 -90 131.5t-147 67.5l-105 -588q30 -12 51.5 -21.5t52.5 -24t51.5 -27t48.5 -31.5t44 -36.5t38 -42t29.5 -49t19 -56t7 -63.5t-7.5 -73q-31 -164 -159.5 -256t-311.5 -101l-33 -182h-96l33 185q-160 13 -265.5 90t-142.5 206l98 50q27 -106 111 -169.5
t217 -72.5l107 602q-30 12 -53.5 22.5t-52.5 25t-51.5 28.5t-47.5 31.5t-43 37t-35 42t-27.5 48.5t-17 55t-6 63t7.5 71q21 110 94 190.5t168 118t199 37.5l33 182h96l-33 -190q120 -20 199 -86t116 -166zM362 1100q-12 -62 2 -110.5t53 -84.5t79 -59t102 -49l98 555
q-122 -5 -216.5 -73.5t-117.5 -178.5zM913 346q8 27 5.5 52.5t-5.5 46.5t-15.5 41t-24 35.5t-31 31.5t-37 28t-42 24.5t-45.5 22.5t-48 21l-101 -565q139 10 229.5 80t114.5 182z" />
    <glyph glyph-name="percent" unicode="%" horiz-adv-x="1466" 
d="M504 846q-132 0 -207.5 91.5t-52.5 219.5q23 129 126 214t240 85q133 0 208 -91.5t52 -219.5q-24 -129 -125.5 -214t-240.5 -85zM520 940q93 0 163 60t87 151q15 90 -34 150.5t-142 60.5q-91 0 -162 -60.5t-88 -150.5q-15 -90 34 -150.5t142 -60.5zM145 184l1166 1096
l71 -41l-1167 -1096zM930 -23q-131 0 -207 92t-53 220q23 129 126 214t240 85q132 0 207 -91.5t53 -220.5q-22 -128 -125.5 -213.5t-240.5 -85.5zM946 72q93 0 163 60t87 151q15 90 -34 150.5t-142 60.5q-92 0 -163.5 -60.5t-86.5 -150.5q-14 -91 35 -151t141 -60z" />
    <glyph glyph-name="ampersand" unicode="&#x26;" horiz-adv-x="1351" 
d="M1204 555q-57 -171 -162 -309l170 -217l-94 -47l-147 186q-194 -191 -459 -191q-209 0 -322.5 117.5t-78.5 304.5q23 131 116 234.5t246 171.5q-43 67 -61 136.5t-4 156.5q28 160 151 259t293 99q144 0 245.5 -72.5t143.5 -197.5l-94 -51q-33 101 -110.5 159t-186.5 58
q-124 0 -218 -71.5t-114 -190.5q-16 -86 12 -158t91 -150l358 -456q91 127 141 284zM520 82q222 0 389 164l-372 473q0 2 -2 2q-137 -56 -217 -142t-99 -190q-26 -140 58.5 -223.5t242.5 -83.5z" />
    <glyph glyph-name="quotesingle" unicode="'" horiz-adv-x="321" 
d="M217 1051l53 383h111l-82 -383h-82z" />
    <glyph glyph-name="parenleft" unicode="(" horiz-adv-x="514" 
d="M223 -205q-145 449 -61 932q83 477 387 911h102q-305 -449 -387 -921t62 -922h-103z" />
    <glyph glyph-name="parenright" unicode=")" horiz-adv-x="514" 
d="M362 1638q145 -451 62 -931q-83 -479 -387 -912h-103q306 450 388 922t-62 921h102z" />
    <glyph glyph-name="asterisk" unicode="*" horiz-adv-x="792" 
d="M793 1251l-15 -88l-194 4l80 -161l-84 -48l-70 172l-129 -172l-78 48l137 161l-194 -4l14 88l195 -4l-82 162l86 47l69 -170l129 170l76 -47l-135 -162z" />
    <glyph glyph-name="plus" unicode="+" horiz-adv-x="1091" 
d="M1008 766l-19 -98h-364l-66 -367h-100l65 367h-366l16 98h367l65 367h101l-66 -367h367z" />
    <glyph glyph-name="comma" unicode="," horiz-adv-x="456" 
d="M266 139l-186 -426h-94l151 426h129z" />
    <glyph glyph-name="hyphen" unicode="-" horiz-adv-x="1091" 
d="M190 584l17 98h737l-16 -98h-738z" />
    <glyph glyph-name="period" unicode="." horiz-adv-x="436" 
d="M125 -20q-39 0 -60.5 27.5t-15.5 66.5t36.5 64.5t70.5 25.5t62.5 -28t14.5 -66q-8 -40 -37 -65t-71 -25z" />
    <glyph glyph-name="slash" unicode="/" horiz-adv-x="1079" 
d="M49 -205h-88l1141 1843h86z" />
    <glyph glyph-name="zero" unicode="0" horiz-adv-x="1294" 
d="M553 -23q-123 0 -214.5 55.5t-142 155t-65.5 237.5t16 304q60 338 232.5 532.5t433.5 194.5q123 0 214.5 -55t142 -154.5t65.5 -237.5t-16 -304q-60 -338 -232.5 -533t-433.5 -195zM571 82q200 0 342.5 167.5t196.5 467.5q52 300 -31.5 467.5t-283.5 167.5t-342.5 -167.5
t-196.5 -467.5q-52 -300 31.5 -467.5t283.5 -167.5z" />
    <glyph glyph-name="one" unicode="1" horiz-adv-x="679" 
d="M571 1434h93l-252 -1434h-109l232 1311l-351 -103l-10 97z" />
    <glyph glyph-name="two" unicode="2" horiz-adv-x="1079" 
d="M-2 0l18 98l621 541q129 113 206.5 210t96.5 195q25 143 -51 225.5t-211 82.5q-232 0 -377 -219l-86 57q86 130 210.5 198t266.5 68q83 0 155 -29.5t123.5 -83t73.5 -135t5 -178.5q-23 -122 -109.5 -232.5t-234.5 -236.5l-529 -457h742l-19 -104h-901z" />
    <glyph glyph-name="three" unicode="3" horiz-adv-x="1103" 
d="M1102 1434l-19 -103l-426 -493q81 -10 149 -44.5t115 -89t66.5 -132.5t3.5 -169q-24 -133 -106.5 -231t-197.5 -146.5t-247 -48.5q-156 0 -265 71.5t-142 201.5l92 51q28 -107 112 -163t218 -56q163 0 281.5 90t144.5 242q27 152 -60 241.5t-250 89.5h-30l-37 74l446 512
h-692l16 103h828z" />
    <glyph glyph-name="four" unicode="4" horiz-adv-x="1161" 
d="M1104 403l-19 -102h-184l-53 -301h-109l54 301h-773l19 102l725 1031h123l-723 -1031h645l80 451h110l-79 -451h184z" />
    <glyph glyph-name="five" unicode="5" horiz-adv-x="1114" 
d="M1118 1331h-659l-117 -481h268q91 0 171.5 -31.5t138 -88t83.5 -142t9 -185.5q-36 -200 -190 -313t-361 -113q-157 0 -268.5 75.5t-143.5 213.5l96 51q21 -114 108.5 -174.5t221.5 -60.5q163 0 282 89.5t146 242.5q26 152 -60.5 241.5t-250.5 89.5h-383l168 689h758z" />
    <glyph glyph-name="six" unicode="6" horiz-adv-x="1099" 
d="M621 922q136 0 235 -62t142.5 -173t19.5 -249q-37 -209 -191.5 -335t-371.5 -126q-205 0 -319.5 137t-76.5 345q35 188 160 307l574 668h133l-457 -531q74 19 152 19zM909 449q30 163 -53 264.5t-254 101.5q-170 0 -288 -101.5t-146 -264.5q-30 -162 53 -264.5
t252 -102.5q170 0 288 102t148 265z" />
    <glyph glyph-name="seven" unicode="7" horiz-adv-x="1003" 
d="M209 1434h868l-18 -103l-785 -1331h-118l784 1331h-747z" />
    <glyph glyph-name="eight" unicode="8" horiz-adv-x="1128" 
d="M1090 1061q-20 -113 -91.5 -196t-175.5 -128q107 -51 160.5 -147t32.5 -217q-34 -189 -184 -292.5t-363 -103.5q-129 0 -227.5 49t-147.5 145t-26 222q21 125 105.5 215.5t211.5 134.5q-87 52 -129.5 139t-22.5 197q16 92 64 165.5t116 119t148.5 69t167.5 23.5
q82 0 153.5 -26.5t124 -75t76 -125t7.5 -168.5zM612 788q141 0 243 75.5t126 205.5q22 133 -54.5 208t-213.5 75q-139 0 -243 -75t-128 -208q-23 -128 55.5 -204.5t214.5 -76.5zM905 383q24 138 -63 218.5t-248 80.5q-166 0 -280 -80t-138 -219q-26 -140 60 -220.5
t251 -80.5q169 0 281 80t137 221z" />
    <glyph glyph-name="nine" unicode="9" horiz-adv-x="1103" 
d="M719 1456q135 0 234 -62t143 -173.5t20 -249.5q-30 -174 -149 -293l-584 -678h-131l455 530q-74 -18 -156 -18q-135 0 -234.5 62t-143 173.5t-19.5 249.5q37 209 192 334t373 125zM1008 985q28 162 -55.5 264.5t-252.5 102.5q-171 0 -290.5 -102.5t-147.5 -264.5
q-28 -163 54.5 -265t252.5 -102t289.5 102t149.5 265z" />
    <glyph glyph-name="colon" unicode=":" horiz-adv-x="436" 
d="M276 840q-39 0 -60 27.5t-15 66.5q6 40 36 65t70 25t63 -28t15 -66q-8 -40 -37.5 -65t-71.5 -25zM125 -20q-39 0 -60.5 27.5t-15.5 66.5t36.5 64.5t70.5 25.5t62.5 -28t14.5 -66q-8 -40 -37 -65t-71 -25z" />
    <glyph glyph-name="semicolon" unicode=";" horiz-adv-x="471" 
d="M311 840q-39 0 -60 27.5t-15 66.5q6 40 36 65t70 25t63 -28t15 -66q-8 -40 -37.5 -65t-71.5 -25zM266 139l-186 -426h-94l151 426h129z" />
    <glyph glyph-name="less" unicode="&#x3c;" horiz-adv-x="1079" 
d="M1059 1135l-23 -121l-751 -303l645 -303l-19 -109l-753 365l8 53l10 53z" />
    <glyph glyph-name="equal" unicode="=" horiz-adv-x="1099" 
d="M195 872l16 99h840l-17 -99h-839zM121 463l18 98h840l-18 -98h-840z" />
    <glyph glyph-name="greater" unicode="&#x3e;" horiz-adv-x="1079" 
d="M240 1135l753 -365l-8 -53l-10 -53l-883 -365l23 121l751 303l-645 303z" />
    <glyph glyph-name="question" unicode="?" horiz-adv-x="1083" 
d="M424 369q13 73 46 138.5t76.5 115t93.5 95t100 87.5t92 83.5t73 92.5t41 106q21 127 -50.5 196t-213.5 69q-116 0 -214 -57t-149 -162l-92 53q68 130 197 200t276 70q82 0 153 -25.5t122 -72.5t73.5 -119.5t6.5 -159.5q-11 -63 -42.5 -120.5t-74.5 -102.5t-93 -88
t-100 -86.5t-93 -88.5t-74.5 -103t-42.5 -121h-111zM412 -20q-39 0 -60.5 27.5t-15.5 66.5q6 40 36 65t70 25t63 -28t15 -66q-8 -40 -37 -65t-71 -25z" />
    <glyph glyph-name="at" unicode="@" horiz-adv-x="1654" 
d="M973 1253q93 0 175.5 -21.5t145.5 -60t116 -91.5t86 -115.5t55 -133t23 -143t-9 -145.5q-20 -113 -59 -197t-89 -130.5t-102.5 -68.5t-108.5 -22q-83 0 -133 48t-51 134q-50 -58 -120 -90.5t-148 -32.5q-137 0 -218.5 98t-56.5 236q25 139 134 230.5t255 91.5
q73 0 130.5 -34.5t88.5 -94.5l21 114h98l-80 -456q-30 -187 103 -187q96 0 172 93t108 278q24 136 -5 256.5t-101 206.5t-186 136t-252 50q-191 0 -364.5 -88.5t-293 -245.5t-153.5 -350q-27 -147 5.5 -276.5t112.5 -221.5t206 -145t280 -53q208 0 360 57l-4 -53
q-160 -55 -366 -55q-163 0 -298 58t-221.5 158t-122.5 240t-8 299q36 202 162.5 369t314.5 262.5t398 95.5zM776 279q99 0 179 65.5t98 167.5t-38.5 167.5t-156.5 65.5t-181 -65.5t-99 -167.5q-18 -103 39 -168t159 -65z" />
    <glyph glyph-name="A" unicode="A" horiz-adv-x="1288" 
d="M1057 0l-74 365h-719l-205 -365h-118l809 1434h114l303 -1434h-110zM322 467h639l-170 833z" />
    <glyph glyph-name="B" unicode="B" horiz-adv-x="1275" 
d="M1221 1049q-17 -101 -80.5 -183t-157.5 -127q100 -42 150.5 -138.5t31.5 -217.5q-26 -159 -154.5 -271t-308.5 -112h-614l252 1434h543q164 0 263.5 -113.5t74.5 -271.5zM797 782q110 0 202.5 80.5t112.5 194.5q20 115 -47 194.5t-186 79.5h-449l-96 -549h463zM1057 391
q20 120 -47.5 204.5t-184.5 84.5h-510l-100 -578h498q127 0 225 84.5t119 204.5z" />
    <glyph glyph-name="C" unicode="C" horiz-adv-x="1538" 
d="M748 -23q-159 0 -288.5 60.5t-209.5 162.5t-112 240.5t-5 290.5q36 205 159 371t304 260t383 94q204 0 355 -93t225 -253l-97 -51q-64 136 -185 214.5t-300 78.5q-137 0 -263.5 -50t-222.5 -136t-162 -202.5t-89 -246.5q-29 -176 25.5 -321t183.5 -229.5t309 -84.5
q173 0 325.5 81.5t251.5 223.5l92 -57q-115 -162 -294.5 -257.5t-384.5 -95.5z" />
    <glyph glyph-name="D" unicode="D" horiz-adv-x="1490" 
d="M879 1434q141 0 257.5 -59.5t189 -159t101.5 -234.5t3 -281q-35 -197 -147.5 -356t-284.5 -251.5t-371 -92.5h-539l252 1434h539zM1323 717q28 169 -18 308.5t-162 222.5t-281 83h-432l-215 -1229h430q124 0 240 48.5t204.5 131.5t150 196t83.5 239z" />
    <glyph glyph-name="E" unicode="E" horiz-adv-x="1091" 
d="M1139 1331h-709l-98 -557h657l-18 -102h-656l-100 -570h717l-19 -102h-825l252 1434h815z" />
    <glyph glyph-name="F" unicode="F" horiz-adv-x="1060" 
d="M1116 1331h-686l-100 -573h661l-18 -103h-662l-114 -655h-109l252 1434h795z" />
    <glyph glyph-name="G" unicode="G" horiz-adv-x="1638" 
d="M1571 668l-10 -54q-24 -132 -91.5 -248t-168 -202.5t-237 -136.5t-288.5 -50q-167 0 -302 61.5t-217.5 165t-115.5 243.5t-6 294q27 150 104.5 282.5t189.5 227.5t256.5 150t299.5 55q207 0 355 -93t227 -253l-97 -51q-68 135 -189 214t-300 79q-138 0 -265 -49
t-223.5 -133.5t-162.5 -200t-88 -244.5q-22 -131 5 -248.5t95 -205t181.5 -138.5t256.5 -51q166 0 306 66.5t229.5 174.5t126.5 242h-608l18 103h719z" />
    <glyph glyph-name="H" unicode="H" horiz-adv-x="1406" 
d="M1282 1434h109l-252 -1434h-109l121 686h-834l-120 -686h-109l252 1434h109l-113 -646h833z" />
    <glyph glyph-name="I" unicode="I" horiz-adv-x="464" 
d="M340 1434h109l-252 -1434h-109z" />
    <glyph glyph-name="J" unicode="J" horiz-adv-x="1132" 
d="M438 -23q-154 0 -258.5 63t-140.5 183l96 53q55 -194 309 -194q157 0 266 80.5t136 230.5l182 1041h109l-183 -1043q-24 -139 -103.5 -234.5t-184 -137.5t-228.5 -42z" />
    <glyph glyph-name="K" unicode="K" horiz-adv-x="1169" 
d="M1294 1434l-850 -707l615 -727h-131l-606 715l-125 -715h-109l252 1434h109l-117 -668l815 668h147z" />
    <glyph glyph-name="L" unicode="L" horiz-adv-x="1009" 
d="M215 102h676l-19 -102h-784l252 1434h109z" />
    <glyph glyph-name="M" unicode="M" horiz-adv-x="1652" 
d="M1636 1434l-252 -1434h-108l221 1264l-678 -871h-18l-379 889l-225 -1282h-109l252 1434h129l365 -854l663 854h139z" />
    <glyph glyph-name="N" unicode="N" horiz-adv-x="1406" 
d="M88 0l252 1434h86l639 -1233l217 1233h109l-252 -1434h-88l-637 1233l-217 -1233h-109z" />
    <glyph glyph-name="O" unicode="O" horiz-adv-x="1677" 
d="M748 -23q-202 0 -356.5 103t-224 277t-34.5 376q36 202 160.5 367.5t310 260.5t393.5 95q202 0 357 -104.5t225 -280t35 -377.5q-37 -202 -161.5 -366.5t-310 -257.5t-394.5 -93zM766 82q179 0 338 83.5t264 227.5t135 318q30 173 -27 320t-188.5 234t-308.5 87t-336 -85
t-264.5 -230.5t-134.5 -319.5q-31 -174 26 -319.5t188 -230.5t308 -85z" />
    <glyph glyph-name="P" unicode="P" horiz-adv-x="1200" 
d="M817 1434q200 0 306 -127.5t73 -317.5q-32 -190 -181 -316t-372 -126h-350l-96 -547h-109l252 1434h477zM1090 1004q25 146 -52.5 236.5t-228.5 90.5h-379l-119 -682h344q171 0 290.5 101t144.5 254z" />
    <glyph glyph-name="Q" unicode="Q" horiz-adv-x="1687" 
d="M1614 694q-29 -156 -111 -290t-205 -232l129 -154l-77 -67l-136 162q-217 -136 -466 -136q-202 0 -356.5 103t-224 277t-34.5 376q36 202 160.5 367.5t310 260.5t393.5 95q202 0 357 -104.5t225 -280t35 -377.5zM1149 190l-266 318l78 67l272 -323q105 85 175 204t95 255
q30 173 -27 320t-188.5 234t-308.5 87t-336 -85t-264.5 -230.5t-134.5 -319.5q-31 -174 26 -319.5t188 -230.5t308 -85q204 0 383 108z" />
    <glyph glyph-name="R" unicode="R" horiz-adv-x="1255" 
d="M905 1434q111 0 199 -60.5t129 -162.5t20 -216q-24 -146 -130 -253.5t-253 -141.5l248 -600h-112l-242 588h-6h-459l-102 -588h-109l252 1434h565zM1149 1010q25 133 -52.5 227t-207.5 94h-459l-113 -641h459q130 0 239 94t134 226z" />
    <glyph glyph-name="S" unicode="S" horiz-adv-x="1173" 
d="M532 -23q-195 0 -322.5 89.5t-162.5 248.5l96 50q26 -132 126 -207.5t268 -75.5q166 0 273 71t132 191q12 57 -3 105t-40 78.5t-81 62t-93 47t-109 41.5q-87 30 -146 58t-126 78.5t-93 125t-7 170.5q17 84 64 151t112.5 109t141.5 64t157 22q174 0 282 -83.5t150 -215.5
l-96 -49q-75 244 -342 244q-132 0 -233.5 -68t-125.5 -184q-12 -57 2 -104.5t41.5 -79.5t78.5 -61.5t94 -47t107 -41.5h1q74 -27 117.5 -45.5t107 -57.5t95.5 -80t50 -106.5t3 -144.5q-34 -173 -176.5 -264t-342.5 -91z" />
    <glyph glyph-name="T" unicode="T" horiz-adv-x="1105" 
d="M1221 1434l-19 -103h-450l-234 -1331h-110l233 1331h-448l16 103h1012z" />
    <glyph glyph-name="U" unicode="U" horiz-adv-x="1366" 
d="M606 -23q-241 0 -366.5 140t-87.5 362l167 955h109l-168 -955q-30 -178 58.5 -287.5t285.5 -109.5q200 0 330 111.5t160 285.5l168 955h108l-168 -955q-41 -232 -202.5 -367t-393.5 -135z" />
    <glyph glyph-name="V" unicode="V" horiz-adv-x="1239" 
d="M471 0l-283 1434h111l248 -1297l704 1297h121l-786 -1434h-115z" />
    <glyph glyph-name="W" unicode="W" horiz-adv-x="2033" 
d="M393 0l-164 1434h109l145 -1293l627 1293h129l174 -1293l600 1293h115l-668 -1434h-131l-174 1292l-631 -1292h-131z" />
    <glyph glyph-name="X" unicode="X" horiz-adv-x="1173" 
d="M1262 1434l-576 -703l350 -731h-112l-310 645l-528 -645h-129l610 743l-331 691h112l289 -605l496 605h129z" />
    <glyph glyph-name="Y" unicode="Y" 
d="M1303 1434l-637 -764l-119 -670h-109l119 674l-369 760h113l320 -664l553 664h129z" />
    <glyph glyph-name="Z" unicode="Z" horiz-adv-x="1071" 
d="M1145 1434l-17 -103l-987 -1229h791l-19 -102h-915l18 102l988 1229h-750l16 103h875z" />
    <glyph glyph-name="bracketleft" unicode="[" horiz-adv-x="567" 
d="M707 1538h-293l-289 -1642h293l-19 -101h-397l326 1843h397z" />
    <glyph glyph-name="backslash" unicode="\" horiz-adv-x="1079" 
d="M782 -205l-495 1843h82l493 -1843h-80z" />
    <glyph glyph-name="bracketright" unicode="]" horiz-adv-x="567" 
d="M635 1638l-326 -1843h-395l18 101h293l289 1642h-291l17 100h395z" />
    <glyph glyph-name="asciicircum" unicode="^" horiz-adv-x="1028" 
d="M725 1434l254 -615h-113l-202 498l-379 -498h-129l467 615h102z" />
    <glyph glyph-name="underscore" unicode="_" horiz-adv-x="1038" 
d="M-57 -272l18 98h873l-17 -98h-874z" />
    <glyph glyph-name="grave" unicode="`" horiz-adv-x="370" 
d="M444 1167l-118 260h-123l143 -260h98z" />
    <glyph glyph-name="a" unicode="a" horiz-adv-x="1323" 
d="M1153 1024h102l-180 -1024h-102l37 209q-81 -109 -203.5 -170.5t-269.5 -61.5q-106 0 -198 45t-152.5 120t-87 178.5t-7.5 214.5q28 160 119.5 278.5t213.5 176t259 57.5q145 0 260 -74.5t164 -206.5zM561 76q184 0 325.5 119t172.5 303q18 100 -5 185.5t-75.5 142.5
t-127.5 89.5t-161 32.5q-113 0 -216 -48.5t-178.5 -146.5t-98.5 -227q-21 -121 19.5 -224.5t132 -164.5t212.5 -61z" />
    <glyph glyph-name="b" unicode="b" horiz-adv-x="1320" 
d="M788 1047q105 0 196 -43.5t152 -116t87.5 -174.5t7.5 -213q-40 -227 -212.5 -375t-404.5 -148q-142 0 -248 76t-151 203l-45 -256h-102l251 1434h103l-111 -627q84 113 207.5 176.5t269.5 63.5zM1126 512q32 183 -73.5 309.5t-288.5 126.5t-326.5 -123t-175.5 -307
q-21 -120 20 -222t132 -161t211 -59q185 0 326.5 125.5t174.5 310.5z" />
    <glyph glyph-name="c" unicode="c" horiz-adv-x="1150" 
d="M532 -23q-148 0 -258.5 74.5t-159 201t-22.5 275.5q40 226 216.5 372.5t406.5 146.5q148 0 258.5 -71t152.5 -190l-88 -47q-35 97 -121 153t-212 56q-187 0 -331.5 -123t-176.5 -307q-21 -122 16 -223t126 -160t212 -59t229.5 58.5t171.5 156.5l82 -55
q-78 -122 -210.5 -190.5t-291.5 -68.5z" />
    <glyph glyph-name="d" unicode="d" horiz-adv-x="1323" 
d="M1225 1434h102l-252 -1434h-102l37 209q-81 -109 -203.5 -170.5t-269.5 -61.5q-106 0 -198 45t-152.5 120t-87 178.5t-7.5 214.5q28 160 119.5 278.5t213.5 176t259 57.5q145 0 260 -74.5t164 -204.5zM561 76q184 0 325 119t173 303q18 100 -5 185.5t-75.5 142.5
t-127.5 89.5t-161 32.5q-113 0 -216 -48.5t-178.5 -146.5t-98.5 -227q-21 -121 19.5 -224.5t132 -164.5t212.5 -61z" />
    <glyph glyph-name="e" unicode="e" horiz-adv-x="1204" 
d="M700 1047q92 0 169.5 -28.5t130 -79t87.5 -118.5t42 -147.5t-7 -165.5q-7 -36 -12 -49h-924q-12 -173 88 -278t275 -105q124 0 225 50t164 138l80 -53q-74 -110 -204.5 -172t-278.5 -62q-154 0 -265 72t-158 197.5t-20 279.5q40 227 211 374t397 147zM203 559h821
q18 184 -74 286.5t-258 102.5q-176 0 -309.5 -107t-179.5 -282z" />
    <glyph glyph-name="f" unicode="f" horiz-adv-x="643" 
d="M332 1079q35 198 157 295t320 82l-18 -98q-149 12 -239 -59t-116 -220l-10 -55h305l-16 -100h-305l-164 -924h-105l164 924h-178l18 100h177z" />
    <glyph glyph-name="g" unicode="g" horiz-adv-x="1331" 
d="M1159 1024h105l-172 -975q-41 -228 -199 -354.5t-389 -126.5q-166 0 -283 67t-164 179l93 47q32 -86 121.5 -140.5t236.5 -54.5q198 0 322 100.5t157 282.5l29 160q-83 -110 -202 -171t-257 -61q-153 0 -267 75t-164 203t-26 280q17 115 74 213t138 162.5t178.5 100.5
t197.5 36q145 0 261 -74t165 -205zM573 76q171 0 308.5 108.5t179.5 282.5l12 65q10 93 -17 172.5t-80.5 132t-126.5 82t-155 29.5q-173 0 -317 -117t-174 -305q-29 -191 76.5 -320.5t293.5 -129.5z" />
    <glyph glyph-name="h" unicode="h" horiz-adv-x="1155" 
d="M713 1047q182 0 273.5 -112t60.5 -298l-113 -637h-105l113 637q25 144 -38.5 227.5t-209.5 83.5q-158 0 -276 -104.5t-152 -302.5v2l-96 -543h-102l251 1434h103l-103 -588q145 201 394 201z" />
    <glyph glyph-name="i" unicode="i" horiz-adv-x="417" 
d="M342 1272q-35 0 -53.5 24t-12.5 58q5 33 32 56.5t63 23.5q34 0 53.5 -24t13.5 -56q-6 -35 -32.5 -58.5t-63.5 -23.5zM68 0l180 1024h102l-180 -1024h-102z" />
    <glyph glyph-name="j" unicode="j" horiz-adv-x="456" 
d="M410 1434q34 0 53.5 -24t13.5 -56q-6 -35 -32.5 -58.5t-63.5 -23.5q-35 0 -53.5 24t-12.5 58q5 33 32 56.5t63 23.5zM86 -117l201 1141h102l-201 -1141q-59 -350 -395 -315l17 98q120 -12 187 41t89 176z" />
    <glyph glyph-name="k" unicode="k" horiz-adv-x="989" 
d="M1014 1024l-641 -494l479 -530h-127l-465 514l-90 -514h-102l251 1434h103l-154 -869l600 459h146z" />
    <glyph glyph-name="l" unicode="l" horiz-adv-x="419" 
d="M70 0l108 627l154 868h102l-151 -868l-111 -627h-102z" />
    <glyph glyph-name="m" unicode="m" horiz-adv-x="1755" 
d="M1346 1047q157 0 246 -106t57 -292l-115 -649h-102l112 649q26 143 -34.5 221t-184.5 78q-128 0 -227 -84t-137 -254l-109 -610h-102l112 649q26 144 -31 221.5t-178 77.5q-135 0 -242 -94.5t-139 -278.5l-102 -575h-102l180 1024h102l-28 -158q72 93 164.5 137t191.5 44
q109 0 186 -53.5t101 -155.5q71 105 173 157t208 52z" />
    <glyph glyph-name="n" unicode="n" horiz-adv-x="1155" 
d="M713 1047q182 0 273.5 -112t60.5 -298l-113 -637h-105l113 637q25 144 -38.5 227.5t-209.5 83.5q-158 0 -276 -104.5t-152 -302.5v2l-96 -543h-102l180 1024h102l-31 -178q145 201 394 201z" />
    <glyph glyph-name="o" unicode="o" horiz-adv-x="1253" 
d="M541 -23q-104 0 -195 39t-155.5 108t-93 173t-7.5 225t84 222t150 166.5t190.5 101t208.5 35.5q103 0 192.5 -39.5t152 -108.5t89.5 -172.5t6 -222.5q-28 -164 -125.5 -286t-226.5 -181.5t-270 -59.5zM551 76q115 0 221.5 51.5t185.5 153.5t103 235q17 98 -4.5 180.5
t-71.5 136.5t-122.5 84.5t-157.5 30.5q-114 -1 -220.5 -52t-186 -152t-103.5 -232q-17 -99 4 -182.5t71.5 -138t123 -85t157.5 -30.5z" />
    <glyph glyph-name="p" unicode="p" horiz-adv-x="1323" 
d="M786 1047q106 0 198 -45t152.5 -120t87 -178.5t7.5 -214.5q-28 -160 -119.5 -278.5t-213.5 -176t-259 -57.5q-145 0 -260 74.5t-164 206.5l-117 -668h-102l252 1434h102l-37 -209q84 110 205.5 171t267.5 61zM1126 498q21 121 -19.5 224.5t-132 164.5t-212.5 61
q-184 0 -325 -119t-173 -303q-18 -100 5 -185.5t75.5 -142.5t127.5 -89.5t161 -32.5q113 0 216 48.5t178.5 146.5t98.5 227z" />
    <glyph glyph-name="q" unicode="q" horiz-adv-x="1323" 
d="M1153 1024h102l-251 -1434h-103l109 619q-81 -109 -203.5 -170.5t-269.5 -61.5q-106 0 -198 45t-152.5 120t-87 178.5t-7.5 214.5q28 160 119.5 278.5t213.5 176t259 57.5q145 0 260 -74.5t164 -206.5zM561 76q184 0 325.5 119t172.5 301q18 100 -5 186.5t-75.5 143.5
t-127.5 89.5t-161 32.5q-113 0 -216 -48.5t-178.5 -146.5t-98.5 -227q-21 -121 19.5 -224.5t132 -164.5t212.5 -61z" />
    <glyph glyph-name="r" unicode="r" horiz-adv-x="651" 
d="M319 850q73 103 170.5 148t206.5 40l-18 -98q-68 0 -132 -21.5t-120 -65t-97.5 -116.5t-58.5 -168l-100 -569h-102l180 1024h102z" />
    <glyph glyph-name="s" unicode="s" horiz-adv-x="966" 
d="M418 -23q-148 0 -239.5 63t-125.5 171l92 47q22 -85 95 -133.5t186 -48.5q112 0 191 47.5t96 134.5q10 57 -17.5 97t-78.5 63.5t-114 43.5t-125.5 43.5t-111.5 55t-73.5 87.5t-10.5 132q20 118 123.5 192.5t249.5 74.5q121 0 209.5 -54t126.5 -151l-90 -47
q-25 75 -94 114t-156 39q-95 0 -171.5 -46.5t-92.5 -135.5q-10 -55 17.5 -94t78 -62.5t113 -43t124.5 -43.5t111 -56.5t73.5 -89.5t10.5 -135q-22 -124 -129 -194.5t-268 -70.5z" />
    <glyph glyph-name="t" unicode="t" horiz-adv-x="772" 
d="M451 924l-119 -666q-15 -87 12 -127t94 -44t170 5l-14 -92q-206 -32 -300.5 29t-64.5 229l117 666h-225l18 100h226l45 256l108 31l-51 -287h307l-18 -100h-305z" />
    <glyph glyph-name="u" unicode="u" horiz-adv-x="1155" 
d="M985 1024h102l-180 -1024h-102l31 178q-145 -201 -394 -201q-182 0 -273 112t-60 298l112 637h105l-113 -637q-25 -144 38.5 -227.5t209.5 -83.5q158 0 276 104.5t152 302.5v-2z" />
    <glyph glyph-name="v" unicode="v" horiz-adv-x="976" 
d="M924 1024h116l-579 -1024h-125l-219 1024h106l189 -913z" />
    <glyph glyph-name="w" unicode="w" horiz-adv-x="1576" 
d="M1487 1024h112l-503 -1024h-113l-131 872l-438 -872h-113l-143 1024h102l117 -893l444 893h107l-2 -4l131 -889z" />
    <glyph glyph-name="x" unicode="x" horiz-adv-x="1038" 
d="M1055 1024l-471 -502l315 -522h-115l-272 446l-420 -446h-135l504 535l-299 489h117l251 -416l392 416h133z" />
    <glyph glyph-name="y" unicode="y" horiz-adv-x="1044" 
d="M991 1024h117l-639 -1118q-91 -159 -210.5 -242.5t-250.5 -73.5l17 97q191 -17 342 239l34 58l-284 1040h104l248 -922z" />
    <glyph glyph-name="z" unicode="z" horiz-adv-x="948" 
d="M944 1024l-12 -68l-760 -856h629l-17 -100h-778l12 68l758 856h-588l19 100h737z" />
    <glyph glyph-name="braceleft" unicode="{" horiz-adv-x="714" 
d="M545 -221q-168 -15 -241.5 63.5t-45.5 239.5l66 383q22 119 -23.5 162t-163.5 43l19 98q117 0 177 43t81 162l67 383q30 173 129.5 245.5t266.5 57.5l-19 -100q-122 14 -186.5 -33t-85.5 -170l-68 -383q-21 -119 -71.5 -180t-137.5 -82q156 -42 119 -246l-68 -383
q-23 -123 26 -170t175 -35z" />
    <glyph glyph-name="bar" unicode="|" horiz-adv-x="458" 
d="M16 -410l332 1885h103l-332 -1885h-103z" />
    <glyph glyph-name="braceright" unicode="}" horiz-adv-x="716" 
d="M244 1659q168 15 241 -63.5t45 -239.5l-65 -383q-22 -119 23 -162t163 -43l-18 -98q-117 0 -177 -43t-81 -162l-68 -383q-30 -173 -129 -245.5t-266 -57.5l18 100q122 -14 187 33t86 170l67 383q21 119 71.5 180t137.5 82q-156 42 -119 246l68 383q23 123 -26 170
t-175 35z" />
    <glyph glyph-name="asciitilde" unicode="~" horiz-adv-x="1202" 
d="M240 592l-88 45q30 71 78 122t112.5 77.5t149.5 8.5t176 -85q249 -183 368 82l86 -45q-24 -56 -58 -100.5t-82 -74.5t-103.5 -38t-125.5 14t-145 76q-253 184 -368 -82z" />
    <glyph glyph-name="exclamdown" unicode="&#xa1;" horiz-adv-x="450" 
d="M319 1044q38 0 60 -28t14 -66q-6 -40 -35.5 -65t-70.5 -25q-38 0 -60.5 28t-15.5 66q8 40 37 65t71 25zM291 655l-94 -655l-72 -410h-123l72 410l135 655h82z" />
    <glyph glyph-name="cent" unicode="&#xa2;" horiz-adv-x="1153" 
d="M1075 944q-49 136 -184 184l-416 -833q49 -14 113 -14q123 0 229.5 58.5t171.5 156.5l82 -56q-78 -122 -210.5 -190t-291.5 -68q-73 0 -141 21l-100 -203h-88l114 231q-129 65 -191.5 201.5t-33.5 300.5q40 226 216.5 372t406.5 146q50 0 108 -10l96 193h88l-108 -215
q82 -32 140.5 -91t86.5 -137zM401 324l412 823q-35 6 -72 6q-187 0 -331.5 -123t-176.5 -307q-23 -131 22.5 -238t145.5 -161z" />
    <glyph glyph-name="sterling" unicode="&#xa3;" horiz-adv-x="1208" 
d="M834 1352q-130 0 -221 -80t-117 -228l-62 -348h494l-19 -96h-491l-88 -496h772l-19 -104h-1085l18 104h205l88 496h-164l17 96h164l61 348q35 198 157.5 305t299.5 107q131 0 226.5 -71t135.5 -195l-90 -49q-37 104 -104 157.5t-178 53.5z" />
    <glyph glyph-name="currency" unicode="&#xa4;" horiz-adv-x="1132" 
d="M1155 1141l-172 -148q82 -121 55 -282q-26 -157 -149 -277l117 -143l-64 -51l-117 141q-135 -96 -299 -96q-150 0 -256 98l-170 -143l-49 53l172 145q-81 125 -55 285q26 158 149 278l-116 142l61 51l117 -141q138 96 299 96q153 0 258 -100l170 145zM934 717
q25 140 -54 237t-218 97q-140 0 -253.5 -97.5t-136.5 -236.5q-26 -139 53.5 -236.5t219.5 -97.5q139 0 251.5 97t137.5 237z" />
    <glyph glyph-name="yen" unicode="&#xa5;" 
d="M1303 1434l-609 -729h359l-17 -93h-381l-28 -157h381l-15 -90h-381l-65 -365h-109l64 365h-377l16 90h377l27 157h-375l14 93h357l-353 729h113l320 -664l553 664h129z" />
    <glyph glyph-name="brokenbar" unicode="&#xa6;" horiz-adv-x="458" 
d="M215 717l133 758h103l-134 -758h-102zM16 -410l134 758h102l-133 -758h-103z" />
    <glyph glyph-name="section" unicode="&#xa7;" horiz-adv-x="1046" 
d="M690 872q54 -26 92.5 -48t79 -55t63 -67.5t33 -82.5t0.5 -103q-13 -73 -61.5 -135.5t-120.5 -104.5q84 -94 62 -223q-24 -128 -131 -205t-271 -77q-149 0 -248 69t-139 197l94 51q53 -217 306 -217q113 0 191 49t95 143q7 42 -6.5 80t-38 65.5t-69.5 56.5t-82.5 48
t-96.5 45q-53 24 -92.5 46.5t-80 55t-64 67t-34.5 82.5t-1 102q26 148 192 243q-79 92 -57 217q22 127 127.5 206t259.5 79q123 0 213.5 -62.5t128.5 -176.5l-90 -48q-33 94 -101.5 141.5t-162.5 47.5q-103 0 -179 -52t-93 -143q-7 -41 5 -77.5t34 -62.5t62.5 -53.5
t76.5 -46t89 -44.5q10 -5 15 -7zM856 526q8 47 -4.5 85.5t-47.5 69.5t-73 53.5t-98 49.5q-136 60 -203 109q-66 -35 -106.5 -85t-49.5 -106q-7 -47 6.5 -86t47.5 -69.5t73 -53t97 -47.5q143 -62 209 -108q129 71 149 188z" />
    <glyph glyph-name="dieresis" unicode="&#xa8;" horiz-adv-x="600" 
d="M236 1182q-31 0 -49.5 21.5t-12.5 51.5q4 32 30.5 54t57.5 22t48.5 -22t13.5 -54q-6 -31 -31.5 -52t-56.5 -21zM604 1182q-31 0 -49 21t-12 52q4 32 30.5 54t57.5 22t48.5 -22t12.5 -54q-6 -31 -31.5 -52t-56.5 -21z" />
    <glyph glyph-name="copyright" unicode="&#xa9;" horiz-adv-x="1675" 
d="M743 -23q-149 0 -276 60t-209.5 161t-117 239.5t-7.5 289.5q35 202 163 369.5t315.5 263.5t392.5 96q149 0 276 -60t209 -160.5t117 -239t8 -289.5q-36 -202 -164 -369.5t-315 -264t-392 -96.5zM752 27q188 0 362 92t292.5 250.5t152.5 347.5q33 188 -30.5 347t-205 251
t-328.5 92q-141 0 -278 -54.5t-244.5 -146.5t-184 -220t-100.5 -269q-33 -188 30.5 -347t205 -251t328.5 -92zM811 324q-81 0 -149 32.5t-112 86.5t-62.5 128.5t-4.5 155.5q30 166 157.5 274.5t299.5 108.5q104 0 187.5 -52.5t123.5 -139.5l-88 -44q-35 67 -98 103.5
t-141 36.5q-129 0 -223 -87t-115 -210q-22 -122 43.5 -209.5t191.5 -87.5q82 0 157.5 38.5t121.5 108.5l82 -53q-64 -88 -161.5 -139t-209.5 -51z" />
    <glyph glyph-name="guillemotleft" unicode="&#xab;" horiz-adv-x="968" 
d="M602 987l-289 -362l154 -346h-125l-158 354l283 354h135zM889 987l-287 -362l154 -346h-127l-156 354l281 354h135z" />
    <glyph glyph-name="logicalnot" unicode="&#xac;" horiz-adv-x="1064" 
d="M983 782l-61 -354h-105l45 254h-702l16 100h807z" />
    <glyph glyph-name="registered" unicode="&#xae;" horiz-adv-x="1675" 
d="M1004 1456q149 0 276 -60t209 -160.5t117 -239t8 -289.5q-36 -202 -164 -369.5t-315 -264t-392 -96.5q-149 0 -276 60t-209.5 161t-117 239.5t-7.5 289.5q35 202 163 369.5t315.5 263.5t392.5 96zM1559 717q33 188 -30.5 347t-205 251t-328.5 92q-141 0 -278 -54.5
t-244.5 -146.5t-184 -220t-100.5 -269q-33 -188 30.5 -347t205 -251t328.5 -92q188 0 362 92t292.5 250.5t152.5 347.5zM952 1096q130 0 190 -72.5t44 -171.5q-28 -172 -197 -215l123 -299h-102l-113 285h-27h-135l-49 -285h-98l133 758h231zM1087 858q12 65 -24 104
t-121 39h-139l-49 -284h139q85 0 134 37.5t60 103.5z" />
    <glyph glyph-name="macron" unicode="&#xaf;" horiz-adv-x="600" 
d="M162 1202l16 90h518l-14 -90h-520z" />
    <glyph glyph-name="degree" unicode="&#xb0;" horiz-adv-x="790" 
d="M492 1059q-128 0 -201 90.5t-51 216.5t123 209.5t235 83.5q128 0 201.5 -91t50.5 -216q-21 -128 -118 -210.5t-240 -82.5zM510 1153q89 0 157.5 59t82.5 146q15 88 -32 147.5t-136 59.5q-90 0 -158.5 -59.5t-83.5 -147.5q-14 -88 32 -146.5t138 -58.5z" />
    <glyph glyph-name="plusminus" unicode="&#xb1;" horiz-adv-x="1093" 
d="M666 897h364l-16 -100h-367l-61 -346h-101l62 346h-367l19 100h364l62 346h102zM74 190l16 101h834l-17 -101h-833z" />
    <glyph glyph-name="acute" unicode="&#xb4;" horiz-adv-x="366" 
d="M156 1167h102l229 260h-127z" />
    <glyph glyph-name="uni00B5" unicode="&#xb5;" horiz-adv-x="1243" 
d="M967 184q-7 -39 11.5 -61.5t57.5 -22.5h66l-17 -100h-77q-72 0 -114.5 45.5t-33.5 120.5q-74 -95 -174 -142t-211 -47q-100 0 -172.5 39.5t-109.5 112.5l-95 -539h-102l252 1434h102l-112 -637h2q-25 -144 38 -227.5t209 -83.5q150 0 265.5 95t156.5 278l101 575h104z
" />
    <glyph glyph-name="paragraph" unicode="&#xb6;" 
d="M1241 1434l-18 -97h-121l-307 -1747h-103l307 1747h-268l-307 -1747h-100l184 1051q-108 1 -190 57t-118 149t-18 200q29 164 164 275.5t301 111.5h594z" />
    <glyph glyph-name="periodcentered" unicode="&#xb7;" horiz-adv-x="438" 
d="M238 614q-39 0 -60.5 28t-15.5 67q6 40 36 65t70 25t63 -28t15 -66q-8 -40 -37 -65.5t-71 -25.5z" />
    <glyph glyph-name="cedilla" unicode="&#xb8;" horiz-adv-x="481" 
d="M143 -115q78 -9 124 -53t36 -108q-34 -190 -428 -156l16 84q147 -15 229 7t91 73q8 44 -37.5 67.5t-134.5 20.5l33 180h92z" />
    <glyph glyph-name="guillemotright" unicode="&#xbb;" horiz-adv-x="970" 
d="M383 987l156 -354l-281 -354h-135l287 362l-154 346h127zM670 987l157 -354l-282 -354h-135l288 362l-153 346h125z" />
    <glyph glyph-name="onequarter" unicode="&#xbc;" horiz-adv-x="1697" 
d="M401 1317l-217 -66l-10 90l266 93h80l-145 -820h-99zM1257 1434h105l-1075 -1434h-105zM1604 256l-17 -92h-110l-29 -164h-98l28 164h-436l14 92l408 563h113l-406 -563h324l37 213h98l-37 -213h111z" />
    <glyph glyph-name="onehalf" unicode="&#xbd;" horiz-adv-x="1669" 
d="M401 1317l-217 -66l-10 90l266 93h80l-145 -820h-99zM1257 1434h105l-1075 -1434h-105zM1602 594q-18 -122 -170 -244l-314 -256h408l-15 -94h-565l15 80l413 340q113 89 129 178q11 65 -27 108.5t-114 43.5q-133 0 -211 -140l-80 49q45 85 125.5 135t177.5 50
q117 0 180 -72t48 -178z" />
    <glyph glyph-name="threequarters" unicode="&#xbe;" horiz-adv-x="1910" 
d="M688 842q-20 -115 -109.5 -183.5t-224.5 -68.5q-97 0 -161 43.5t-93 122.5l86 43q37 -115 183 -115q93 0 150.5 46t70.5 120q14 73 -28.5 120.5t-133.5 47.5h-6l-37 72l236 249h-394l17 95h514l-17 -95l-233 -245q99 -19 147 -88t33 -164zM1470 1434h105l-1075 -1434
h-105zM1817 256l-17 -92h-110l-29 -164h-98l28 164h-436l14 92l408 563h113l-406 -563h324l37 213h98l-37 -213h111z" />
    <glyph glyph-name="questiondown" unicode="&#xbf;" horiz-adv-x="1083" 
d="M672 1044q39 0 60.5 -27.5t15.5 -66.5t-36.5 -64.5t-70.5 -25.5t-63 28t-15 66q8 40 37.5 65t71.5 25zM659 655q-13 -73 -46 -138.5t-76.5 -115t-93.5 -95t-100 -87.5t-92 -83.5t-73 -92.5t-41 -106q-21 -127 50.5 -196t213.5 -69q116 0 214 57t149 162l92 -53
q-68 -130 -197 -200t-276 -70q-82 0 -153 25.5t-121.5 72.5t-73 119.5t-6.5 159.5q11 63 42.5 120.5t74.5 102.5t93 88t100 86.5t93 88.5t74.5 103t42.5 121h110z" />
    <glyph glyph-name="Agrave" unicode="&#xc0;" horiz-adv-x="1288" 
d="M905 1577h-98l-143 260h122zM1057 0l-74 365h-719l-205 -365h-118l809 1434h114l303 -1434h-110zM322 467h639l-170 833z" />
    <glyph glyph-name="Aacute" unicode="&#xc1;" horiz-adv-x="1288" 
d="M1079 1837l-229 -260h-102l204 260h127zM1057 0l-74 365h-719l-205 -365h-118l809 1434h114l303 -1434h-110zM322 467h639l-170 833z" />
    <glyph glyph-name="Acircumflex" unicode="&#xc2;" horiz-adv-x="1288" 
d="M870 1772l-198 -195h-123l266 260h121l178 -260h-113zM1057 0l-74 365h-719l-205 -365h-118l809 1434h114l303 -1434h-110zM322 467h639l-170 833z" />
    <glyph glyph-name="Atilde" unicode="&#xc3;" horiz-adv-x="1288" 
d="M844 1661q-73 79 -123.5 68t-71.5 -125h-90q18 114 69 170.5t115 49.5t125 -69q50 -51 87 -64.5t65.5 15.5t42.5 106h90q-19 -112 -70 -168.5t-114.5 -50t-124.5 67.5zM1057 0l-74 365h-719l-205 -365h-118l809 1434h114l303 -1434h-110zM322 467h639l-170 833z" />
    <glyph glyph-name="Adieresis" unicode="&#xc4;" horiz-adv-x="1288" 
d="M649 1591q-31 0 -49 21.5t-12 52.5q4 32 30.5 54t57.5 22t48.5 -22t12.5 -54q-6 -31 -31.5 -52.5t-56.5 -21.5zM1018 1591q-31 0 -49.5 21.5t-12.5 52.5q4 32 30.5 54t57.5 22t48.5 -22t13.5 -54q-6 -31 -31.5 -52.5t-56.5 -21.5zM1057 0l-74 365h-719l-205 -365h-118
l809 1434h114l303 -1434h-110zM322 467h639l-170 833z" />
    <glyph glyph-name="Aring" unicode="&#xc5;" horiz-adv-x="1288" 
d="M1057 0l-74 365h-719l-205 -365h-118l782 1384q-59 21 -86 73t-16 118q13 86 80.5 140t158.5 54q94 0 143 -58t37 -144q-10 -66 -55 -115.5t-111 -69.5l293 -1382h-110zM709 1571q-9 -52 17.5 -84.5t82.5 -32.5t96 32.5t49 84.5q9 53 -20 85t-84 32q-54 0 -93 -31.5
t-48 -85.5zM322 467h639l-170 833z" />
    <glyph glyph-name="AE" unicode="&#xc6;" horiz-adv-x="1787" 
d="M1833 1331h-659l-99 -557h623l-19 -102h-620l-101 -570h668l-18 -102h-779l66 375h-553l-295 -375h-131l1131 1434h802zM422 477h491l142 805z" />
    <glyph glyph-name="Ccedilla" unicode="&#xc7;" horiz-adv-x="1538" 
d="M977 1352q-137 0 -263.5 -50t-222.5 -136t-162 -202.5t-89 -246.5q-29 -176 25.5 -321t183.5 -229.5t309 -84.5q173 0 325.5 81.5t251.5 223.5l92 -57q-108 -152 -275 -246t-359 -104l-17 -95q78 -9 124 -53t36 -108q-34 -190 -428 -156l16 84q147 -15 229 7t91 73
q8 44 -37.5 67.5t-134.5 20.5l28 160q-199 11 -341.5 115.5t-201.5 272t-24 363.5q36 205 159 371t304 260t383 94q204 0 355 -93t225 -253l-97 -51q-64 136 -185 214.5t-300 78.5z" />
    <glyph glyph-name="Egrave" unicode="&#xc8;" horiz-adv-x="1091" 
d="M842 1577h-99l-143 260h123zM1139 1331h-709l-98 -557h657l-18 -102h-656l-100 -570h717l-19 -102h-825l252 1434h815z" />
    <glyph glyph-name="Eacute" unicode="&#xc9;" horiz-adv-x="1091" 
d="M1016 1837l-230 -260h-102l205 260h127zM1139 1331h-709l-98 -557h657l-18 -102h-656l-100 -570h717l-19 -102h-825l252 1434h815z" />
    <glyph glyph-name="Ecircumflex" unicode="&#xca;" horiz-adv-x="1091" 
d="M807 1772l-199 -195h-123l267 260h120l179 -260h-113zM1139 1331h-709l-98 -557h657l-18 -102h-656l-100 -570h717l-19 -102h-825l252 1434h815z" />
    <glyph glyph-name="Edieresis" unicode="&#xcb;" horiz-adv-x="1091" 
d="M586 1591q-31 0 -49.5 21.5t-12.5 52.5q4 32 30.5 54t57.5 22t48.5 -22t13.5 -54q-6 -31 -31.5 -52.5t-56.5 -21.5zM954 1591q-31 0 -49 21.5t-12 52.5q4 32 30.5 54t57.5 22t48.5 -22t12.5 -54q-6 -31 -31.5 -52.5t-56.5 -21.5zM1139 1331h-709l-98 -557h657l-18 -102
h-656l-100 -570h717l-19 -102h-825l252 1434h815z" />
    <glyph glyph-name="Igrave" unicode="&#xcc;" horiz-adv-x="464" 
d="M492 1577l-119 260h-123l143 -260h99zM340 1434h109l-252 -1434h-109z" />
    <glyph glyph-name="Iacute" unicode="&#xcd;" horiz-adv-x="464" 
d="M334 1577h102l230 260h-127zM340 1434h109l-252 -1434h-109z" />
    <glyph glyph-name="Icircumflex" unicode="&#xce;" horiz-adv-x="464" 
d="M700 1577h-112l-131 195l-199 -195h-123l266 260h121zM88 0l252 1434h109l-252 -1434h-109z" />
    <glyph glyph-name="Idieresis" unicode="&#xcf;" horiz-adv-x="464" 
d="M236 1591q-31 0 -49.5 21.5t-12.5 52.5q4 32 30.5 54t57.5 22t48.5 -22t13.5 -54q-6 -31 -31.5 -52.5t-56.5 -21.5zM604 1591q-31 0 -49 21.5t-12 52.5q4 32 30.5 54t57.5 22t48.5 -22t12.5 -54q-6 -31 -31.5 -52.5t-56.5 -21.5zM340 1434h109l-252 -1434h-109z" />
    <glyph glyph-name="Eth" unicode="&#xd0;" horiz-adv-x="1531" 
d="M920 1434q141 0 257.5 -59.5t188.5 -159t101 -234.5t3 -281q-26 -147 -98 -276t-176.5 -222.5t-241.5 -147.5t-286 -54h-539l117 668h-137l16 98h139l117 668h539zM1364 717q28 169 -18 308.5t-162 222.5t-281 83h-432l-98 -565h489l-16 -98h-492l-98 -566h430
q124 0 240 48.5t204.5 131.5t150 196t83.5 239z" />
    <glyph glyph-name="Ntilde" unicode="&#xd1;" horiz-adv-x="1406" 
d="M616 1604q18 114 69.5 170.5t115.5 49.5t125 -69q50 -51 87 -64.5t65 15.5t42 106h90q-19 -112 -70 -168.5t-114.5 -50t-124.5 67.5q-73 79 -123 68t-71 -125h-91zM88 0l252 1434h86l639 -1233l217 1233h109l-252 -1434h-88l-637 1233l-217 -1233h-109z" />
    <glyph glyph-name="Ograve" unicode="&#xd2;" horiz-adv-x="1677" 
d="M1098 1577l-119 260h-123l143 -260h99zM748 -23q-202 0 -356.5 103t-224 277t-34.5 376q36 202 160.5 367.5t310 260.5t393.5 95q202 0 357 -104.5t225 -280t35 -377.5q-37 -202 -161.5 -366.5t-310 -257.5t-394.5 -93zM766 82q179 0 338 83.5t264 227.5t135 318
q30 173 -27 320t-188.5 234t-308.5 87t-336 -85t-264.5 -230.5t-134.5 -319.5q-31 -174 26 -319.5t188 -230.5t308 -85z" />
    <glyph glyph-name="Oacute" unicode="&#xd3;" horiz-adv-x="1677" 
d="M940 1577h102l230 260h-127zM748 -23q-202 0 -356.5 103t-224 277t-34.5 376q36 202 160.5 367.5t310 260.5t393.5 95q202 0 357 -104.5t225 -280t35 -377.5q-37 -202 -161.5 -366.5t-310 -257.5t-394.5 -93zM766 82q179 0 338 83.5t264 227.5t135 318q30 173 -27 320
t-188.5 234t-308.5 87t-336 -85t-264.5 -230.5t-134.5 -319.5q-31 -174 26 -319.5t188 -230.5t308 -85z" />
    <glyph glyph-name="Ocircumflex" unicode="&#xd4;" horiz-adv-x="1677" 
d="M1063 1772l-199 -195h-123l267 260h120l179 -260h-113zM997 1456q202 0 357 -104.5t225 -280t35 -377.5q-37 -202 -161.5 -366.5t-310 -257.5t-394.5 -93q-202 0 -356.5 103t-224 277t-34.5 376q36 202 160.5 367.5t310 260.5t393.5 95zM1503 711q30 173 -27 320
t-188.5 234t-308.5 87t-336 -85t-264.5 -230.5t-134.5 -319.5q-31 -174 26 -319.5t188 -230.5t308 -85q179 0 338 83.5t264 227.5t135 318z" />
    <glyph glyph-name="Otilde" unicode="&#xd5;" horiz-adv-x="1677" 
d="M752 1604q18 114 69 170.5t115 49.5t125 -69q50 -51 87 -64.5t65 15.5t42 106h91q-19 -112 -70 -168.5t-115 -50t-125 67.5q-73 79 -123 68t-71 -125h-90zM748 -23q-202 0 -356.5 103t-224 277t-34.5 376q36 202 160.5 367.5t310 260.5t393.5 95q202 0 357 -104.5
t225 -280t35 -377.5q-37 -202 -161.5 -366.5t-310 -257.5t-394.5 -93zM766 82q179 0 338 83.5t264 227.5t135 318q30 173 -27 320t-188.5 234t-308.5 87t-336 -85t-264.5 -230.5t-134.5 -319.5q-31 -174 26 -319.5t188 -230.5t308 -85z" />
    <glyph glyph-name="Odieresis" unicode="&#xd6;" horiz-adv-x="1677" 
d="M842 1591q-31 0 -49.5 21.5t-12.5 52.5q4 32 30.5 54t57.5 22t48.5 -22t13.5 -54q-6 -31 -31.5 -52.5t-56.5 -21.5zM1210 1591q-31 0 -49 21.5t-12 52.5q4 32 30.5 54t57.5 22t48.5 -22t12.5 -54q-6 -31 -31.5 -52.5t-56.5 -21.5zM748 -23q-202 0 -356.5 103t-224 277
t-34.5 376q36 202 160.5 367.5t310 260.5t393.5 95q202 0 357 -104.5t225 -280t35 -377.5q-37 -202 -161.5 -366.5t-310 -257.5t-394.5 -93zM766 82q179 0 338 83.5t264 227.5t135 318q30 173 -27 320t-188.5 234t-308.5 87t-336 -85t-264.5 -230.5t-134.5 -319.5
q-31 -174 26 -319.5t188 -230.5t308 -85z" />
    <glyph glyph-name="multiply" unicode="&#xd7;" horiz-adv-x="960" 
d="M932 1012l-348 -299l243 -291l-75 -66l-244 293l-340 -293l-68 66l349 299l-244 291l76 65l243 -291l340 291z" />
    <glyph glyph-name="Oslash" unicode="&#xd8;" horiz-adv-x="1697" 
d="M1493 1245q92 -106 130 -250t11 -301q-37 -202 -161.5 -366.5t-310 -257.5t-394.5 -93q-242 0 -418 152l-131 -129l-72 45l146 141q-92 106 -129 248t-10 299q36 202 160.5 367.5t310 260.5t393.5 95q241 0 416 -151l131 129l71 -48zM264 717q-24 -131 4.5 -248
t102.5 -207l985 967q-142 123 -357 123q-177 0 -336 -85t-264.5 -230.5t-134.5 -319.5zM1524 711q23 131 -6.5 250t-102.5 208l-987 -964q145 -123 358 -123q179 0 338 83.5t264.5 227.5t135.5 318z" />
    <glyph glyph-name="Ugrave" unicode="&#xd9;" horiz-adv-x="1366" 
d="M938 1577l-119 260h-123l144 -260h98zM606 -23q-241 0 -366.5 140t-87.5 362l167 955h109l-168 -955q-30 -178 58.5 -287.5t285.5 -109.5q200 0 330 111.5t160 285.5l168 955h108l-168 -955q-41 -232 -202.5 -367t-393.5 -135z" />
    <glyph glyph-name="Uacute" unicode="&#xda;" horiz-adv-x="1366" 
d="M780 1577h103l229 260h-127zM606 -23q-241 0 -366.5 140t-87.5 362l167 955h109l-168 -955q-30 -178 58.5 -287.5t285.5 -109.5q200 0 330 111.5t160 285.5l168 955h108l-168 -955q-41 -232 -202.5 -367t-393.5 -135z" />
    <glyph glyph-name="Ucircumflex" unicode="&#xdb;" horiz-adv-x="1366" 
d="M903 1772l-198 -195h-123l266 260h121l178 -260h-113zM1262 1434h108l-168 -955q-41 -232 -202.5 -367t-393.5 -135q-241 0 -366.5 140t-87.5 362l167 955h109l-168 -955q-30 -178 58.5 -287.5t285.5 -109.5q200 0 330 111.5t160 285.5z" />
    <glyph glyph-name="Udieresis" unicode="&#xdc;" horiz-adv-x="1366" 
d="M682 1591q-31 0 -49 21.5t-12 52.5q4 32 30.5 54t57.5 22t48.5 -22t12.5 -54q-6 -31 -31.5 -52.5t-56.5 -21.5zM1051 1591q-31 0 -49.5 21.5t-12.5 52.5q4 32 30.5 54t57.5 22t48.5 -22t13.5 -54q-6 -31 -31.5 -52.5t-56.5 -21.5zM606 -23q-241 0 -366.5 140t-87.5 362
l167 955h109l-168 -955q-30 -178 58.5 -287.5t285.5 -109.5q200 0 330 111.5t160 285.5l168 955h108l-168 -955q-41 -232 -202.5 -367t-393.5 -135z" />
    <glyph glyph-name="Yacute" unicode="&#xdd;" 
d="M1014 1837l-230 -260h-102l205 260h127zM1303 1434l-637 -764l-119 -670h-109l119 674l-369 760h113l320 -664l553 664h129z" />
    <glyph glyph-name="Thorn" unicode="&#xde;" horiz-adv-x="1202" 
d="M772 1161q200 0 305 -127t72 -317q-30 -190 -180 -317.5t-373 -127.5h-352l-47 -272h-109l252 1434h109l-48 -273h371zM1042 731q26 146 -51.5 237t-228.5 91h-379l-121 -684h346q173 0 291 100.5t143 255.5z" />
    <glyph glyph-name="germandbls" unicode="&#xdf;" horiz-adv-x="1056" 
d="M502 -8l16 94q145 -9 238 43.5t110 159.5q9 57 -12 115t-56.5 106.5t-71 95.5t-57.5 99t-14 100q5 34 30 68.5t58.5 65t67 62.5t60.5 73t34 85q17 91 -42.5 145t-168.5 54q-56 0 -108 -17t-99.5 -52t-82 -95t-48.5 -139l-186 -1055h-102l186 1061q34 195 157.5 295
t295.5 100q158 0 243 -89t60 -218q-9 -48 -37 -94t-61.5 -80.5t-66.5 -66t-57 -61.5t-28 -54q-5 -35 18.5 -79t59 -89.5t69.5 -96t53.5 -116t8.5 -133.5q-24 -145 -144.5 -222.5t-322.5 -64.5z" />
    <glyph glyph-name="agrave" unicode="&#xe0;" horiz-adv-x="1323" 
d="M813 1167h-98l-144 260h123zM1153 1024h102l-180 -1024h-102l37 209q-81 -109 -203.5 -170.5t-269.5 -61.5q-106 0 -198 45t-152.5 120t-87 178.5t-7.5 214.5q28 160 119.5 278.5t213.5 176t259 57.5q145 0 260 -74.5t164 -206.5zM561 76q184 0 325.5 119t172.5 303
q18 100 -5 185.5t-75.5 142.5t-127.5 89.5t-161 32.5q-113 0 -216 -48.5t-178.5 -146.5t-98.5 -227q-21 -121 19.5 -224.5t132 -164.5t212.5 -61z" />
    <glyph glyph-name="aacute" unicode="&#xe1;" horiz-adv-x="1323" 
d="M987 1427l-229 -260h-103l205 260h127zM1153 1024h102l-180 -1024h-102l37 209q-81 -109 -203.5 -170.5t-269.5 -61.5q-106 0 -198 45t-152.5 120t-87 178.5t-7.5 214.5q28 160 119.5 278.5t213.5 176t259 57.5q145 0 260 -74.5t164 -206.5zM561 76q184 0 325.5 119
t172.5 303q18 100 -5 185.5t-75.5 142.5t-127.5 89.5t-161 32.5q-113 0 -216 -48.5t-178.5 -146.5t-98.5 -227q-21 -121 19.5 -224.5t132 -164.5t212.5 -61z" />
    <glyph glyph-name="acircumflex" unicode="&#xe2;" horiz-adv-x="1323" 
d="M778 1362l-198 -195h-123l266 260h121l178 -260h-113zM1153 1024h102l-180 -1024h-102l37 209q-81 -109 -203.5 -170.5t-269.5 -61.5q-106 0 -198 45t-152.5 120t-87 178.5t-7.5 214.5q28 160 119.5 278.5t213.5 176t259 57.5q145 0 260 -74.5t164 -206.5zM561 76
q184 0 325.5 119t172.5 303q18 100 -5 185.5t-75.5 142.5t-127.5 89.5t-161 32.5q-113 0 -216 -48.5t-178.5 -146.5t-98.5 -227q-21 -121 19.5 -224.5t132 -164.5t212.5 -61z" />
    <glyph glyph-name="atilde" unicode="&#xe3;" horiz-adv-x="1323" 
d="M752 1251q-73 79 -123.5 68t-71.5 -125h-90q13 86 46.5 140.5t76.5 71t92 1.5t94 -61q50 -51 87 -64.5t65.5 15.5t42.5 106h90q-19 -112 -70 -168.5t-114.5 -50.5t-124.5 67zM1153 1024h102l-180 -1024h-102l37 209q-81 -109 -203.5 -170.5t-269.5 -61.5q-106 0 -198 45
t-152.5 120t-87 178.5t-7.5 214.5q28 160 119.5 278.5t213.5 176t259 57.5q145 0 260 -74.5t164 -206.5zM561 76q184 0 325.5 119t172.5 303q18 100 -5 185.5t-75.5 142.5t-127.5 89.5t-161 32.5q-113 0 -216 -48.5t-178.5 -146.5t-98.5 -227q-21 -121 19.5 -224.5
t132 -164.5t212.5 -61z" />
    <glyph glyph-name="adieresis" unicode="&#xe4;" horiz-adv-x="1323" 
d="M557 1182q-31 0 -49 21t-12 52q4 32 30.5 54t57.5 22t48.5 -22t12.5 -54q-6 -31 -31.5 -52t-56.5 -21zM926 1182q-31 0 -49.5 21.5t-12.5 51.5q4 32 30.5 54t57.5 22t48.5 -22t13.5 -54q-6 -31 -31.5 -52t-56.5 -21zM1153 1024h102l-180 -1024h-102l37 209
q-81 -109 -203.5 -170.5t-269.5 -61.5q-106 0 -198 45t-152.5 120t-87 178.5t-7.5 214.5q28 160 119.5 278.5t213.5 176t259 57.5q145 0 260 -74.5t164 -206.5zM561 76q184 0 325.5 119t172.5 303q18 100 -5 185.5t-75.5 142.5t-127.5 89.5t-161 32.5q-113 0 -216 -48.5
t-178.5 -146.5t-98.5 -227q-21 -121 19.5 -224.5t132 -164.5t212.5 -61z" />
    <glyph glyph-name="aring" unicode="&#xe5;" horiz-adv-x="1323" 
d="M739 1133q-94 0 -143 58t-35 144q13 86 81 140.5t159 54.5q94 0 143 -58.5t37 -144.5q-14 -85 -81.5 -139.5t-160.5 -54.5zM649 1331q-9 -52 18 -84.5t83 -32.5t96 32.5t49 84.5q9 53 -20 85t-84 32q-54 0 -93.5 -31.5t-48.5 -85.5zM1153 1024h102l-180 -1024h-102
l37 209q-81 -109 -203.5 -170.5t-269.5 -61.5q-106 0 -198 45t-152.5 120t-87 178.5t-7.5 214.5q28 160 119.5 278.5t213.5 176t259 57.5q145 0 260 -74.5t164 -206.5zM561 76q184 0 325.5 119t172.5 303q18 100 -5 185.5t-75.5 142.5t-127.5 89.5t-161 32.5
q-113 0 -216 -48.5t-178.5 -146.5t-98.5 -227q-21 -121 19.5 -224.5t132 -164.5t212.5 -61z" />
    <glyph glyph-name="ae" unicode="&#xe6;" horiz-adv-x="2174" 
d="M1688 1047q145 0 248 -76.5t143.5 -199.5t13.5 -263q-3 -26 -12 -49h-922q-13 -173 85.5 -278t273.5 -105q128 0 229 50.5t162 135.5l82 -53q-81 -107 -207.5 -169.5t-272.5 -62.5q-150 0 -252.5 69.5t-142.5 191.5l-41 -238h-102l37 215q-83 -112 -207.5 -175
t-272.5 -63q-142 0 -252.5 74t-161 201t-24.5 276q28 159 121.5 279.5t218 180t260.5 59.5q142 0 255.5 -72t162.5 -199l43 248h102l-41 -229q80 119 201.5 185.5t272.5 66.5zM555 76q183 0 328.5 122.5t177.5 305.5q18 100 -4 185t-74 141t-126.5 87t-160.5 31
q-113 0 -217.5 -50t-181.5 -150t-100 -230q-21 -121 17.5 -222t128.5 -160.5t212 -59.5zM1176 559h819q18 182 -74.5 285.5t-253.5 103.5q-179 0 -312.5 -108t-178.5 -281z" />
    <glyph glyph-name="ccedilla" unicode="&#xe7;" horiz-adv-x="1150" 
d="M705 948q-187 0 -331.5 -123t-176.5 -307q-21 -122 16 -223t126 -160t212 -59t229.5 58.5t171.5 156.5l82 -55q-74 -114 -195.5 -182t-269.5 -77l-16 -92q78 -9 124 -53t36 -108q-34 -190 -428 -156l16 84q147 -15 229 7t91 73q8 44 -37.5 67.5t-134.5 20.5l28 160
q-201 22 -311.5 179t-73.5 369q40 226 216.5 372.5t406.5 146.5q148 0 258.5 -71t152.5 -190l-88 -47q-35 97 -121 153t-212 56z" />
    <glyph glyph-name="egrave" unicode="&#xe8;" horiz-adv-x="1204" 
d="M805 1167h-98l-144 260h123zM700 1047q92 0 169.5 -28.5t130 -79t87.5 -118.5t42 -147.5t-7 -165.5q-7 -36 -12 -49h-924q-12 -173 88 -278t275 -105q124 0 225 50t164 138l80 -53q-74 -110 -204.5 -172t-278.5 -62q-154 0 -265 72t-158 197.5t-20 279.5q40 227 211 374
t397 147zM203 559h821q18 184 -74 286.5t-258 102.5q-176 0 -309.5 -107t-179.5 -282z" />
    <glyph glyph-name="eacute" unicode="&#xe9;" horiz-adv-x="1204" 
d="M979 1427l-229 -260h-103l205 260h127zM700 1047q92 0 169.5 -28.5t130 -79t87.5 -118.5t42 -147.5t-7 -165.5q-7 -36 -12 -49h-924q-12 -173 88 -278t275 -105q124 0 225 50t164 138l80 -53q-74 -110 -204.5 -172t-278.5 -62q-154 0 -265 72t-158 197.5t-20 279.5
q40 227 211 374t397 147zM203 559h821q18 184 -74 286.5t-258 102.5q-176 0 -309.5 -107t-179.5 -282z" />
    <glyph glyph-name="ecircumflex" unicode="&#xea;" horiz-adv-x="1204" 
d="M770 1362l-199 -195h-122l266 260h121l178 -260h-113zM700 1047q92 0 169.5 -28.5t130 -79t87.5 -118.5t42 -147.5t-7 -165.5q-7 -36 -12 -49h-924q-12 -173 88 -278t275 -105q124 0 225 50t164 138l80 -53q-74 -110 -204.5 -172t-278.5 -62q-154 0 -265 72t-158 197.5
t-20 279.5q40 227 211 374t397 147zM203 559h821q18 184 -74 286.5t-258 102.5q-176 0 -309.5 -107t-179.5 -282z" />
    <glyph glyph-name="edieresis" unicode="&#xeb;" horiz-adv-x="1204" 
d="M549 1182q-31 0 -49.5 21.5t-12.5 51.5q4 32 30.5 54t57.5 22t48.5 -22t13.5 -54q-6 -31 -31.5 -52t-56.5 -21zM918 1182q-31 0 -49.5 21.5t-12.5 51.5q4 32 30.5 54t57.5 22t48.5 -22t13.5 -54q-6 -31 -31.5 -52t-56.5 -21zM700 1047q92 0 169.5 -28.5t130 -79
t87.5 -118.5t42 -147.5t-7 -165.5q-7 -36 -12 -49h-924q-12 -173 88 -278t275 -105q124 0 225 50t164 138l80 -53q-74 -110 -204.5 -172t-278.5 -62q-154 0 -265 72t-158 197.5t-20 279.5q40 227 211 374t397 147zM203 559h821q18 184 -74 286.5t-258 102.5
q-176 0 -309.5 -107t-179.5 -282z" />
    <glyph glyph-name="igrave" unicode="&#xec;" horiz-adv-x="417" 
d="M379 1167l-68 260h-125l93 -260h100zM170 0h-102l180 1024h102z" />
    <glyph glyph-name="iacute" unicode="&#xed;" horiz-adv-x="417" 
d="M270 1167h101l180 260h-123zM68 0l180 1024h102l-180 -1024h-102z" />
    <glyph glyph-name="icircumflex" unicode="&#xee;" horiz-adv-x="417" 
d="M559 1167h-117l-86 176l-147 -176h-117l217 260h121zM68 0l180 1024h102l-180 -1024h-102z" />
    <glyph glyph-name="idieresis" unicode="&#xef;" horiz-adv-x="417" 
d="M193 1182q-32 0 -51 21t-13 52q6 32 32 54t58 22q31 0 48.5 -22t13.5 -54q-6 -31 -31.5 -52t-56.5 -21zM463 1182q-32 0 -50.5 21t-13.5 52q6 32 32 54t58 22q31 0 49.5 -22t12.5 -54q-6 -31 -31.5 -52t-56.5 -21zM68 0l180 1024h102l-180 -1024h-102z" />
    <glyph glyph-name="eth" unicode="&#xf0;" horiz-adv-x="1204" 
d="M1053 756q35 -60 49.5 -145.5t1.5 -168.5q-40 -220 -200.5 -342.5t-375.5 -122.5q-99 0 -188.5 39.5t-153 107.5t-92 167t-8.5 209q36 206 191.5 326t355.5 120q135 0 229 -57l-170 305l-284 -158l16 97l229 127l-96 174h107l73 -127l248 137l-18 -96l-193 -107zM999 451
q25 155 -28 245q-43 73 -127 115.5t-203 42.5q-175 0 -298.5 -97.5t-152.5 -264.5q-21 -116 20 -212t130.5 -150t206.5 -54q170 0 295 100t157 275z" />
    <glyph glyph-name="ntilde" unicode="&#xf1;" horiz-adv-x="1155" 
d="M696 1251q-73 79 -123 68t-71 -125h-90q13 86 46.5 140.5t76.5 71t92 1.5t94 -61q50 -51 87 -64.5t65 15.5t42 106h91q-19 -112 -70 -168.5t-115 -50.5t-125 67zM713 1047q182 0 273.5 -112t60.5 -298l-113 -637h-105l113 637q25 144 -38.5 227.5t-209.5 83.5
q-158 0 -276 -104.5t-152 -302.5v2l-96 -543h-102l180 1024h102l-31 -178q145 201 394 201z" />
    <glyph glyph-name="ograve" unicode="&#xf2;" horiz-adv-x="1253" 
d="M811 1167l-119 260h-123l144 -260h98zM541 -23q-104 0 -195 39t-155.5 108t-93 173t-7.5 225t84 222t150 166.5t190.5 101t208.5 35.5q103 0 192.5 -39.5t152 -108.5t89.5 -172.5t6 -222.5q-28 -164 -125.5 -286t-226.5 -181.5t-270 -59.5zM551 76q115 0 221.5 51.5
t185.5 153.5t103 235q17 98 -4.5 180.5t-71.5 136.5t-122.5 84.5t-157.5 30.5q-114 -1 -220.5 -52t-186 -152t-103.5 -232q-17 -99 4 -182.5t71.5 -138t123 -85t157.5 -30.5z" />
    <glyph glyph-name="oacute" unicode="&#xf3;" horiz-adv-x="1253" 
d="M653 1167h103l229 260h-127zM541 -23q-104 0 -195 39t-155.5 108t-93 173t-7.5 225t84 222t150 166.5t190.5 101t208.5 35.5q103 0 192.5 -39.5t152 -108.5t89.5 -172.5t6 -222.5q-28 -164 -125.5 -286t-226.5 -181.5t-270 -59.5zM551 76q115 0 221.5 51.5t185.5 153.5
t103 235q17 98 -4.5 180.5t-71.5 136.5t-122.5 84.5t-157.5 30.5q-114 -1 -220.5 -52t-186 -152t-103.5 -232q-17 -99 4 -182.5t71.5 -138t123 -85t157.5 -30.5z" />
    <glyph glyph-name="ocircumflex" unicode="&#xf4;" horiz-adv-x="1253" 
d="M776 1362l-198 -195h-123l266 260h121l178 -260h-113zM723 1047q103 0 192.5 -39.5t152 -108.5t89.5 -172.5t6 -222.5q-28 -164 -125.5 -286t-226.5 -181.5t-270 -59.5q-104 0 -195 39t-155.5 108t-93 173t-7.5 225t84 222t150 166.5t190.5 101t208.5 35.5zM1061 516
q17 98 -4.5 180.5t-71.5 136.5t-122.5 84.5t-157.5 30.5q-114 -1 -220.5 -52t-186 -152t-103.5 -232q-17 -99 4 -182.5t71.5 -138t123 -85t157.5 -30.5q115 0 221.5 51.5t185.5 153.5t103 235z" />
    <glyph glyph-name="otilde" unicode="&#xf5;" horiz-adv-x="1253" 
d="M465 1194q13 86 46.5 140.5t76.5 71t92 1.5t94 -61q50 -51 87 -64.5t65.5 15.5t42.5 106h90q-19 -112 -70 -168.5t-114.5 -50.5t-124.5 67q-73 79 -123.5 68t-71.5 -125h-90zM541 -23q-104 0 -195 39t-155.5 108t-93 173t-7.5 225t84 222t150 166.5t190.5 101t208.5 35.5
q103 0 192.5 -39.5t152 -108.5t89.5 -172.5t6 -222.5q-28 -164 -125.5 -286t-226.5 -181.5t-270 -59.5zM551 76q115 0 221.5 51.5t185.5 153.5t103 235q17 98 -4.5 180.5t-71.5 136.5t-122.5 84.5t-157.5 30.5q-114 -1 -220.5 -52t-186 -152t-103.5 -232q-17 -99 4 -182.5
t71.5 -138t123 -85t157.5 -30.5z" />
    <glyph glyph-name="odieresis" unicode="&#xf6;" horiz-adv-x="1253" 
d="M555 1182q-31 0 -49 21t-12 52q4 32 30.5 54t57.5 22t48.5 -22t12.5 -54q-6 -31 -31.5 -52t-56.5 -21zM924 1182q-31 0 -49.5 21.5t-12.5 51.5q4 32 30.5 54t57.5 22t48.5 -22t13.5 -54q-6 -31 -31.5 -52t-56.5 -21zM541 -23q-104 0 -195 39t-155.5 108t-93 173t-7.5 225
t84 222t150 166.5t190.5 101t208.5 35.5q103 0 192.5 -39.5t152 -108.5t89.5 -172.5t6 -222.5q-28 -164 -125.5 -286t-226.5 -181.5t-270 -59.5zM551 76q115 0 221.5 51.5t185.5 153.5t103 235q17 98 -4.5 180.5t-71.5 136.5t-122.5 84.5t-157.5 30.5q-114 -1 -220.5 -52
t-186 -152t-103.5 -232q-17 -99 4 -182.5t71.5 -138t123 -85t157.5 -30.5z" />
    <glyph glyph-name="divide" unicode="&#xf7;" horiz-adv-x="1187" 
d="M682 1008q-38 0 -60.5 28t-15.5 68q6 38 36.5 63t70.5 25q38 0 61 -28t17 -68q-7 -38 -38 -63t-71 -25zM158 668l16 98h928l-17 -98h-927zM547 242q-38 0 -60.5 28t-15.5 68q6 38 36.5 63t70.5 25q38 0 60.5 -28t16.5 -68q-8 -38 -38 -63t-70 -25z" />
    <glyph glyph-name="oslash" unicode="&#xf8;" horiz-adv-x="1253" 
d="M1196 989l-115 -106q121 -154 82 -379q-28 -164 -125.5 -286t-226.5 -181.5t-270 -59.5q-185 0 -314 111l-100 -94l-66 41l115 106q-125 154 -86 381q21 121 84 222t150 166.5t190.5 101t208.5 35.5q181 0 307 -111l100 94zM195 512q-29 -180 59 -299l698 651
q-101 84 -247 84q-114 -1 -220.5 -52t-186 -152t-103.5 -232zM1061 516q29 176 -57 293l-699 -649q96 -84 246 -84q115 0 221.5 51.5t185.5 153.5t103 235z" />
    <glyph glyph-name="ugrave" unicode="&#xf9;" horiz-adv-x="1155" 
d="M750 1167h-99l-143 260h123zM985 1024h102l-180 -1024h-102l31 178q-145 -201 -394 -201q-182 0 -273 112t-60 298l112 637h105l-113 -637q-25 -144 38.5 -227.5t209.5 -83.5q158 0 276 104.5t152 302.5v-2z" />
    <glyph glyph-name="uacute" unicode="&#xfa;" horiz-adv-x="1155" 
d="M924 1427l-230 -260h-102l205 260h127zM985 1024h102l-180 -1024h-102l31 178q-145 -201 -394 -201q-182 0 -273 112t-60 298l112 637h105l-113 -637q-25 -144 38.5 -227.5t209.5 -83.5q158 0 276 104.5t152 302.5v-2z" />
    <glyph glyph-name="ucircumflex" unicode="&#xfb;" horiz-adv-x="1155" 
d="M715 1362l-199 -195h-123l266 260h121l178 -260h-112zM985 1024h102l-180 -1024h-102l31 178q-145 -201 -394 -201q-182 0 -273 112t-60 298l112 637h105l-113 -637q-25 -144 38.5 -227.5t209.5 -83.5q158 0 276 104.5t152 302.5v-2z" />
    <glyph glyph-name="udieresis" unicode="&#xfc;" horiz-adv-x="1155" 
d="M494 1182q-31 0 -49.5 21.5t-12.5 51.5q4 32 30.5 54t57.5 22t48.5 -22t13.5 -54q-6 -31 -31.5 -52t-56.5 -21zM862 1182q-31 0 -49 21t-12 52q4 32 30.5 54t57.5 22t48.5 -22t12.5 -54q-6 -31 -31.5 -52t-56.5 -21zM985 1024h102l-180 -1024h-102l31 178
q-145 -201 -394 -201q-182 0 -273 112t-60 298l112 637h105l-113 -637q-25 -144 38.5 -227.5t209.5 -83.5q158 0 276 104.5t152 302.5v-2z" />
    <glyph glyph-name="yacute" unicode="&#xfd;" horiz-adv-x="1044" 
d="M852 1427l-229 -260h-103l205 260h127zM991 1024h117l-639 -1118q-91 -159 -210.5 -242.5t-250.5 -73.5l17 97q191 -17 342 239l34 58l-284 1040h104l248 -922z" />
    <glyph glyph-name="thorn" unicode="&#xfe;" horiz-adv-x="1323" 
d="M786 1047q106 0 198 -45t152.5 -120t87 -178.5t7.5 -214.5q-28 -160 -119.5 -278.5t-213.5 -176t-259 -57.5q-145 0 -260 74.5t-164 204.5l-117 -666h-102l323 1844h103l-109 -619q81 109 203.5 170.5t269.5 61.5zM1126 498q21 121 -19.5 224.5t-132 164.5t-212.5 61
q-184 0 -325 -119t-173 -303q-18 -100 5 -185.5t75.5 -142.5t127.5 -89.5t161 -32.5q113 0 216 48.5t178.5 146.5t98.5 227z" />
    <glyph glyph-name="ydieresis" unicode="&#xff;" horiz-adv-x="1044" 
d="M422 1182q-31 0 -49.5 21.5t-12.5 51.5q4 32 31 54t58 22t48.5 -22t12.5 -54q-6 -31 -31.5 -52t-56.5 -21zM791 1182q-31 0 -49.5 21.5t-12.5 51.5q4 32 30.5 54t57.5 22t48.5 -22t13.5 -54q-6 -31 -31.5 -52t-56.5 -21zM991 1024h117l-639 -1118q-91 -159 -210.5 -242.5
t-250.5 -73.5l17 97q191 -17 342 239l34 58l-284 1040h104l248 -922z" />
    <glyph glyph-name="Amacron" unicode="&#x100;" horiz-adv-x="1288" 
d="M1112 1702l-14 -90h-520l16 90h518zM1057 0l-74 365h-719l-205 -365h-118l809 1434h114l303 -1434h-110zM322 467h639l-170 833z" />
    <glyph glyph-name="amacron" unicode="&#x101;" horiz-adv-x="1323" 
d="M1020 1292l-14 -90h-521l17 90h518zM1153 1024h102l-180 -1024h-102l37 209q-81 -109 -203.5 -170.5t-269.5 -61.5q-106 0 -198 45t-152.5 120t-87 178.5t-7.5 214.5q28 160 119.5 278.5t213.5 176t259 57.5q145 0 260 -74.5t164 -206.5zM561 76q184 0 325.5 119
t172.5 303q18 100 -5 185.5t-75.5 142.5t-127.5 89.5t-161 32.5q-113 0 -216 -48.5t-178.5 -146.5t-98.5 -227q-21 -121 19.5 -224.5t132 -164.5t212.5 -61z" />
    <glyph glyph-name="Abreve" unicode="&#x102;" horiz-adv-x="1288" 
d="M834 1567q-120 0 -186.5 68t-45.5 182h98q-26 -160 146 -160q82 0 136 42t67 118h98q-20 -118 -102 -184t-211 -66zM1057 0l-74 365h-719l-205 -365h-118l809 1434h114l303 -1434h-110zM322 467h639l-170 833z" />
    <glyph glyph-name="abreve" unicode="&#x103;" horiz-adv-x="1323" 
d="M741 1157q-120 0 -186 68t-45 182h98q-26 -160 146 -160q82 0 135.5 42t66.5 118h99q-20 -118 -102 -184t-212 -66zM1153 1024h102l-180 -1024h-102l37 209q-81 -109 -203.5 -170.5t-269.5 -61.5q-106 0 -198 45t-152.5 120t-87 178.5t-7.5 214.5q28 160 119.5 278.5
t213.5 176t259 57.5q145 0 260 -74.5t164 -206.5zM561 76q184 0 325.5 119t172.5 303q18 100 -5 185.5t-75.5 142.5t-127.5 89.5t-161 32.5q-113 0 -216 -48.5t-178.5 -146.5t-98.5 -227q-21 -121 19.5 -224.5t132 -164.5t212.5 -61z" />
    <glyph glyph-name="Aogonek" unicode="&#x104;" horiz-adv-x="1288" 
d="M950 -266q-6 -37 13 -57.5t57 -20.5q51 0 90 16l-14 -84q-47 -20 -115 -20q-71 0 -108 44.5t-25 111.5q22 130 209 280l-74 361h-719l-205 -365h-118l809 1434h114l303 -1434q-196 -152 -217 -266zM322 467h639l-170 833z" />
    <glyph glyph-name="aogonek" unicode="&#x105;" horiz-adv-x="1325" 
d="M1075 0q-200 -155 -217 -268q-6 -37 13 -56.5t57 -19.5q44 0 90 18l-14 -86q-50 -20 -115 -20q-73 0 -109 44t-24 112q22 128 221 301l33 184q-81 -109 -203.5 -170.5t-269.5 -61.5q-106 0 -198 45t-152.5 120t-87 178.5t-7.5 214.5q28 160 119.5 278.5t213.5 176
t259 57.5q145 0 260 -74.5t164 -206.5l45 258h102zM561 76q184 0 325.5 119t172.5 303q18 100 -5 185.5t-75.5 142.5t-127.5 89.5t-161 32.5q-113 0 -216 -48.5t-178.5 -146.5t-98.5 -227q-21 -121 19.5 -224.5t132 -164.5t212.5 -61z" />
    <glyph glyph-name="Cacute" unicode="&#x106;" horiz-adv-x="1538" 
d="M944 1577h103l229 260h-127zM748 -23q-159 0 -288.5 60.5t-209.5 162.5t-112 240.5t-5 290.5q36 205 159 371t304 260t383 94q204 0 355 -93t225 -253l-97 -51q-64 136 -185 214.5t-300 78.5q-137 0 -263.5 -50t-222.5 -136t-162 -202.5t-89 -246.5q-29 -176 25.5 -321
t183.5 -229.5t309 -84.5q173 0 325.5 81.5t251.5 223.5l92 -57q-115 -162 -294.5 -257.5t-384.5 -95.5z" />
    <glyph glyph-name="cacute" unicode="&#x107;" horiz-adv-x="1150" 
d="M633 1167h102l230 260h-127zM532 -23q-148 0 -258.5 74.5t-159 201t-22.5 275.5q40 226 216.5 372.5t406.5 146.5q148 0 258.5 -71t152.5 -190l-88 -47q-35 97 -121 153t-212 56q-187 0 -331.5 -123t-176.5 -307q-21 -122 16 -223t126 -160t212 -59t229.5 58.5
t171.5 156.5l82 -55q-78 -122 -210.5 -190.5t-291.5 -68.5z" />
    <glyph glyph-name="Cdotaccent" unicode="&#x10a;" horiz-adv-x="1538" 
d="M1028 1583q-40 0 -62.5 28t-15.5 68q6 40 38.5 68.5t72.5 28.5q41 0 64.5 -28.5t15.5 -68.5t-40 -68t-73 -28zM748 -23q-159 0 -288.5 60.5t-209.5 162.5t-112 240.5t-5 290.5q36 205 159 371t304 260t383 94q204 0 355 -93t225 -253l-97 -51q-64 136 -185 214.5
t-300 78.5q-137 0 -263.5 -50t-222.5 -136t-162 -202.5t-89 -246.5q-29 -176 25.5 -321t183.5 -229.5t309 -84.5q173 0 325.5 81.5t251.5 223.5l92 -57q-115 -162 -294.5 -257.5t-384.5 -95.5z" />
    <glyph glyph-name="cdotaccent" unicode="&#x10b;" horiz-adv-x="1150" 
d="M717 1174q-40 0 -62.5 28t-15.5 68q6 40 38.5 68t72.5 28q41 0 64 -28t15 -68t-39.5 -68t-72.5 -28zM532 -23q-148 0 -258.5 74.5t-159 201t-22.5 275.5q40 226 216.5 372.5t406.5 146.5q148 0 258.5 -71t152.5 -190l-88 -47q-35 97 -121 153t-212 56q-187 0 -331.5 -123
t-176.5 -307q-21 -122 16 -223t126 -160t212 -59t229.5 58.5t171.5 156.5l82 -55q-78 -122 -210.5 -190.5t-291.5 -68.5z" />
    <glyph glyph-name="Ccaron" unicode="&#x10c;" horiz-adv-x="1538" 
d="M969 1577l-176 260h110l131 -192l197 192h125l-266 -260h-121zM977 1352q-137 0 -263.5 -50t-222.5 -136t-162 -202.5t-89 -246.5q-29 -176 25.5 -321t183.5 -229.5t309 -84.5q173 0 325.5 81.5t251.5 223.5l92 -57q-115 -162 -294.5 -257.5t-384.5 -95.5
q-159 0 -288.5 60.5t-209.5 162.5t-112 240.5t-5 290.5q36 205 159 371t304 260t383 94q204 0 355 -93t225 -253l-97 -51q-64 136 -185 214.5t-300 78.5z" />
    <glyph glyph-name="ccaron" unicode="&#x10d;" horiz-adv-x="1150" 
d="M657 1167l-176 260h111l131 -192l197 192h124l-266 -260h-121zM705 948q-187 0 -331.5 -123t-176.5 -307q-21 -122 16 -223t126 -160t212 -59t229.5 58.5t171.5 156.5l82 -55q-78 -122 -210.5 -190.5t-291.5 -68.5q-148 0 -258.5 74.5t-159 201t-22.5 275.5
q40 226 216.5 372.5t406.5 146.5q148 0 258.5 -71t152.5 -190l-88 -47q-35 97 -121 153t-212 56z" />
    <glyph glyph-name="Dcaron" unicode="&#x10e;" horiz-adv-x="1490" 
d="M823 1577l-176 260h111l131 -192l196 192h125l-266 -260h-121zM879 1434q141 0 257.5 -59.5t189 -159t101.5 -234.5t3 -281q-35 -197 -147.5 -356t-284.5 -251.5t-371 -92.5h-539l252 1434h539zM1323 717q28 169 -18 308.5t-162 222.5t-281 83h-432l-215 -1229h430
q124 0 240 48.5t204.5 131.5t150 196t83.5 239z" />
    <glyph glyph-name="dcaron" unicode="&#x10f;" horiz-adv-x="1427" 
d="M1108 768l117 666h102l-252 -1434h-102l37 209q-81 -109 -203.5 -170.5t-269.5 -61.5q-106 0 -198 45t-152.5 120t-87 178.5t-7.5 214.5q28 160 119.5 278.5t213.5 176t259 57.5q145 0 260 -74.5t164 -204.5zM1499 1434h105l-113 -349h-74zM561 76q184 0 325 119t173 303
q18 100 -5 185.5t-75.5 142.5t-127.5 89.5t-161 32.5q-113 0 -216 -48.5t-178.5 -146.5t-98.5 -227q-21 -121 19.5 -224.5t132 -164.5t212.5 -61z" />
    <glyph glyph-name="Dcroat" unicode="&#x110;" horiz-adv-x="1531" 
d="M920 1434q141 0 257.5 -59.5t188.5 -159t101 -234.5t3 -281q-26 -147 -98 -276t-176.5 -222.5t-241.5 -147.5t-286 -54h-539l117 668h-137l16 98h139l117 668h539zM1364 717q28 169 -18 308.5t-162 222.5t-281 83h-432l-98 -565h489l-16 -98h-492l-98 -566h430
q124 0 240 48.5t204.5 131.5t150 196t83.5 239z" />
    <glyph glyph-name="dcroat" unicode="&#x111;" horiz-adv-x="1337" 
d="M1438 1278l-15 -86h-139l-209 -1192h-104l37 205q-84 -108 -204.5 -168t-266.5 -60q-106 0 -198 45t-152.5 120t-87 178.5t-7.5 214.5q28 160 119.5 278.5t213.5 176t259 57.5q144 0 258.5 -73.5t163.5 -203.5l74 422h-412l14 86h414l27 156h104l-27 -156h138zM561 76
q174 0 312.5 108.5t179.5 276.5l10 67q22 187 -89 303.5t-284 116.5q-113 0 -216 -48.5t-178.5 -146.5t-98.5 -227q-21 -121 19.5 -224.5t132 -164.5t212.5 -61z" />
    <glyph glyph-name="Emacron" unicode="&#x112;" horiz-adv-x="1091" 
d="M1049 1702l-15 -90h-520l16 90h519zM1139 1331h-709l-98 -557h657l-18 -102h-656l-100 -570h717l-19 -102h-825l252 1434h815z" />
    <glyph glyph-name="emacron" unicode="&#x113;" horiz-adv-x="1204" 
d="M1012 1292l-15 -90h-520l17 90h518zM700 1047q92 0 169.5 -28.5t130 -79t87.5 -118.5t42 -147.5t-7 -165.5q-7 -36 -12 -49h-924q-12 -173 88 -278t275 -105q124 0 225 50t164 138l80 -53q-74 -110 -204.5 -172t-278.5 -62q-154 0 -265 72t-158 197.5t-20 279.5
q40 227 211 374t397 147zM203 559h821q18 184 -74 286.5t-258 102.5q-176 0 -309.5 -107t-179.5 -282z" />
    <glyph glyph-name="Edotaccent" unicode="&#x116;" horiz-adv-x="1091" 
d="M768 1583q-40 0 -62.5 28t-15.5 68q6 40 38.5 68.5t72.5 28.5q41 0 64.5 -28.5t15.5 -68.5t-40 -68t-73 -28zM1139 1331h-709l-98 -557h657l-18 -102h-656l-100 -570h717l-19 -102h-825l252 1434h815z" />
    <glyph glyph-name="edotaccent" unicode="&#x117;" horiz-adv-x="1204" 
d="M731 1174q-40 0 -62.5 28t-15.5 68q6 40 38.5 68t72.5 28q41 0 64.5 -28t15.5 -68t-40 -68t-73 -28zM700 1047q92 0 169.5 -28.5t130 -79t87.5 -118.5t42 -147.5t-7 -165.5q-7 -36 -12 -49h-924q-12 -173 88 -278t275 -105q124 0 225 50t164 138l80 -53
q-74 -110 -204.5 -172t-278.5 -62q-154 0 -265 72t-158 197.5t-20 279.5q40 227 211 374t397 147zM203 559h821q18 184 -74 286.5t-258 102.5q-176 0 -309.5 -107t-179.5 -282z" />
    <glyph glyph-name="Eogonek" unicode="&#x118;" horiz-adv-x="1093" 
d="M1139 1331h-709l-98 -557h657l-18 -102h-656l-100 -570h717l-19 -102q-200 -149 -217 -260q-6 -37 13 -60.5t57 -23.5q44 0 90 18l-16 -88q-40 -18 -111 -18q-78 0 -113 48t-24 116q21 129 209 268h-713l252 1434h815z" />
    <glyph glyph-name="eogonek" unicode="&#x119;" horiz-adv-x="1204" 
d="M700 1047q92 0 169.5 -28.5t130 -79t87.5 -118.5t42 -147.5t-7 -165.5q-7 -36 -12 -49h-924q-12 -173 88 -278t275 -105q124 0 225 50t164 138l80 -53q-48 -70 -115 -119q-290 -243 -309 -360q-16 -76 74 -76q40 0 86 18l-15 -86q-50 -20 -108 -20q-82 0 -118.5 43.5
t-23.5 112.5q26 130 205 272q-81 -19 -159 -19q-154 0 -265 72t-158 197.5t-20 279.5q40 227 211 374t397 147zM203 559h821q18 184 -74 286.5t-258 102.5q-176 0 -309.5 -107t-179.5 -282z" />
    <glyph glyph-name="Ecaron" unicode="&#x11a;" horiz-adv-x="1091" 
d="M709 1577l-177 260h111l131 -192l197 192h125l-267 -260h-120zM1139 1331h-709l-98 -557h657l-18 -102h-656l-100 -570h717l-19 -102h-825l252 1434h815z" />
    <glyph glyph-name="ecaron" unicode="&#x11b;" horiz-adv-x="1204" 
d="M672 1167l-176 260h110l131 -192l197 192h125l-266 -260h-121zM700 1047q92 0 169.5 -28.5t130 -79t87.5 -118.5t42 -147.5t-7 -165.5q-7 -36 -12 -49h-924q-12 -173 88 -278t275 -105q124 0 225 50t164 138l80 -53q-74 -110 -204.5 -172t-278.5 -62q-154 0 -265 72
t-158 197.5t-20 279.5q40 227 211 374t397 147zM203 559h821q18 184 -74 286.5t-258 102.5q-176 0 -309.5 -107t-179.5 -282z" />
    <glyph glyph-name="Gbreve" unicode="&#x11e;" horiz-adv-x="1638" 
d="M1012 1567q-120 0 -186.5 68t-45.5 182h99q-26 -160 145 -160q82 0 136 42t67 118h98q-20 -118 -102 -184t-211 -66zM1571 668l-10 -54q-24 -132 -91.5 -248t-168 -202.5t-237 -136.5t-288.5 -50q-167 0 -302 61.5t-217.5 165t-115.5 243.5t-6 294q27 150 104.5 282.5
t189.5 227.5t256.5 150t299.5 55q207 0 355 -93t227 -253l-97 -51q-68 135 -189 214t-300 79q-138 0 -265 -49t-223.5 -133.5t-162.5 -200t-88 -244.5q-22 -131 5 -248.5t95 -205t181.5 -138.5t256.5 -51q166 0 306 66.5t229.5 174.5t126.5 242h-608l18 103h719z" />
    <glyph glyph-name="gbreve" unicode="&#x11f;" horiz-adv-x="1331" 
d="M764 1157q-120 0 -186.5 68t-45.5 182h99q-26 -160 145 -160q82 0 136 42t67 118h98q-20 -118 -102 -184t-211 -66zM1159 1024h105l-172 -975q-41 -228 -199 -354.5t-389 -126.5q-166 0 -283 67t-164 179l93 47q32 -86 121.5 -140.5t236.5 -54.5q198 0 322 100.5
t157 282.5l29 160q-83 -110 -202 -171t-257 -61q-153 0 -267 75t-164 203t-26 280q17 115 74 213t138 162.5t178.5 100.5t197.5 36q145 0 261 -74t165 -205zM573 76q171 0 308.5 108.5t179.5 282.5l12 65q10 93 -17 172.5t-80.5 132t-126.5 82t-155 29.5q-173 0 -317 -117
t-174 -305q-29 -191 76.5 -320.5t293.5 -129.5z" />
    <glyph glyph-name="Gdotaccent" unicode="&#x120;" horiz-adv-x="1638" 
d="M1010 1583q-40 0 -62.5 28t-15.5 68q6 40 38 68.5t72 28.5q41 0 64.5 -28.5t15.5 -68.5t-39.5 -68t-72.5 -28zM1571 668l-10 -54q-24 -132 -91.5 -248t-168 -202.5t-237 -136.5t-288.5 -50q-167 0 -302 61.5t-217.5 165t-115.5 243.5t-6 294q27 150 104.5 282.5
t189.5 227.5t256.5 150t299.5 55q207 0 355 -93t227 -253l-97 -51q-68 135 -189 214t-300 79q-138 0 -265 -49t-223.5 -133.5t-162.5 -200t-88 -244.5q-22 -131 5 -248.5t95 -205t181.5 -138.5t256.5 -51q166 0 306 66.5t229.5 174.5t126.5 242h-608l18 103h719z" />
    <glyph glyph-name="gdotaccent" unicode="&#x121;" horiz-adv-x="1331" 
d="M762 1174q-40 0 -62.5 28t-15.5 68q6 40 38.5 68t72.5 28q41 0 64 -28t15 -68t-39.5 -68t-72.5 -28zM1159 1024h105l-172 -975q-41 -228 -199 -354.5t-389 -126.5q-166 0 -283 67t-164 179l93 47q32 -86 121.5 -140.5t236.5 -54.5q198 0 322 100.5t157 282.5l29 160
q-83 -110 -202 -171t-257 -61q-153 0 -267 75t-164 203t-26 280q17 115 74 213t138 162.5t178.5 100.5t197.5 36q145 0 261 -74t165 -205zM573 76q171 0 308.5 108.5t179.5 282.5l12 65q10 93 -17 172.5t-80.5 132t-126.5 82t-155 29.5q-173 0 -317 -117t-174 -305
q-29 -191 76.5 -320.5t293.5 -129.5z" />
    <glyph glyph-name="Gcommaaccent" unicode="&#x122;" horiz-adv-x="1638" 
d="M1571 668l-10 -54q-24 -132 -91.5 -248t-168 -202.5t-237 -136.5t-288.5 -50q-167 0 -302 61.5t-217.5 165t-115.5 243.5t-6 294q27 150 104.5 282.5t189.5 227.5t256.5 150t299.5 55q207 0 355 -93t227 -253l-97 -51q-68 135 -189 214t-300 79q-138 0 -265 -49
t-223.5 -133.5t-162.5 -200t-88 -244.5q-22 -131 5 -248.5t95 -205t181.5 -138.5t256.5 -51q166 0 306 66.5t229.5 174.5t126.5 242h-608l18 103h719zM633 -492l82 349h104l-112 -349h-74z" />
    <glyph glyph-name="gcommaaccent" unicode="&#x123;" horiz-adv-x="1331" 
d="M891 1556l-82 -348h-104l112 348h74zM1159 1024h105l-172 -975q-41 -228 -199 -354.5t-389 -126.5q-166 0 -283 67t-164 179l93 47q32 -86 121.5 -140.5t236.5 -54.5q198 0 322 100.5t157 282.5l29 160q-83 -110 -202 -171t-257 -61q-153 0 -267 75t-164 203t-26 280
q17 115 74 213t138 162.5t178.5 100.5t197.5 36q145 0 261 -74t165 -205zM573 76q171 0 308.5 108.5t179.5 282.5l12 65q10 93 -17 172.5t-80.5 132t-126.5 82t-155 29.5q-173 0 -317 -117t-174 -305q-29 -191 76.5 -320.5t293.5 -129.5z" />
    <glyph glyph-name="Hbar" unicode="&#x126;" horiz-adv-x="1515" 
d="M1532 1151l-14 -90h-138l-186 -1061h-111l121 686h-831l-121 -686h-111l187 1061h-135l16 90h135l49 283h111l-49 -283h831l49 283h111l-49 -283h135zM1223 788l47 273h-832l-47 -273h832z" />
    <glyph glyph-name="hbar" unicode="&#x127;" horiz-adv-x="1181" 
d="M739 1047q183 0 274.5 -112t59.5 -298l-112 -637h-103l111 637q25 144 -38.5 227.5t-209.5 83.5q-150 0 -265 -94.5t-155 -275.5l-102 -578h-105l209 1192h-147l14 86h149l27 156h105l-27 -156h319l-14 -86h-321l-60 -344q74 101 175 150t216 49z" />
    <glyph glyph-name="Imacron" unicode="&#x12a;" horiz-adv-x="464" 
d="M164 1612l16 90h518l-14 -90h-520zM340 1434h109l-252 -1434h-109z" />
    <glyph glyph-name="imacron" unicode="&#x12b;" horiz-adv-x="417" 
d="M139 1202l17 90h381l-15 -90h-383zM68 0l180 1024h102l-180 -1024h-102z" />
    <glyph glyph-name="Iogonek" unicode="&#x12e;" horiz-adv-x="464" 
d="M53 -260q-7 -42 12 -63t58 -21q43 0 90 18l-14 -86q-44 -20 -115 -20t-107.5 45.5t-25.5 118.5q20 124 139 278l250 1424h109l-252 -1434q-66 -87 -100 -145.5t-44 -114.5z" />
    <glyph glyph-name="iogonek" unicode="&#x12f;" horiz-adv-x="417" 
d="M371 1434q34 0 53.5 -24t13.5 -56q-6 -35 -32.5 -58.5t-63.5 -23.5q-35 0 -53.5 24t-12.5 58q5 33 32 56.5t63 23.5zM170 0q-118 -156 -135 -252q-6 -39 12 -65.5t55 -26.5q44 0 91 18l-15 -86q-50 -20 -115 -20q-74 0 -109 50t-24 120q10 57 41.5 118.5t98.5 155.5
l178 1012h102z" />
    <glyph glyph-name="Idotaccent" unicode="&#x130;" horiz-adv-x="464" 
d="M418 1583q-40 0 -62.5 28t-15.5 68q6 40 38.5 68.5t72.5 28.5q41 0 64 -28.5t15 -68.5t-39.5 -68t-72.5 -28zM340 1434h109l-252 -1434h-109z" />
    <glyph glyph-name="dotlessi" unicode="&#x131;" horiz-adv-x="417" 
d="M68 0l180 1024h102l-180 -1024h-102z" />
    <glyph glyph-name="Kcommaaccent" unicode="&#x136;" horiz-adv-x="1169" 
d="M1294 1434l-850 -707l615 -727h-131l-606 715l-125 -715h-109l252 1434h109l-117 -668l815 668h147zM389 -492l82 349h104l-112 -349h-74z" />
    <glyph glyph-name="kcommaaccent" unicode="&#x137;" horiz-adv-x="989" 
d="M1014 1024l-641 -494l479 -530h-127l-465 514l-90 -514h-102l251 1434h103l-154 -869l600 459h146zM291 -492l82 349h104l-112 -349h-74z" />
    <glyph glyph-name="Lacute" unicode="&#x139;" horiz-adv-x="1009" 
d="M698 1837l-229 -260h-102l204 260h127zM215 102h676l-19 -102h-784l252 1434h109z" />
    <glyph glyph-name="lacute" unicode="&#x13a;" horiz-adv-x="419" 
d="M344 1577h102l230 260h-127zM70 0l108 627l154 868h102l-151 -868l-111 -627h-102z" />
    <glyph glyph-name="Lcommaaccent" unicode="&#x13b;" horiz-adv-x="1009" 
d="M215 102h676l-19 -102h-784l252 1434h109zM342 -492l82 349h104l-112 -349h-74z" />
    <glyph glyph-name="lcommaaccent" unicode="&#x13c;" horiz-adv-x="419" 
d="M70 0l108 627l154 868h102l-151 -868l-111 -627h-102zM37 -492l113 349h-105l-82 -349h74z" />
    <glyph glyph-name="Lcaron" unicode="&#x13d;" horiz-adv-x="1009" 
d="M215 102h676l-19 -102h-784l252 1434h109zM831 1434l-110 -349h-74l82 349h102z" />
    <glyph glyph-name="lcaron" unicode="&#x13e;" horiz-adv-x="505" 
d="M70 0l108 627l154 868h102l-151 -868l-111 -627h-102zM582 1147l110 348h-102l-82 -348h74z" />
    <glyph glyph-name="Lslash" unicode="&#x141;" horiz-adv-x="1058" 
d="M262 102h676l-18 -102h-785l92 518l-151 -88l18 109l152 90l141 805h109l-129 -736l405 240l-18 -109l-406 -239z" />
    <glyph glyph-name="lslash" unicode="&#x142;" horiz-adv-x="491" 
d="M524 928l-18 -107l-172 -106l-17 -88l-110 -627h-103l109 627l2 16l-168 -102l19 106l170 105l131 743h102l-117 -674z" />
    <glyph glyph-name="Nacute" unicode="&#x143;" horiz-adv-x="1406" 
d="M805 1577h102l230 260h-127zM88 0l252 1434h86l639 -1233l217 1233h109l-252 -1434h-88l-637 1233l-217 -1233h-109z" />
    <glyph glyph-name="nacute" unicode="&#x144;" horiz-adv-x="1155" 
d="M932 1427l-230 -260h-102l205 260h127zM713 1047q182 0 273.5 -112t60.5 -298l-113 -637h-105l113 637q25 144 -38.5 227.5t-209.5 83.5q-158 0 -276 -104.5t-152 -302.5v2l-96 -543h-102l180 1024h102l-31 -178q145 201 394 201z" />
    <glyph glyph-name="Ncommaaccent" unicode="&#x145;" horiz-adv-x="1406" 
d="M88 0l252 1434h86l639 -1233l217 1233h109l-252 -1434h-88l-637 1233l-217 -1233h-109zM530 -492l113 349h-104l-82 -349h73z" />
    <glyph glyph-name="ncommaaccent" unicode="&#x146;" horiz-adv-x="1155" 
d="M713 1047q182 0 273.5 -112t60.5 -298l-113 -637h-105l113 637q25 144 -38.5 227.5t-209.5 83.5q-158 0 -276 -104.5t-152 -302.5v2l-96 -543h-102l180 1024h102l-31 -178q145 201 394 201zM371 -492l82 349h104l-113 -349h-73z" />
    <glyph glyph-name="Ncaron" unicode="&#x147;" horiz-adv-x="1406" 
d="M829 1577l-176 260h111l131 -192l197 192h125l-267 -260h-121zM1282 1434h109l-252 -1434h-88l-637 1233l-217 -1233h-109l252 1434h86l639 -1233z" />
    <glyph glyph-name="ncaron" unicode="&#x148;" horiz-adv-x="1155" 
d="M625 1167l-176 260h110l131 -192l197 192h125l-267 -260h-120zM713 1047q182 0 273.5 -112t60.5 -298l-113 -637h-105l113 637q25 144 -38.5 227.5t-209.5 83.5q-158 0 -276 -104.5t-152 -302.5v2l-96 -543h-102l180 1024h102l-31 -178q145 201 394 201z" />
    <glyph glyph-name="Eng" unicode="&#x14a;" horiz-adv-x="1406" 
d="M1282 1434h109l-252 -1434q-17 -97 -50 -169.5t-76.5 -118t-103 -73.5t-122 -39t-140.5 -10l19 105q157 -2 245 66.5t119 238.5l4 31l-620 1202l-217 -1233h-109l252 1434h86l639 -1233z" />
    <glyph glyph-name="eng" unicode="&#x14b;" horiz-adv-x="1155" 
d="M713 1047q182 0 273.5 -112t60.5 -298l-134 -754q-30 -164 -132 -247t-263 -68l17 98q118 -12 185 41t89 176l133 754q25 144 -38.5 227.5t-209.5 83.5q-158 0 -276 -104.5t-152 -302.5v2l-96 -543h-102l180 1024h102l-31 -178q145 201 394 201z" />
    <glyph glyph-name="Omacron" unicode="&#x14c;" horiz-adv-x="1677" 
d="M770 1612l16 90h519l-15 -90h-520zM748 -23q-202 0 -356.5 103t-224 277t-34.5 376q36 202 160.5 367.5t310 260.5t393.5 95q202 0 357 -104.5t225 -280t35 -377.5q-37 -202 -161.5 -366.5t-310 -257.5t-394.5 -93zM766 82q179 0 338 83.5t264 227.5t135 318
q30 173 -27 320t-188.5 234t-308.5 87t-336 -85t-264.5 -230.5t-134.5 -319.5q-31 -174 26 -319.5t188 -230.5t308 -85z" />
    <glyph glyph-name="omacron" unicode="&#x14d;" horiz-adv-x="1253" 
d="M483 1202l17 90h518l-14 -90h-521zM541 -23q-104 0 -195 39t-155.5 108t-93 173t-7.5 225t84 222t150 166.5t190.5 101t208.5 35.5q103 0 192.5 -39.5t152 -108.5t89.5 -172.5t6 -222.5q-28 -164 -125.5 -286t-226.5 -181.5t-270 -59.5zM551 76q115 0 221.5 51.5
t185.5 153.5t103 235q17 98 -4.5 180.5t-71.5 136.5t-122.5 84.5t-157.5 30.5q-114 -1 -220.5 -52t-186 -152t-103.5 -232q-17 -99 4 -182.5t71.5 -138t123 -85t157.5 -30.5z" />
    <glyph glyph-name="Ohungarumlaut" unicode="&#x150;" horiz-adv-x="1677" 
d="M774 1577h107l196 266h-119zM1065 1577h109l215 266h-119zM748 -23q-202 0 -356.5 103t-224 277t-34.5 376q36 202 160.5 367.5t310 260.5t393.5 95q202 0 357 -104.5t225 -280t35 -377.5q-37 -202 -161.5 -366.5t-310 -257.5t-394.5 -93zM766 82q179 0 338 83.5
t264 227.5t135 318q30 173 -27 320t-188.5 234t-308.5 87t-336 -85t-264.5 -230.5t-134.5 -319.5q-31 -174 26 -319.5t188 -230.5t308 -85z" />
    <glyph glyph-name="ohungarumlaut" unicode="&#x151;" horiz-adv-x="1253" 
d="M487 1167h107l197 267h-119zM778 1167h109l215 267h-119zM541 -23q-104 0 -195 39t-155.5 108t-93 173t-7.5 225t84 222t150 166.5t190.5 101t208.5 35.5q103 0 192.5 -39.5t152 -108.5t89.5 -172.5t6 -222.5q-28 -164 -125.5 -286t-226.5 -181.5t-270 -59.5zM551 76
q115 0 221.5 51.5t185.5 153.5t103 235q17 98 -4.5 180.5t-71.5 136.5t-122.5 84.5t-157.5 30.5q-114 -1 -220.5 -52t-186 -152t-103.5 -232q-17 -99 4 -182.5t71.5 -138t123 -85t157.5 -30.5z" />
    <glyph glyph-name="OE" unicode="&#x152;" horiz-adv-x="1875" 
d="M1921 1331h-659l-99 -557h623l-19 -102h-620l-100 -570h669l-18 -102h-778l233 1323q-89 29 -188 29q-132 0 -255.5 -50t-218 -135.5t-160 -202t-87.5 -247.5q-23 -131 1 -247.5t87.5 -202t169.5 -135.5t239 -50q99 0 197 29l-18 -111q-100 -23 -197 -23
q-122 0 -228 38.5t-180.5 107t-125 162.5t-63 205t6.5 235q36 204 155.5 370.5t302 263.5t392.5 97q102 0 188 -22h768z" />
    <glyph glyph-name="oe" unicode="&#x153;" horiz-adv-x="2172" 
d="M1675 1047q109 0 197.5 -44.5t142.5 -118t75 -172t1 -204.5l-12 -49h-924q-13 -173 86.5 -278t276.5 -105q122 0 223 50t164 138l82 -53q-75 -110 -205.5 -172t-270.5 -62q-170 0 -285 87.5t-149 234.5q-83 -149 -227 -235.5t-318 -86.5q-147 0 -258 72.5t-160.5 197.5
t-23.5 273q40 228 218.5 377.5t412.5 149.5q157 0 271 -88.5t151 -231.5q79 147 220 233.5t312 86.5zM551 76q183 0 329 126.5t177 309.5q34 183 -67.5 309.5t-284.5 126.5q-187 0 -332 -125.5t-178 -310.5t68 -310.5t288 -125.5zM1171 559h822q18 184 -74.5 286.5
t-257.5 102.5q-176 0 -310 -107t-180 -282z" />
    <glyph glyph-name="Racute" unicode="&#x154;" horiz-adv-x="1255" 
d="M1032 1837l-229 -260h-103l205 260h127zM905 1434q111 0 199 -60.5t129 -162.5t20 -216q-24 -146 -130 -253.5t-253 -141.5l248 -600h-112l-242 588h-6h-459l-102 -588h-109l252 1434h565zM1149 1010q25 133 -52.5 227t-207.5 94h-459l-113 -641h459q130 0 239 94
t134 226z" />
    <glyph glyph-name="racute" unicode="&#x155;" horiz-adv-x="651" 
d="M741 1427l-229 -260h-102l204 260h127zM319 850q73 103 170.5 148t206.5 40l-18 -98q-68 0 -132 -21.5t-120 -65t-97.5 -116.5t-58.5 -168l-100 -569h-102l180 1024h102z" />
    <glyph glyph-name="Rcommaaccent" unicode="&#x156;" horiz-adv-x="1255" 
d="M905 1434q111 0 199 -60.5t129 -162.5t20 -216q-24 -146 -130 -253.5t-253 -141.5l248 -600h-112l-242 588h-6h-459l-102 -588h-109l252 1434h565zM1149 1010q25 133 -52.5 227t-207.5 94h-459l-113 -641h459q130 0 239 94t134 226zM451 -492l81 349h105l-113 -349h-73z
" />
    <glyph glyph-name="rcommaaccent" unicode="&#x157;" horiz-adv-x="651" 
d="M319 850q73 103 170.5 148t206.5 40l-18 -98q-68 0 -132 -21.5t-120 -65t-97.5 -116.5t-58.5 -168l-100 -569h-102l180 1024h102zM-39 -492l82 349h104l-112 -349h-74z" />
    <glyph glyph-name="Rcaron" unicode="&#x158;" horiz-adv-x="1255" 
d="M725 1577l-176 260h110l132 -192l196 192h125l-266 -260h-121zM905 1434q111 0 199 -60.5t129 -162.5t20 -216q-24 -146 -130 -253.5t-253 -141.5l248 -600h-112l-242 588h-6h-459l-102 -588h-109l252 1434h565zM1149 1010q25 133 -52.5 227t-207.5 94h-459l-113 -641
h459q130 0 239 94t134 226z" />
    <glyph glyph-name="rcaron" unicode="&#x159;" horiz-adv-x="651" 
d="M434 1167l-176 260h111l131 -192l196 192h125l-266 -260h-121zM319 850q73 103 170.5 148t206.5 40l-18 -98q-68 0 -132 -21.5t-120 -65t-97.5 -116.5t-58.5 -168l-100 -569h-102l180 1024h102z" />
    <glyph glyph-name="Sacute" unicode="&#x15a;" horiz-adv-x="1173" 
d="M684 1577h102l230 260h-127zM532 -23q-195 0 -322.5 89.5t-162.5 248.5l96 50q26 -132 126 -207.5t268 -75.5q166 0 273 71t132 191q12 57 -3 105t-40 78.5t-81 62t-93 47t-109 41.5q-87 30 -146 58t-126 78.5t-93 125t-7 170.5q17 84 64 151t112.5 109t141.5 64t157 22
q174 0 282 -83.5t150 -215.5l-96 -49q-75 244 -342 244q-132 0 -233.5 -68t-125.5 -184q-12 -57 2 -104.5t41.5 -79.5t78.5 -61.5t94 -47t107 -41.5h1q74 -27 117.5 -45.5t107 -57.5t95.5 -80t50 -106.5t3 -144.5q-34 -173 -176.5 -264t-342.5 -91z" />
    <glyph glyph-name="sacute" unicode="&#x15b;" horiz-adv-x="966" 
d="M514 1167h102l230 260h-127zM418 -23q-148 0 -239.5 63t-125.5 171l92 47q22 -85 95 -133.5t186 -48.5q112 0 191 47.5t96 134.5q10 57 -17.5 97t-78.5 63.5t-114 43.5t-125.5 43.5t-111.5 55t-73.5 87.5t-10.5 132q20 118 123.5 192.5t249.5 74.5q121 0 209.5 -54
t126.5 -151l-90 -47q-25 75 -94 114t-156 39q-95 0 -171.5 -46.5t-92.5 -135.5q-10 -55 17.5 -94t78 -62.5t113 -43t124.5 -43.5t111 -56.5t73.5 -89.5t10.5 -135q-22 -124 -129 -194.5t-268 -70.5z" />
    <glyph glyph-name="Scedilla" unicode="&#x15e;" horiz-adv-x="1173" 
d="M678 766q74 -27 117.5 -45.5t107 -57.5t95.5 -80t50 -106.5t3 -144.5q-34 -169 -171 -260.5t-331 -94.5l-17 -92q78 -9 124 -53t36 -108q-34 -190 -428 -156l17 84q147 -15 228.5 7t90.5 73q8 44 -37.5 67.5t-134.5 20.5l29 162q-164 17 -271 104t-139 229l96 50
q26 -132 126 -207.5t268 -75.5q166 0 273 71t132 191q12 57 -3 105t-40 78.5t-81 62t-93 47t-109 41.5q-87 30 -146 58t-126 78.5t-93 125t-7 170.5q17 84 64 151t112.5 109t141.5 64t157 22q174 0 282 -83.5t150 -215.5l-96 -49q-75 244 -342 244q-132 0 -233.5 -68
t-125.5 -184q-12 -57 2 -104.5t41.5 -79.5t78.5 -61.5t94 -47t107 -41.5h1z" />
    <glyph glyph-name="scedilla" unicode="&#x15f;" horiz-adv-x="966" 
d="M287 766q-10 -55 17.5 -94t78 -62.5t113 -43t124.5 -43.5t111 -56.5t73.5 -89.5t10.5 -135q-20 -119 -120.5 -189t-252.5 -76l-16 -92q78 -9 124 -53t36 -108q-34 -190 -428 -156l16 84q147 -15 229 7t91 73q8 44 -37.5 67.5t-134.5 20.5l28 162q-118 13 -192 73.5
t-105 155.5l92 47q22 -85 95 -133.5t186 -48.5q112 0 191 47.5t96 134.5q10 57 -17.5 97t-78.5 63.5t-114 43.5t-125.5 43.5t-111.5 55t-73.5 87.5t-10.5 132q20 118 123.5 192.5t249.5 74.5q121 0 209.5 -54t126.5 -151l-90 -47q-25 75 -94 114t-156 39q-95 0 -171.5 -46.5
t-92.5 -135.5z" />
    <glyph glyph-name="Scaron" unicode="&#x160;" horiz-adv-x="1173" 
d="M709 1577l-177 260h111l131 -192l197 192h125l-267 -260h-120zM678 766q74 -27 117.5 -45.5t107 -57.5t95.5 -80t50 -106.5t3 -144.5q-34 -173 -176.5 -264t-342.5 -91q-195 0 -322.5 89.5t-162.5 248.5l96 50q26 -132 126 -207.5t268 -75.5q166 0 273 71t132 191
q12 57 -3 105t-40 78.5t-81 62t-93 47t-109 41.5q-87 30 -146 58t-126 78.5t-93 125t-7 170.5q17 84 64 151t112.5 109t141.5 64t157 22q174 0 282 -83.5t150 -215.5l-96 -49q-75 244 -342 244q-132 0 -233.5 -68t-125.5 -184q-12 -57 2 -104.5t41.5 -79.5t78.5 -61.5
t94 -47t107 -41.5h1z" />
    <glyph glyph-name="scaron" unicode="&#x161;" horiz-adv-x="966" 
d="M539 1167l-177 260h111l131 -192l197 192h125l-267 -260h-120zM551 948q-95 0 -171.5 -46.5t-92.5 -135.5q-10 -55 17.5 -94t78 -62.5t113 -43t124.5 -43.5t111 -56.5t73.5 -89.5t10.5 -135q-22 -124 -129 -194.5t-268 -70.5q-148 0 -239.5 63t-125.5 171l92 47
q22 -85 95 -133.5t186 -48.5q112 0 191 47.5t96 134.5q10 57 -17.5 97t-78.5 63.5t-114 43.5t-125.5 43.5t-111.5 55t-73.5 87.5t-10.5 132q20 118 123.5 192.5t249.5 74.5q121 0 209.5 -54t126.5 -151l-90 -47q-25 75 -94 114t-156 39z" />
    <glyph glyph-name="uni0162" unicode="&#x162;" horiz-adv-x="1105" 
d="M1221 1434l-19 -103h-450l-234 -1331h-110l233 1331h-448l16 103h1012zM307 -492l82 349h105l-113 -349h-74z" />
    <glyph glyph-name="uni0163" unicode="&#x163;" horiz-adv-x="772" 
d="M451 924l-119 -666q-15 -87 12 -127t94 -44t170 5l-14 -92q-206 -32 -300.5 29t-64.5 229l117 666h-225l18 100h226l45 256l108 31l-51 -287h307l-18 -100h-305zM240 -492l82 349h104l-113 -349h-73z" />
    <glyph glyph-name="Tcaron" unicode="&#x164;" horiz-adv-x="1105" 
d="M680 1577l-176 260h110l131 -192l197 192h125l-266 -260h-121zM1221 1434l-19 -103h-450l-234 -1331h-110l233 1331h-448l16 103h1012z" />
    <glyph glyph-name="tcaron" unicode="&#x165;" horiz-adv-x="772" 
d="M791 1462l-109 -321h-74l78 321h105zM518 1311l-51 -287h307l-18 -100h-305l-119 -666q-15 -87 12 -127t94 -44t170 5l-14 -92q-206 -32 -300.5 29t-64.5 229l117 666h-225l18 100h226l45 256z" />
    <glyph glyph-name="Tbar" unicode="&#x166;" horiz-adv-x="1105" 
d="M1202 1331h-450l-99 -565h312l-17 -98h-313l-117 -668h-110l116 668h-313l16 98h316l98 565h-448l16 103h1012z" />
    <glyph glyph-name="tbar" unicode="&#x167;" horiz-adv-x="772" 
d="M756 924h-305l-62 -344h205l-14 -86h-207l-41 -236q-15 -87 12 -127t94 -44t170 5l-14 -92q-206 -32 -300.5 29t-64.5 229l41 236h-141l14 86h144l59 344h-225l18 100h226l45 256l108 31l-51 -287h307z" />
    <glyph glyph-name="Umacron" unicode="&#x16a;" horiz-adv-x="1366" 
d="M610 1612l17 90h518l-15 -90h-520zM606 -23q-241 0 -366.5 140t-87.5 362l167 955h109l-168 -955q-30 -178 58.5 -287.5t285.5 -109.5q200 0 330 111.5t160 285.5l168 955h108l-168 -955q-41 -232 -202.5 -367t-393.5 -135z" />
    <glyph glyph-name="umacron" unicode="&#x16b;" horiz-adv-x="1155" 
d="M956 1292l-14 -90h-520l16 90h518zM985 1024h102l-180 -1024h-102l31 178q-145 -201 -394 -201q-182 0 -273 112t-60 298l112 637h105l-113 -637q-25 -144 38.5 -227.5t209.5 -83.5q158 0 276 104.5t152 302.5v-2z" />
    <glyph glyph-name="Uring" unicode="&#x16e;" horiz-adv-x="1366" 
d="M852 1475q-94 0 -143 58t-35 144q13 86 80.5 140.5t158.5 54.5q94 0 143.5 -58.5t37.5 -144.5q-14 -85 -81.5 -139.5t-160.5 -54.5zM862 1556q56 0 96.5 32.5t49.5 84.5q9 53 -20.5 85t-84.5 32q-54 0 -93 -31.5t-48 -85.5q-9 -52 17.5 -84.5t82.5 -32.5zM606 -23
q-241 0 -366.5 140t-87.5 362l167 955h109l-168 -955q-30 -178 58.5 -287.5t285.5 -109.5q200 0 330 111.5t160 285.5l168 955h108l-168 -955q-41 -232 -202.5 -367t-393.5 -135z" />
    <glyph glyph-name="uring" unicode="&#x16f;" horiz-adv-x="1155" 
d="M676 1133q-94 0 -143 58t-35 144q13 86 80.5 140.5t158.5 54.5q94 0 143.5 -58.5t37.5 -144.5q-14 -85 -81.5 -139.5t-160.5 -54.5zM586 1331q-9 -52 17.5 -84.5t82.5 -32.5t96 32.5t49 84.5q9 53 -20 85t-84 32q-54 0 -93 -31.5t-48 -85.5zM985 1024h102l-180 -1024
h-102l31 178q-145 -201 -394 -201q-182 0 -273 112t-60 298l112 637h105l-113 -637q-25 -144 38.5 -227.5t209.5 -83.5q158 0 276 104.5t152 302.5v-2z" />
    <glyph glyph-name="Uhungarumlaut" unicode="&#x170;" horiz-adv-x="1366" 
d="M614 1577h107l197 266h-119zM905 1577h109l215 266h-119zM606 -23q-241 0 -366.5 140t-87.5 362l167 955h109l-168 -955q-30 -178 58.5 -287.5t285.5 -109.5q200 0 330 111.5t160 285.5l168 955h108l-168 -955q-41 -232 -202.5 -367t-393.5 -135z" />
    <glyph glyph-name="uhungarumlaut" unicode="&#x171;" horiz-adv-x="1155" 
d="M729 1434l-197 -267h-106l184 267h119zM825 1167h-108l205 267h118zM985 1024h102l-180 -1024h-102l31 178q-145 -201 -394 -201q-182 0 -273 112t-60 298l112 637h105l-113 -637q-25 -144 38.5 -227.5t209.5 -83.5q158 0 276 104.5t152 302.5v-2z" />
    <glyph glyph-name="Uogonek" unicode="&#x172;" horiz-adv-x="1366" 
d="M1262 1434h108l-168 -955q-50 -277 -262 -409q-163 -119 -234 -192.5t-81 -139.5q-12 -82 77 -82q41 0 82 16l-14 -86q-42 -18 -102 -18q-83 0 -121 44.5t-27 113.5q22 124 195 260q-53 -9 -109 -9q-241 0 -366.5 140t-87.5 362l167 955h109l-168 -955
q-30 -178 58.5 -287.5t285.5 -109.5q200 0 330 111.5t160 285.5z" />
    <glyph glyph-name="uogonek" unicode="&#x173;" horiz-adv-x="1155" 
d="M907 0q-200 -155 -217 -268q-6 -37 13 -56.5t57 -19.5q44 0 90 18l-14 -86q-53 -20 -115 -20q-74 0 -110 44t-25 112q10 61 64 132t159 164l27 158q-145 -201 -394 -201q-182 0 -273 112t-60 298l112 637h105l-113 -637q-25 -144 38.5 -227.5t209.5 -83.5
q158 0 276 104.5t152 302.5v-2l96 543h102z" />
    <glyph glyph-name="Wcircumflex" unicode="&#x174;" horiz-adv-x="2033" 
d="M1243 1772l-199 -195h-122l266 260h121l178 -260h-113zM2013 1434h115l-668 -1434h-131l-174 1292l-631 -1292h-131l-164 1434h109l145 -1293l627 1293h129l174 -1293z" />
    <glyph glyph-name="wcircumflex" unicode="&#x175;" horiz-adv-x="1576" 
d="M911 1362l-198 -195h-123l266 260h121l178 -260h-113zM1487 1024h112l-503 -1024h-113l-131 872l-438 -872h-113l-143 1024h102l117 -893l444 893h107l-2 -4l131 -889z" />
    <glyph glyph-name="Ycircumflex" unicode="&#x176;" 
d="M805 1772l-199 -195h-123l267 260h120l179 -260h-113zM1303 1434l-637 -764l-119 -670h-109l119 674l-369 760h113l320 -664l553 664h129z" />
    <glyph glyph-name="ycircumflex" unicode="&#x177;" horiz-adv-x="1044" 
d="M643 1362l-199 -195h-122l266 260h121l178 -260h-113zM991 1024h117l-639 -1118q-91 -159 -210.5 -242.5t-250.5 -73.5l17 97q191 -17 342 239l34 58l-284 1040h104l248 -922z" />
    <glyph glyph-name="Ydieresis" unicode="&#x178;" 
d="M584 1591q-31 0 -49.5 21.5t-12.5 52.5q4 32 30.5 54t57.5 22t48.5 -22t13.5 -54q-6 -31 -31.5 -52.5t-56.5 -21.5zM952 1591q-31 0 -49 21.5t-12 52.5q4 32 30.5 54t57.5 22t48.5 -22t12.5 -54q-6 -31 -31.5 -52.5t-56.5 -21.5zM1303 1434l-637 -764l-119 -670h-109
l119 674l-369 760h113l320 -664l553 664h129z" />
    <glyph glyph-name="Zacute" unicode="&#x179;" horiz-adv-x="1071" 
d="M981 1837l-229 -260h-103l205 260h127zM1145 1434l-17 -103l-987 -1229h791l-19 -102h-915l18 102l988 1229h-750l16 103h875z" />
    <glyph glyph-name="zacute" unicode="&#x17a;" horiz-adv-x="948" 
d="M850 1427l-229 -260h-103l205 260h127zM944 1024l-12 -68l-760 -856h629l-17 -100h-778l12 68l758 856h-588l19 100h737z" />
    <glyph glyph-name="Zdotaccent" unicode="&#x17b;" horiz-adv-x="1071" 
d="M733 1583q-40 0 -62.5 28t-15.5 68q6 40 38.5 68.5t72.5 28.5q41 0 64.5 -28.5t15.5 -68.5t-40 -68t-73 -28zM1145 1434l-17 -103l-987 -1229h791l-19 -102h-915l18 102l988 1229h-750l16 103h875z" />
    <glyph glyph-name="zdotaccent" unicode="&#x17c;" horiz-adv-x="948" 
d="M602 1174q-40 0 -62.5 28t-15.5 68q6 40 38.5 68t72.5 28q41 0 64.5 -28t15.5 -68t-40 -68t-73 -28zM944 1024l-12 -68l-760 -856h629l-17 -100h-778l12 68l758 856h-588l19 100h737z" />
    <glyph glyph-name="Zcaron" unicode="&#x17d;" horiz-adv-x="1071" 
d="M674 1577l-176 260h110l131 -192l197 192h125l-266 -260h-121zM1145 1434l-17 -103l-987 -1229h791l-19 -102h-915l18 102l988 1229h-750l16 103h875z" />
    <glyph glyph-name="zcaron" unicode="&#x17e;" horiz-adv-x="948" 
d="M543 1167l-176 260h110l131 -192l197 192h125l-266 -260h-121zM944 1024l-12 -68l-760 -856h629l-17 -100h-778l12 68l758 856h-588l19 100h737z" />
    <glyph glyph-name="florin" unicode="&#x192;" horiz-adv-x="892" 
d="M625 1182q60 174 176.5 239t255.5 19l-17 -103q-100 44 -184.5 0t-124.5 -157l-141 -412h246l-19 -100h-262l-285 -826q-60 -173 -177.5 -238.5t-254.5 -19.5l17 103q100 -44 184.5 0t124.5 157l285 824h-234l18 100h248z" />
    <glyph glyph-name="Scommaaccent" unicode="&#x218;" horiz-adv-x="1173" 
d="M532 -23q-195 0 -322.5 89.5t-162.5 248.5l96 50q26 -132 126 -207.5t268 -75.5q166 0 273 71t132 191q12 57 -3 105t-40 78.5t-81 62t-93 47t-109 41.5q-87 30 -146 58t-126 78.5t-93 125t-7 170.5q17 84 64 151t112.5 109t141.5 64t157 22q174 0 282 -83.5t150 -215.5
l-96 -49q-75 244 -342 244q-132 0 -233.5 -68t-125.5 -184q-12 -57 2 -104.5t41.5 -79.5t78.5 -61.5t94 -47t107 -41.5h1q74 -27 117.5 -45.5t107 -57.5t95.5 -80t50 -106.5t3 -144.5q-34 -173 -176.5 -264t-342.5 -91zM446 -492l113 349h-104l-82 -349h73z" />
    <glyph glyph-name="scommaaccent" unicode="&#x219;" horiz-adv-x="966" 
d="M418 -23q-148 0 -239.5 63t-125.5 171l92 47q22 -85 95 -133.5t186 -48.5q112 0 191 47.5t96 134.5q10 57 -17.5 97t-78.5 63.5t-114 43.5t-125.5 43.5t-111.5 55t-73.5 87.5t-10.5 132q20 118 123.5 192.5t249.5 74.5q121 0 209.5 -54t126.5 -151l-90 -47
q-25 75 -94 114t-156 39q-95 0 -171.5 -46.5t-92.5 -135.5q-10 -55 17.5 -94t78 -62.5t113 -43t124.5 -43.5t111 -56.5t73.5 -89.5t10.5 -135q-22 -124 -129 -194.5t-268 -70.5zM340 -492l113 349h-105l-82 -349h74z" />
    <glyph glyph-name="uni021A" unicode="&#x21a;" horiz-adv-x="1105" 
d="M1221 1434l-19 -103h-450l-234 -1331h-110l233 1331h-448l16 103h1012zM307 -492l82 349h105l-113 -349h-74z" />
    <glyph glyph-name="uni021B" unicode="&#x21b;" horiz-adv-x="772" 
d="M451 924l-119 -666q-15 -87 12 -127t94 -44t170 5l-14 -92q-206 -32 -300.5 29t-64.5 229l117 666h-225l18 100h226l45 256l108 31l-51 -287h307l-18 -100h-305zM240 -492l82 349h104l-113 -349h-73z" />
    <glyph glyph-name="circumflex" unicode="&#x2c6;" horiz-adv-x="645" 
d="M721 1167h-113l-131 195l-198 -195h-123l266 260h121z" />
    <glyph glyph-name="caron" unicode="&#x2c7;" horiz-adv-x="645" 
d="M641 1427h125l-266 -260h-121l-176 260h110l131 -192z" />
    <glyph glyph-name="breve" unicode="&#x2d8;" horiz-adv-x="628" 
d="M430 1157q-120 0 -186 68t-45 182h98q-26 -160 145 -160q82 0 136 42t67 118h98q-20 -118 -102 -184t-211 -66z" />
    <glyph glyph-name="dotaccent" unicode="&#x2d9;" horiz-adv-x="219" 
d="M246 1174q-40 0 -62.5 28t-15.5 68q6 40 38.5 68t72.5 28q41 0 64 -28t15 -68t-39.5 -68t-72.5 -28z" />
    <glyph glyph-name="ring" unicode="&#x2da;" horiz-adv-x="501" 
d="M365 1133q-95 0 -144 58.5t-35 143.5q13 86 81 140.5t159 54.5q94 0 143 -58.5t37 -144.5q-14 -85 -81 -139.5t-160 -54.5zM375 1214q56 0 96 32.5t49 84.5q9 53 -20 85t-84 32q-54 0 -93.5 -31.5t-48.5 -85.5q-9 -52 18 -84.5t83 -32.5z" />
    <glyph glyph-name="ogonek" unicode="&#x2db;" horiz-adv-x="356" 
d="M41 -432q-78 0 -113 48t-24 116q21 129 209 268h112q-200 -149 -217 -260q-6 -37 13 -60.5t57 -23.5q44 0 90 18l-16 -88q-40 -18 -111 -18z" />
    <glyph glyph-name="tilde" unicode="&#x2dc;" horiz-adv-x="638" 
d="M162 1194q13 86 46.5 140.5t76.5 71t92 1.5t94 -61q50 -51 87 -64.5t65.5 15.5t42.5 106h90q-19 -112 -70 -168.5t-115 -50.5t-125 67q-73 79 -123 68t-71 -125h-90z" />
    <glyph glyph-name="hungarumlaut" unicode="&#x2dd;" horiz-adv-x="649" 
d="M156 1167h106l197 267h-119zM446 1167h109l215 267h-119z" />
    <glyph glyph-name="gravecomb" unicode="&#x300;" horiz-adv-x="0" 
d="M76 1167l-119 260h-123l143 -260h99z" />
    <glyph glyph-name="acutecomb" unicode="&#x301;" horiz-adv-x="0" 
d="M-211 1167h102l230 260h-127z" />
    <glyph glyph-name="uni0302" unicode="&#x302;" horiz-adv-x="0" 
d="M76 1167h-113l-131 195l-199 -195h-122l266 260h121z" />
    <glyph glyph-name="tildecomb" unicode="&#x303;" horiz-adv-x="0" 
d="M-477 1194q13 86 46.5 140.5t76.5 71t92 1.5t94 -61q50 -51 87 -64.5t65.5 15.5t42.5 106h90q-19 -112 -70 -168.5t-115 -50.5t-125 67q-73 79 -123 68t-71 -125h-90z" />
    <glyph glyph-name="uni0304" unicode="&#x304;" horiz-adv-x="0" 
d="M-438 1202l16 90h518l-14 -90h-520z" />
    <glyph glyph-name="uni0306" unicode="&#x306;" horiz-adv-x="0" 
d="M-211 1157q-120 0 -186 68t-45 182h98q-26 -160 145 -160q82 0 136 42t67 118h98q-20 -118 -102 -184t-211 -66z" />
    <glyph glyph-name="uni0307" unicode="&#x307;" horiz-adv-x="0" 
d="M-20 1174q-40 0 -62.5 28t-15.5 68q6 40 38 68t72 28q41 0 64.5 -28t15.5 -68t-39.5 -68t-72.5 -28z" />
    <glyph glyph-name="uni0308" unicode="&#x308;" horiz-adv-x="0" 
d="M-365 1182q-31 0 -49 21t-12 52q4 32 30.5 54t57.5 22t48.5 -22t13.5 -54q-6 -31 -32 -52t-57 -21zM4 1182q-31 0 -49 21t-12 52q4 32 30.5 54t57.5 22t48.5 -22t12.5 -54q-6 -31 -31.5 -52t-56.5 -21z" />
    <glyph glyph-name="uni030A" unicode="&#x30a;" horiz-adv-x="0" 
d="M-137 1133q-94 0 -143 58t-35 144q13 86 80.5 140.5t158.5 54.5q94 0 143 -58.5t37 -144.5q-14 -85 -81 -139.5t-160 -54.5zM-127 1214q56 0 96 32.5t49 84.5q9 53 -20 85t-84 32q-54 0 -93 -31.5t-48 -85.5q-9 -52 17.5 -84.5t82.5 -32.5z" />
    <glyph glyph-name="uni030B" unicode="&#x30b;" horiz-adv-x="0" 
d="M-487 1167h106l197 267h-119zM-197 1167h109l215 267h-119z" />
    <glyph glyph-name="uni030C" unicode="&#x30c;" horiz-adv-x="0" 
d="M-4 1427h125l-266 -260h-121l-176 260h110l131 -192z" />
    <glyph glyph-name="uni0312" unicode="&#x312;" horiz-adv-x="0" 
d="M141 1966l-112 -348h104l82 348h-74z" />
    <glyph glyph-name="uni0326" unicode="&#x326;" horiz-adv-x="0" 
d="M-268 -492l112 349h-104l-82 -349h74z" />
    <glyph glyph-name="uni0327" unicode="&#x327;" horiz-adv-x="0" 
d="M-338 -115q78 -9 124 -53t36 -108q-34 -190 -428 -156l16 84q147 -15 229 7t91 73q8 44 -37.5 67.5t-134.5 20.5l32 180h93z" />
    <glyph glyph-name="uni0328" unicode="&#x328;" horiz-adv-x="0" 
d="M-315 -432q-78 0 -113.5 48.5t-24.5 115.5q21 129 209 268h113q-200 -149 -217 -260q-6 -37 12.5 -60.5t56.5 -23.5q45 0 91 18l-17 -88q-40 -18 -110 -18z" />
    <glyph glyph-name="uni0394" unicode="&#x394;" horiz-adv-x="1282" 
d="M860 1434l305 -1434h-1228l808 1434h115zM117 102h917l-250 1198z" />
    <glyph glyph-name="uni03A9" unicode="&#x3a9;" horiz-adv-x="1675" 
d="M1614 702q-35 -195 -158.5 -353.5t-300.5 -246.5h328l-19 -102h-557l19 102q215 53 377.5 223.5t201.5 391.5q29 174 -28 319.5t-187 230.5t-305 85t-335.5 -85t-268.5 -230.5t-137 -319.5q-40 -221 61 -391.5t299 -223.5l-18 -102h-555l18 102h334q-148 92 -216.5 260.5
t-33.5 368.5q36 202 161 368t312.5 261.5t397.5 95.5q148 0 274.5 -60.5t209 -162t117.5 -241t9 -290.5z" />
    <glyph glyph-name="pi" unicode="&#x3c0;" horiz-adv-x="1331" 
d="M1354 1024l-19 -100h-170l-161 -924h-105l162 924h-639l-162 -924h-104l161 924h-176l17 100h1196z" />
    <glyph glyph-name="uni0401" unicode="&#x401;" horiz-adv-x="1091" 
d="M586 1591q-31 0 -49.5 21.5t-12.5 52.5q4 32 30.5 54t57.5 22t48.5 -22t13.5 -54q-6 -31 -31.5 -52.5t-56.5 -21.5zM954 1591q-31 0 -49 21.5t-12 52.5q4 32 30.5 54t57.5 22t48.5 -22t12.5 -54q-6 -31 -31.5 -52.5t-56.5 -21.5zM1139 1331h-709l-98 -557h657l-18 -102
h-656l-100 -570h717l-19 -102h-825l252 1434h815z" />
    <glyph glyph-name="uni0402" unicode="&#x402;" horiz-adv-x="1417" 
d="M977 965q176 0 269 -96.5t63 -280.5l-52 -285q-62 -346 -395 -317l17 100q118 -13 183 39.5t87 177.5l49 285q49 278 -229 278q-168 0 -357 -92l-135 -774h-110l233 1331h-407l16 103h997l-16 -103h-479l-78 -448q182 82 344 82z" />
    <glyph glyph-name="uni0403" unicode="&#x403;" horiz-adv-x="1009" 
d="M999 1835l-229 -260h-102l204 260h127zM1124 1434l-16 -103h-678l-233 -1331h-109l234 1331l18 103h784z" />
    <glyph glyph-name="uni0404" unicode="&#x404;" horiz-adv-x="1538" 
d="M977 1352q-130 0 -251 -45.5t-215 -124t-162 -185.5t-99 -229h813l-19 -102h-811q-16 -164 43 -297t185 -210t297 -77q173 0 325.5 81.5t251.5 223.5l92 -57q-115 -162 -294.5 -257.5t-384.5 -95.5q-159 0 -288.5 60.5t-209.5 162.5t-112 240.5t-5 290.5q36 205 159 371
t304 260t383 94q204 0 355 -93t225 -253l-97 -51q-64 136 -185 214.5t-300 78.5z" />
    <glyph glyph-name="uni0405" unicode="&#x405;" horiz-adv-x="1173" 
d="M532 -23q-195 0 -322.5 89.5t-162.5 248.5l96 50q26 -132 126 -207.5t268 -75.5q166 0 273 71t132 191q12 57 -3 105t-40 78.5t-81 62t-93 47t-109 41.5q-87 30 -146 58t-126 78.5t-93 125t-7 170.5q17 84 64 151t112.5 109t141.5 64t157 22q174 0 282 -83.5t150 -215.5
l-96 -49q-75 244 -342 244q-132 0 -233.5 -68t-125.5 -184q-12 -57 2 -104.5t41.5 -79.5t78.5 -61.5t94 -47t107 -41.5h1q74 -27 117.5 -45.5t107 -57.5t95.5 -80t50 -106.5t3 -144.5q-34 -173 -176.5 -264t-342.5 -91z" />
    <glyph glyph-name="uni0406" unicode="&#x406;" horiz-adv-x="464" 
d="M340 1434h109l-252 -1434h-109z" />
    <glyph glyph-name="uni0407" unicode="&#x407;" horiz-adv-x="464" 
d="M236 1591q-31 0 -49.5 21.5t-12.5 52.5q4 32 30.5 54t57.5 22t48.5 -22t13.5 -54q-6 -31 -31.5 -52.5t-56.5 -21.5zM604 1591q-31 0 -49 21.5t-12 52.5q4 32 30.5 54t57.5 22t48.5 -22t12.5 -54q-6 -31 -31.5 -52.5t-56.5 -21.5zM340 1434h109l-252 -1434h-109z" />
    <glyph glyph-name="uni0408" unicode="&#x408;" horiz-adv-x="1132" 
d="M438 -23q-154 0 -258.5 63t-140.5 183l96 53q55 -194 309 -194q157 0 266 80.5t136 230.5l182 1041h109l-183 -1043q-24 -139 -103.5 -234.5t-184 -137.5t-228.5 -42z" />
    <glyph glyph-name="uni0409" unicode="&#x409;" horiz-adv-x="2039" 
d="M1579 805q113 0 200.5 -55t128.5 -150.5t21 -208.5q-20 -114 -91.5 -204t-177 -138.5t-224.5 -48.5h-451l236 1331h-621l-129 -725q-32 -180 -80 -302.5t-115 -192t-146.5 -96t-182.5 -17.5l18 96q72 -8 130 13.5t110 79t92 162.5t68 259l143 826h838l-111 -629h344z
M1821 403q23 130 -53 214.5t-207 84.5h-344l-105 -600h342q131 0 237.5 85.5t129.5 215.5z" />
    <glyph glyph-name="uni040A" unicode="&#x40a;" horiz-adv-x="2017" 
d="M1554 805q173 0 278 -121t75 -293t-171.5 -281.5t-324.5 -109.5h-450l122 702h-764l-122 -702h-109l252 1434h109l-111 -629h764l110 629h111l-111 -629h342zM1796 403q23 130 -53 214.5t-207 84.5h-342l-104 -600h340q132 0 237.5 85t128.5 216z" />
    <glyph glyph-name="uni040B" unicode="&#x40b;" horiz-adv-x="1431" 
d="M977 965q176 0 269 -96.5t63 -280.5l-105 -588h-108l102 588q49 278 -229 278q-168 0 -357 -92l-135 -774h-110l233 1331h-407l16 103h997l-16 -103h-479l-78 -448q182 82 344 82z" />
    <glyph glyph-name="uni040C" unicode="&#x40c;" horiz-adv-x="1169" 
d="M1020 1835l-229 -260h-103l205 260h127zM1294 1434l-850 -707l615 -727h-131l-606 715l-125 -715h-109l252 1434h109l-117 -668l815 668h147z" />
    <glyph glyph-name="uni040E" unicode="&#x40e;" horiz-adv-x="1159" 
d="M1061 1700l-14 -90h-521l17 90h518zM1182 1434h112l-659 -1119q-104 -179 -221.5 -252.5t-270.5 -62.5l17 96q114 -9 200.5 46t163.5 184l37 61l-332 1047h107l295 -930z" />
    <glyph glyph-name="uni040F" unicode="&#x40f;" horiz-adv-x="1378" 
d="M1253 1434h111l-252 -1434h-459l-49 -274h-108l47 274h-455l252 1434h109l-234 -1332h805z" />
    <glyph glyph-name="uni0410" unicode="&#x410;" horiz-adv-x="1288" 
d="M1057 0l-74 365h-719l-205 -365h-118l809 1434h114l303 -1434h-110zM322 467h639l-170 833z" />
    <glyph glyph-name="uni0411" unicode="&#x411;" horiz-adv-x="1200" 
d="M1149 1331h-719l-84 -485h410q110 0 198 -60.5t129.5 -162t20.5 -215.5q-31 -174 -173.5 -291t-324.5 -117h-518l252 1434h825zM737 743h-409l-113 -641h410q131 0 240 94.5t132 227.5q26 136 -51 227.5t-209 91.5z" />
    <glyph glyph-name="uni0412" unicode="&#x412;" horiz-adv-x="1275" 
d="M1221 1049q-17 -101 -80.5 -183t-157.5 -127q100 -42 150.5 -138.5t31.5 -217.5q-26 -159 -154.5 -271t-308.5 -112h-614l252 1434h543q164 0 263.5 -113.5t74.5 -271.5zM797 782q110 0 202.5 80.5t112.5 194.5q20 115 -47 194.5t-186 79.5h-449l-96 -549h463zM1057 391
q20 120 -47.5 204.5t-184.5 84.5h-510l-100 -578h498q127 0 225 84.5t119 204.5z" />
    <glyph glyph-name="uni0413" unicode="&#x413;" horiz-adv-x="1009" 
d="M1124 1434l-16 -103h-678l-233 -1331h-109l234 1331l18 103h784z" />
    <glyph glyph-name="uni0414" unicode="&#x414;" horiz-adv-x="1413" 
d="M1112 102h152l-68 -376h-109l48 274h-1078l-49 -274h-108l65 376h115q176 169 237 514l144 818h885zM426 614q-61 -337 -211 -512h789l217 1229h-668z" />
    <glyph glyph-name="uni0415" unicode="&#x415;" horiz-adv-x="1091" 
d="M1139 1331h-709l-98 -557h657l-18 -102h-656l-100 -570h717l-19 -102h-825l252 1434h815z" />
    <glyph glyph-name="uni0416" unicode="&#x416;" horiz-adv-x="1712" 
d="M1817 1434l-760 -709l524 -725h-117l-518 713l-125 -713h-108l125 711l-746 -711h-141l784 750l-510 684h117l504 -670l119 670h108l-119 -672l723 672h140z" />
    <glyph glyph-name="uni0417" unicode="&#x417;" horiz-adv-x="1142" 
d="M1104 1059q-19 -110 -88.5 -194t-179.5 -128q114 -44 168 -141t32 -221q-32 -180 -172.5 -289t-369.5 -109q-193 0 -303.5 86.5t-147.5 229.5l100 49q31 -124 115 -193t254 -69t281 86t135 221q22 130 -53.5 211.5t-231.5 81.5h-162l17 102h114q152 0 257 83.5t126 209.5
q23 124 -54.5 201.5t-227.5 77.5q-261 0 -404 -242l-88 57q78 132 204.5 209.5t305.5 77.5q193 0 298 -114.5t75 -282.5z" />
    <glyph glyph-name="uni0418" unicode="&#x418;" horiz-adv-x="1406" 
d="M88 0l252 1434h109l-216 -1223l1061 1223h97l-252 -1434h-109l215 1223l-1063 -1223h-94z" />
    <glyph glyph-name="uni0419" unicode="&#x419;" horiz-adv-x="1406" 
d="M629 1612l16 90h518l-14 -90h-520zM88 0l252 1434h109l-216 -1223l1061 1223h97l-252 -1434h-109l215 1223l-1063 -1223h-94z" />
    <glyph glyph-name="uni041A" unicode="&#x41a;" horiz-adv-x="1169" 
d="M1294 1434l-850 -707l615 -727h-131l-606 715l-125 -715h-109l252 1434h109l-117 -668l815 668h147z" />
    <glyph glyph-name="uni041B" unicode="&#x41b;" horiz-adv-x="1429" 
d="M-53 -2l18 96q72 -8 130 13.5t110 79t92 162.5t68 259l143 826h907l-252 -1434h-110l235 1331h-688l-129 -725q-32 -182 -80.5 -305.5t-116 -192t-146.5 -94t-181 -16.5z" />
    <glyph glyph-name="uni041C" unicode="&#x41c;" horiz-adv-x="1652" 
d="M1636 1434l-252 -1434h-108l221 1264l-678 -871h-18l-379 889l-225 -1282h-109l252 1434h129l365 -854l663 854h139z" />
    <glyph glyph-name="uni041D" unicode="&#x41d;" horiz-adv-x="1406" 
d="M1282 1434h109l-252 -1434h-109l121 686h-834l-120 -686h-109l252 1434h109l-113 -646h833z" />
    <glyph glyph-name="uni041E" unicode="&#x41e;" horiz-adv-x="1677" 
d="M748 -23q-202 0 -356.5 103t-224 277t-34.5 376q36 202 160.5 367.5t310 260.5t393.5 95q202 0 357 -104.5t225 -280t35 -377.5q-37 -202 -161.5 -366.5t-310 -257.5t-394.5 -93zM766 82q179 0 338 83.5t264 227.5t135 318q30 173 -27 320t-188.5 234t-308.5 87t-336 -85
t-264.5 -230.5t-134.5 -319.5q-31 -174 26 -319.5t188 -230.5t308 -85z" />
    <glyph glyph-name="uni041F" unicode="&#x41f;" horiz-adv-x="1378" 
d="M1364 1434l-252 -1434h-111l234 1331h-805l-233 -1331h-109l252 1434h1024z" />
    <glyph glyph-name="uni0420" unicode="&#x420;" horiz-adv-x="1200" 
d="M817 1434q200 0 306 -127.5t73 -317.5q-32 -190 -181 -316t-372 -126h-350l-96 -547h-109l252 1434h477zM1090 1004q25 146 -52.5 236.5t-228.5 90.5h-379l-119 -682h344q171 0 290.5 101t144.5 254z" />
    <glyph glyph-name="uni0421" unicode="&#x421;" horiz-adv-x="1538" 
d="M748 -23q-159 0 -288.5 60.5t-209.5 162.5t-112 240.5t-5 290.5q36 205 159 371t304 260t383 94q204 0 355 -93t225 -253l-97 -51q-64 136 -185 214.5t-300 78.5q-137 0 -263.5 -50t-222.5 -136t-162 -202.5t-89 -246.5q-29 -176 25.5 -321t183.5 -229.5t309 -84.5
q173 0 325.5 81.5t251.5 223.5l92 -57q-115 -162 -294.5 -257.5t-384.5 -95.5z" />
    <glyph glyph-name="uni0422" unicode="&#x422;" horiz-adv-x="1105" 
d="M1221 1434l-19 -103h-450l-234 -1331h-110l233 1331h-448l16 103h1012z" />
    <glyph glyph-name="uni0423" unicode="&#x423;" horiz-adv-x="1159" 
d="M1182 1434h112l-659 -1119q-104 -179 -221.5 -252.5t-270.5 -62.5l17 96q114 -9 200.5 46t163.5 184l37 61l-332 1047h107l295 -930z" />
    <glyph glyph-name="uni0424" unicode="&#x424;" horiz-adv-x="1650" 
d="M1012 1272q117 -5 217.5 -31.5t180.5 -74.5t132.5 -113.5t72 -154t1.5 -191.5q-46 -254 -263 -395t-536 -152l-29 -160h-108l29 162q-148 7 -268 47.5t-203 110t-118.5 174.5t-13.5 233q30 170 142.5 292.5t279.5 185t375 69.5l29 160h108zM1507 717q37 211 -102.5 328.5
t-409.5 128.5l-161 -912q274 9 454 126t219 329zM215 717q-37 -211 101.5 -328.5t408.5 -126.5l162 909q-276 -11 -455.5 -127t-216.5 -327z" />
    <glyph glyph-name="uni0425" unicode="&#x425;" horiz-adv-x="1173" 
d="M1262 1434l-576 -703l350 -731h-112l-310 645l-528 -645h-129l610 743l-331 691h112l289 -605l496 605h129z" />
    <glyph glyph-name="uni0426" unicode="&#x426;" horiz-adv-x="1413" 
d="M1116 102h150l-66 -376h-108l47 274h-1051l252 1434h109l-234 -1332h793l233 1332h109z" />
    <glyph glyph-name="uni0427" unicode="&#x427;" horiz-adv-x="1284" 
d="M1159 1434h109l-252 -1434h-109l105 600q-192 -74 -377 -74q-120 0 -209.5 31.5t-139 86.5t-67.5 127t-2 157l88 506h109l-88 -506q-24 -140 53 -219.5t268 -79.5q187 0 385 80z" />
    <glyph glyph-name="uni0428" unicode="&#x428;" horiz-adv-x="1959" 
d="M1835 1434h109l-252 -1434h-1604l252 1434h109l-234 -1332h639l233 1332h109l-233 -1332h639z" />
    <glyph glyph-name="uni0429" unicode="&#x429;" horiz-adv-x="2007" 
d="M1710 102h150l-68 -376h-109l50 274h-1645l252 1434h109l-234 -1332h639l233 1332h109l-233 -1332h639l233 1332h109z" />
    <glyph glyph-name="uni042A" unicode="&#x42a;" horiz-adv-x="1421" 
d="M305 0l234 1331h-394l17 103h506l-97 -547h371q92 0 170.5 -36.5t129 -97.5t72.5 -146.5t5 -178.5q-34 -191 -179.5 -309.5t-344.5 -118.5h-490zM434 102h377q146 0 258.5 96.5t138.5 245.5t-51.5 244.5t-230.5 95.5h-373z" />
    <glyph glyph-name="uni042B" unicode="&#x42b;" horiz-adv-x="1562" 
d="M88 0l252 1434h109l-97 -547h373q123 0 217.5 -61.5t137 -167t20.5 -230.5q-34 -190 -179.5 -309t-345.5 -119h-487zM1186 0l252 1434h110l-252 -1434h-110zM215 102h377q148 0 260.5 96.5t138.5 245.5q27 149 -52.5 246t-231.5 94h-371z" />
    <glyph glyph-name="uni042C" unicode="&#x42c;" horiz-adv-x="1202" 
d="M725 887q123 0 217.5 -61.5t137 -167t20.5 -230.5q-34 -190 -179.5 -309t-345.5 -119h-487l252 1434h109l-97 -547h373zM991 444q27 149 -52.5 246t-231.5 94h-373l-119 -682h377q148 0 260.5 96.5t138.5 245.5z" />
    <glyph glyph-name="uni042D" unicode="&#x42d;" horiz-adv-x="1529" 
d="M864 1456q211 0 362.5 -104t213.5 -275t28 -372q-25 -149 -99.5 -281.5t-184 -231.5t-257.5 -157t-311 -58q-206 0 -353.5 94t-211.5 257l99 53q52 -138 176.5 -218.5t298.5 -80.5q261 0 461.5 166t261.5 418h-809l18 102h809q17 166 -39.5 298.5t-180 209t-294.5 76.5
q-177 0 -330.5 -84t-249.5 -226l-90 58q112 162 294 259t388 97z" />
    <glyph glyph-name="uni042E" unicode="&#x42e;" horiz-adv-x="2146" 
d="M1466 1456q203 0 358 -104.5t224.5 -280t34.5 -377.5q-37 -202 -161.5 -366.5t-310 -257.5t-394.5 -93q-145 0 -268.5 56.5t-204.5 152t-119 226t-21 274.5h-287l-120 -686h-109l252 1434h109l-113 -646h287q46 189 168 341t299.5 239.5t375.5 87.5zM1974 711
q29 173 -28.5 320t-189 234t-308.5 87q-176 0 -335 -85t-264.5 -230.5t-135.5 -319.5q-31 -174 26.5 -319.5t188.5 -230.5t307 -85q134 0 260 49t223 133t165 200.5t91 246.5z" />
    <glyph glyph-name="uni042F" unicode="&#x42f;" horiz-adv-x="1284" 
d="M1268 1434l-252 -1434h-109l103 588h-387l-504 -588h-133l510 594q-150 26 -235.5 150.5t-57.5 281.5q32 176 174 292t330 116h561zM584 690h444l113 641h-451q-135 0 -244.5 -91t-132.5 -224q-24 -134 54.5 -230t216.5 -96z" />
    <glyph glyph-name="uni0430" unicode="&#x430;" horiz-adv-x="1323" 
d="M1153 1024h102l-180 -1024h-102l37 209q-81 -109 -203.5 -170.5t-269.5 -61.5q-106 0 -198 45t-152.5 120t-87 178.5t-7.5 214.5q28 160 119.5 278.5t213.5 176t259 57.5q145 0 260 -74.5t164 -206.5zM561 76q184 0 325.5 119t172.5 303q18 100 -5 185.5t-75.5 142.5
t-127.5 89.5t-161 32.5q-113 0 -216 -48.5t-178.5 -146.5t-98.5 -227q-21 -121 19.5 -224.5t132 -164.5t212.5 -61z" />
    <glyph glyph-name="uni0431" unicode="&#x431;" horiz-adv-x="1171" 
d="M514 -25q-103 0 -191 38.5t-147.5 106t-84.5 167t-5 215.5q23 129 52 216t84 169t142 145.5t218 122.5q49 22 113.5 48t105.5 41.5t88 38.5t77 45.5t56.5 56t40.5 75.5l80 -47q-17 -48 -48.5 -88t-65 -66.5t-89 -55t-96 -44.5t-111 -43.5t-110.5 -44.5
q-159 -67 -242.5 -144t-130.5 -204q91 107 209.5 158t238.5 51q125 0 224 -62.5t146.5 -175.5t23.5 -250q-37 -207 -197 -338t-381 -131zM526 78q173 0 302.5 106t158.5 271q29 164 -61 270t-256 106q-159 0 -299.5 -96t-180.5 -252q-31 -176 65 -290.5t271 -114.5z" />
    <glyph glyph-name="uni0432" unicode="&#x432;" horiz-adv-x="1036" 
d="M961 745q-29 -159 -170 -221q81 -30 115.5 -97t19.5 -155q-21 -123 -113 -197.5t-250 -74.5h-495l180 1024h457q135 0 206 -81t50 -198zM856 750q15 82 -29.5 128t-140.5 46h-354l-62 -355h346q99 0 163 47.5t77 133.5zM825 287q15 85 -32 133.5t-148 48.5h-393l-64 -369
h392q100 0 165 49.5t80 137.5z" />
    <glyph glyph-name="uni0433" unicode="&#x433;" horiz-adv-x="813" 
d="M889 1024l-17 -100h-540l-162 -924h-102l161 924l19 100h641z" />
    <glyph glyph-name="uni0434" unicode="&#x434;" horiz-adv-x="1208" 
d="M926 100h141l-66 -374h-104l49 274h-885l-49 -274h-104l67 374h119q71 77 114.5 171t70.5 241l90 512h718zM227 100h594l144 824h-510l-72 -412q-46 -256 -156 -412z" />
    <glyph glyph-name="uni0435" unicode="&#x435;" horiz-adv-x="1204" 
d="M700 1047q92 0 169.5 -28.5t130 -79t87.5 -118.5t42 -147.5t-7 -165.5q-7 -36 -12 -49h-924q-12 -173 88 -278t275 -105q124 0 225 50t164 138l80 -53q-74 -110 -204.5 -172t-278.5 -62q-154 0 -265 72t-158 197.5t-20 279.5q40 227 211 374t397 147zM203 559h821
q18 184 -74 286.5t-258 102.5q-176 0 -309.5 -107t-179.5 -282z" />
    <glyph glyph-name="uni0436" unicode="&#x436;" horiz-adv-x="1353" 
d="M1378 1024l-549 -502l388 -522h-115l-373 506l-90 -506h-104l88 504l-539 -504h-127l580 543l-379 481h118l357 -461l82 461h104l-82 -469l514 469h127z" />
    <glyph glyph-name="uni0437" unicode="&#x437;" horiz-adv-x="913" 
d="M836 748q-14 -79 -60 -137.5t-123 -88.5q83 -34 122 -104.5t24 -157.5q-21 -124 -131 -203.5t-291 -79.5q-163 0 -252 66.5t-109 175.5l90 49q14 -90 83.5 -141t199.5 -51q129 0 211 57t96 148q17 84 -35.5 136t-156.5 52h-139l18 100h100q101 0 167.5 51t80.5 138
q15 83 -42.5 136.5t-170.5 53.5q-101 0 -179 -43t-122 -125l-82 51q62 100 161 158t232 58q162 0 245.5 -89.5t62.5 -209.5z" />
    <glyph glyph-name="uni0438" unicode="&#x438;" horiz-adv-x="1161" 
d="M1004 1024h90l-181 -1024h-104l147 838l-798 -838h-90l180 1024h102l-147 -838z" />
    <glyph glyph-name="uni0439" unicode="&#x439;" horiz-adv-x="1161" 
d="M440 1202l17 90h518l-14 -90h-521zM1004 1024h90l-181 -1024h-104l147 838l-798 -838h-90l180 1024h102l-147 -838z" />
    <glyph glyph-name="uni043A" unicode="&#x43a;" horiz-adv-x="989" 
d="M1014 1024l-641 -494l479 -530h-127l-465 514l-90 -514h-102l180 1024h102l-80 -459l598 459h146z" />
    <glyph glyph-name="uni043B" unicode="&#x43b;" horiz-adv-x="1146" 
d="M1079 1024l-180 -1024h-102l161 924h-514l-86 -494q-19 -109 -50.5 -189t-69 -128t-87.5 -75t-100.5 -34.5t-113.5 -3.5l18 96q119 -11 192 66t107 268l104 594h721z" />
    <glyph glyph-name="uni043C" unicode="&#x43c;" horiz-adv-x="1304" 
d="M1237 1024l-180 -1024h-105l152 866l-488 -602h-16l-276 610l-154 -874h-102l180 1024h114l269 -588l477 588h129z" />
    <glyph glyph-name="uni043D" unicode="&#x43d;" horiz-adv-x="1161" 
d="M989 1024h105l-181 -1024h-104l82 463h-639l-82 -463h-102l180 1024h102l-82 -463h639z" />
    <glyph glyph-name="uni043E" unicode="&#x43e;" horiz-adv-x="1253" 
d="M541 -23q-104 0 -195 39t-155.5 108t-93 173t-7.5 225t84 222t150 166.5t190.5 101t208.5 35.5q103 0 192.5 -39.5t152 -108.5t89.5 -172.5t6 -222.5q-28 -164 -125.5 -286t-226.5 -181.5t-270 -59.5zM551 76q115 0 221.5 51.5t185.5 153.5t103 235q17 98 -4.5 180.5
t-71.5 136.5t-122.5 84.5t-157.5 30.5q-114 -1 -220.5 -52t-186 -152t-103.5 -232q-17 -99 4 -182.5t71.5 -138t123 -85t157.5 -30.5z" />
    <glyph glyph-name="uni043F" unicode="&#x43f;" horiz-adv-x="1161" 
d="M1094 1024l-181 -1024h-104l162 924h-639l-162 -924h-102l180 1024h846z" />
    <glyph glyph-name="uni0440" unicode="&#x440;" horiz-adv-x="1323" 
d="M786 1047q106 0 198 -45t152.5 -120t87 -178.5t7.5 -214.5q-28 -160 -119.5 -278.5t-213.5 -176t-259 -57.5q-145 0 -260 74.5t-164 206.5l-117 -668h-102l252 1434h102l-37 -209q84 110 205.5 171t267.5 61zM1126 498q21 121 -19.5 224.5t-132 164.5t-212.5 61
q-184 0 -325 -119t-173 -303q-18 -100 5 -185.5t75.5 -142.5t127.5 -89.5t161 -32.5q113 0 216 48.5t178.5 146.5t98.5 227z" />
    <glyph glyph-name="uni0441" unicode="&#x441;" horiz-adv-x="1150" 
d="M532 -23q-148 0 -258.5 74.5t-159 201t-22.5 275.5q40 226 216.5 372.5t406.5 146.5q148 0 258.5 -71t152.5 -190l-88 -47q-35 97 -121 153t-212 56q-187 0 -331.5 -123t-176.5 -307q-21 -122 16 -223t126 -160t212 -59t229.5 58.5t171.5 156.5l82 -55
q-78 -122 -210.5 -190.5t-291.5 -68.5z" />
    <glyph glyph-name="uni0442" unicode="&#x442;" horiz-adv-x="901" 
d="M965 1024l-19 -100h-373l-161 -924h-103l162 924h-371l17 100h848z" />
    <glyph glyph-name="uni0443" unicode="&#x443;" horiz-adv-x="1044" 
d="M991 1024h117l-639 -1118q-91 -159 -210.5 -242.5t-250.5 -73.5l17 97q191 -17 342 239l34 58l-284 1040h104l248 -922z" />
    <glyph glyph-name="uni0444" unicode="&#x444;" horiz-adv-x="1376" 
d="M834 1047q157 -11 269.5 -86t160 -195.5t22.5 -263.5q-39 -220 -214 -366t-427 -159l-67 -387h-103l68 387q-157 11 -269.5 86t-160.5 195.5t-23 263.5q39 218 215 364t426 161l68 387h102zM1182 512q33 177 -67.5 298t-299.5 136l-151 -868q203 15 345 136t173 298z
M195 512q-31 -177 68.5 -298t297.5 -136l152 868q-203 -15 -344 -136t-174 -298z" />
    <glyph glyph-name="uni0445" unicode="&#x445;" horiz-adv-x="1038" 
d="M1055 1024l-471 -502l315 -522h-115l-272 446l-420 -446h-135l504 535l-299 489h117l251 -416l392 416h133z" />
    <glyph glyph-name="uni0446" unicode="&#x446;" horiz-adv-x="1214" 
d="M909 100h164l-65 -374h-105l49 274h-884l180 1024h102l-162 -924h619l162 924h104z" />
    <glyph glyph-name="uni0447" unicode="&#x447;" horiz-adv-x="1099" 
d="M928 1024h104l-180 -1024h-104l69 395q-158 -61 -321 -61q-195 0 -285.5 99t-60.5 263l57 328h102l-57 -328q-22 -127 41 -195.5t207 -68.5q153 0 336 68z" />
    <glyph glyph-name="uni0448" unicode="&#x448;" horiz-adv-x="1673" 
d="M1501 1024h105l-181 -1024h-1357l180 1024h102l-162 -924h525l161 924h105l-162 -924h522z" />
    <glyph glyph-name="uni0449" unicode="&#x449;" horiz-adv-x="1726" 
d="M1444 100h141l-65 -374h-105l49 274h-1396l180 1024h102l-162 -924h525l161 924h105l-162 -924h522l162 924h105z" />
    <glyph glyph-name="uni044A" unicode="&#x44a;" horiz-adv-x="1107" 
d="M721 627q87 0 157 -41t105 -116.5t18 -166.5q-24 -138 -135.5 -220.5t-257.5 -82.5h-405l162 924h-291l16 100h397l-69 -397h303zM899 313q17 96 -40.5 154.5t-158.5 58.5h-301l-73 -426h301q99 0 177 59t95 154z" />
    <glyph glyph-name="uni044B" unicode="&#x44b;" horiz-adv-x="1318" 
d="M584 627q88 0 158.5 -41t105.5 -116.5t18 -166.5q-24 -138 -135.5 -220.5t-257.5 -82.5h-405l180 1024h102l-69 -397h303zM1149 1024h102l-180 -1024h-102zM762 313q17 96 -40.5 154.5t-156.5 58.5h-303l-74 -426h301q99 0 177.5 59t95.5 154z" />
    <glyph glyph-name="uni044C" unicode="&#x44c;" horiz-adv-x="970" 
d="M584 627q88 0 158.5 -41t105.5 -116.5t18 -166.5q-24 -138 -135.5 -220.5t-257.5 -82.5h-405l180 1024h102l-69 -397h303zM762 313q17 96 -40.5 154.5t-156.5 58.5h-303l-74 -426h301q99 0 177.5 59t95.5 154z" />
    <glyph glyph-name="uni044D" unicode="&#x44d;" horiz-adv-x="1150" 
d="M618 1047q151 0 262 -74.5t158 -201t21 -275.5q-40 -227 -215.5 -373t-407.5 -146q-148 0 -258.5 71t-152.5 190l88 47q34 -101 119.5 -155t213.5 -54q176 0 315.5 109.5t184.5 277.5h-530l18 98h527q11 168 -87 277.5t-274 109.5q-123 0 -229.5 -58.5t-171.5 -156.5
l-82 55q78 122 210 190.5t291 68.5z" />
    <glyph glyph-name="uni044E" unicode="&#x44e;" horiz-adv-x="1644" 
d="M1114 1047q103 0 192.5 -39.5t152 -108.5t89.5 -172.5t6 -222.5q-28 -164 -124.5 -286t-226 -181.5t-271.5 -59.5q-98 0 -184 34.5t-148.5 96t-95 154t-23.5 201.5h-229l-82 -463h-102l180 1024h102l-82 -463h230q36 149 133 261.5t222.5 168.5t260.5 56zM1452 516
q17 98 -4.5 180.5t-71.5 136.5t-122.5 84.5t-157.5 30.5q-114 -1 -220.5 -52t-186 -152t-103.5 -232q-16 -99 5 -182.5t71.5 -138t122.5 -85t157 -30.5q115 0 222 51.5t186 153.5t102 235z" />
    <glyph glyph-name="uni044F" unicode="&#x44f;" horiz-adv-x="1024" 
d="M956 1024l-180 -1024h-102l69 399h-227l-387 -399h-131l397 403q-118 19 -188 107.5t-49 210.5q24 137 136.5 220t256.5 83h405zM459 498h303l74 426h-301q-99 0 -177.5 -59t-95.5 -154q-17 -96 40.5 -154.5t156.5 -58.5z" />
    <glyph glyph-name="uni0451" unicode="&#x451;" horiz-adv-x="1204" 
d="M549 1182q-31 0 -49.5 21.5t-12.5 51.5q4 32 30.5 54t57.5 22t48.5 -22t13.5 -54q-6 -31 -31.5 -52t-56.5 -21zM918 1182q-31 0 -49.5 21.5t-12.5 51.5q4 32 30.5 54t57.5 22t48.5 -22t13.5 -54q-6 -31 -31.5 -52t-56.5 -21zM700 1047q92 0 169.5 -28.5t130 -79
t87.5 -118.5t42 -147.5t-7 -165.5q-7 -36 -12 -49h-924q-12 -173 88 -278t275 -105q124 0 225 50t164 138l80 -53q-74 -110 -204.5 -172t-278.5 -62q-154 0 -265 72t-158 197.5t-20 279.5q40 227 211 374t397 147zM203 559h821q18 184 -74 286.5t-258 102.5
q-176 0 -309.5 -107t-179.5 -282z" />
    <glyph glyph-name="uni0452" unicode="&#x452;" horiz-adv-x="1181" 
d="M739 1047q183 0 274.5 -112t59.5 -298l-133 -754q-59 -342 -395 -315l16 98q119 -12 187 42t90 175l131 754q25 144 -38.5 227.5t-209.5 83.5q-150 0 -265 -94.5t-155 -275.5l-102 -578h-105l209 1192h-147l14 86h149l27 156h105l-27 -156h319l-14 -86h-321l-60 -344
q74 101 175 150t216 49z" />
    <glyph glyph-name="uni0453" unicode="&#x453;" horiz-adv-x="813" 
d="M791 1427l-230 -260h-102l205 260h127zM889 1024l-17 -100h-540l-162 -924h-102l161 924l19 100h641z" />
    <glyph glyph-name="uni0454" unicode="&#x454;" horiz-adv-x="1150" 
d="M705 948q-176 0 -314.5 -109t-183.5 -278h528l-18 -98h-527q-11 -167 89 -277t272 -110q123 0 229.5 58.5t171.5 156.5l82 -55q-78 -122 -210.5 -190.5t-291.5 -68.5q-148 0 -258.5 74.5t-159 201t-22.5 275.5q40 226 216.5 372.5t406.5 146.5q148 0 258.5 -71
t152.5 -190l-88 -47q-35 97 -121 153t-212 56z" />
    <glyph glyph-name="uni0455" unicode="&#x455;" horiz-adv-x="966" 
d="M418 -23q-148 0 -239.5 63t-125.5 171l92 47q22 -85 95 -133.5t186 -48.5q112 0 191 47.5t96 134.5q10 57 -17.5 97t-78.5 63.5t-114 43.5t-125.5 43.5t-111.5 55t-73.5 87.5t-10.5 132q20 118 123.5 192.5t249.5 74.5q121 0 209.5 -54t126.5 -151l-90 -47
q-25 75 -94 114t-156 39q-95 0 -171.5 -46.5t-92.5 -135.5q-10 -55 17.5 -94t78 -62.5t113 -43t124.5 -43.5t111 -56.5t73.5 -89.5t10.5 -135q-22 -124 -129 -194.5t-268 -70.5z" />
    <glyph glyph-name="uni0456" unicode="&#x456;" horiz-adv-x="417" 
d="M342 1272q-35 0 -53.5 24t-12.5 58q5 33 32 56.5t63 23.5q34 0 53.5 -24t13.5 -56q-6 -35 -32.5 -58.5t-63.5 -23.5zM68 0l180 1024h102l-180 -1024h-102z" />
    <glyph glyph-name="uni0457" unicode="&#x457;" horiz-adv-x="417" 
d="M141 1182q-31 0 -49 21t-12 52q4 32 30.5 54t57.5 22t48.5 -22t12.5 -54q-6 -31 -31.5 -52t-56.5 -21zM510 1182q-31 0 -49 21t-12 52q4 32 30.5 54t57.5 22t48.5 -22t12.5 -54q-6 -31 -31.5 -52t-56.5 -21zM68 0l180 1024h102l-180 -1024h-102z" />
    <glyph glyph-name="uni0458" unicode="&#x458;" horiz-adv-x="456" 
d="M410 1434q34 0 53.5 -24t13.5 -56q-6 -35 -32.5 -58.5t-63.5 -23.5q-35 0 -53.5 24t-12.5 58q5 33 32 56.5t63 23.5zM86 -117l201 1141h102l-201 -1141q-59 -350 -395 -315l17 98q120 -12 187 41t89 176z" />
    <glyph glyph-name="uni0459" unicode="&#x459;" horiz-adv-x="1646" 
d="M1270 586q131 0 212 -84t56 -219q-25 -136 -127.5 -209.5t-243.5 -73.5h-391l162 924h-494l-86 -494q-24 -134 -65 -223.5t-97.5 -135t-118 -61.5t-140.5 -10l18 96q120 -12 192.5 64.5t106.5 269.5l104 594h701l-78 -438h289zM1434 293q17 94 -35 143t-146 49h-288
l-68 -385h287q95 0 164 50t86 143z" />
    <glyph glyph-name="uni045A" unicode="&#x45a;" horiz-adv-x="1640" 
d="M1264 586q131 0 212 -84t56 -219q-25 -136 -128 -209.5t-243 -73.5h-393l86 485h-598l-86 -485h-102l180 1024h102l-78 -438h598l78 438h105l-78 -438h289zM1427 293q17 94 -34.5 143t-145.5 49h-289l-67 -385h287q94 0 163 50t86 143z" />
    <glyph glyph-name="uni045B" unicode="&#x45b;" horiz-adv-x="1181" 
d="M739 1047q183 0 274.5 -112t59.5 -298l-112 -637h-103l111 637q25 144 -38.5 227.5t-209.5 83.5q-150 0 -265 -94.5t-155 -275.5l-102 -578h-105l209 1192h-147l14 86h149l27 156h105l-27 -156h319l-14 -86h-321l-60 -344q74 101 175 150t216 49z" />
    <glyph glyph-name="uni045C" unicode="&#x45c;" horiz-adv-x="989" 
d="M852 1427l-229 -260h-103l205 260h127zM1014 1024l-641 -494l479 -530h-127l-465 514l-90 -514h-102l180 1024h102l-80 -459l598 459h146z" />
    <glyph glyph-name="uni045E" unicode="&#x45e;" horiz-adv-x="1044" 
d="M885 1292l-15 -90h-520l17 90h518zM991 1024h117l-639 -1118q-91 -159 -210.5 -242.5t-250.5 -73.5l17 97q191 -17 342 239l34 58l-284 1040h104l248 -922z" />
    <glyph glyph-name="uni045F" unicode="&#x45f;" horiz-adv-x="1161" 
d="M989 1024h105l-181 -1024h-370l-49 -274h-105l49 274h-370l180 1024h102l-162 -924h639z" />
    <glyph glyph-name="uni0490" unicode="&#x490;" horiz-adv-x="1009" 
d="M1061 1679h108l-61 -348h-678l-233 -1331h-109l234 1331l18 103h676z" />
    <glyph glyph-name="uni0491" unicode="&#x491;" horiz-adv-x="813" 
d="M821 1237h105l-54 -313h-540l-162 -924h-102l161 924l19 100h536z" />
    <glyph glyph-name="Wgrave" unicode="&#x1e80;" horiz-adv-x="2033" 
d="M1278 1577l-119 260h-123l144 -260h98zM393 0l-164 1434h109l145 -1293l627 1293h129l174 -1293l600 1293h115l-668 -1434h-131l-174 1292l-631 -1292h-131z" />
    <glyph glyph-name="wgrave" unicode="&#x1e81;" horiz-adv-x="1576" 
d="M946 1167h-98l-143 260h122zM1487 1024h112l-503 -1024h-113l-131 872l-438 -872h-113l-143 1024h102l117 -893l444 893h107l-2 -4l131 -889z" />
    <glyph glyph-name="Wacute" unicode="&#x1e82;" horiz-adv-x="2033" 
d="M1120 1577h103l229 260h-127zM393 0l-164 1434h109l145 -1293l627 1293h129l174 -1293l600 1293h115l-668 -1434h-131l-174 1292l-631 -1292h-131z" />
    <glyph glyph-name="wacute" unicode="&#x1e83;" horiz-adv-x="1576" 
d="M1120 1427l-229 -260h-103l205 260h127zM1487 1024h112l-503 -1024h-113l-131 872l-438 -872h-113l-143 1024h102l117 -893l444 893h107l-2 -4l131 -889z" />
    <glyph glyph-name="Wdieresis" unicode="&#x1e84;" horiz-adv-x="2033" 
d="M1022 1591q-31 0 -49 21.5t-12 52.5q4 32 30.5 54t57.5 22t48.5 -22t12.5 -54q-6 -31 -31.5 -52.5t-56.5 -21.5zM1391 1591q-31 0 -49.5 21.5t-12.5 52.5q4 32 30.5 54t57.5 22t48.5 -22t13.5 -54q-6 -31 -31.5 -52.5t-56.5 -21.5zM393 0l-164 1434h109l145 -1293
l627 1293h129l174 -1293l600 1293h115l-668 -1434h-131l-174 1292l-631 -1292h-131z" />
    <glyph glyph-name="wdieresis" unicode="&#x1e85;" horiz-adv-x="1576" 
d="M690 1182q-31 0 -49 21t-12 52q4 32 30.5 54t57.5 22t48.5 -22t12.5 -54q-6 -31 -31.5 -52t-56.5 -21zM1059 1182q-31 0 -49.5 21.5t-12.5 51.5q4 32 30.5 54t57.5 22t48.5 -22t13.5 -54q-6 -31 -31.5 -52t-56.5 -21zM1487 1024h112l-503 -1024h-113l-131 872l-438 -872
h-113l-143 1024h102l117 -893l444 893h107l-2 -4l131 -889z" />
    <glyph glyph-name="Ygrave" unicode="&#x1ef2;" 
d="M840 1577h-99l-143 260h123zM1303 1434l-637 -764l-119 -670h-109l119 674l-369 760h113l320 -664l553 664h129z" />
    <glyph glyph-name="ygrave" unicode="&#x1ef3;" horiz-adv-x="1044" 
d="M678 1167h-98l-144 260h123zM991 1024h117l-639 -1118q-91 -159 -210.5 -242.5t-250.5 -73.5l17 97q191 -17 342 239l34 58l-284 1040h104l248 -922z" />
    <glyph glyph-name="endash" unicode="&#x2013;" horiz-adv-x="1361" 
d="M190 584l17 98h1007l-16 -98h-1008z" />
    <glyph glyph-name="emdash" unicode="&#x2014;" horiz-adv-x="1566" 
d="M190 584l17 98h1212l-16 -98h-1213z" />
    <glyph glyph-name="quoteleft" unicode="&#x2018;" horiz-adv-x="458" 
d="M213 1008l186 426h95l-152 -426h-129z" />
    <glyph glyph-name="quoteright" unicode="&#x2019;" horiz-adv-x="458" 
d="M496 1434l-187 -426h-94l152 426h129z" />
    <glyph glyph-name="quotesinglbase" unicode="&#x201a;" horiz-adv-x="456" 
d="M266 139l-186 -426h-94l151 426h129z" />
    <glyph glyph-name="quotedblleft" unicode="&#x201c;" horiz-adv-x="718" 
d="M213 1008l186 426h95l-152 -426h-129zM473 1008l186 426h95l-152 -426h-129z" />
    <glyph glyph-name="quotedblright" unicode="&#x201d;" horiz-adv-x="718" 
d="M496 1434l-187 -426h-94l152 426h129zM756 1434l-187 -426h-94l152 426h129z" />
    <glyph glyph-name="quotedblbase" unicode="&#x201e;" horiz-adv-x="716" 
d="M266 139l-186 -426h-94l151 426h129zM526 139l-186 -426h-94l151 426h129z" />
    <glyph glyph-name="dagger" unicode="&#x2020;" horiz-adv-x="968" 
d="M940 1079l-18 -98h-304l-172 -981h-104l172 981h-301l16 98h303l62 355h104l-61 -355h303z" />
    <glyph glyph-name="daggerdbl" unicode="&#x2021;" horiz-adv-x="968" 
d="M922 981h-304l-92 -528h303l-18 -99h-303l-62 -354h-104l61 354h-301l17 99h303l92 528h-301l16 98h303l62 355h104l-61 -355h303z" />
    <glyph glyph-name="bullet" unicode="&#x2022;" horiz-adv-x="573" 
d="M293 539q-73 0 -116.5 56t-29.5 130q13 73 72.5 121.5t136.5 48.5q72 0 115 -55t29 -127q-13 -75 -72.5 -124.5t-134.5 -49.5z" />
    <glyph glyph-name="ellipsis" unicode="&#x2026;" horiz-adv-x="1214" 
d="M125 -20q-39 0 -60.5 27.5t-15.5 66.5t36.5 64.5t70.5 25.5t62.5 -28t14.5 -66q-8 -40 -37 -65t-71 -25zM514 -20q-39 0 -60.5 27.5t-15.5 66.5t36.5 64.5t70.5 25.5t63 -28t15 -66q-8 -40 -37.5 -65t-71.5 -25zM903 -20q-39 0 -60.5 27.5t-15.5 66.5t36.5 64.5
t70.5 25.5t63 -28t15 -66q-8 -40 -37.5 -65t-71.5 -25z" />
    <glyph glyph-name="perthousand" unicode="&#x2030;" horiz-adv-x="2203" 
d="M504 846q-132 0 -207.5 91.5t-52.5 219.5q23 129 126 214t240 85q133 0 208 -91.5t52 -219.5q-24 -129 -125.5 -214t-240.5 -85zM520 940q93 0 163 60t87 151q15 90 -34 150.5t-142 60.5q-91 0 -162 -60.5t-88 -150.5q-15 -90 34 -150.5t142 -60.5zM145 184l1166 1096
l71 -41l-1167 -1096zM930 -23q-131 0 -207 92t-53 220q23 129 126 214t240 85q132 0 207 -91.5t53 -220.5q-22 -128 -125.5 -213.5t-240.5 -85.5zM1667 -23q-131 0 -207 92t-53 220q23 129 126.5 214t240.5 85q132 0 207 -91.5t53 -220.5q-22 -128 -126 -213.5t-241 -85.5z
M946 72q93 0 163 60t87 151q15 90 -34 150.5t-142 60.5q-92 0 -163.5 -60.5t-86.5 -150.5q-14 -91 35 -151t141 -60zM1683 72q93 0 163 60t87 151q15 90 -34 150.5t-142 60.5q-92 0 -163.5 -60.5t-86.5 -150.5q-14 -91 35 -151t141 -60z" />
    <glyph glyph-name="guilsinglleft" unicode="&#x2039;" horiz-adv-x="681" 
d="M602 987l-289 -362l154 -346h-125l-158 354l283 354h135z" />
    <glyph glyph-name="guilsinglright" unicode="&#x203a;" horiz-adv-x="684" 
d="M383 987l158 -354l-283 -354h-135l289 362l-154 346h125z" />
    <glyph glyph-name="fraction" unicode="&#x2044;" horiz-adv-x="464" 
d="M-217 0h-105l1076 1434h104z" />
    <glyph glyph-name="Euro" unicode="&#x20ac;" horiz-adv-x="1234" 
d="M889 1352q-167 0 -296 -119t-200 -338h549l-16 -90h-557l-19 -88q-9 -58 -10 -76h557l-16 -92h-549q-9 -223 77.5 -345t256.5 -122q115 0 211.5 58t162.5 167l88 -53q-83 -133 -205.5 -205t-275.5 -72q-212 0 -323.5 155t-102.5 417h-166l15 92h159q2 35 13 86
q4 30 16 78h-158l15 90h166q81 264 243 412.5t383 148.5q141 0 239.5 -72t141.5 -202l-98 -49q-31 106 -108 162.5t-193 56.5z" />
    <glyph glyph-name="uni20BD" unicode="&#x20bd;" horiz-adv-x="1181" 
d="M864 1434q111 0 199 -59.5t129 -160.5t20 -215q-29 -173 -172 -292t-323 -119h-383l-37 -213h547l-17 -90h-546l-50 -285h-110l49 285h-182l16 90h182l37 213h-182l18 102h183l131 744h491zM1104 1010q25 133 -50.5 227t-205.5 94h-383l-113 -641h383q130 0 238 94
t131 226z" />
    <glyph glyph-name="uni2116" unicode="&#x2116;" horiz-adv-x="2088" 
d="M1753 856q-128 0 -201 90.5t-51 216.5q22 125 123.5 209t235.5 84q128 0 201 -91t50 -216q-21 -128 -118 -210.5t-240 -82.5zM88 0l252 1434h86l639 -1233l217 1233h109l-252 -1434h-88l-637 1233l-217 -1233h-109zM1772 950q89 0 157 59t82 146q15 88 -32 147.5
t-136 59.5q-90 0 -158 -59t-83 -148q-14 -88 32 -146.5t138 -58.5zM1423 594l19 100h565l-16 -100h-568z" />
    <glyph glyph-name="trademark" unicode="&#x2122;" horiz-adv-x="980" 
d="M563 1370h-119l-61 -346h-70l62 346h-121l12 64h307zM1040 1434l-71 -410h-68l51 295l-174 -217h-8l-92 215l-51 -293h-70l72 410h69l90 -224l177 224h75z" />
    <glyph glyph-name="estimated" unicode="&#x212e;" horiz-adv-x="1705" 
d="M1020 1454q163 0 295 -58t213.5 -157t114.5 -235t6 -287q-6 -31 -37 -31h-1147q-31 0 -37 -31l-68 -393q-5 -21 7 -39q140 -182 446 -182q294 0 512 199q18 18 39 18h72q21 0 25 -12t-13 -27q-267 -239 -647 -239q-102 0 -193.5 20.5t-163.5 58t-131.5 91t-98.5 118.5
t-63.5 140.5t-27 158t11.5 170.5q27 152 104.5 284t191.5 227.5t266.5 150.5t322.5 55zM1423 1176q3 22 -8 38q-138 179 -405 179q-264 0 -469 -183q-18 -18 -21 -39l-69 -393q-6 -30 24 -30h840q31 0 37 30z" />
    <glyph glyph-name="oneeighth" unicode="&#x215b;" horiz-adv-x="1669" 
d="M401 1317l-217 -66l-10 90l266 93h80l-145 -820h-99zM1257 1434h105l-1075 -1434h-105zM1599 606q-20 -118 -149 -178q60 -33 89.5 -91.5t16.5 -129.5q-20 -108 -109.5 -170t-219.5 -62q-124 0 -196.5 69t-53.5 177q13 73 62.5 129t121.5 84q-48 31 -73 79.5t-15 107.5
q19 106 105.5 164.5t199.5 58.5q105 0 172.5 -66t48.5 -172zM1501 614q12 64 -26.5 101t-112.5 37q-76 0 -127.5 -37t-63.5 -101q-10 -63 30 -101t114 -38q72 0 124 38t62 101zM1460 225q12 71 -34 113.5t-130 42.5q-88 0 -147.5 -42t-71.5 -114q-12 -71 32 -113t134 -42
q87 0 146 42t71 113z" />
    <glyph glyph-name="threeeighths" unicode="&#x215c;" horiz-adv-x="1882" 
d="M688 842q-20 -115 -109.5 -183.5t-224.5 -68.5q-97 0 -161 43.5t-93 122.5l86 43q37 -115 183 -115q93 0 150.5 46t70.5 120q14 73 -28.5 120.5t-133.5 47.5h-6l-37 72l236 249h-394l17 95h514l-17 -95l-233 -245q99 -19 147 -88t33 -164zM1470 1434h105l-1075 -1434
h-105zM1812 606q-20 -118 -149 -178q60 -33 89.5 -91.5t16.5 -129.5q-20 -108 -109.5 -170t-219.5 -62q-124 0 -196.5 69t-53.5 177q13 73 62.5 129t121.5 84q-48 31 -73 79.5t-15 107.5q19 106 105.5 164.5t199.5 58.5q105 0 172.5 -66t48.5 -172zM1714 614
q12 64 -26.5 101t-112.5 37q-76 0 -127.5 -37t-63.5 -101q-10 -63 30 -101t114 -38q72 0 124 38t62 101zM1673 225q12 71 -34 113.5t-130 42.5q-88 0 -147.5 -42t-71.5 -114q-12 -71 32 -113t134 -42q87 0 146 42t71 113z" />
    <glyph glyph-name="fiveeighths" unicode="&#x215d;" horiz-adv-x="1861" 
d="M682 842q-20 -117 -107.5 -184.5t-222.5 -67.5q-96 0 -160 43t-92 121l88 45q39 -115 179 -115q87 0 146 45.5t71 120.5q14 80 -28.5 126t-129.5 46h-242l103 412h465l-17 -93h-377l-57 -225h145q120 0 189 -78.5t47 -195.5zM1450 1434h104l-1075 -1434h-104zM1792 606
q-20 -118 -150 -178q61 -33 90.5 -91.5t16.5 -129.5q-20 -108 -110 -170t-220 -62q-124 0 -196.5 69t-53.5 177q13 73 63 128.5t122 84.5q-48 31 -73 79.5t-15 107.5q19 106 105.5 164.5t199.5 58.5q105 0 172.5 -66t48.5 -172zM1694 614q12 64 -27 101t-113 37
q-75 0 -126.5 -37t-63.5 -101q-10 -63 29.5 -101t113.5 -38q73 0 125 38t62 101zM1653 225q12 71 -34 113.5t-130 42.5q-88 0 -147.5 -42t-71.5 -114q-12 -71 32 -113t134 -42q87 0 146 42t71 113z" />
    <glyph glyph-name="seveneighths" unicode="&#x215e;" horiz-adv-x="1798" 
d="M741 1434l-14 -80l-442 -740h-109l438 725h-434l17 95h544zM1386 1434h105l-1075 -1434h-105zM1729 606q-20 -118 -150 -178q61 -33 90.5 -91.5t16.5 -129.5q-20 -108 -110 -170t-220 -62q-124 0 -196.5 69t-53.5 177q13 73 62.5 129t121.5 84q-48 31 -73 79.5t-15 107.5
q19 106 105.5 164.5t199.5 58.5q105 0 173 -66t49 -172zM1630 614q12 64 -26.5 101t-112.5 37q-76 0 -127.5 -37t-63.5 -101q-10 -63 30 -101t114 -38q72 0 124 38t62 101zM1589 225q12 71 -34 113.5t-130 42.5q-88 0 -147.5 -42t-71.5 -114q-12 -71 32 -113t134 -42
q87 0 146 42t71 113z" />
    <glyph glyph-name="arrowleft" unicode="&#x2190;" horiz-adv-x="1693" 
d="M1608 766l-17 -98h-1249l467 -566h-137l-506 615l723 614l145 -2l-661 -563h1235z" />
    <glyph glyph-name="arrowup" unicode="&#x2191;" horiz-adv-x="1488" 
d="M1411 819l-22 -137l-465 565l-217 -1247h-105l217 1231l-661 -561l26 149l721 615z" />
    <glyph glyph-name="arrowright" unicode="&#x2192;" horiz-adv-x="1693" 
d="M1094 1331l505 -614l-714 -615h-150l660 566h-1237l16 98h1251l-467 565h136z" />
    <glyph glyph-name="arrowdown" unicode="&#x2193;" horiz-adv-x="1488" 
d="M741 201l662 561l-27 -148l-723 -614l-506 614l25 134l463 -564l219 1250h104z" />
    <glyph glyph-name="arrowboth" unicode="&#x2194;" horiz-adv-x="2115" 
d="M1608 1223l415 -506l-593 -506h-148l535 457h-1475l375 -457h-135l-416 506l594 506h147l-534 -457h1474l-374 457h135z" />
    <glyph glyph-name="arrowupdn" unicode="&#x2195;" horiz-adv-x="1284" 
d="M1233 1006l-371 450l-262 -1466l533 452l-27 -149l-592 -504l-416 504l25 135l373 -455l260 1473l-535 -453l27 148l594 504l413 -504z" />
    <glyph glyph-name="uni2196" unicode="&#x2196;" horiz-adv-x="1308" 
d="M1200 1104h-801l729 -883l-79 -67l-730 882l-139 -800l-82 98l154 868h868z" />
    <glyph glyph-name="uni2197" unicode="&#x2197;" horiz-adv-x="1310" 
d="M434 1202h869l-154 -868l-121 -101l139 791l-1024 -870l-63 75l1028 875h-793z" />
    <glyph glyph-name="uni2198" unicode="&#x2198;" horiz-adv-x="1308" 
d="M1194 1149l80 -98l-152 -869h-868l-82 99h803l-731 884l80 68l729 -887z" />
    <glyph glyph-name="uni2199" unicode="&#x2199;" horiz-adv-x="1310" 
d="M1294 1155l-1030 -874h793l-117 -99h-868l151 869l119 98l-139 -791l1026 873z" />
    <glyph glyph-name="partialdiff" unicode="&#x2202;" horiz-adv-x="1185" 
d="M647 1456q115 0 210.5 -53.5t157 -151.5t83.5 -236t-8 -308q-63 -349 -241 -539.5t-413 -190.5q-124 0 -210.5 60.5t-121 161t-12.5 221.5q37 210 183.5 335.5t365.5 125.5q209 0 352 -117q12 98 7 186t-33.5 162.5t-73 128.5t-112.5 84.5t-152 30.5q-148 0 -275 -72
l19 102q123 70 274 70zM453 76q184 0 323 155t199 428q-138 121 -350 121q-167 0 -282.5 -97t-145.5 -273q-26 -146 40.5 -240t215.5 -94z" />
    <glyph glyph-name="emptyset" unicode="&#x2205;" horiz-adv-x="1677" 
d="M1694 1475l-221 -222q94 -104 132 -246.5t11 -301.5q-36 -202 -163.5 -369t-314.5 -263t-393 -96q-237 0 -407 144l-164 -162h-119l221 221q-94 105 -133 248t-10 301q35 202 163 369t315.5 262.5t392.5 95.5q239 0 407 -143l164 162h119zM229 717q-24 -135 7 -257
t108 -212l1002 997q-146 121 -357 121q-176 0 -340 -86.5t-276.5 -236t-143.5 -326.5zM1520 717q24 135 -7 257t-108 212l-1002 -998q145 -120 357 -120q176 0 340 86.5t276.5 236t143.5 326.5z" />
    <glyph glyph-name="product" unicode="&#x220f;" horiz-adv-x="1310" 
d="M16 -410l324 1844h954l-323 -1844h-103l306 1743h-748l-307 -1743h-103z" />
    <glyph glyph-name="summation" unicode="&#x2211;" horiz-adv-x="1107" 
d="M-45 -410l16 103l668 848l-348 792l16 101h862l-16 -101h-754l357 -807l-658 -835h797l-18 -101h-922z" />
    <glyph glyph-name="minus" unicode="&#x2212;" horiz-adv-x="1105" 
d="M158 668l16 98h846l-16 -98h-846z" />
    <glyph glyph-name="radical" unicode="&#x221a;" horiz-adv-x="1308" 
d="M514 0l-211 514h-172l16 100h226l200 -491l770 1515h117l-835 -1638h-111z" />
    <glyph glyph-name="infinity" unicode="&#x221e;" horiz-adv-x="1650" 
d="M1300 1038q132 0 210 -95.5t53 -233.5q-25 -139 -129 -226.5t-244 -87.5q-61 0 -114.5 20.5t-95.5 59.5t-70.5 75.5t-59.5 86.5q-46 -50 -86.5 -87t-95.5 -75.5t-117 -59t-127 -20.5q-133 0 -210 95.5t-52 234.5t129 226t244 87q61 0 114.5 -20.5t96 -59t71.5 -75
t60 -86.5q46 50 86 86.5t94.5 75t116 59t126.5 20.5zM440 489q65 0 134.5 36t119 80.5t109.5 111.5q-57 105 -123 166t-160 61q-96 0 -167.5 -63.5t-88.5 -163.5q-19 -100 30 -164t146 -64zM1462 717q17 100 -32.5 163.5t-145.5 63.5q-93 0 -179.5 -61.5t-180.5 -165.5
q55 -104 121 -166t159 -62q96 0 167.5 64t90.5 164z" />
    <glyph glyph-name="integral" unicode="&#x222b;" horiz-adv-x="892" 
d="M-164 -416l19 103q99 -43 178.5 1t118.5 156l460 1338q59 176 175 239.5t270 16.5l-19 -101q-115 43 -197 -0.5t-122 -156.5l-461 -1338q-39 -116 -106 -185.5t-146.5 -84.5t-169.5 12z" />
    <glyph glyph-name="approxequal" unicode="&#x2248;" horiz-adv-x="1202" 
d="M635 838q-252 185 -367 -82l-88 45q24 56 59 100.5t83.5 74.5t104.5 38t125.5 -14t143.5 -76q251 -187 367 82l88 -45q-30 -71 -77.5 -122t-111.5 -78t-149 -9t-178 86zM209 428l-86 45q30 71 78 122t112.5 77.5t149.5 8.5t176 -85q251 -187 367 82l88 -45
q-24 -56 -58 -100.5t-82.5 -74.5t-104 -38t-126 14t-145.5 76q-250 183 -369 -82z" />
    <glyph glyph-name="notequal" unicode="&#x2260;" horiz-adv-x="1099" 
d="M1034 872h-303l-196 -311h444l-18 -98h-488l-197 -316h-88l197 316h-264l18 98h307l197 311h-448l16 99h494l196 315h88l-196 -315h258z" />
    <glyph glyph-name="lessequal" unicode="&#x2264;" horiz-adv-x="1079" 
d="M1073 1214l-22 -120l-736 -260l643 -261l-18 -108l-762 323l8 52l11 51zM78 219l18 98h817l-16 -98h-819z" />
    <glyph glyph-name="greaterequal" unicode="&#x2265;" horiz-adv-x="1079" 
d="M254 1214l762 -323l-10 -51l-9 -52l-876 -323l22 121l734 260l-641 260zM78 219l18 98h817l-16 -98h-819z" />
    <glyph glyph-name="lozenge" unicode="&#x25ca;" horiz-adv-x="1101" 
d="M408 0l-254 717l505 717h107l256 -717l-508 -717h-106zM475 113l436 616l-211 592l-436 -616z" />
    <glyph glyph-name="i.loclTRK" horiz-adv-x="417" 
d="M324 1174q-40 0 -62.5 28t-15.5 68q6 40 38 68t72 28q41 0 64.5 -28t15.5 -68t-39.5 -68t-72.5 -28zM68 0l180 1024h102l-180 -1024h-102z" />
    <glyph glyph-name="f_f_j" horiz-adv-x="1597" 
d="M1346 1378q-159 0 -244 -65t-111 -213l-12 -76h551l-201 -1141q-28 -164 -130.5 -247t-264.5 -68l16 98q120 -12 187.5 41t89.5 176l182 1041h-448l-162 -924h-105l162 924h-446l-164 -924h-105l164 924h-178l18 100h177l10 55q34 197 156 294.5t321 82.5l-18 -98
q-302 23 -355 -279l-10 -55h448l13 76q33 194 152 285.5t325 91.5q87 0 195 -23l-17 -94q-99 18 -196 18z" />
    <glyph glyph-name="f_j" horiz-adv-x="1044" 
d="M791 1358q-160 0 -244.5 -65.5t-110.5 -213.5l-10 -55h553l-201 -1141q-29 -164 -132.5 -247t-264.5 -68l18 98q119 -12 186 41t89 176l182 1041h-446l-164 -924h-105l164 924h-178l18 100h177l10 55q33 194 152 285.5t325 91.5q88 0 192 -22l-14 -95q-104 19 -196 19z
" />
    <glyph glyph-name="uni0414.loclBGR" horiz-adv-x="1439" 
d="M1315 102l-68 -376h-110l49 274h-1112l-49 -274h-109l49 274l19 102h131l710 1332h115l244 -1332h131zM231 102h842l-207 1198z" />
    <glyph glyph-name="uni041B.loclBGR" horiz-adv-x="1239" 
d="M-63 0l786 1434h117l280 -1434h-108l-248 1300l-709 -1300h-118z" />
    <glyph glyph-name="uni0424.loclBGR" horiz-adv-x="1746" 
d="M1094 1454q153 -9 276 -67t202.5 -155t110.5 -234t3 -296q-37 -212 -157 -373t-299 -250t-396 -99l-33 -185h-111l33 185q-153 9 -275.5 67.5t-202 155t-110 233t-2.5 295.5q37 213 156.5 374t298 250t395.5 99l33 184h110zM244 717q-49 -275 86 -448.5t409 -190.5
l228 1278q-284 -17 -480 -190.5t-243 -448.5zM1575 717q47 275 -88.5 448.5t-409.5 190.5l-227 -1278q285 17 481.5 190t243.5 449z" />
    <glyph glyph-name="uni0414.ss01" horiz-adv-x="1413" 
d="M1346 1434l-234 -1332h152l-19 -102h-1298l18 102h115q176 169 237 514l144 818h885zM426 614q-61 -337 -211 -512h789l217 1229h-668z" />
    <glyph glyph-name="uni0426.ss01" horiz-adv-x="1413" 
d="M1116 102h150l-19 -102h-1159l252 1434h109l-234 -1332h793l233 1332h109z" />
    <glyph glyph-name="uni0429.ss01" horiz-adv-x="2007" 
d="M1710 102h150l-19 -102h-1753l252 1434h109l-234 -1332h639l233 1332h109l-233 -1332h639l233 1332h109z" />
    <glyph glyph-name="uni0414.loclBGR.ss01" horiz-adv-x="1439" 
d="M1184 102h131l-19 -102h-1331l19 102h131l710 1332h115zM231 102h842l-207 1198z" />
    <glyph glyph-name="uni0432.loclBGR" horiz-adv-x="1177" 
d="M844 815q130 -42 191 -151.5t34 -266.5q-35 -203 -175 -311.5t-364 -108.5q-209 0 -314 135.5t-64 366.5l88 502q40 229 170.5 352t332.5 123q162 0 254 -100t68 -242q-26 -166 -221 -299zM725 1358q-148 0 -249.5 -98t-131.5 -279l-35 -203l244 47q95 19 170 13
q102 61 164 135.5t76 150.5q16 98 -48.5 166t-189.5 68zM965 408q33 187 -80 275t-350 42l-242 -45l-37 -209q-33 -190 44 -292.5t249 -102.5q169 0 278.5 87.5t137.5 244.5z" />
    <glyph glyph-name="uni0433.loclBGR" horiz-adv-x="940" 
d="M381 -23q-165 0 -255.5 89t-66.5 219q13 75 56 127t101 79t126 45t135 32.5t123.5 33t96 55t48.5 91.5q15 89 -47 144.5t-161 55.5q-92 0 -170 -45t-119 -125l-82 53q51 97 151.5 156.5t231.5 59.5q149 0 236 -91.5t65 -214.5q-13 -74 -55 -126t-100 -79t-126 -45
t-135 -32.5t-124 -33.5t-97.5 -56t-50.5 -93q-11 -62 18 -108.5t84 -69t125 -22.5q114 0 201 52.5t133 141.5l84 -55q-60 -109 -166.5 -173.5t-259.5 -64.5z" />
    <glyph glyph-name="uni0434.loclBGR" horiz-adv-x="1331" 
d="M1159 1024h105l-172 -975q-41 -228 -199 -354.5t-389 -126.5q-166 0 -283 67t-164 179l93 47q32 -86 121.5 -140.5t236.5 -54.5q198 0 322 100.5t157 282.5l29 160q-83 -110 -202 -171t-257 -61q-153 0 -267 75t-164 203t-26 280q17 115 74 213t138 162.5t178.5 100.5
t197.5 36q145 0 261 -74t165 -205zM573 76q171 0 308.5 108.5t179.5 282.5l12 65q10 93 -17 172.5t-80.5 132t-126.5 82t-155 29.5q-173 0 -317 -117t-174 -305q-29 -191 76.5 -320.5t293.5 -129.5z" />
    <glyph glyph-name="uni0436.loclBGR" horiz-adv-x="1357" 
d="M-43 0l580 543l-379 481h118l359 -463l156 873h102l-156 -879l514 469h127l-549 -502l388 -522h-115l-373 506l-90 -506h-104l90 504l-541 -504h-127z" />
    <glyph glyph-name="uni0438.loclBGR" horiz-adv-x="1155" 
d="M985 1024h102l-180 -1024h-102l31 178q-145 -201 -394 -201q-182 0 -273 112t-60 298l112 637h105l-113 -637q-25 -144 38.5 -227.5t209.5 -83.5q158 0 276 104.5t152 302.5v-2z" />
    <glyph glyph-name="uni0439.loclBGR" horiz-adv-x="1155" 
d="M956 1292l-14 -90h-520l16 90h518zM985 1024h102l-180 -1024h-102l31 178q-145 -201 -394 -201q-182 0 -273 112t-60 298l112 637h105l-113 -637q-25 -144 38.5 -227.5t209.5 -83.5q158 0 276 104.5t152 302.5v-2z" />
    <glyph glyph-name="uni043A.loclBGR" horiz-adv-x="989" 
d="M1014 1024l-641 -494l479 -530h-127l-465 514l-90 -514h-102l251 1434h103l-154 -869l600 459h146z" />
    <glyph glyph-name="uni043B.loclBGR" horiz-adv-x="976" 
d="M860 0h-106l-189 911l-514 -911h-114l579 1024h125z" />
    <glyph glyph-name="uni043F.loclBGR" horiz-adv-x="1155" 
d="M713 1047q182 0 273.5 -112t60.5 -298l-113 -637h-105l113 637q25 144 -38.5 227.5t-209.5 83.5q-158 0 -276 -104.5t-152 -302.5v2l-96 -543h-102l180 1024h102l-31 -178q145 201 394 201z" />
    <glyph glyph-name="uni0442.loclBGR" horiz-adv-x="1755" 
d="M1346 1047q157 0 246 -106t57 -292l-115 -649h-102l112 649q26 143 -34.5 221t-184.5 78q-128 0 -227 -84t-137 -254l-109 -610h-102l112 649q26 144 -31 221.5t-178 77.5q-135 0 -242 -94.5t-139 -278.5l-102 -575h-102l180 1024h102l-28 -158q72 93 164.5 137t191.5 44
q109 0 186 -53.5t101 -155.5q71 105 173 157t208 52z" />
    <glyph glyph-name="uni0446.loclBGR" horiz-adv-x="1216" 
d="M940 184q-7 -39 12 -61.5t58 -22.5h65l-65 -381h-105l49 283q-61 7 -93.5 52t-26.5 114q-74 -96 -175.5 -143.5t-216.5 -47.5q-183 0 -274 112t-59 298l112 637h103l-111 -637q-25 -144 38.5 -227.5t209.5 -83.5q150 0 265.5 95t156.5 278l100 575h104z" />
    <glyph glyph-name="uni0448.loclBGR" horiz-adv-x="1755" 
d="M1585 1024h103l-181 -1024h-102l29 158q-72 -92 -165 -136.5t-192 -44.5q-109 0 -185.5 53.5t-100.5 155.5q-71 -105 -173 -157t-208 -52q-157 0 -246.5 106t-57.5 292l115 649h103l-113 -649q-26 -143 34.5 -221t184.5 -78q128 0 227.5 84t137.5 254l108 610h103
l-113 -649q-26 -144 31 -221.5t178 -77.5q135 0 242 94.5t139 278.5z" />
    <glyph glyph-name="uni0449.loclBGR" horiz-adv-x="1818" 
d="M1540 184q-6 -40 13 -62t57 -22h67l-67 -374h-103l47 276q-60 8 -92 50t-28 108q-72 -94 -164.5 -138.5t-192.5 -44.5q-108 0 -185 54.5t-101 156.5q-72 -106 -173 -158.5t-208 -52.5q-157 0 -246.5 106t-57.5 292l115 649h103l-113 -649q-26 -143 34.5 -221t184.5 -78
q128 0 227.5 84t137.5 254l108 610h103l-113 -649q-26 -144 31 -221.5t178 -77.5q135 0 242 93t139 277l102 578h103z" />
    <glyph glyph-name="uni044C.loclBGR" horiz-adv-x="987" 
d="M553 680q174 0 266 -104t64 -263q-27 -150 -145.5 -243t-293.5 -93q-122 0 -207.5 51.5t-119.5 133.5t-17 180l121 682h103l-60 -344h289zM780 330q19 113 -47 181.5t-198 68.5h-289l-41 -238q-22 -118 46 -192t206 -74q131 0 216.5 72.5t106.5 181.5z" />
    <glyph glyph-name="uni044A.loclBGR" horiz-adv-x="1157" 
d="M723 680q174 0 266 -104t64 -265q-27 -150 -145.5 -242t-293.5 -92q-122 0 -207.5 51.5t-119.5 133.5t-17 180l103 582h-299l16 100h404l-60 -344h289zM950 328q19 114 -47 183t-198 69h-289l-41 -238q-22 -120 46 -193t206 -73q131 0 216.5 71.5t106.5 180.5z" />
    <glyph glyph-name="uni044E.loclBGR" horiz-adv-x="1644" 
d="M1114 1047q103 0 192.5 -39.5t152 -108.5t89.5 -172.5t6 -222.5q-28 -164 -124.5 -286t-226 -181.5t-271.5 -59.5q-98 0 -184 34.5t-148.5 96t-95 154t-23.5 201.5h-229l-82 -463h-102l251 1434h103l-154 -873h230q36 151 133 263.5t222 167.5t261 55zM1452 516
q17 98 -4.5 180.5t-71.5 136.5t-122.5 84.5t-157.5 30.5q-114 -1 -220.5 -52t-186 -152t-103.5 -232q-16 -99 5 -182.5t71.5 -138t122.5 -85t157 -30.5q115 0 222 51.5t186 153.5t102 235z" />
    <glyph glyph-name="zero.sinf" horiz-adv-x="841" 
d="M272 -352q-158 0 -235 124t-43 318q34 196 147 311t277 115q158 0 235 -124t43 -318q-34 -196 -147 -311t-277 -115zM285 -258q119 0 201.5 89t111.5 251t-22 251t-170 89t-202 -89t-112 -251q-29 -161 23 -250.5t170 -89.5z" />
    <glyph glyph-name="one.sinf" horiz-adv-x="487" 
d="M274 492h80l-145 -820h-98l125 703l-218 -66l-10 90z" />
    <glyph glyph-name="two.sinf" horiz-adv-x="700" 
d="M-80 -328l14 80l414 340q113 89 129 178q11 65 -27 108.5t-114 43.5q-133 0 -211 -139l-80 49q45 84 125.5 134t177.5 50q116 0 179 -72t48 -178q-10 -68 -53 -126t-116 -117l-314 -256h408l-15 -95h-565z" />
    <glyph glyph-name="three.sinf" horiz-adv-x="706" 
d="M592 492l-17 -95l-233 -245q99 -19 147 -88t33 -164q-20 -115 -109.5 -183.5t-224.5 -68.5q-97 0 -161 43.5t-93 122.5l86 43q37 -115 183 -115q93 0 150.5 46t70.5 120q14 73 -28.5 120.5t-133.5 47.5h-6l-37 71l236 250h-394l17 95h514z" />
    <glyph glyph-name="four.sinf" horiz-adv-x="729" 
d="M578 -72l-17 -92h-110l-29 -164h-98l28 164h-436l14 92l408 564h113l-406 -564h324l37 213h98l-37 -213h111z" />
    <glyph glyph-name="five.sinf" horiz-adv-x="669" 
d="M569 399h-376l-58 -225h146q120 0 188.5 -78.5t46.5 -195.5q-20 -117 -107.5 -184.5t-222.5 -67.5q-96 0 -160 43t-92 121l89 45q39 -115 178 -115q87 0 146 45.5t71 120.5q14 80 -28.5 126t-129.5 46h-242l103 412h465z" />
    <glyph glyph-name="six.sinf" horiz-adv-x="694" 
d="M293 205q124 0 197 -84t51 -203q-22 -120 -117.5 -195t-226.5 -75q-126 0 -199 84.5t-51 204.5q15 91 78 157l333 398h123l-250 -291q40 4 62 4zM444 -72q14 82 -33 132.5t-137 50.5q-88 0 -153 -51t-78 -132q-14 -83 32.5 -134.5t135.5 -51.5t153.5 51.5t79.5 134.5z
" />
    <glyph glyph-name="seven.sinf" horiz-adv-x="634" 
d="M31 492h544l-14 -80l-442 -740h-109l439 725h-435z" />
    <glyph glyph-name="eight.sinf" horiz-adv-x="700" 
d="M573 279q-20 -120 -149 -179q60 -33 89.5 -91.5t16.5 -129.5q-20 -108 -109.5 -169.5t-219.5 -61.5q-124 0 -196.5 69t-53.5 177q13 73 62.5 128t121.5 84q-48 31 -73 79.5t-15 107.5q19 106 105.5 164.5t199.5 58.5q105 0 172.5 -65.5t48.5 -171.5zM475 287
q12 64 -26.5 100.5t-112.5 36.5q-76 0 -127.5 -36.5t-63.5 -100.5q-10 -63 30 -101.5t114 -38.5q72 0 124 38.5t62 101.5zM434 -102q12 71 -34 113t-130 42q-88 0 -147.5 -41.5t-71.5 -113.5q-12 -71 32 -113.5t134 -42.5q87 0 146 42.5t71 113.5z" />
    <glyph glyph-name="nine.sinf" horiz-adv-x="694" 
d="M346 516q122 0 197 -85t53 -204q-11 -74 -66 -143l-342 -412h-122l249 293q-30 -6 -65 -6q-122 0 -196 84.5t-52 202.5q22 119 119 194.5t225 75.5zM98 236q-14 -82 33 -132.5t137 -50.5q88 0 153.5 51t78.5 132q14 83 -32.5 134.5t-135.5 51.5t-154 -51.5t-80 -134.5z
" />
    <glyph glyph-name="zero.tf" 
d="M492 -23q-124 0 -216 55t-142 154t-64.5 237t16.5 304q60 337 233.5 533t430.5 196q123 0 215 -55t142 -154t64.5 -236.5t-16.5 -303.5q-60 -338 -233 -534t-430 -196zM508 82q200 0 342 167.5t194 467.5q54 300 -29 467.5t-282 167.5q-200 0 -342 -167.5t-196 -467.5
q-52 -300 30.5 -467.5t282.5 -167.5z" />
    <glyph glyph-name="one.tf" 
d="M606 104h432l-20 -104h-1022l18 104h482l213 1207l-349 -103l-12 97l400 129h92z" />
    <glyph glyph-name="two.tf" 
d="M12 0l17 98l633 477q162 123 255 226.5t113 212.5q26 155 -55.5 246.5t-245.5 91.5q-122 0 -228.5 -66.5t-176.5 -181.5l-88 55q83 139 219.5 218t292.5 79q97 0 177 -32t134 -89t76 -142.5t4 -186.5q-23 -135 -124.5 -254.5t-277.5 -249.5l-536 -398h813l-19 -104h-983z
" />
    <glyph glyph-name="three.tf" 
d="M1174 1434l-19 -103l-461 -493q195 -19 297.5 -134t71.5 -301q-36 -201 -196 -313.5t-390 -112.5q-174 0 -295 80t-155 219l98 52q27 -114 122 -180t240 -66q186 0 312.5 89t152.5 243q28 155 -66 243t-282 88h-29l-34 72l483 514h-770l18 103h902z" />
    <glyph glyph-name="four.tf" 
d="M1094 403l-19 -102h-190l-54 -301h-108l53 301h-766l19 102l725 1031h123l-723 -1031h641l73 422h109l-74 -422h191z" />
    <glyph glyph-name="five.tf" 
d="M1171 1331h-716l-117 -481h305q101 0 185.5 -31.5t143 -88t84 -141.5t7.5 -186q-36 -202 -191.5 -314t-377.5 -112q-169 0 -290 81.5t-155 220.5l96 51q25 -115 121 -181.5t242 -66.5q176 0 297 89t149 243q27 154 -62.5 242.5t-266.5 88.5h-420l168 689h817z" />
    <glyph glyph-name="six.tf" 
d="M641 922q226 0 346.5 -137t83.5 -347q-37 -211 -197 -336t-397 -125q-227 0 -348 136t-84 346q30 167 139 282l629 693h133l-477 -533q79 21 172 21zM963 449q28 165 -60.5 266.5t-279.5 101.5q-214 0 -344 -127l-11 -12q-91 -94 -112 -229q-30 -164 58.5 -265.5
t279.5 -101.5q190 0 314.5 101.5t154.5 265.5z" />
    <glyph glyph-name="seven.tf" 
d="M244 1434h989l-16 -103l-832 -1331h-121l834 1331h-871z" />
    <glyph glyph-name="eight.tf" 
d="M1139 1063q-18 -110 -90 -194.5t-181 -131.5q112 -50 165 -145.5t32 -216.5q-33 -190 -186.5 -294t-386.5 -104q-147 0 -253 49t-155.5 143.5t-26.5 219.5q22 125 107.5 217t218.5 137q-92 51 -135 137.5t-23 196.5q21 121 96 207.5t184.5 129t244.5 42.5
q126 0 221 -45.5t142.5 -136.5t25.5 -211zM633 788q160 0 267 76.5t130 204.5q24 133 -57 208t-240 75q-163 0 -268.5 -74.5t-130.5 -208.5q-23 -128 57 -204.5t242 -76.5zM956 383q24 139 -64 219t-278 80q-192 0 -308 -80t-140 -219q-25 -139 65 -220t277 -81
q190 0 306.5 80.5t141.5 220.5z" />
    <glyph glyph-name="nine.tf" 
d="M764 1456q227 0 347 -135t83 -346q-27 -156 -129 -270l-637 -705h-133l479 532q-92 -20 -176 -20q-224 0 -345.5 135t-84.5 346q37 212 197.5 337.5t398.5 125.5zM1085 985q29 164 -59.5 265.5t-280.5 101.5q-191 0 -316 -101.5t-153 -265.5q-29 -166 59.5 -267.5
t280.5 -101.5q191 0 316 102t153 267z" />
    <glyph glyph-name="zero.dnom" horiz-adv-x="841" 
d="M330 -25q-158 0 -235.5 124.5t-43.5 318.5q34 196 147 311t277 115q158 0 235.5 -124.5t43.5 -318.5q-34 -196 -147 -311t-277 -115zM342 70q119 0 201.5 89t111.5 251t-22 251t-170 89t-201.5 -89t-111.5 -251q-29 -161 22.5 -250.5t169.5 -89.5z" />
    <glyph glyph-name="one.dnom" horiz-adv-x="503" 
d="M332 819h80l-146 -819h-98l125 702l-217 -65l-10 90z" />
    <glyph glyph-name="two.dnom" horiz-adv-x="700" 
d="M-23 0l15 80l414 340q113 89 129 178q11 65 -27.5 108.5t-114.5 43.5q-133 0 -211 -140l-80 49q45 85 126 135t178 50q116 0 179 -72t48 -178q-18 -122 -170 -244l-313 -256h407l-14 -94h-566z" />
    <glyph glyph-name="three.dnom" horiz-adv-x="716" 
d="M651 819l-16 -94l-234 -246q99 -19 147.5 -88t33.5 -164q-20 -115 -109.5 -183.5t-224.5 -68.5q-97 0 -161 43.5t-93 122.5l86 43q36 -114 182 -114q93 0 150.5 46t70.5 120q14 73 -28 120t-133 47h-7l-36 72l235 250h-393l16 94h514z" />
    <glyph glyph-name="four.dnom" horiz-adv-x="729" 
d="M635 256l-17 -92h-110l-29 -164h-98l29 164h-437l15 92l407 563h113l-406 -563h324l37 213h98l-37 -213h111z" />
    <glyph glyph-name="five.dnom" horiz-adv-x="698" 
d="M629 727h-377l-57 -225h145q120 0 188.5 -79t46.5 -196q-20 -118 -107.5 -185t-221.5 -67q-96 0 -160 43t-92 121l88 45q39 -114 178 -114q87 0 146 45.5t71 120.5q14 80 -28.5 126t-129.5 46h-241l102 411h465z" />
    <glyph glyph-name="six.dnom" horiz-adv-x="696" 
d="M352 532q125 0 197.5 -84t50.5 -202q-22 -120 -117.5 -195.5t-226.5 -75.5q-126 0 -199 84.5t-51 204.5q15 92 78 158l334 397h123l-250 -291q40 4 61 4zM504 256q14 82 -32.5 132t-137.5 50q-88 0 -153.5 -50.5t-78.5 -131.5q-14 -83 32.5 -134.5t135.5 -51.5t154 51.5
t80 134.5z" />
    <glyph glyph-name="seven.dnom" horiz-adv-x="632" 
d="M88 819h545l-15 -80l-442 -739h-108l438 725h-434z" />
    <glyph glyph-name="eight.dnom" horiz-adv-x="700" 
d="M631 606q-20 -118 -150 -178q61 -33 90.5 -91.5t16.5 -129.5q-20 -108 -110 -170t-220 -62q-124 0 -196.5 69t-53.5 177q13 73 63 128.5t122 84.5q-49 31 -74 79.5t-15 107.5q19 106 106 164.5t200 58.5q105 0 172.5 -66t48.5 -172zM532 614q12 64 -26.5 101t-112.5 37
q-75 0 -126.5 -37t-63.5 -101q-10 -63 29.5 -101t113.5 -38q72 0 124 38t62 101zM492 225q12 71 -34 113.5t-130 42.5q-88 0 -147.5 -42t-71.5 -114q-12 -71 31.5 -113t133.5 -42q88 0 147 42t71 113z" />
    <glyph glyph-name="nine.dnom" horiz-adv-x="694" 
d="M403 844q122 0 197 -85t53 -204q-11 -76 -65 -143l-342 -412h-123l250 293q-30 -6 -66 -6q-122 0 -196 84t-52 202q22 119 119 195t225 76zM156 563q-14 -82 32.5 -132t137.5 -50q88 0 153 50.5t78 131.5q14 83 -32.5 135t-135.5 52t-153.5 -52t-79.5 -135z" />
    <glyph glyph-name="zero.numr" horiz-adv-x="841" 
d="M438 590q-158 0 -235 124t-43 318q34 196 147 311t277 115q158 0 235 -124t43 -318q-34 -196 -147 -311t-277 -115zM451 684q119 0 201.5 89t111.5 251t-22.5 251t-170.5 89t-201.5 -89t-111.5 -251q-29 -161 23 -250.5t170 -89.5z" />
    <glyph glyph-name="one.numr" horiz-adv-x="503" 
d="M440 1434h80l-145 -820h-99l125 703l-217 -66l-10 90z" />
    <glyph glyph-name="two.numr" horiz-adv-x="700" 
d="M86 614l14 80l414 340q113 89 129 178q11 65 -27 108.5t-114 43.5q-133 0 -211 -139l-80 49q45 84 125.5 134t177.5 50q116 0 179 -72t48 -178q-10 -68 -53 -126t-117 -117l-313 -256h408l-15 -95h-565z" />
    <glyph glyph-name="three.numr" horiz-adv-x="716" 
d="M758 1434l-17 -95l-233 -245q99 -19 147 -88t33 -164q-20 -115 -109.5 -183.5t-224.5 -68.5q-97 0 -161 43.5t-93 122.5l86 43q37 -115 183 -115q93 0 150.5 46t70.5 120q14 73 -28.5 120.5t-133.5 47.5h-6l-37 72l236 249h-394l17 95h514z" />
    <glyph glyph-name="four.numr" horiz-adv-x="729" 
d="M743 870l-16 -92h-111l-28 -164h-99l29 164h-436l14 92l408 564h112l-405 -564h324l36 213h99l-37 -213h110z" />
    <glyph glyph-name="five.numr" horiz-adv-x="696" 
d="M735 1341h-377l-57 -225h145q120 0 189 -78.5t47 -195.5q-20 -117 -107.5 -184.5t-222.5 -67.5q-96 0 -160 43t-92 121l88 45q39 -115 179 -115q87 0 146 45.5t71 120.5q14 80 -28.5 126t-129.5 46h-242l103 412h465z" />
    <glyph glyph-name="six.numr" horiz-adv-x="694" 
d="M459 1147q124 0 197 -84t51 -203q-22 -120 -118 -195t-227 -75q-126 0 -198.5 84.5t-50.5 204.5q15 92 77 157l334 398h123l-250 -291q40 4 62 4zM610 870q14 82 -33 132.5t-137 50.5q-88 0 -153 -51t-78 -132q-14 -83 32.5 -134.5t135.5 -51.5t153.5 51.5t79.5 134.5z
" />
    <glyph glyph-name="seven.numr" horiz-adv-x="632" 
d="M197 1434h544l-14 -80l-442 -740h-109l438 725h-434z" />
    <glyph glyph-name="eight.numr" horiz-adv-x="700" 
d="M739 1221q-20 -120 -149 -179q60 -33 89.5 -91.5t16.5 -129.5q-20 -108 -109.5 -169.5t-219.5 -61.5q-124 0 -196.5 69t-53.5 177q13 73 62.5 129t121.5 84q-49 31 -73.5 79t-14.5 107q19 106 105.5 164.5t199.5 58.5q105 0 172.5 -65.5t48.5 -171.5zM641 1229
q12 64 -26.5 100.5t-112.5 36.5q-76 0 -127.5 -36.5t-63.5 -100.5q-10 -63 30 -101t114 -38q72 0 124 38t62 101zM600 840q12 71 -34 113t-130 42q-88 0 -147.5 -41.5t-71.5 -113.5q-12 -71 32 -113.5t134 -42.5q87 0 146 42.5t71 113.5z" />
    <glyph glyph-name="nine.numr" horiz-adv-x="694" 
d="M512 1458q122 0 197 -85t53 -204q-11 -74 -66 -143l-342 -412h-123l250 293q-30 -6 -65 -6q-122 0 -196 84.5t-52 202.5q22 119 119 194.5t225 75.5zM264 1178q-14 -82 33 -132.5t137 -50.5q88 0 153.5 51t78.5 132q14 83 -32.5 134.5t-135.5 51.5t-154 -51.5t-80 -134.5
z" />
    <glyph glyph-name="zero.sups" horiz-adv-x="841" 
d="M496 918q-158 0 -235.5 124t-43.5 318q34 196 147 311t277 115q158 0 235.5 -124.5t43.5 -318.5q-34 -195 -147 -310t-277 -115zM508 1012q119 0 201.5 89t111.5 251t-22 251t-170 89t-202 -89t-112 -251q-29 -161 23 -250.5t170 -89.5z" />
    <glyph glyph-name="one.sups" horiz-adv-x="505" 
d="M500 1761h80l-146 -819h-98l125 703l-217 -66l-11 90z" />
    <glyph glyph-name="two.sups" horiz-adv-x="700" 
d="M143 942l15 80l413 340q113 89 129 178q11 65 -27 108.5t-114 43.5q-133 0 -211 -140l-80 50q45 84 125.5 134t177.5 50q117 0 180 -72t48 -178q-18 -122 -170 -244l-314 -256h408l-14 -94h-566z" />
    <glyph glyph-name="three.sups" horiz-adv-x="716" 
d="M817 1761l-16 -94l-234 -246q99 -19 147.5 -88t33.5 -164q-20 -115 -109.5 -183t-224.5 -68q-194 0 -254 165l86 43q36 -114 182 -114q93 0 150.5 46t70.5 120q14 73 -28.5 120.5t-133.5 47.5h-6l-37 71l236 250h-393l16 94h514z" />
    <glyph glyph-name="four.sups" horiz-adv-x="729" 
d="M801 1198l-17 -92h-110l-29 -164h-98l28 164h-436l15 92l407 563h113l-406 -563h324l37 213h98l-37 -213h111z" />
    <glyph glyph-name="five.sups" horiz-adv-x="696" 
d="M795 1669h-377l-58 -225h146q120 0 188.5 -79t46.5 -196q-20 -117 -107 -184t-222 -67q-193 0 -252 163l88 45q39 -114 178 -114q87 0 146 45.5t71 120.5q14 80 -28.5 126t-129.5 46h-241l102 411h465z" />
    <glyph glyph-name="six.sups" horiz-adv-x="694" 
d="M518 1475q124 0 197 -84t51 -203q-22 -120 -117.5 -195t-226.5 -75q-126 0 -199 84t-51 204q15 92 78 158l334 397h123l-250 -291q50 5 61 5zM670 1198q14 82 -32.5 132t-137.5 50q-88 0 -153.5 -50.5t-78.5 -131.5q-14 -83 32.5 -134.5t135.5 -51.5t154 51.5t80 134.5z
" />
    <glyph glyph-name="seven.sups" horiz-adv-x="634" 
d="M256 1761h545l-15 -80l-442 -739h-108l438 725h-434z" />
    <glyph glyph-name="eight.sups" horiz-adv-x="700" 
d="M797 1548q-20 -118 -150 -178q61 -33 90.5 -91.5t16.5 -129.5q-20 -108 -110 -169.5t-220 -61.5q-125 0 -197 69t-53 176q13 73 62.5 129t121.5 84q-48 31 -73 79.5t-15 107.5q19 106 105.5 164.5t199.5 58.5q105 0 173 -66t49 -172zM698 1556q12 64 -26.5 101t-112.5 37
q-75 0 -126.5 -37t-63.5 -101q-10 -63 29.5 -101t113.5 -38q72 0 124 38t62 101zM657 1167q12 71 -33.5 113.5t-129.5 42.5q-88 0 -148 -42t-72 -114q-12 -71 32 -113t134 -42q87 0 146 42t71 113z" />
    <glyph glyph-name="nine.sups" horiz-adv-x="694" 
d="M569 1786q122 0 197 -85t53 -204q-11 -76 -65 -143l-342 -412h-123l250 293q-30 -6 -66 -6q-122 0 -196 84.5t-52 202.5q22 119 119 194.5t225 75.5zM322 1505q-14 -82 32.5 -132t137.5 -50q88 0 153 50.5t78 131.5q14 83 -32.5 135t-135.5 52t-153.5 -52t-79.5 -135z
" />
    <glyph glyph-name="cent.tf" 
d="M1083 944q-49 136 -184 184l-416 -833q49 -14 113 -14q123 0 229.5 58.5t171.5 156.5l82 -56q-78 -122 -210 -190t-291 -68q-74 0 -142 21l-100 -203h-88l114 231q-129 65 -191.5 201.5t-33.5 300.5q40 226 216.5 372t406.5 146q50 0 108 -10l97 193h88l-109 -215
q82 -32 140.5 -91t86.5 -137zM410 324l411 823q-34 6 -71 6q-187 0 -331.5 -123t-176.5 -307q-23 -131 22.5 -238t145.5 -161z" />
    <glyph glyph-name="dollar.tf" 
d="M1063 1147q-71 178 -256 201l-105 -586q68 -28 108.5 -47t99 -58t88.5 -79.5t46.5 -104.5t2.5 -139q-33 -165 -162.5 -256.5t-319.5 -100.5l-33 -182h-96l33 185q-166 12 -273.5 88.5t-144.5 207.5l99 50q27 -107 112 -170t225 -72l107 604q-30 12 -53.5 22.5t-52.5 25
t-51 28.5t-47 31.5t-42.5 37t-35 42t-27.5 48t-16.5 54.5t-6 62.5t7.5 70.5q31 159 162 250t297 96l33 182h96l-33 -186q129 -18 213.5 -85.5t122.5 -170.5zM379 1100q-8 -27 -5.5 -53t5.5 -47t15 -41t23 -36t30 -31.5t35.5 -27.5t40 -24.5t44 -22t45.5 -20.5l99 555
q-124 -8 -216.5 -76.5t-115.5 -175.5zM936 346q4 33 6 59.5t-8.5 51.5t-21 44.5t-31.5 38.5t-40.5 33.5t-47.5 29.5t-53 26t-56 24l-100 -569q144 10 236 80t116 182z" />
    <glyph glyph-name="Euro.tf" 
d="M834 1352q-157 0 -278 -119.5t-187 -337.5h520l-17 -90h-528q-3 -12 -18 -88l-13 -76h531l-17 -92h-522q-12 -223 67 -345t236 -122q111 0 209 66t162 188l88 -55q-77 -144 -201 -224t-274 -80q-198 0 -303 155t-94 417h-144l17 92h135q3 42 12 86q4 30 16 78h-135l17 90
h141q78 264 231.5 412.5t362.5 148.5q136 0 235 -78t131 -215l-94 -49q-26 113 -102 175.5t-184 62.5z" />
    <glyph glyph-name="florin.tf" 
d="M805 1182q71 174 190 238.5t269 19.5l-19 -103q-112 43 -199 -1.5t-133 -155.5l-170 -412h314l-19 -100h-336l-340 -826q-71 -174 -189 -238.5t-267 -19.5l16 103q113 -43 199.5 1.5t132.5 155.5l340 824h-307l18 100h330z" />
    <glyph glyph-name="uni20BD.tf" 
d="M844 1434q111 0 199 -59.5t129 -160.5t20 -215q-29 -173 -172.5 -292t-323.5 -119h-370l-37 -213h534l-16 -90h-535l-49 -285h-108l49 285h-182l14 90h184l37 213h-184l18 102h185l131 744h477zM1083 1010q25 133 -50.5 227t-205.5 94h-370l-113 -641h371q130 0 237.5 94
t130.5 226z" />
    <glyph glyph-name="sterling.tf" 
d="M813 1352q-130 0 -221 -80t-117 -228l-61 -348h493l-18 -96h-492l-88 -496h772l-18 -104h-1086l19 104h205l88 496h-164l16 96h164l62 348q35 199 157 305.5t299 106.5q131 0 227 -71t136 -195l-90 -49q-37 103 -104.5 157t-178.5 54z" />
    <glyph glyph-name="yen.tf" 
d="M1303 1434l-609 -729h359l-17 -93h-381l-26 -157h381l-17 -90h-381l-63 -365h-111l66 365h-377l14 90h377l29 157h-377l16 93h355l-351 729h113l320 -664l553 664h127z" />
    <glyph glyph-name="brevecy" horiz-adv-x="600" 
d="M162 1202l16 90h518l-14 -90h-520z" />
    </font>
</defs>
</svg>
